<?xml version="1.0" encoding="utf-8"?>
<!-- Generator: Adobe Illustrator 26.0.1, SVG Export Plug-In . SVG Version: 6.00 Build 0)  -->
<svg version="1.1" id="Слой_1" xmlns:xodm="http://www.corel.com/coreldraw/odm/2003"
	 xmlns="http://www.w3.org/2000/svg" xmlns:xlink="http://www.w3.org/1999/xlink" x="0px" y="0px" viewBox="0 0 532 320"
	 style="enable-background:new 0 0 532 320;" xml:space="preserve">
<style type="text/css">
	.st0{fill:none;stroke:#000000;stroke-width:4.17;stroke-miterlimit:2.2926;}
</style>
<g id="Слой_x0020_1">
	<rect x="140.1" y="246" class="st0" width="119.9" height="36"/>
	<rect x="6.6" y="97.1" class="st0" width="119.9" height="36"/>
	<rect x="140.1" y="24" class="st0" width="119.9" height="36"/>
	<path class="st0" d="M391.9,246v21.6c0,7.9-6.5,14.4-14.4,14.4h-91.1c-7.9,0-14.4-6.5-14.4-14.4V246H391.9z"/>
	<path class="st0" d="M261.2,97.1v16.8c0,10.5-8.6,19.2-19.2,19.2h-81.5c-10.5,0-19.2-8.6-19.2-19.2V97.1H261.2z"/>
	<path class="st0" d="M391.9,60H272c0-9.9,4-18.9,10.6-25.4C289.1,28.1,298.1,24,308,24h48C375.7,24,391.9,40.2,391.9,60z"/>
	<path class="st0" d="M393.5,171v36H285.5c-6.6,0-12-5.4-12-12v-24H393.5z"/>
	<path class="st0" d="M124.9,171v36H29c-13.2,0-24-10.8-24-24v-12H124.9z"/>
	<path class="st0" d="M390.4,97.1v36H289.6c-10.5,0-19.2-8.6-19.2-19.2V97.1H390.4z"/>
	<path class="st0" d="M527.9,183v24H420c-6.6,0-12-5.4-12-12v-24h107.9C522.5,171,527.9,176.4,527.9,183z"/>
	<path class="st0" d="M258.8,195v12h-95.9c-13.2,0-24-10.8-24-24v-12h95.9C248,171,258.8,181.8,258.8,195z"/>
	<path class="st0" d="M524.8,116.3v16.8H424.1c-10.5,0-19.2-8.6-19.2-19.2V97.1h100.7C516.2,97.1,524.8,105.8,524.8,116.3z"/>
</g>
</svg>
