<?xml version="1.0" encoding="utf-8"?>
<!-- Generator: Adobe Illustrator 26.0.1, SVG Export Plug-In . SVG Version: 6.00 Build 0)  -->
<svg version="1.1" id="Слой_1" xmlns:xodm="http://www.corel.com/coreldraw/odm/2003"
	 xmlns="http://www.w3.org/2000/svg" xmlns:xlink="http://www.w3.org/1999/xlink" x="0px" y="0px" viewBox="0 0 532 320"
	 style="enable-background:new 0 0 532 320;" xml:space="preserve">
<style type="text/css">
	.st0{fill:none;stroke:#000000;stroke-width:4.17;stroke-miterlimit:22.9256;}
</style>
<g id="Слой_x0020_1">
	<path class="st0" d="M104.7,280.5v37H30.6v-37c0-20.4,16.7-37,37-37S104.7,260.1,104.7,280.5z"/>
	<path class="st0" d="M104.7,206.3L104.7,206.3c0,20.4-16.7,37.1-37,37.1h-37v-74.1h37C88,169.3,104.7,186,104.7,206.3z"/>
	<path class="st0" d="M178.8,169.3v37c0,20.4-16.7,37-37,37h0c-20.4,0-37-16.7-37-37v-37H178.8z"/>
	<path class="st0" d="M141.7,243.4c-10.2,0-19.4,4.2-26.2,10.9c-6.7,6.7-10.9,16-10.9,26.2c0-20.4-16.7-37-37-37
		c20.4,0,37-16.7,37-37C104.7,226.7,121.4,243.4,141.7,243.4z"/>
	<path class="st0" d="M178.8,243.4v74.1h-37.1c-20.4,0-37-16.7-37-37c0-10.2,4.2-19.5,10.9-26.2c6.7-6.7,16-10.9,26.2-10.9H178.8z"
		/>
	<rect x="192.8" y="243.4" class="st0" width="74.1" height="74.1"/>
	<path class="st0" d="M266.8,206.3v37.1h-37c-20.4,0-37-16.7-37-37v0c0-20.4,16.7-37,37-37S266.8,186,266.8,206.3z"/>
	<path class="st0" d="M341,206.3L341,206.3c0,20.4-16.7,37.1-37,37.1h-37.1v-37.1c0-20.4,16.7-37,37.1-37S341,186,341,206.3z"/>
	<rect x="266.8" y="243.4" class="st0" width="74.1" height="74.1"/>
	<path class="st0" d="M427.3,243.4v37c0,20.4-16.7,37-37,37h0c-20.4,0-37-16.7-37-37c0-10.2,4.2-19.5,10.9-26.2
		c6.7-6.7,16-10.9,26.2-10.9H427.3z"/>
	<path class="st0" d="M427.3,206.3v37.1h-37c-20.4,0-37-16.7-37-37v0c0-20.4,16.7-37,37-37h0C410.6,169.3,427.3,186,427.3,206.3z"/>
	<path class="st0" d="M501.4,206.3L501.4,206.3c0,20.4-16.7,37.1-37,37.1h-37v-37.1c0-20.4,16.7-37,37-37S501.4,186,501.4,206.3z"/>
	<path class="st0" d="M501.4,280.5c0,10.2-4.2,19.5-10.9,26.2c-6.7,6.7-16,10.9-26.2,10.9s-19.5-4.2-26.2-10.9
		c-6.7-6.7-10.9-16-10.9-26.2v-37h37C484.7,243.4,501.4,260.1,501.4,280.5z"/>
	<path class="st0" d="M30.6,76.6h37c20.4,0,37.1,16.7,37.1,37v37H67.6c-20.4,0-37-16.7-37-37C30.6,113.7,30.6,76.6,30.6,76.6z"/>
	<path class="st0" d="M67.6,2.5h37.1v74.1H30.6v-37C30.6,19.2,47.3,2.5,67.6,2.5z"/>
	<path class="st0" d="M104.7,2.5h37.1c20.4,0,37,16.7,37,37v37h-37.1c-20.4,0-37-16.7-37-37C104.7,39.5,104.7,2.5,104.7,2.5z"/>
	<rect x="104.7" y="76.6" class="st0" width="74.1" height="74.1"/>
	<path class="st0" d="M192.8,76.6h37.1c20.4,0,37.1,16.7,37.1,37v37h-37.1c-20.4,0-37.1-16.7-37.1-37
		C192.8,113.7,192.8,76.6,192.8,76.6z"/>
	<path class="st0" d="M229.8,2.5h37.1v37c0,20.4-16.7,37-37.1,37h-37.1v-37C192.8,19.2,209.4,2.5,229.8,2.5z"/>
	<path class="st0" d="M266.9,2.5h37c20.4,0,37,16.7,37,37v37h-37c-20.4,0-37-16.7-37-37V2.5z"/>
	<path class="st0" d="M303.9,76.6h37v37c0,20.4-16.7,37-37,37h-37v-37C266.9,93.3,283.5,76.6,303.9,76.6z"/>
	<path class="st0" d="M390.3,76.6h37v74.1h-74.1v-37C353.2,93.3,369.9,76.6,390.3,76.6z"/>
	<path class="st0" d="M353.2,2.5h37c20.4,0,37,16.7,37,37v37h-74.1V2.5z"/>
	<path class="st0" d="M427.3,2.5h74.1v37c0,20.4-16.7,37-37,37h-37L427.3,2.5L427.3,2.5z"/>
	<path class="st0" d="M427.3,76.6h74.1v74.1h-37c-20.4,0-37-16.7-37-37L427.3,76.6L427.3,76.6z"/>
</g>
</svg>
