<?xml version="1.0" encoding="utf-8"?>
<!-- Generator: Adobe Illustrator 26.0.1, SVG Export Plug-In . SVG Version: 6.00 Build 0)  -->
<svg version="1.1" id="Слой_1" xmlns:xodm="http://www.corel.com/coreldraw/odm/2003"
	 xmlns="http://www.w3.org/2000/svg" xmlns:xlink="http://www.w3.org/1999/xlink" x="0px" y="0px" viewBox="0 0 532 320"
	 style="enable-background:new 0 0 532 320;" xml:space="preserve">
<style type="text/css">
	.st0{fill:none;stroke:#000000;stroke-width:4.17;stroke-miterlimit:22.9256;}
</style>
<g id="Слой_x0020_1">
	<path class="st0" d="M154.5,247.7V230c9.8,0,17.8,7.9,17.8,17.8c0,9.8-7.9,17.8-17.8,17.8V247.7z"/>
	<circle class="st0" cx="190" cy="247.7" r="17.8"/>
	<path class="st0" d="M225.5,247.7v17.8c-9.8,0-17.8-8-17.8-17.8c0-9.8,7.9-17.8,17.8-17.8V247.7z"/>
	<path class="st0" d="M288.6,251.7V234c9.8,0,17.8,7.9,17.8,17.8c0,9.8-7.9,17.8-17.8,17.8V251.7z"/>
	<path class="st0" d="M324.1,251.7l7.5-16.1c6.2,2.9,10.2,9.2,10.2,16.1c0,9.8-8,17.8-17.8,17.8c-2.6,0-5.2-0.6-7.5-1.7L324.1,251.7
		z"/>
	<path class="st0" d="M359.6,251.7l15.4-8.9c1.6,2.7,2.4,5.8,2.4,8.9c0,9.8-8,17.8-17.8,17.8c-6.3,0-12.2-3.4-15.4-8.9L359.6,251.7z
		"/>
	<circle class="st0" cx="297.5" cy="160.7" r="17.8"/>
	<path class="st0" d="M315.2,160.7c0-9.8,8-17.8,17.8-17.8s17.8,7.9,17.8,17.8"/>
	<circle class="st0" cx="368.5" cy="160.7" r="17.8"/>
	<path class="st0" d="M428.5,178.5c-9.8,0-17.8-7.9-17.8-17.8s7.9-17.8,17.8-17.8c9.8,0,17.8,7.9,17.8,17.8"/>
	<path class="st0" d="M481.8,160.7c0,9.8-8,17.8-17.8,17.8s-17.8-7.9-17.8-17.8"/>
	<path class="st0" d="M481.8,160.7c0-9.8,8-17.8,17.8-17.8c9.8,0,17.8,7.9,17.8,17.8s-7.9,17.8-17.8,17.8"/>
	<path class="st0" d="M34.5,160.7h17.8c0,9.8-8,17.8-17.8,17.8c-9.8,0-17.8-7.9-17.8-17.8S24.7,143,34.5,143V160.7z"/>
	<path class="st0" d="M70,160.7H52.2c0-9.8,8-17.8,17.8-17.8s17.8,7.9,17.8,17.8s-7.9,17.8-17.8,17.8V160.7z"/>
	<path class="st0" d="M123.2,160.7c0,9.8-7.9,17.8-17.8,17.8c-9.8,0-17.8-7.9-17.8-17.8"/>
	<path class="st0" d="M154.5,178.5c-9.8,0-17.8-7.9-17.8-17.8s7.9-17.8,17.8-17.8c9.8,0,17.8,7.9,17.8,17.8"/>
	<path class="st0" d="M190,178.5c-9.8,0-17.8-7.9-17.8-17.8S180.2,143,190,143s17.8,7.9,17.8,17.8"/>
	<path class="st0" d="M225.5,178.5c-9.8,0-17.8-7.9-17.8-17.8s7.9-17.8,17.8-17.8c9.8,0,17.8,7.9,17.8,17.8"/>
	<path class="st0" d="M315.2,62.8c0,9.8-8,17.8-17.8,17.8c-9.8,0-17.8-7.9-17.8-17.8H315.2z"/>
	<path class="st0" d="M350.8,62.8c0,9.8-8,17.8-17.8,17.8s-17.8-7.9-17.8-17.8H350.8z"/>
	<path class="st0" d="M386.2,62.8c0,9.8-7.9,17.8-17.8,17.8c-9.8,0-17.8-7.9-17.8-17.8H386.2z"/>
	<circle class="st0" cx="428.4" cy="71.7" r="17.8"/>
	<path class="st0" d="M463.9,71.7l8.9,15.4c-2.7,1.6-5.8,2.4-8.9,2.4c-9.8,0-17.8-7.9-17.8-17.8S454,54,463.9,54
		c3.1,0,6.2,0.8,8.9,2.4L463.9,71.7z"/>
	<path class="st0" d="M517.4,72.9c0,6.3-3.4,12.2-8.9,15.4l-8.9-15.4l8.9-15.4C514,60.7,517.4,66.5,517.4,72.9z"/>
	<path class="st0" d="M34.5,89.5c-9.8,0-17.8-7.9-17.8-17.8c0-9.8,7.9-17.8,17.8-17.8c9.8,0,17.8,7.9,17.8,17.8"/>
	<path class="st0" d="M70,71.7h17.8c0,9.8-7.9,17.8-17.8,17.8s-17.8-7.9-17.8-17.8H70z"/>
	<path class="st0" d="M87.8,71.7c0-9.8,7.9-17.8,17.8-17.8c9.8,0,17.8,7.9,17.8,17.8c0,9.8-7.9,17.8-17.8,17.8"/>
	<path class="st0" d="M155.1,72V54.3c9.8,0,17.8,8,17.8,17.8H155.1z"/>
	<path class="st0" d="M189.4,71.7h17.8c0,9.8-7.9,17.8-17.8,17.8c-9.8,0-17.8-7.9-17.8-17.8H189.4z"/>
	<path class="st0" d="M224.9,71.7h-17.8c0-9.8,7.9-17.8,17.8-17.8V71.7z"/>
</g>
</svg>
