<?xml version="1.0" encoding="utf-8"?>
<!-- Generator: Adobe Illustrator 26.0.1, SVG Export Plug-In . SVG Version: 6.00 Build 0)  -->
<svg version="1.1" id="Слой_1" xmlns:xodm="http://www.corel.com/coreldraw/odm/2003"
	 xmlns="http://www.w3.org/2000/svg" xmlns:xlink="http://www.w3.org/1999/xlink" x="0px" y="0px" viewBox="0 0 532 320"
	 style="enable-background:new 0 0 532 320;" xml:space="preserve">
<style type="text/css">
	.st0{fill:none;stroke:#000000;stroke-width:4.17;stroke-miterlimit:22.9256;}
</style>
<g id="Слой_x0020_1">
	<path class="st0" d="M86.6,282.9H50.7V247C70.5,247,86.6,263,86.6,282.9z"/>
	<path class="st0" d="M50.7,211.1h35.9c0,19.8-16.1,35.9-35.9,35.9C50.7,247,50.7,211.1,50.7,211.1z"/>
	<path class="st0" d="M122.5,211.1V247c-19.8,0-35.9-16.1-35.9-35.9H122.5z"/>
	<path class="st0" d="M122.5,282.9H86.6c0-19.8,16.1-35.9,35.9-35.9V282.9z"/>
	<path class="st0" d="M221.5,281.1h35.9c0,19.8-16.1,35.9-35.9,35.9s-35.9-16.1-35.9-35.9c0-19.8,16.1-35.9,35.9-35.9V281.1z"/>
	<path class="st0" d="M221.5,209.3h35.9c0,19.8-16.1,35.9-35.9,35.9V209.3z"/>
	<path class="st0" d="M293.3,209.3h-35.9c0-19.8,16.1-35.9,35.9-35.9c19.8,0,35.9,16.1,35.9,35.9s-16.1,35.9-35.9,35.9V209.3z"/>
	<path class="st0" d="M293.3,281.1h-35.9c0-19.8,16.1-35.9,35.9-35.9V281.1z"/>
	<path class="st0" d="M397.5,281.1v-35.9c19.8,0,35.9,16.1,35.9,35.9H397.5z"/>
	<path class="st0" d="M433.4,209.3h-35.9v35.9c-19.8,0-35.9-16.1-35.9-35.9c0-19.8,16.1-35.9,35.9-35.9
		C417.3,173.4,433.4,189.5,433.4,209.3z"/>
	<path class="st0" d="M469.3,209.3h-35.9c0-19.8,16.1-35.9,35.9-35.9c19.8,0,35.9,16.1,35.9,35.9s-16.1,35.9-35.9,35.9V209.3z"/>
	<path class="st0" d="M505.2,281.1c0,19.8-16.1,35.9-35.9,35.9c-19.8,0-35.9-16.1-35.9-35.9h35.9v-35.9
		C489.1,245.2,505.2,261.3,505.2,281.1z"/>
	<path class="st0" d="M50.7,112.5v35.9c-19.8,0-35.9-16.1-35.9-35.9s16.1-35.9,35.9-35.9C50.7,76.6,50.7,112.5,50.7,112.5z"/>
	<path class="st0" d="M50.7,40.7V4.8c19.8,0,35.9,16.1,35.9,35.9S70.5,76.6,50.7,76.6C50.7,76.6,50.7,40.7,50.7,40.7z"/>
	<path class="st0" d="M122.5,40.7v35.9c-19.8,0-35.9-16.1-35.9-35.9s16.1-35.9,35.9-35.9V40.7z"/>
	<path class="st0" d="M122.5,112.5V76.6c19.8,0,35.9,16.1,35.9,35.9s-16.1,35.9-35.9,35.9V112.5z"/>
	<path class="st0" d="M221.5,110.7v35.9c-19.8,0-35.9-16.1-35.9-35.9s16.1-35.9,35.9-35.9V110.7z"/>
	<path class="st0" d="M221.5,38.9v35.9c-19.8,0-35.9-16.1-35.9-35.9S201.6,3,221.5,3s35.9,16.1,35.9,35.9
		C257.4,38.9,221.5,38.9,221.5,38.9z"/>
	<path class="st0" d="M329.2,38.9c0,19.8-16.1,35.9-35.9,35.9V38.9h-35.9c0-19.8,16.1-35.9,35.9-35.9C313.1,3,329.2,19.1,329.2,38.9
		z"/>
	<path class="st0" d="M293.3,110.7V74.8c19.8,0,35.9,16.1,35.9,35.9s-16.1,35.9-35.9,35.9V110.7z"/>
	<path class="st0" d="M433.4,110.7c0,19.8-16.1,35.9-35.9,35.9c-19.8,0-35.9-16.1-35.9-35.9c0-19.8,16.1-35.9,35.9-35.9v35.9H433.4z
		"/>
	<path class="st0" d="M433.4,38.9h-35.9v35.9c-19.8,0-35.9-16.1-35.9-35.9c0-19.8,16.1-35.9,35.9-35.9
		C417.3,3,433.4,19.1,433.4,38.9z"/>
	<path class="st0" d="M505.2,38.9c0,19.8-16.1,35.9-35.9,35.9V38.9h-35.9c0-19.8,16.1-35.9,35.9-35.9C489.1,3,505.2,19.1,505.2,38.9
		z"/>
	<rect x="397.5" y="38.9" class="st0" width="71.8" height="71.8"/>
	<path class="st0" d="M505.2,110.7c0,19.8-16.1,35.9-35.9,35.9c-19.8,0-35.9-16.1-35.9-35.9h35.9V74.8
		C489.1,74.8,505.2,90.9,505.2,110.7z"/>
</g>
</svg>
