<?xml version="1.0" encoding="utf-8"?>
<!-- Generator: Adobe Illustrator 26.0.1, SVG Export Plug-In . SVG Version: 6.00 Build 0)  -->
<svg version="1.1" id="Слой_1" xmlns:xodm="http://www.corel.com/coreldraw/odm/2003"
	 xmlns="http://www.w3.org/2000/svg" xmlns:xlink="http://www.w3.org/1999/xlink" x="0px" y="0px" viewBox="0 0 532 320"
	 style="enable-background:new 0 0 532 320;" xml:space="preserve">
<style type="text/css">
	.st0{fill-rule:evenodd;clip-rule:evenodd;stroke:#000000;stroke-width:2.36;stroke-miterlimit:22.9256;}
	.st1{fill-rule:evenodd;clip-rule:evenodd;fill:#FFFFFF;stroke:#000000;stroke-width:2.36;stroke-miterlimit:22.9256;}
	.st2{fill-rule:evenodd;clip-rule:evenodd;fill:#FFFFFF;stroke:#FFFFFF;stroke-width:2.36;stroke-miterlimit:22.9256;}
</style>
<g id="Слой_x0020_1">
	<ellipse transform="matrix(0.5919 -0.806 0.806 0.5919 -15.7354 288.9231)" class="st0" cx="277.4" cy="160" rx="66.7" ry="240"/>
	
		<ellipse transform="matrix(0.5919 -0.806 0.806 0.5919 -27.6201 286.9478)" class="st1" cx="269.5" cy="170.7" rx="53.3" ry="213.4"/>
	<ellipse transform="matrix(0.5919 -0.806 0.806 0.5919 -44.2577 284.1831)" class="st0" cx="258.5" cy="185.8" rx="40" ry="160"/>
	<ellipse transform="matrix(0.5919 -0.806 0.806 0.5919 -53.765 282.6036)" class="st1" cx="252.2" cy="194.4" rx="26.7" ry="120"/>
	<path class="st0" d="M271.1,168.6l50.1,44c-22.8,26-61.7,30.2-89.6,9.7c-27.9-20.5-35.5-58.8-17.5-88.4L271.1,168.6L271.1,168.6z"
		/>
	<path class="st2" d="M268,172.9l31.4,24.8c-13.4,16.9-37.7,20.2-55.1,7.5c-17.4-12.8-21.5-37-9.4-54.8L268,172.9z"/>
</g>
</svg>
