<?xml version="1.0" encoding="UTF-8"?>
<!DOCTYPE svg PUBLIC "-//W3C//DTD SVG 1.1//EN" "http://www.w3.org/Graphics/SVG/1.1/DTD/svg11.dtd">
<!-- Creator: CorelDRAW 2021.5 -->
<svg xmlns="http://www.w3.org/2000/svg" xml:space="preserve" width="532px" height="320px" version="1.1" style="shape-rendering:geometricPrecision; text-rendering:geometricPrecision; image-rendering:optimizeQuality; fill-rule:evenodd; clip-rule:evenodd"
viewBox="0 0 532 320"
 xmlns:xlink="http://www.w3.org/1999/xlink"
 xmlns:xodm="http://www.corel.com/coreldraw/odm/2003">
 <defs>
  <style type="text/css">
   <![CDATA[
    .str0 {stroke:black;stroke-width:2.36;stroke-miterlimit:22.9256}
    .fil0 {fill:black}
    .fil1 {fill:white}
   ]]>
  </style>
 </defs>
 <g id="Слой_x0020_1">
  <metadata id="CorelCorpID_0Corel-Layer"/>
  <g id="_2541209164096">
   <polygon class="fil0 str0" points="124.02,38.8 159.97,74.96 210.99,74.83 210.84,125.83 247.01,161.81 210.84,197.77 210.97,248.78 159.97,248.63 123.99,284.8 88.03,248.63 37.02,248.77 37.17,197.77 1,161.79 37.17,125.83 37.04,74.81 88.03,74.96 "/>
   <polygon class="fil1" points="88.95,74.47 125.16,74.79 161.37,75.1 186.75,100.93 212.13,126.75 211.81,162.96 211.49,199.17 185.67,224.54 159.84,249.92 123.64,249.61 87.43,249.29 62.05,223.47 36.67,197.64 36.99,161.43 37.3,125.23 63.13,99.85 "/>
  </g>
  <g id="_2541209166016">
   <g>
    <polygon class="fil0 str0" points="408.01,35.2 443.97,71.37 494.98,71.23 494.83,122.23 531,158.21 494.83,194.17 494.97,245.19 443.97,245.04 407.98,281.2 372.03,245.04 321.01,245.17 321.16,194.17 284.99,158.19 321.16,122.23 321.03,71.22 372.03,71.37 "/>
    <polygon class="fil1" points="372.95,70.87 409.16,71.19 445.36,71.5 470.74,97.33 496.12,123.16 495.81,159.36 495.49,195.57 469.66,220.95 443.84,246.33 407.63,246.01 371.42,245.7 346.04,219.87 320.67,194.04 320.98,157.84 321.3,121.63 347.12,96.25 "/>
   </g>
   <polygon class="fil0 str0" points="374,76.42 408.58,90.86 443.18,76.42 457.42,111.09 492.09,125.34 477.64,159.92 492.08,194.52 457.42,208.76 443.16,243.43 408.58,228.98 373.98,243.42 359.75,208.76 325.08,194.5 339.52,159.92 325.08,125.32 359.75,111.09 "/>
   <polygon class="fil1" points="362.93,112.34 385.74,103.12 408.56,93.9 431.21,103.52 453.86,113.13 463.08,135.95 472.3,158.76 462.68,181.41 453.07,204.06 430.25,213.28 407.44,222.5 384.79,212.89 362.13,203.27 352.92,180.46 343.7,157.64 353.31,134.99 "/>
   <polygon class="fil0 str0" points="360.59,110.99 388.19,111.07 407.65,91.51 427.11,111.07 454.71,111 454.63,138.6 474.19,158.06 454.63,177.52 454.7,205.12 427.11,205.04 407.64,224.6 388.19,205.04 360.58,205.11 360.66,177.52 341.1,158.05 360.66,138.6 "/>
   <polygon class="fil1" points="357.96,138.29 373.07,123.45 388.18,108.6 409.36,108.79 430.54,108.97 445.38,124.08 460.23,139.19 460.04,160.37 459.86,181.55 444.75,196.39 429.64,211.24 408.46,211.06 387.28,210.87 372.44,195.76 357.59,180.66 357.78,159.48 "/>
   <polygon class="fil0 str0" points="360.32,139.93 380.36,131.7 388.6,111.66 408.58,120 428.58,111.66 436.81,131.7 456.84,139.94 448.5,159.92 456.84,179.92 436.81,188.15 428.57,208.18 408.58,199.84 388.59,208.18 380.36,188.15 360.32,179.91 368.67,159.92 "/>
   <polygon class="fil1" points="368.62,159.48 374.63,145.32 380.64,131.17 394.9,125.41 409.15,119.65 423.31,125.66 437.46,131.67 443.22,145.92 448.98,160.18 442.97,174.33 436.97,188.49 422.71,194.25 408.45,200.01 394.3,194 380.14,187.99 374.38,173.74 "/>
   <polygon class="fil0 str0" points="368.22,159.92 380.09,148.12 380.04,131.38 396.78,131.42 408.59,119.56 420.38,131.42 437.13,131.38 437.08,148.12 448.95,159.93 437.08,171.72 437.12,188.47 420.38,188.42 408.58,200.28 396.78,188.42 380.04,188.46 380.09,171.72 "/>
   <polygon class="fil1" points="379.92,171.42 380.03,159.54 380.13,147.66 388.61,139.33 397.08,131 408.96,131.11 420.84,131.21 429.17,139.68 437.5,148.16 437.4,160.04 437.29,171.92 428.82,180.25 420.34,188.58 408.46,188.47 396.58,188.37 388.25,179.9 "/>
   <polygon class="fil0 str0" points="386.49,169.07 390.31,159.92 386.49,150.77 395.66,147 399.43,137.83 408.58,141.65 417.73,137.83 421.5,147 430.67,150.77 426.85,159.92 430.67,169.07 421.5,172.84 417.73,182.01 408.58,178.19 399.43,182.01 395.66,172.84 "/>
   <polygon class="fil1" points="395.5,172.71 392.87,166.18 390.23,159.66 392.98,153.18 395.73,146.7 402.26,144.06 408.78,141.43 415.26,144.18 421.74,146.93 424.38,153.45 427.02,159.98 424.27,166.46 421.52,172.94 414.99,175.58 408.46,178.21 401.98,175.46 "/>
   <polygon class="fil0 str0" points="396.48,172.02 396.5,164.92 391.47,159.92 396.5,154.92 396.48,147.82 403.58,147.84 408.58,142.81 413.58,147.84 420.68,147.82 420.66,154.92 425.69,159.92 420.66,164.92 420.68,172.02 413.58,172 408.58,177.03 403.58,172 "/>
   <polygon class="fil1" points="403.44,171.96 399.91,168.37 396.38,164.77 396.42,159.74 396.47,154.7 400.06,151.17 403.65,147.64 408.69,147.68 413.72,147.73 417.25,151.32 420.78,154.91 420.74,159.95 420.7,164.98 417.1,168.52 413.51,172.05 408.48,172 "/>
   <polygon class="fil0 str0" points="397.53,164.47 399.45,159.83 397.5,155.2 402.14,153.27 404.03,148.61 408.68,150.53 413.31,148.58 415.23,153.22 419.89,155.11 417.97,159.75 419.93,164.38 415.29,166.31 413.39,170.97 408.75,169.05 404.12,171 402.19,166.36 "/>
   <polygon class="fil1" points="402.11,166.3 400.76,163 399.41,159.7 400.79,156.41 402.17,153.12 405.48,151.77 408.78,150.42 412.07,151.8 415.36,153.18 416.71,156.48 418.06,159.78 416.67,163.07 415.29,166.36 411.99,167.71 408.69,169.06 405.4,167.68 "/>
   <polygon class="fil0 str0" points="401.02,161.17 402.87,158.49 402.27,155.3 405.47,154.72 407.3,152.03 409.98,153.88 413.17,153.28 413.76,156.48 416.44,158.31 414.59,160.98 415.19,164.18 412,164.76 410.16,167.45 407.49,165.6 404.29,166.2 403.71,163 "/>
   <polygon class="fil1" points="403.67,162.95 403.27,160.68 402.87,158.4 404.19,156.52 405.51,154.62 407.79,154.22 410.06,153.82 411.95,155.15 413.84,156.47 414.24,158.74 414.64,161.02 413.32,162.91 412,164.8 409.72,165.2 407.45,165.6 405.56,164.28 "/>
   <polygon class="fil0 str0" points="404.37,161.41 405.17,159.64 404.47,157.83 406.28,157.14 407.07,155.36 408.84,156.15 410.65,155.45 411.34,157.27 413.11,158.05 412.32,159.82 413.02,161.63 411.21,162.32 410.42,164.1 408.65,163.31 406.84,164.01 406.15,162.19 "/>
   <polygon class="fil1" points="406.12,162.17 405.64,160.88 405.15,159.59 405.72,158.33 406.3,157.08 407.59,156.59 408.88,156.11 410.13,156.68 411.39,157.25 411.87,158.54 412.35,159.83 411.78,161.09 411.21,162.34 409.92,162.83 408.63,163.31 407.37,162.74 "/>
  </g>
 </g>
</svg>
