<?xml version="1.0" encoding="utf-8"?>
<!-- Generator: Adobe Illustrator 26.0.1, SVG Export Plug-In . SVG Version: 6.00 Build 0)  -->
<svg version="1.1" id="Слой_1" xmlns:xodm="http://www.corel.com/coreldraw/odm/2003"
	 xmlns="http://www.w3.org/2000/svg" xmlns:xlink="http://www.w3.org/1999/xlink" x="0px" y="0px" viewBox="0 0 532 320"
	 style="enable-background:new 0 0 532 320;" xml:space="preserve">
<style type="text/css">
	.st0{fill-rule:evenodd;clip-rule:evenodd;stroke:#000000;stroke-width:2.36;stroke-miterlimit:22.9256;}
	.st1{fill-rule:evenodd;clip-rule:evenodd;fill:#FFFFFF;stroke:#000000;stroke-width:3.7098;stroke-miterlimit:36.0378;}
	.st2{fill-rule:evenodd;clip-rule:evenodd;stroke:#000000;stroke-width:3.7098;stroke-miterlimit:36.0377;}
	.st3{fill-rule:evenodd;clip-rule:evenodd;fill:#FFFFFF;stroke:#000000;stroke-width:3.7098;stroke-miterlimit:36.0377;}
	.st4{fill-rule:evenodd;clip-rule:evenodd;stroke:#000000;stroke-width:3.7098;stroke-miterlimit:36.0376;}
	.st5{fill-rule:evenodd;clip-rule:evenodd;fill:#FFFFFF;stroke:#000000;stroke-width:3.7098;stroke-miterlimit:36.0376;}
	.st6{fill-rule:evenodd;clip-rule:evenodd;fill:#FFFFFF;stroke:#000000;stroke-miterlimit:10;}
	.st7{fill:#050505;stroke:#000000;stroke-miterlimit:10;}
</style>
<g id="Слой_x0020_1">
	<rect x="157.7" y="51.7" class="st0" width="216.7" height="216.7"/>
	
		<rect x="157.7" y="51.7" transform="matrix(0.238 -0.9713 0.9713 0.238 47.2919 380.2774)" class="st1" width="216.7" height="216.7"/>
	
		<rect x="157.7" y="51.7" transform="matrix(0.6685 -0.7438 0.7438 0.6685 -30.8092 250.8862)" class="st2" width="216.7" height="216.7"/>
	
		<rect x="157.7" y="51.7" transform="matrix(0.8263 -0.5633 0.5633 0.8263 -43.9114 177.6372)" class="st3" width="216.7" height="216.7"/>
	
		<rect x="157.7" y="51.7" transform="matrix(0.9749 -0.2225 0.2225 0.9749 -28.9358 63.2075)" class="st4" width="216.7" height="216.7"/>
	
		<rect x="157.7" y="51.7" transform="matrix(1.587823e-02 -0.9999 0.9999 1.587823e-02 101.797 423.4271)" class="st5" width="216.7" height="216.7"/>
</g>
<rect x="154.6" y="268.3" class="st6" width="2.2" height="0.7"/>
<rect x="374.3" y="269.3" class="st6" width="0.7" height="2.1"/>
<rect x="375.8" y="51" class="st6" width="1.6" height="0.7"/>
<rect x="157" y="48.6" class="st7" width="1.1" height="2.2"/>
</svg>
