<?xml version="1.0" encoding="utf-8"?>
<!-- Generator: Adobe Illustrator 26.0.1, SVG Export Plug-In . SVG Version: 6.00 Build 0)  -->
<svg version="1.1" id="Слой_1" xmlns:xodm="http://www.corel.com/coreldraw/odm/2003"
	 xmlns="http://www.w3.org/2000/svg" xmlns:xlink="http://www.w3.org/1999/xlink" x="0px" y="0px" viewBox="0 0 532 320"
	 style="enable-background:new 0 0 532 320;" xml:space="preserve">
<style type="text/css">
	.st0{fill:none;stroke:#000000;stroke-width:2;stroke-miterlimit:22.9256;}
</style>
<g id="Слой_x0020_1">
	<circle class="st0" cx="274.3" cy="159.3" r="125.3"/>
	<polygon points="312.6,302 298.4,305.3 294.3,287.4 297.9,286.6 301.3,301.4 308.3,299.8 304.9,285 308.5,284.1 	"/>
	<path id="_1" d="M290.5,287.7l1.5,18.3l-5.9,0.5c-2.2,0.2-3.7,0.2-4.4,0.1c-1.1-0.2-2-0.7-2.8-1.6s-1.2-2-1.3-3.5
		c-0.1-1.1,0-2.1,0.4-2.9c0.3-0.8,0.8-1.4,1.4-1.9c0.6-0.5,1.2-0.8,1.8-1c0.9-0.2,2.1-0.4,3.8-0.6l2.4-0.2l-0.6-6.9L290.5,287.7
		L290.5,287.7z M288,303.2l-0.4-5.2l-2,0.2c-1.5,0.1-2.4,0.3-2.9,0.5c-0.5,0.2-0.8,0.6-1.1,1c-0.2,0.4-0.4,0.9-0.3,1.5
		c0.1,0.7,0.3,1.2,0.7,1.6c0.4,0.4,0.9,0.6,1.5,0.7c0.4,0,1.3,0,2.7-0.1L288,303.2L288,303.2z"/>
	<path id="_2" d="M273.7,298c-0.2,1.9-0.6,3.4-1.2,4.6c-0.5,0.9-1.1,1.7-1.9,2.4c-0.8,0.7-1.6,1.2-2.5,1.4c-1.2,0.4-2.5,0.5-4,0.4
		c-2.7-0.2-4.8-1.2-6.3-3c-1.5-1.8-2.1-4.2-1.8-7.2c0.2-2.9,1.2-5.2,3-6.7c1.7-1.5,4-2.2,6.6-2c2.7,0.2,4.8,1.2,6.3,3
		C273.3,292.7,274,295.1,273.7,298L273.7,298z M269.9,297.8c0.2-2.1-0.2-3.7-1-4.8c-0.9-1.1-2-1.8-3.5-1.9c-1.5-0.1-2.7,0.3-3.8,1.3
		c-1,1-1.6,2.5-1.8,4.7c-0.2,2.1,0.2,3.7,1,4.8c0.8,1.1,2,1.7,3.5,1.9c1.5,0.1,2.8-0.3,3.8-1.3S269.7,299.9,269.9,297.8L269.9,297.8
		z"/>
	<polygon id="_3" points="249.6,305.1 246.2,304.3 249,292.4 239,302.6 235.4,301.8 239.6,284 242.9,284.7 240.2,296.4 250.2,286.4 
		253.8,287.3 	"/>
	<path id="_4" d="M229.2,294.7l3.2,1.9c-1.7,2.6-4.2,3.3-7.7,2.2c-2-0.7-3.4-1.6-4.2-2.9c-0.7-1.2-0.9-2.5-0.5-3.7
		c0.3-0.8,0.8-1.5,1.5-2c0.7-0.5,1.6-0.9,2.7-1c-1-0.8-1.7-1.6-2-2.5c-0.3-0.9-0.3-1.9,0-3c0.5-1.5,1.5-2.6,2.9-3.1
		c1.4-0.6,3.3-0.5,5.5,0.3c1.8,0.6,3.2,1.4,4,2.3c0.8,1,1.3,2.3,1.2,4.2l-3.6,0c0-1.2-0.2-2-0.6-2.5c-0.4-0.5-1.1-0.9-1.9-1.1
		c-1.1-0.4-2-0.4-2.7-0.1c-0.7,0.3-1.1,0.8-1.3,1.4c-0.2,0.7-0.1,1.4,0.3,2c0.4,0.6,1.2,1.1,2.4,1.5l0.8,0.3l-0.9,2.6l-0.4-0.1
		c-1.1-0.4-2-0.4-2.7-0.1c-0.7,0.3-1.2,0.8-1.5,1.6c-0.2,0.6-0.2,1.2,0.2,1.8c0.3,0.6,0.9,1,1.8,1.3
		C227.2,296.4,228.4,296,229.2,294.7L229.2,294.7z"/>
	<path id="_5" d="M212.5,293.5l-6.5-3.3c-1.3-0.7-2.2-1.2-2.8-1.6c-0.6-0.4-1-0.9-1.4-1.5c-0.3-0.6-0.5-1.3-0.6-2
		c0-0.7,0.1-1.5,0.5-2.2c0.4-0.8,1-1.4,1.7-1.8c0.7-0.4,1.5-0.6,2.4-0.6c-0.8-0.8-1.4-1.7-1.5-2.7c-0.2-1,0-1.9,0.5-2.9
		c0.4-0.7,0.9-1.4,1.6-1.9c0.7-0.5,1.5-0.8,2.3-1c0.8-0.1,1.7,0,2.6,0.4c0.6,0.2,1.9,0.9,4,1.9l5.6,2.9L212.5,293.5L212.5,293.5z
		 M210.6,289.1l1.9-3.8l-2.2-1.1c-1.3-0.7-2.1-1-2.4-1.2c-0.6-0.2-1.1-0.3-1.6-0.1c-0.5,0.2-0.9,0.5-1.1,1c-0.3,0.5-0.3,1-0.2,1.4
		c0.1,0.5,0.4,0.9,0.9,1.2c0.3,0.2,1.2,0.7,2.8,1.5L210.6,289.1L210.6,289.1z M213.9,282.6l2.2-4.4l-3.1-1.6c-1.2-0.6-2-1-2.3-1.1
		c-0.5-0.2-1-0.2-1.5,0c-0.5,0.2-0.9,0.6-1.2,1.1c-0.3,0.5-0.4,1-0.3,1.4c0.1,0.5,0.3,0.9,0.6,1.3c0.4,0.4,1.3,1,2.8,1.7
		L213.9,282.6L213.9,282.6z"/>
	<path id="_6" d="M200.4,276.5c-1.1,1.5-2.2,2.6-3.4,3.3c-0.9,0.5-1.8,0.9-2.9,1c-1,0.2-2,0.2-2.9,0c-1.2-0.3-2.4-0.9-3.6-1.7
		c-2.2-1.6-3.5-3.5-3.8-5.8c-0.3-2.3,0.4-4.7,2.1-7.1c1.7-2.4,3.8-3.8,6-4.2c2.3-0.4,4.5,0.2,6.7,1.8c2.2,1.6,3.5,3.5,3.8,5.8
		C202.9,271.8,202.2,274.1,200.4,276.5L200.4,276.5z M197.3,274.4c1.2-1.7,1.8-3.2,1.6-4.7c-0.2-1.4-0.8-2.6-2-3.4
		c-1.2-0.9-2.5-1.1-3.9-0.8s-2.7,1.3-4,3c-1.2,1.7-1.8,3.2-1.6,4.6c0.1,1.4,0.8,2.5,2.1,3.4c1.2,0.9,2.5,1.2,3.9,0.9
		C194.7,277.1,196,276.1,197.3,274.4L197.3,274.4z"/>
	<path id="_7" d="M175.8,269.3l-9.2-8.7l10.5-11.1l-1.2-1.1l4.9-5.1l2.2,2.1l-2.7,2.9l8.4,7.9l2.7-2.9l2.2,2.1l-4.9,5.1l-1.1-1.1
		c-1.6,0.6-3.2,1.6-4.8,2.9c-1.6,1.3-3.5,3.2-5.7,5.5L175.8,269.3L175.8,269.3z M175.3,264.7c3.8-4.1,7-6.7,9.5-7.8l-5.1-4.8
		l-8.4,8.9L175.3,264.7z"/>
	<path id="_8" d="M164,239.1l-1.3-3.5c1.9-0.8,3.6-1,5.2-0.6c1.6,0.4,2.9,1.4,4.2,2.9c1.5,1.9,2.1,4,1.8,6.3
		c-0.3,2.3-1.6,4.3-3.9,6.1c-2.4,1.9-4.7,2.7-7,2.5c-2.3-0.2-4.2-1.3-5.8-3.3c-1.4-1.8-2-3.6-1.8-5.5c0.1-1.1,0.6-2.3,1.5-3.6l3,2.3
		c-0.6,0.8-0.9,1.6-0.9,2.5c0,0.9,0.3,1.7,0.9,2.5c0.8,1.1,1.9,1.6,3.2,1.7c1.3,0.1,2.8-0.6,4.5-1.9c1.8-1.4,2.9-2.8,3.1-4
		c0.3-1.3,0-2.4-0.9-3.5c-0.6-0.8-1.4-1.2-2.3-1.4C166.3,238.3,165.2,238.5,164,239.1L164,239.1z"/>
	<polygon id="_9" points="163.7,226.3 150.5,233.9 153.2,238.6 150.5,240.1 143.2,227.5 145.9,225.9 148.6,230.6 161.8,223.1 	"/>
	<path id="_10" d="M141.4,223.8l-3.1-6.7c-0.6-1.3-1-2.3-1.2-3c-0.2-0.7-0.2-1.4-0.1-2.1c0.1-0.7,0.4-1.3,0.8-1.9
		c0.4-0.6,1-1.1,1.7-1.4c0.8-0.4,1.6-0.5,2.4-0.4c0.8,0.1,1.6,0.5,2.3,1c-0.2-1.2,0-2.2,0.4-3c0.5-0.9,1.2-1.5,2.1-2
		c0.8-0.4,1.6-0.5,2.5-0.5c0.9,0,1.7,0.2,2.4,0.7c0.7,0.4,1.3,1,1.8,1.9c0.3,0.5,1,1.9,2,4l2.6,5.7L141.4,223.8L141.4,223.8z
		 M142.7,219.2l3.9-1.8l-1-2.2c-0.6-1.3-1-2.1-1.2-2.4c-0.3-0.5-0.7-0.9-1.2-1.1c-0.5-0.2-1-0.1-1.5,0.1c-0.5,0.2-0.9,0.6-1.1,1
		c-0.2,0.4-0.2,0.9,0,1.5c0.1,0.4,0.5,1.3,1.3,2.9C141.8,217.2,142.7,219.2,142.7,219.2z M149.3,216.1l4.5-2l-1.4-3.1
		c-0.6-1.2-0.9-2-1.2-2.3c-0.3-0.5-0.7-0.8-1.2-0.9c-0.5-0.2-1-0.1-1.6,0.2c-0.5,0.2-0.9,0.5-1.1,0.9c-0.2,0.4-0.3,0.9-0.3,1.4
		c0,0.5,0.4,1.6,1.1,3.1L149.3,216.1L149.3,216.1z"/>
	<path id="_11" d="M142.8,202.8c-1.8,0.5-3.4,0.7-4.8,0.5c-1-0.2-2-0.5-2.9-1c-0.9-0.5-1.7-1.1-2.2-1.8c-0.8-1-1.4-2.2-1.8-3.6
		c-0.7-2.6-0.5-4.9,0.7-6.9c1.2-2,3.2-3.4,6.1-4.2c2.9-0.8,5.3-0.6,7.3,0.4c2,1.1,3.4,2.9,4.1,5.6c0.7,2.6,0.5,4.9-0.6,6.9
		C147.6,200.6,145.6,202,142.8,202.8L142.8,202.8z M141.7,199.1c2-0.6,3.4-1.4,4.2-2.7c0.8-1.2,1-2.5,0.6-4
		c-0.4-1.4-1.2-2.4-2.5-3.1c-1.3-0.6-2.9-0.6-5-0.1c-2,0.6-3.4,1.4-4.2,2.6c-0.8,1.2-0.9,2.5-0.5,4c0.4,1.5,1.2,2.5,2.5,3.1
		C138,199.7,139.7,199.7,141.7,199.1z"/>
	<polygon id="_12" points="142.8,169.4 138,169.8 138.4,174.6 135.1,174.9 134.7,170.1 130,170.5 129.7,167.3 134.5,166.9 
		134.1,162.1 137.4,161.8 137.8,166.6 142.5,166.2 	"/>
	<polygon id="_13" points="126.9,148.7 128.7,134.2 146.9,136.6 146.5,140.3 131.3,138.3 130.4,145.4 145.5,147.4 145.1,151.1 	"/>
	<path id="_14" d="M138.5,131.1c-1.8-0.5-3.2-1.2-4.3-2.1c-0.8-0.6-1.4-1.4-2-2.3c-0.5-0.9-0.8-1.8-1-2.7c-0.2-1.2,0-2.6,0.4-4
		c0.7-2.6,2.1-4.5,4.2-5.6c2.1-1.1,4.5-1.3,7.4-0.5c2.9,0.8,4.9,2.2,6,4.2c1.2,2,1.4,4.3,0.7,6.9c-0.7,2.6-2.1,4.5-4.2,5.6
		C143.7,131.7,141.3,131.9,138.5,131.1z M139.4,127.4c2,0.6,3.6,0.5,4.9-0.1c1.3-0.6,2.1-1.7,2.5-3.1c0.4-1.4,0.2-2.7-0.6-3.9
		c-0.8-1.2-2.2-2.1-4.2-2.7c-2-0.6-3.7-0.5-4.9,0.1c-1.2,0.6-2.1,1.6-2.5,3.1c-0.4,1.5-0.2,2.8,0.5,4
		C136,126,137.4,126.8,139.4,127.4z"/>
	<path id="_15" d="M151.8,100.2l2.5-2.8c1.6,1.3,2.6,2.8,2.9,4.3c0.4,1.6,0.1,3.2-0.7,5c-1,2.2-2.6,3.7-4.8,4.4
		c-2.2,0.7-4.6,0.5-7.2-0.7c-2.8-1.3-4.6-3-5.5-5.1c-0.9-2.1-0.8-4.4,0.3-6.7c0.9-2,2.3-3.4,4.1-4.1c1.1-0.4,2.3-0.5,3.8-0.3
		l-0.7,3.7c-1-0.2-1.8-0.1-2.6,0.3c-0.8,0.4-1.4,1-1.8,1.9c-0.6,1.2-0.6,2.5,0,3.6c0.5,1.2,1.8,2.2,3.8,3.1c2.1,1,3.8,1.3,5,0.9
		c1.2-0.3,2.1-1.1,2.7-2.3c0.4-0.9,0.5-1.8,0.2-2.7C153.6,101.9,152.9,101,151.8,100.2z"/>
	<polygon id="_16" points="162.7,93.9 149.5,86.3 146.8,91 144.1,89.5 151.4,76.9 154.1,78.4 151.4,83.1 164.6,90.7 	"/>
	<path id="_17" d="M178.1,72.5l-2.5,3.2l-4.3-1.3l-4.5,5.8l2.3,3.8l-2.4,3.1l-10-16.9l2.4-3.1L178.1,72.5L178.1,72.5z M168.2,73.3
		l-6.9-2.2l3.8,6.2L168.2,73.3z"/>
	<path id="_18" d="M167,57.7l5.3-5c1.1-1,1.9-1.7,2.5-2.1c0.6-0.4,1.2-0.6,1.9-0.8c0.7-0.1,1.4-0.1,2.1,0.1c0.7,0.2,1.3,0.6,1.9,1.2
		c0.6,0.6,1,1.4,1.1,2.2c0.2,0.8,0.1,1.7-0.3,2.5c1-0.5,2-0.7,3-0.6c1,0.2,1.8,0.6,2.5,1.4c0.6,0.6,1,1.3,1.2,2.2
		c0.3,0.8,0.3,1.7,0.1,2.5c-0.2,0.8-0.6,1.6-1.2,2.3c-0.4,0.5-1.5,1.5-3.2,3.2l-4.5,4.3L167,57.7L167,57.7z M171.8,57.4l2.9,3.1
		l1.8-1.7c1-1,1.7-1.6,1.9-1.9c0.4-0.5,0.6-1,0.6-1.5c0-0.5-0.2-1-0.6-1.4c-0.4-0.4-0.8-0.6-1.3-0.7c-0.5,0-1,0.1-1.5,0.5
		c-0.3,0.2-1.1,0.9-2.3,2.1C173.3,55.9,171.8,57.4,171.8,57.4z M176.8,62.7l3.4,3.6l2.5-2.3c1-0.9,1.6-1.5,1.8-1.8
		c0.3-0.4,0.5-0.9,0.5-1.5c0-0.5-0.2-1-0.7-1.5c-0.4-0.4-0.8-0.6-1.2-0.7c-0.5-0.1-0.9,0-1.4,0.2c-0.5,0.2-1.3,0.9-2.6,2.1
		C178.9,60.6,176.8,62.7,176.8,62.7z"/>
	<path id="_19" d="M182.4,43.5l3-2.2l4.6,6.3c0.6-0.6,0.9-1,1-1.5c0-0.4-0.2-1.5-0.6-3.1c-0.5-2.1-0.6-3.5-0.3-4.4
		c0.3-0.8,1.2-1.8,2.6-2.8c0.1,0,0.2-0.2,0.4-0.3l1.6,2.2l-0.4,0.3c-0.6,0.4-1,0.8-1.2,1.2c-0.2,0.4-0.2,0.8-0.2,1.2
		c0.1,0.4,0.3,1.3,0.6,2.5c0.2,0.6,0.3,1.2,0.3,1.7c0,0.5-0.1,1.1-0.4,1.8c0.8-0.3,1.6-0.3,2.5,0c0.8,0.3,1.9,0.7,3.2,1.4l5,2.6
		l-3.5,2.6l-4.6-2.6c-0.1,0-0.2-0.1-0.4-0.2c-0.1,0-0.4-0.2-0.9-0.4c-0.9-0.4-1.6-0.7-1.9-0.7c-0.4,0-0.8,0.2-1.3,0.5l4.7,6.5
		l-3,2.2L182.4,43.5L182.4,43.5z"/>
	<path id="_20" d="M220.2,41.2l-3.5,2l-3.5-2.8l-6.4,3.7l0.8,4.4l-3.4,2l-2.9-19.5l3.4-1.9C204.7,29,220.2,41.2,220.2,41.2z
		 M210.7,38.3l-5.6-4.6l1.2,7.1L210.7,38.3z"/>
	<polygon id="_21" points="231.8,34.4 230.3,29.9 225.8,31.4 224.7,28.3 229.3,26.7 227.7,22.2 230.8,21.2 232.3,25.7 236.9,24.2 
		237.9,27.3 233.3,28.8 234.9,33.3 	"/>
	<polygon id="_22" points="250.1,32.6 247.7,14.4 253.2,13.7 258.1,25.7 259.8,12.9 265.3,12.2 267.6,30.4 264.2,30.8 262.4,16.5 
		260.6,31.3 257.1,31.7 251.6,17.8 253.5,32.2 	"/>
	<path id="_23" d="M270.8,20.8c0-1.9,0.3-3.4,0.9-4.7c0.4-0.9,1-1.8,1.8-2.5c0.7-0.7,1.5-1.3,2.4-1.6c1.1-0.5,2.5-0.7,4-0.6
		c2.7,0.1,4.9,0.9,6.4,2.7c1.6,1.7,2.4,4.1,2.3,7c-0.1,3-0.9,5.3-2.5,6.9c-1.6,1.6-3.8,2.4-6.5,2.4c-2.7-0.1-4.9-0.9-6.5-2.6
		C271.5,26,270.7,23.7,270.8,20.8L270.8,20.8z M274.6,20.7c0,2.1,0.4,3.7,1.3,4.7c0.9,1.1,2.1,1.6,3.6,1.7c1.5,0,2.7-0.5,3.7-1.5
		c1-1,1.5-2.6,1.5-4.7c0-2.1-0.4-3.7-1.3-4.7c-0.9-1.1-2.1-1.6-3.6-1.6c-1.5,0-2.8,0.5-3.7,1.5C275.1,17,274.6,18.6,274.6,20.7
		L274.6,20.7z"/>
	<polygon id="_24" points="291.3,30.9 294.6,12.9 298.3,13.6 296.9,20.7 304.1,22 305.4,14.9 309,15.6 305.7,33.6 302,32.9 
		303.5,25.1 296.4,23.7 294.9,31.6 	"/>
	<polygon id="_25" points="313.3,35.9 318.1,21.4 313,19.7 314,16.8 327.8,21.4 326.8,24.3 321.6,22.6 316.8,37.1 	"/>
	<path id="_26" d="M337.7,46.1l-3.7-1.7l0.3-4.5l-6.7-3.1l-3.1,3.2l-3.6-1.6l14.1-13.7l3.6,1.6C338.7,26.4,337.7,46.1,337.7,46.1z
		 M334.5,36.7l0.5-7.2l-5.1,5.2L334.5,36.7z"/>
	<path id="_27" d="M359.6,38.9l-4.6,6.3c0.5,0.3,1,0.4,1.5,0.3c0.5-0.2,1.4-0.6,2.7-1.5c1.7-1.1,3-1.7,4-1.6c0.9,0,2.1,0.6,3.5,1.6
		c0.1,0,0.2,0.2,0.4,0.3l-1.6,2.2l-0.4-0.3c-0.6-0.4-1.1-0.7-1.5-0.7c-0.4-0.1-0.8,0-1.2,0.2c-0.4,0.2-1.1,0.6-2.2,1.3
		c-0.6,0.4-1.1,0.7-1.5,0.9c-0.5,0.2-1.1,0.2-1.8,0.2c0.5,0.7,0.8,1.5,0.8,2.3c0,0.9-0.1,2-0.3,3.5l-0.9,5.5l-3.5-2.6l1-5.1
		c0-0.1,0-0.2,0.1-0.4c0-0.1,0.1-0.5,0.1-1c0.1-1,0.2-1.7,0.1-2c-0.1-0.4-0.3-0.7-0.7-0.9l-4.7,6.5l-2.9-2.1l4.7-6.5
		c-0.3-0.2-0.7-0.4-1.1-0.4c-0.4,0-1,0.2-1.9,0.7c-0.5,0.2-0.8,0.4-0.9,0.4c-0.1,0.1-0.3,0.1-0.4,0.2l-4.6,2.5l-3.5-2.6l5-2.6
		c1.2-0.6,2.3-1.1,3.1-1.4c0.9-0.3,1.7-0.3,2.5,0c-0.3-0.7-0.5-1.3-0.4-1.8c0-0.5,0.1-1.1,0.3-1.7c0.4-1.2,0.6-2,0.6-2.5
		c0.1-0.4,0-0.8-0.2-1.2c-0.2-0.4-0.6-0.8-1.2-1.2c-0.1-0.1-0.2-0.2-0.4-0.3l1.6-2.2c0.2,0.2,0.4,0.3,0.4,0.3c1.4,1.1,2.3,2,2.6,2.9
		c0.3,0.9,0.2,2.3-0.3,4.2c-0.4,1.5-0.6,2.5-0.6,3.1c0,0.5,0.3,1,0.7,1.4l4.6-6.3L359.6,38.9L359.6,38.9z"/>
	<polygon id="_28" points="368.2,66.6 371.7,63.3 368.4,59.8 370.8,57.5 374.1,61 377.5,57.8 379.7,60.1 376.3,63.4 379.6,66.9 
		377.2,69.1 373.9,65.6 370.4,68.9 	"/>
	<path id="_29" d="M385.6,76.4c1.6-1,3.1-1.6,4.4-1.8c1-0.2,2-0.1,3,0.1c1,0.2,1.9,0.6,2.7,1.1c1,0.7,1.9,1.7,2.7,3
		c1.4,2.3,1.9,4.6,1.3,6.8c-0.6,2.3-2.1,4.2-4.6,5.8c-2.5,1.6-4.9,2.1-7.2,1.7c-2.3-0.5-4.1-1.8-5.6-4.1c-1.5-2.3-1.9-4.6-1.4-6.8
		C381.6,79.9,383.1,78,385.6,76.4L385.6,76.4z M387.7,79.6c-1.8,1.1-2.8,2.3-3.2,3.7c-0.4,1.4-0.2,2.7,0.6,3.9
		c0.8,1.2,1.9,2,3.3,2.2c1.4,0.2,3-0.2,4.8-1.4c1.8-1.1,2.9-2.3,3.2-3.7c0.4-1.3,0.2-2.7-0.6-3.9c-0.8-1.3-1.9-2.1-3.3-2.3
		C391.1,78,389.5,78.5,387.7,79.6z"/>
	<path id="_30" d="M405.6,91.5l5.7,12.5l-2.8,1.3l-4.2-9.1l-3.9,1.8l2.1,4.5c0.6,1.2,0.9,2.3,1,3.3c0.1,1-0.2,1.9-0.7,2.9
		c-0.6,1-1.4,1.7-2.5,2.2c-1.1,0.5-2.2,0.7-3.3,0.5c-1.1-0.2-1.9-0.6-2.6-1.2c-0.6-0.6-1.3-1.6-1.9-3l-3.6-7.9L405.6,91.5
		L405.6,91.5z M393.3,101.2l1.5,3.3c0.5,1,0.9,1.8,1.2,2.1c0.3,0.4,0.7,0.6,1.2,0.8c0.5,0.2,1,0.1,1.6-0.1c0.8-0.4,1.2-0.9,1.3-1.6
		c0.1-0.7-0.2-1.7-0.8-3.1l-1.6-3.4L393.3,101.2L393.3,101.2z"/>
	<path id="_31" d="M406,124.8l-0.1,3.8c-2.1,0-3.7-0.5-5-1.4c-1.3-1-2.2-2.4-2.7-4.3c-0.7-2.4-0.4-4.5,0.8-6.5c1.2-2,3.2-3.3,6-4.1
		c2.9-0.8,5.4-0.7,7.5,0.4c2.1,1.1,3.4,2.8,4.1,5.3c0.6,2.2,0.5,4.1-0.4,5.8c-0.5,1-1.4,1.9-2.7,2.7l-1.8-3.3
		c0.9-0.5,1.5-1.1,1.8-1.9s0.4-1.7,0.1-2.6c-0.4-1.3-1.1-2.2-2.3-2.8c-1.2-0.6-2.8-0.5-4.9,0.1c-2.2,0.6-3.7,1.5-4.4,2.5
		s-0.9,2.2-0.6,3.5c0.3,0.9,0.8,1.7,1.6,2.2C403.5,124.7,404.6,124.9,406,124.8L406,124.8z"/>
	<path id="_32" d="M419.7,131.5l1.6,12.8l-18.2,2.3l-0.5-3.7l15.1-1.9l-0.7-5.5l-7.8,1c-2.2,0.3-3.8,0.4-4.7,0.4
		c-0.9,0-1.6-0.3-2.2-0.8c-0.6-0.5-0.9-1.4-1.1-2.6c-0.1-0.4-0.1-1.2-0.2-2.4l2.8-0.4l0.1,0.8c0.1,0.8,0.3,1.3,0.5,1.5
		c0.2,0.2,0.8,0.3,1.6,0.2l3.1-0.4L419.7,131.5L419.7,131.5z"/>
	<path id="_33" d="M421.7,148.2l0.1,4.1l-9.4,4.5l9.6,3.5l0.1,3.9l-14-5.9c-1.5-0.6-2.7-1.3-3.5-2c-0.8-0.7-1.2-1.6-1.2-2.7
		c0-1.1,0-1.9,0.2-2.6l2.8-0.1c0,0.5,0,1,0,1.4c0,0.9,0.2,1.5,0.5,1.8c0.3,0.4,1,0.7,2,1L421.7,148.2L421.7,148.2z"/>
	<path id="_34" d="M420.5,180.1l-7.8-1c0,0.6,0.1,1.1,0.5,1.5c0.4,0.4,1.2,0.9,2.6,1.7c1.8,1,2.9,1.9,3.3,2.7
		c0.4,0.8,0.5,2.1,0.3,3.9c0,0.1,0,0.3-0.1,0.5l-2.7-0.4l0.1-0.5c0.1-0.7,0.1-1.3-0.1-1.7c-0.1-0.4-0.4-0.7-0.7-1
		c-0.4-0.3-1.1-0.7-2.2-1.3c-0.6-0.3-1.1-0.6-1.5-0.9c-0.4-0.3-0.7-0.8-1-1.5c-0.4,0.8-0.9,1.4-1.7,1.9c-0.8,0.4-1.8,0.9-3.2,1.4
		l-5.3,1.8l0.6-4.3l5-1.6c0.1,0,0.2-0.1,0.4-0.2c0.1,0,0.4-0.2,0.9-0.3c0.9-0.4,1.5-0.7,1.8-0.9c0.3-0.3,0.4-0.6,0.5-1.1l-8-1
		l0.5-3.6l8,1c0.1-0.4,0-0.8-0.2-1.1c-0.2-0.3-0.7-0.8-1.5-1.4c-0.5-0.3-0.7-0.5-0.8-0.6c-0.1-0.1-0.2-0.2-0.4-0.3l-4.4-2.8l0.6-4.3
		l4.7,3.1c1.2,0.8,2.1,1.5,2.7,2.1c0.6,0.6,1,1.4,1.2,2.3c0.5-0.6,0.9-1,1.4-1.2c0.4-0.2,1-0.4,1.7-0.5c1.2-0.3,2-0.5,2.4-0.6
		c0.4-0.2,0.7-0.4,1-0.7c0.2-0.3,0.4-0.9,0.5-1.7c0-0.1,0-0.3,0-0.5l2.7,0.4c0,0.3-0.1,0.4-0.1,0.5c-0.2,1.8-0.6,3-1.3,3.7
		c-0.6,0.7-1.9,1.3-3.9,1.7c-1.5,0.4-2.5,0.7-3,0.9c-0.4,0.3-0.7,0.7-0.9,1.3l7.7,1L420.5,180.1L420.5,180.1z"/>
	<polygon id="_35" points="417.9,194.2 417,197.6 405.2,194.3 415,204.7 414,208.3 396.4,203.4 397.3,200 408.8,203.2 399.3,192.9 
		400.3,189.3 	"/>
	<path id="_36" d="M411.4,214.5l-3.1,6.7c-0.6,1.3-1.1,2.3-1.5,2.9c-0.4,0.6-0.9,1.1-1.5,1.4c-0.6,0.4-1.2,0.6-2,0.6
		c-0.7,0.1-1.5,0-2.2-0.4c-0.8-0.4-1.4-0.9-1.9-1.6c-0.5-0.7-0.7-1.5-0.7-2.4c-0.8,0.9-1.6,1.4-2.6,1.6c-1,0.2-1.9,0.1-2.9-0.3
		c-0.8-0.3-1.4-0.9-2-1.5c-0.6-0.7-0.9-1.4-1.1-2.2c-0.1-0.8-0.1-1.7,0.2-2.6c0.2-0.6,0.8-2,1.7-4.1l2.6-5.7L411.4,214.5
		L411.4,214.5z M407.1,216.6l-3.9-1.8l-1,2.2c-0.6,1.3-0.9,2.1-1.1,2.5c-0.2,0.6-0.2,1.2,0,1.6c0.2,0.5,0.5,0.8,1.1,1.1
		c0.5,0.2,1,0.3,1.4,0.2c0.4-0.1,0.8-0.5,1.2-1c0.2-0.3,0.6-1.3,1.4-2.9L407.1,216.6L407.1,216.6z M400.5,213.5l-4.5-2l-1.4,3.1
		c-0.6,1.2-0.9,2-1,2.4c-0.1,0.5-0.1,1,0.1,1.5c0.2,0.5,0.6,0.8,1.2,1.1c0.5,0.2,1,0.3,1.4,0.2c0.5-0.1,0.9-0.3,1.2-0.7
		c0.4-0.4,0.9-1.3,1.6-2.9L400.5,213.5z"/>
	<path id="_37" d="M378.6,236.4l2.2-3.4l4.4,0.9l3.9-6.2l-2.7-3.5l2.1-3.3l11.6,15.9l-2.1,3.3L378.6,236.4L378.6,236.4z
		 M388.4,234.6l7.1,1.5l-4.4-5.7L388.4,234.6z"/>
	<polygon id="_38" points="377.3,238 391.1,250 388.7,252.8 383.3,248 378.5,253.5 384,258.2 381.5,261 367.7,249 370.1,246.2 
		376.2,251.5 380.9,246 374.9,240.8 	"/>
	<polygon id="_39" points="376.9,265.8 374.3,268 366.3,258.8 368.7,272.9 365.9,275.3 353.9,261.4 356.5,259.1 364.3,268.2 
		362.2,254.3 365,251.9 	"/>
	<polygon id="_40" points="351,263.8 360.7,279.3 349.2,286.5 347.6,283.9 356,278.6 353.8,275.2 346,280.1 344.4,277.5 
		352.1,272.6 349.5,268.4 340.8,273.8 339.2,271.2 	"/>
	<polygon id="_41" points="327.6,280.1 329.6,284.4 333.9,282.4 335.3,285.4 330.9,287.4 332.9,291.7 330,293.1 328,288.7 
		323.6,290.8 322.3,287.8 326.6,285.8 324.7,281.4 	"/>
	<polygon id="_42" class="st0" points="312.6,302 298.4,305.3 294.3,287.4 297.9,286.6 301.3,301.4 308.3,299.8 304.9,285 
		308.5,284.1 	"/>
	<path id="_43" class="st0" d="M290.5,287.7l1.5,18.3l-5.9,0.5c-2.2,0.2-3.7,0.2-4.4,0.1c-1.1-0.2-2-0.7-2.8-1.6s-1.2-2-1.3-3.5
		c-0.1-1.1,0-2.1,0.4-2.9c0.3-0.8,0.8-1.4,1.4-1.9c0.6-0.5,1.2-0.8,1.8-1c0.9-0.2,2.1-0.4,3.8-0.6l2.4-0.2l-0.6-6.9L290.5,287.7
		L290.5,287.7z M288,303.2l-0.4-5.2l-2,0.2c-1.5,0.1-2.4,0.3-2.9,0.5c-0.5,0.2-0.8,0.6-1.1,1c-0.2,0.4-0.4,0.9-0.3,1.5
		c0.1,0.7,0.3,1.2,0.7,1.6c0.4,0.4,0.9,0.6,1.5,0.7c0.4,0,1.3,0,2.7-0.1L288,303.2L288,303.2z"/>
	<path id="_44" class="st0" d="M273.7,298c-0.2,1.9-0.6,3.4-1.2,4.6c-0.5,0.9-1.1,1.7-1.9,2.4c-0.8,0.7-1.6,1.2-2.5,1.4
		c-1.2,0.4-2.5,0.5-4,0.4c-2.7-0.2-4.8-1.2-6.3-3c-1.5-1.8-2.1-4.2-1.8-7.2c0.2-2.9,1.2-5.2,3-6.7c1.7-1.5,4-2.2,6.6-2
		c2.7,0.2,4.8,1.2,6.3,3C273.3,292.7,274,295.1,273.7,298L273.7,298z M269.9,297.8c0.2-2.1-0.2-3.7-1-4.8c-0.9-1.1-2-1.8-3.5-1.9
		c-1.5-0.1-2.7,0.3-3.8,1.3c-1,1-1.6,2.5-1.8,4.7c-0.2,2.1,0.2,3.7,1,4.8c0.8,1.1,2,1.7,3.5,1.9c1.5,0.1,2.8-0.3,3.8-1.3
		S269.7,299.9,269.9,297.8L269.9,297.8z"/>
	<polygon id="_45" class="st0" points="249.6,305.1 246.2,304.3 249,292.4 239,302.6 235.4,301.8 239.6,284 242.9,284.7 
		240.2,296.4 250.2,286.4 253.8,287.3 	"/>
	<path id="_46" class="st0" d="M229.2,294.7l3.2,1.9c-1.7,2.6-4.2,3.3-7.7,2.2c-2-0.7-3.4-1.6-4.2-2.9c-0.7-1.2-0.9-2.5-0.5-3.7
		c0.3-0.8,0.8-1.5,1.5-2c0.7-0.5,1.6-0.9,2.7-1c-1-0.8-1.7-1.6-2-2.5c-0.3-0.9-0.3-1.9,0-3c0.5-1.5,1.5-2.6,2.9-3.1
		c1.4-0.6,3.3-0.5,5.5,0.3c1.8,0.6,3.2,1.4,4,2.3c0.8,1,1.3,2.3,1.2,4.2l-3.6,0c0-1.2-0.2-2-0.6-2.5c-0.4-0.5-1.1-0.9-1.9-1.1
		c-1.1-0.4-2-0.4-2.7-0.1c-0.7,0.3-1.1,0.8-1.3,1.4c-0.2,0.7-0.1,1.4,0.3,2c0.4,0.6,1.2,1.1,2.4,1.5l0.8,0.3l-0.9,2.6l-0.4-0.1
		c-1.1-0.4-2-0.4-2.7-0.1c-0.7,0.3-1.2,0.8-1.5,1.6c-0.2,0.6-0.2,1.2,0.2,1.8c0.3,0.6,0.9,1,1.8,1.3
		C227.2,296.4,228.4,296,229.2,294.7L229.2,294.7z"/>
	<path id="_47" class="st0" d="M212.5,293.5l-6.5-3.3c-1.3-0.7-2.2-1.2-2.8-1.6c-0.6-0.4-1-0.9-1.4-1.5c-0.3-0.6-0.5-1.3-0.6-2
		c0-0.7,0.1-1.5,0.5-2.2c0.4-0.8,1-1.4,1.7-1.8c0.7-0.4,1.5-0.6,2.4-0.6c-0.8-0.8-1.4-1.7-1.5-2.7c-0.2-1,0-1.9,0.5-2.9
		c0.4-0.7,0.9-1.4,1.6-1.9c0.7-0.5,1.5-0.8,2.3-1c0.8-0.1,1.7,0,2.6,0.4c0.6,0.2,1.9,0.9,4,1.9l5.6,2.9L212.5,293.5L212.5,293.5z
		 M210.6,289.1l1.9-3.8l-2.2-1.1c-1.3-0.7-2.1-1-2.4-1.2c-0.6-0.2-1.1-0.3-1.6-0.1c-0.5,0.2-0.9,0.5-1.1,1c-0.3,0.5-0.3,1-0.2,1.4
		c0.1,0.5,0.4,0.9,0.9,1.2c0.3,0.2,1.2,0.7,2.8,1.5L210.6,289.1L210.6,289.1z M213.9,282.6l2.2-4.4l-3.1-1.6c-1.2-0.6-2-1-2.3-1.1
		c-0.5-0.2-1-0.2-1.5,0c-0.5,0.2-0.9,0.6-1.2,1.1c-0.3,0.5-0.4,1-0.3,1.4c0.1,0.5,0.3,0.9,0.6,1.3c0.4,0.4,1.3,1,2.8,1.7
		L213.9,282.6L213.9,282.6z"/>
	<path id="_48" class="st0" d="M200.4,276.5c-1.1,1.5-2.2,2.6-3.4,3.3c-0.9,0.5-1.8,0.9-2.9,1c-1,0.2-2,0.2-2.9,0
		c-1.2-0.3-2.4-0.9-3.6-1.7c-2.2-1.6-3.5-3.5-3.8-5.8c-0.3-2.3,0.4-4.7,2.1-7.1c1.7-2.4,3.8-3.8,6-4.2c2.3-0.4,4.5,0.2,6.7,1.8
		c2.2,1.6,3.5,3.5,3.8,5.8C202.9,271.8,202.2,274.1,200.4,276.5L200.4,276.5z M197.3,274.4c1.2-1.7,1.8-3.2,1.6-4.7
		c-0.2-1.4-0.8-2.6-2-3.4c-1.2-0.9-2.5-1.1-3.9-0.8s-2.7,1.3-4,3c-1.2,1.7-1.8,3.2-1.6,4.6c0.1,1.4,0.8,2.5,2.1,3.4
		c1.2,0.9,2.5,1.2,3.9,0.9C194.7,277.1,196,276.1,197.3,274.4L197.3,274.4z"/>
	<path id="_49" class="st0" d="M175.8,269.3l-9.2-8.7l10.5-11.1l-1.2-1.1l4.9-5.1l2.2,2.1l-2.7,2.9l8.4,7.9l2.7-2.9l2.2,2.1
		l-4.9,5.1l-1.1-1.1c-1.6,0.6-3.2,1.6-4.8,2.9c-1.6,1.3-3.5,3.2-5.7,5.5L175.8,269.3L175.8,269.3z M175.3,264.7
		c3.8-4.1,7-6.7,9.5-7.8l-5.1-4.8l-8.4,8.9L175.3,264.7z"/>
	<path id="_50" class="st0" d="M164,239.1l-1.3-3.5c1.9-0.8,3.6-1,5.2-0.6c1.6,0.4,2.9,1.4,4.2,2.9c1.5,1.9,2.1,4,1.8,6.3
		c-0.3,2.3-1.6,4.3-3.9,6.1c-2.4,1.9-4.7,2.7-7,2.5c-2.3-0.2-4.2-1.3-5.8-3.3c-1.4-1.8-2-3.6-1.8-5.5c0.1-1.1,0.6-2.3,1.5-3.6l3,2.3
		c-0.6,0.8-0.9,1.6-0.9,2.5c0,0.9,0.3,1.7,0.9,2.5c0.8,1.1,1.9,1.6,3.2,1.7c1.3,0.1,2.8-0.6,4.5-1.9c1.8-1.4,2.9-2.8,3.1-4
		c0.3-1.3,0-2.4-0.9-3.5c-0.6-0.8-1.4-1.2-2.3-1.4C166.3,238.3,165.2,238.5,164,239.1L164,239.1z"/>
	<polygon id="_51" class="st0" points="163.7,226.3 150.5,233.9 153.2,238.6 150.5,240.1 143.2,227.5 145.9,225.9 148.6,230.6 
		161.8,223.1 	"/>
	<path id="_52" class="st0" d="M141.4,223.8l-3.1-6.7c-0.6-1.3-1-2.3-1.2-3c-0.2-0.7-0.2-1.4-0.1-2.1c0.1-0.7,0.4-1.3,0.8-1.9
		c0.4-0.6,1-1.1,1.7-1.4c0.8-0.4,1.6-0.5,2.4-0.4c0.8,0.1,1.6,0.5,2.3,1c-0.2-1.2,0-2.2,0.4-3c0.5-0.9,1.2-1.5,2.1-2
		c0.8-0.4,1.6-0.5,2.5-0.5c0.9,0,1.7,0.2,2.4,0.7c0.7,0.4,1.3,1,1.8,1.9c0.3,0.5,1,1.9,2,4l2.6,5.7L141.4,223.8L141.4,223.8z
		 M142.7,219.2l3.9-1.8l-1-2.2c-0.6-1.3-1-2.1-1.2-2.4c-0.3-0.5-0.7-0.9-1.2-1.1c-0.5-0.2-1-0.1-1.5,0.1c-0.5,0.2-0.9,0.6-1.1,1
		c-0.2,0.4-0.2,0.9,0,1.5c0.1,0.4,0.5,1.3,1.3,2.9C141.8,217.2,142.7,219.2,142.7,219.2z M149.3,216.1l4.5-2l-1.4-3.1
		c-0.6-1.2-0.9-2-1.2-2.3c-0.3-0.5-0.7-0.8-1.2-0.9c-0.5-0.2-1-0.1-1.6,0.2c-0.5,0.2-0.9,0.5-1.1,0.9c-0.2,0.4-0.3,0.9-0.3,1.4
		c0,0.5,0.4,1.6,1.1,3.1L149.3,216.1L149.3,216.1z"/>
	<path id="_53" class="st0" d="M142.8,202.8c-1.8,0.5-3.4,0.7-4.8,0.5c-1-0.2-2-0.5-2.9-1c-0.9-0.5-1.7-1.1-2.2-1.8
		c-0.8-1-1.4-2.2-1.8-3.6c-0.7-2.6-0.5-4.9,0.7-6.9c1.2-2,3.2-3.4,6.1-4.2c2.9-0.8,5.3-0.6,7.3,0.4c2,1.1,3.4,2.9,4.1,5.6
		c0.7,2.6,0.5,4.9-0.6,6.9C147.6,200.6,145.6,202,142.8,202.8L142.8,202.8z M141.7,199.1c2-0.6,3.4-1.4,4.2-2.7c0.8-1.2,1-2.5,0.6-4
		c-0.4-1.4-1.2-2.4-2.5-3.1c-1.3-0.6-2.9-0.6-5-0.1c-2,0.6-3.4,1.4-4.2,2.6c-0.8,1.2-0.9,2.5-0.5,4c0.4,1.5,1.2,2.5,2.5,3.1
		C138,199.7,139.7,199.7,141.7,199.1z"/>
	<polygon id="_54" class="st0" points="142.8,169.4 138,169.8 138.4,174.6 135.1,174.9 134.7,170.1 130,170.5 129.7,167.3 
		134.5,166.9 134.1,162.1 137.4,161.8 137.8,166.6 142.5,166.2 	"/>
	<polygon id="_55" class="st0" points="126.9,148.7 128.7,134.2 146.9,136.6 146.5,140.3 131.3,138.3 130.4,145.4 145.5,147.4 
		145.1,151.1 	"/>
	<path id="_56" class="st0" d="M138.5,131.1c-1.8-0.5-3.2-1.2-4.3-2.1c-0.8-0.6-1.4-1.4-2-2.3c-0.5-0.9-0.8-1.8-1-2.7
		c-0.2-1.2,0-2.6,0.4-4c0.7-2.6,2.1-4.5,4.2-5.6c2.1-1.1,4.5-1.3,7.4-0.5c2.9,0.8,4.9,2.2,6,4.2c1.2,2,1.4,4.3,0.7,6.9
		c-0.7,2.6-2.1,4.5-4.2,5.6C143.7,131.7,141.3,131.9,138.5,131.1z M139.4,127.4c2,0.6,3.6,0.5,4.9-0.1c1.3-0.6,2.1-1.7,2.5-3.1
		c0.4-1.4,0.2-2.7-0.6-3.9c-0.8-1.2-2.2-2.1-4.2-2.7c-2-0.6-3.7-0.5-4.9,0.1c-1.2,0.6-2.1,1.6-2.5,3.1c-0.4,1.5-0.2,2.8,0.5,4
		C136,126,137.4,126.8,139.4,127.4z"/>
	<path id="_57" class="st0" d="M151.8,100.2l2.5-2.8c1.6,1.3,2.6,2.8,2.9,4.3c0.4,1.6,0.1,3.2-0.7,5c-1,2.2-2.6,3.7-4.8,4.4
		c-2.2,0.7-4.6,0.5-7.2-0.7c-2.8-1.3-4.6-3-5.5-5.1c-0.9-2.1-0.8-4.4,0.3-6.7c0.9-2,2.3-3.4,4.1-4.1c1.1-0.4,2.3-0.5,3.8-0.3
		l-0.7,3.7c-1-0.2-1.8-0.1-2.6,0.3c-0.8,0.4-1.4,1-1.8,1.9c-0.6,1.2-0.6,2.5,0,3.6c0.5,1.2,1.8,2.2,3.8,3.1c2.1,1,3.8,1.3,5,0.9
		c1.2-0.3,2.1-1.1,2.7-2.3c0.4-0.9,0.5-1.8,0.2-2.7C153.6,101.9,152.9,101,151.8,100.2z"/>
	<polygon id="_58" class="st0" points="162.7,93.9 149.5,86.3 146.8,91 144.1,89.5 151.4,76.9 154.1,78.4 151.4,83.1 164.6,90.7 	
		"/>
	<path id="_59" class="st0" d="M178.1,72.5l-2.5,3.2l-4.3-1.3l-4.5,5.8l2.3,3.8l-2.4,3.1l-10-16.9l2.4-3.1L178.1,72.5L178.1,72.5z
		 M168.2,73.3l-6.9-2.2l3.8,6.2L168.2,73.3z"/>
	<path id="_60" class="st0" d="M167,57.7l5.3-5c1.1-1,1.9-1.7,2.5-2.1c0.6-0.4,1.2-0.6,1.9-0.8c0.7-0.1,1.4-0.1,2.1,0.1
		c0.7,0.2,1.3,0.6,1.9,1.2c0.6,0.6,1,1.4,1.1,2.2c0.2,0.8,0.1,1.7-0.3,2.5c1-0.5,2-0.7,3-0.6c1,0.2,1.8,0.6,2.5,1.4
		c0.6,0.6,1,1.3,1.2,2.2c0.3,0.8,0.3,1.7,0.1,2.5c-0.2,0.8-0.6,1.6-1.2,2.3c-0.4,0.5-1.5,1.5-3.2,3.2l-4.5,4.3L167,57.7L167,57.7z
		 M171.8,57.4l2.9,3.1l1.8-1.7c1-1,1.7-1.6,1.9-1.9c0.4-0.5,0.6-1,0.6-1.5c0-0.5-0.2-1-0.6-1.4c-0.4-0.4-0.8-0.6-1.3-0.7
		c-0.5,0-1,0.1-1.5,0.5c-0.3,0.2-1.1,0.9-2.3,2.1C173.3,55.9,171.8,57.4,171.8,57.4z M176.8,62.7l3.4,3.6l2.5-2.3
		c1-0.9,1.6-1.5,1.8-1.8c0.3-0.4,0.5-0.9,0.5-1.5c0-0.5-0.2-1-0.7-1.5c-0.4-0.4-0.8-0.6-1.2-0.7c-0.5-0.1-0.9,0-1.4,0.2
		c-0.5,0.2-1.3,0.9-2.6,2.1C178.9,60.6,176.8,62.7,176.8,62.7z"/>
	<path id="_61" class="st0" d="M182.4,43.5l3-2.2l4.6,6.3c0.6-0.6,0.9-1,1-1.5c0-0.4-0.2-1.5-0.6-3.1c-0.5-2.1-0.6-3.5-0.3-4.4
		c0.3-0.8,1.2-1.8,2.6-2.8c0.1,0,0.2-0.2,0.4-0.3l1.6,2.2l-0.4,0.3c-0.6,0.4-1,0.8-1.2,1.2c-0.2,0.4-0.2,0.8-0.2,1.2
		c0.1,0.4,0.3,1.3,0.6,2.5c0.2,0.6,0.3,1.2,0.3,1.7c0,0.5-0.1,1.1-0.4,1.8c0.8-0.3,1.6-0.3,2.5,0c0.8,0.3,1.9,0.7,3.2,1.4l5,2.6
		l-3.5,2.6l-4.6-2.6c-0.1,0-0.2-0.1-0.4-0.2c-0.1,0-0.4-0.2-0.9-0.4c-0.9-0.4-1.6-0.7-1.9-0.7c-0.4,0-0.8,0.2-1.3,0.5l4.7,6.5
		l-3,2.2L182.4,43.5L182.4,43.5z"/>
	<path id="_62" class="st0" d="M220.2,41.2l-3.5,2l-3.5-2.8l-6.4,3.7l0.8,4.4l-3.4,2l-2.9-19.5l3.4-1.9
		C204.7,29,220.2,41.2,220.2,41.2z M210.7,38.3l-5.6-4.6l1.2,7.1L210.7,38.3z"/>
	<polygon id="_63" class="st0" points="231.8,34.4 230.3,29.9 225.8,31.4 224.7,28.3 229.3,26.7 227.7,22.2 230.8,21.2 232.3,25.7 
		236.9,24.2 237.9,27.3 233.3,28.8 234.9,33.3 	"/>
	<polygon id="_64" class="st0" points="250.1,32 247.7,13.8 253.2,13.1 258.1,25.1 259.8,12.3 265.3,11.6 267.6,29.8 264.2,30.2 
		262.7,18.3 260.6,30.7 257.1,31.1 252,20.1 253.5,31.6 	"/>
	<path id="_65" class="st0" d="M270.8,20.8c0-1.9,0.3-3.4,0.9-4.7c0.4-0.9,1-1.8,1.8-2.5c0.7-0.7,1.5-1.3,2.4-1.6
		c1.1-0.5,2.5-0.7,4-0.6c2.7,0.1,4.9,0.9,6.4,2.7c1.6,1.7,2.4,4.1,2.3,7c-0.1,3-0.9,5.3-2.5,6.9c-1.6,1.6-3.8,2.4-6.5,2.4
		c-2.7-0.1-4.9-0.9-6.5-2.6C271.5,26,270.7,23.7,270.8,20.8L270.8,20.8z M274.6,20.7c0,2.1,0.4,3.7,1.3,4.7c0.9,1.1,2.1,1.6,3.6,1.7
		c1.5,0,2.7-0.5,3.7-1.5c1-1,1.5-2.6,1.5-4.7c0-2.1-0.4-3.7-1.3-4.7c-0.9-1.1-2.1-1.6-3.6-1.6c-1.5,0-2.8,0.5-3.7,1.5
		C275.1,17,274.6,18.6,274.6,20.7L274.6,20.7z"/>
	<polygon id="_66" class="st0" points="291.3,30.9 294.6,12.9 298.3,13.6 296.9,20.7 304.1,22 305.4,14.9 309,15.6 305.7,33.6 
		302,32.9 303.5,25.1 296.4,23.7 294.9,31.6 	"/>
	<polygon id="_67" class="st0" points="313.3,35.9 318.1,21.4 313,19.7 314,16.8 327.8,21.4 326.8,24.3 321.6,22.6 316.8,37.1 	"/>
	<path id="_68" class="st0" d="M337.7,46.1l-3.7-1.7l0.3-4.5l-6.7-3.1l-3.1,3.2l-3.6-1.6l14.1-13.7l3.6,1.6
		C338.7,26.4,337.7,46.1,337.7,46.1z M334.5,36.7l0.5-7.2l-5.1,5.2L334.5,36.7z"/>
	<path id="_69" class="st0" d="M359.6,38.9l-4.6,6.3c0.5,0.3,1,0.4,1.5,0.3c0.5-0.2,1.4-0.6,2.7-1.5c1.7-1.1,3-1.7,4-1.6
		c0.9,0,2.1,0.6,3.5,1.6c0.1,0,0.2,0.2,0.4,0.3l-1.6,2.2l-0.4-0.3c-0.6-0.4-1.1-0.7-1.5-0.7c-0.4-0.1-0.8,0-1.2,0.2
		c-0.4,0.2-1.1,0.6-2.2,1.3c-0.6,0.4-1.1,0.7-1.5,0.9c-0.5,0.2-1.1,0.2-1.8,0.2c0.5,0.7,0.8,1.5,0.8,2.3c0,0.9-0.1,2-0.3,3.5
		l-0.9,5.5l-3.5-2.6l1-5.1c0-0.1,0-0.2,0.1-0.4c0-0.1,0.1-0.5,0.1-1c0.1-1,0.2-1.7,0.1-2c-0.1-0.4-0.3-0.7-0.7-0.9l-4.7,6.5
		l-2.9-2.1l4.7-6.5c-0.3-0.2-0.7-0.4-1.1-0.4c-0.4,0-1,0.2-1.9,0.7c-0.5,0.2-0.8,0.4-0.9,0.4c-0.1,0.1-0.3,0.1-0.4,0.2l-4.6,2.5
		l-3.5-2.6l5-2.6c1.2-0.6,2.3-1.1,3.1-1.4c0.9-0.3,1.7-0.3,2.5,0c-0.3-0.7-0.5-1.3-0.4-1.8c0-0.5,0.1-1.1,0.3-1.7
		c0.4-1.2,0.6-2,0.6-2.5c0.1-0.4,0-0.8-0.2-1.2c-0.2-0.4-0.6-0.8-1.2-1.2c-0.1-0.1-0.2-0.2-0.4-0.3l1.6-2.2c0.2,0.2,0.4,0.3,0.4,0.3
		c1.4,1.1,2.3,2,2.6,2.9c0.3,0.9,0.2,2.3-0.3,4.2c-0.4,1.5-0.6,2.5-0.6,3.1c0,0.5,0.3,1,0.7,1.4l4.6-6.3L359.6,38.9L359.6,38.9z"/>
	<polygon id="_70" class="st0" points="368.2,66.6 371.7,63.3 368.4,59.8 370.8,57.5 374.1,61 377.5,57.8 379.7,60.1 376.3,63.4 
		379.6,66.9 377.2,69.1 373.9,65.6 370.4,68.9 	"/>
	<path id="_71" class="st0" d="M385.6,76.4c1.6-1,3.1-1.6,4.4-1.8c1-0.2,2-0.1,3,0.1c1,0.2,1.9,0.6,2.7,1.1c1,0.7,1.9,1.7,2.7,3
		c1.4,2.3,1.9,4.6,1.3,6.8c-0.6,2.3-2.1,4.2-4.6,5.8c-2.5,1.6-4.9,2.1-7.2,1.7c-2.3-0.5-4.1-1.8-5.6-4.1c-1.5-2.3-1.9-4.6-1.4-6.8
		C381.6,79.9,383.1,78,385.6,76.4L385.6,76.4z M387.7,79.6c-1.8,1.1-2.8,2.3-3.2,3.7c-0.4,1.4-0.2,2.7,0.6,3.9
		c0.8,1.2,1.9,2,3.3,2.2c1.4,0.2,3-0.2,4.8-1.4c1.8-1.1,2.9-2.3,3.2-3.7c0.4-1.3,0.2-2.7-0.6-3.9c-0.8-1.3-1.9-2.1-3.3-2.3
		C391.1,78,389.5,78.5,387.7,79.6z"/>
	<path id="_72" class="st0" d="M393.3,101.2l1.5,3.3c0.5,1,0.9,1.8,1.2,2.1c0.3,0.4,0.7,0.6,1.2,0.8c0.5,0.2,1,0.1,1.6-0.1
		c0.8-0.4,1.2-0.9,1.3-1.6c0.1-0.7-0.2-1.7-0.8-3.1l-1.6-3.4L393.3,101.2L393.3,101.2z"/>
	<path class="st0" d="M411.3,104l-2.8,1.3l-4.2-9.1l-3.9,1.8l2.1,4.5c0.6,1.2,0.9,2.3,1,3.3c0.1,1-0.2,1.9-0.7,2.9
		c-0.6,0.9-1.4,1.7-2.5,2.2c-1.1,0.5-2.2,0.7-3.3,0.5c-1.1-0.2-1.9-0.6-2.6-1.2c-0.6-0.6-1.3-1.6-1.9-3l-3.6-7.9l16.7-7.7L411.3,104
		z"/>
	<path id="_73" class="st0" d="M406,124.8l-0.1,3.8c-2.1,0-3.7-0.5-5-1.4c-1.3-1-2.2-2.4-2.7-4.3c-0.7-2.4-0.4-4.5,0.8-6.5
		c1.2-2,3.2-3.3,6-4.1c2.9-0.8,5.4-0.7,7.5,0.4c2.1,1.1,3.4,2.8,4.1,5.3c0.6,2.2,0.5,4.1-0.4,5.8c-0.5,1-1.4,1.9-2.7,2.7l-1.8-3.3
		c0.9-0.5,1.5-1.1,1.8-1.9s0.4-1.7,0.1-2.6c-0.4-1.3-1.1-2.2-2.3-2.8c-1.2-0.6-2.8-0.5-4.9,0.1c-2.2,0.6-3.7,1.5-4.4,2.5
		s-0.9,2.2-0.6,3.5c0.3,0.9,0.8,1.7,1.6,2.2C403.5,124.7,404.6,124.9,406,124.8L406,124.8z"/>
	<path id="_74" class="st0" d="M419.7,131.5l1.6,12.8l-18.2,2.3l-0.5-3.7l15.1-1.9l-0.7-5.5l-7.8,1c-2.2,0.3-3.8,0.4-4.7,0.4
		c-0.9,0-1.6-0.3-2.2-0.8c-0.6-0.5-0.9-1.4-1.1-2.6c-0.1-0.4-0.1-1.2-0.2-2.4l2.8-0.4l0.1,0.8c0.1,0.8,0.3,1.3,0.5,1.5
		c0.2,0.2,0.8,0.3,1.6,0.2l3.1-0.4L419.7,131.5L419.7,131.5z"/>
	<path id="_75" class="st0" d="M421.7,148.2l0.1,4.1l-9.4,4.5l9.6,3.5l0.1,3.9l-14-5.9c-1.5-0.6-2.7-1.3-3.5-2
		c-0.8-0.7-1.2-1.6-1.2-2.7c0-1.1,0-1.9,0.2-2.6l2.8-0.1c0,0.5,0,1,0,1.4c0,0.9,0.2,1.5,0.5,1.8c0.3,0.4,1,0.7,2,1L421.7,148.2
		L421.7,148.2z"/>
	<path id="_76" class="st0" d="M420.5,180.1l-7.8-1c0,0.6,0.1,1.1,0.5,1.5c0.4,0.4,1.2,0.9,2.6,1.7c1.8,1,2.9,1.9,3.3,2.7
		c0.4,0.8,0.5,2.1,0.3,3.9c0,0.1,0,0.3-0.1,0.5l-2.7-0.4l0.1-0.5c0.1-0.7,0.1-1.3-0.1-1.7c-0.1-0.4-0.4-0.7-0.7-1
		c-0.4-0.3-1.1-0.7-2.2-1.3c-0.6-0.3-1.1-0.6-1.5-0.9c-0.4-0.3-0.7-0.8-1-1.5c-0.4,0.8-0.9,1.4-1.7,1.9c-0.8,0.4-1.8,0.9-3.2,1.4
		l-5.3,1.8l0.6-4.3l5-1.6c0.1,0,0.2-0.1,0.4-0.2c0.1,0,0.4-0.2,0.9-0.3c0.9-0.4,1.5-0.7,1.8-0.9c0.3-0.3,0.4-0.6,0.5-1.1l-8-1
		l0.5-3.6l8,1c0.1-0.4,0-0.8-0.2-1.1c-0.2-0.3-0.7-0.8-1.5-1.4c-0.5-0.3-0.7-0.5-0.8-0.6c-0.1-0.1-0.2-0.2-0.4-0.3l-4.4-2.8l0.6-4.3
		l4.7,3.1c1.2,0.8,2.1,1.5,2.7,2.1c0.6,0.6,1,1.4,1.2,2.3c0.5-0.6,0.9-1,1.4-1.2c0.4-0.2,1-0.4,1.7-0.5c1.2-0.3,2-0.5,2.4-0.6
		c0.4-0.2,0.7-0.4,1-0.7c0.2-0.3,0.4-0.9,0.5-1.7c0-0.1,0-0.3,0-0.5l2.7,0.4c0,0.3-0.1,0.4-0.1,0.5c-0.2,1.8-0.6,3-1.3,3.7
		c-0.6,0.7-1.9,1.3-3.9,1.7c-1.5,0.4-2.5,0.7-3,0.9c-0.4,0.3-0.7,0.7-0.9,1.3l7.7,1L420.5,180.1L420.5,180.1z"/>
	<polygon id="_77" class="st0" points="417.9,194.2 417,197.6 405.2,194.3 415,204.7 414,208.3 396.4,203.4 397.3,200 408.8,203.2 
		399.3,192.9 400.3,189.3 	"/>
	<path id="_78" class="st0" d="M411.4,214.5l-3.1,6.7c-0.6,1.3-1.1,2.3-1.5,2.9c-0.4,0.6-0.9,1.1-1.5,1.4c-0.6,0.4-1.2,0.6-2,0.6
		c-0.7,0.1-1.5,0-2.2-0.4c-0.8-0.4-1.4-0.9-1.9-1.6c-0.5-0.7-0.7-1.5-0.7-2.4c-0.8,0.9-1.6,1.4-2.6,1.6c-1,0.2-1.9,0.1-2.9-0.3
		c-0.8-0.3-1.4-0.9-2-1.5c-0.6-0.7-0.9-1.4-1.1-2.2c-0.1-0.8-0.1-1.7,0.2-2.6c0.2-0.6,0.8-2,1.7-4.1l2.6-5.7L411.4,214.5
		L411.4,214.5z M407.1,216.6l-3.9-1.8l-1,2.2c-0.6,1.3-0.9,2.1-1.1,2.5c-0.2,0.6-0.2,1.2,0,1.6c0.2,0.5,0.5,0.8,1.1,1.1
		c0.5,0.2,1,0.3,1.4,0.2c0.4-0.1,0.8-0.5,1.2-1c0.2-0.3,0.6-1.3,1.4-2.9L407.1,216.6L407.1,216.6z M400.5,213.5l-4.5-2l-1.4,3.1
		c-0.6,1.2-0.9,2-1,2.4c-0.1,0.5-0.1,1,0.1,1.5c0.2,0.5,0.6,0.8,1.2,1.1c0.5,0.2,1,0.3,1.4,0.2c0.5-0.1,0.9-0.3,1.2-0.7
		c0.4-0.4,0.9-1.3,1.6-2.9L400.5,213.5z"/>
	<path id="_79" class="st0" d="M378.6,236.4l2.2-3.4l4.4,0.9l3.9-6.2l-2.7-3.5l2.1-3.3l11.6,15.9l-2.1,3.3L378.6,236.4L378.6,236.4z
		 M388.4,234.6l7.1,1.5l-4.4-5.7L388.4,234.6z"/>
	<polygon id="_80" class="st0" points="377.3,238 391.1,250 388.7,252.8 383.3,248 378.5,253.5 384,258.2 381.5,261 367.7,249 
		370.1,246.2 376.2,251.5 380.9,246 374.9,240.8 	"/>
	<polygon id="_81" class="st0" points="376.9,265.8 374.3,268 366.3,258.8 368.7,272.9 365.9,275.3 353.9,261.4 356.5,259.1 
		364.3,268.2 362.2,254.3 365,251.9 	"/>
	<polygon id="_82" class="st0" points="351,263.8 360.7,279.3 349.2,286.5 347.6,283.9 356,278.6 353.8,275.2 346,280.1 
		344.4,277.5 352.1,272.6 349.5,268.4 340.8,273.8 339.2,271.2 	"/>
	<polygon id="_83" class="st0" points="327.6,280.1 329.6,284.4 333.9,282.4 335.3,285.4 330.9,287.4 332.9,291.7 330,293.1 
		328,288.7 323.6,290.8 322.3,287.8 326.6,285.8 324.7,281.4 	"/>
	<circle class="st0" cx="274.3" cy="159.3" r="152.6"/>
</g>
</svg>
