<?xml version="1.0" encoding="utf-8"?>
<!-- Generator: Adobe Illustrator 26.0.1, SVG Export Plug-In . SVG Version: 6.00 Build 0)  -->
<svg version="1.1" id="Слой_1" xmlns:xodm="http://www.corel.com/coreldraw/odm/2003"
	 xmlns="http://www.w3.org/2000/svg" xmlns:xlink="http://www.w3.org/1999/xlink" x="0px" y="0px" viewBox="0 0 532 320"
	 style="enable-background:new 0 0 532 320;" xml:space="preserve">
<style type="text/css">
	.st0{fill:none;stroke:#000000;stroke-width:4.17;stroke-miterlimit:22.9256;}
</style>
<g id="Слой_x0020_1">
	<path class="st0" d="M498.8,162.1c-0.1,4.2,30.3,28,27.2,34.5c-13,27.8-78.6-45.2-89.4-12.4c-17,51.7-106.9,91.1-215.1,91.1
		c-26.1,0-60.3-3.1-83.5-7.3c-11.7-2.1-4,34.6-4,34.6c-26.8-5.9-23.3-42.3-32.1-45.2c-59.2-19.5-98.3-53-98.3-91.1
		C3.5,108,92,60.7,207.5,57.6c3.8-0.1,24.3-46.6,63.4-39.5c0,0-35.1,38.3-6.3,41.6C354,70,415.2,98.6,433.7,139.4
		c12.7,28,89.4-34.4,94.8-5.4C529.9,141.8,499,152.1,498.8,162.1z"/>
</g>
</svg>
