<?xml version="1.0" encoding="UTF-8"?>
<!DOCTYPE svg PUBLIC "-//W3C//DTD SVG 1.1//EN" "http://www.w3.org/Graphics/SVG/1.1/DTD/svg11.dtd">
<!-- Creator: CorelDRAW 2021.5 -->
<svg xmlns="http://www.w3.org/2000/svg" xml:space="preserve" width="532px" height="320px" version="1.1" style="shape-rendering:geometricPrecision; text-rendering:geometricPrecision; image-rendering:optimizeQuality; fill-rule:evenodd; clip-rule:evenodd"
viewBox="0 0 532 320"
 xmlns:xlink="http://www.w3.org/1999/xlink"
 xmlns:xodm="http://www.corel.com/coreldraw/odm/2003">
 <defs>
  <style type="text/css">
   <![CDATA[
    .fil0 {fill:black;fill-rule:nonzero}
   ]]>
  </style>
 </defs>
 <g id="Слой_x0020_1">
  <metadata id="CorelCorpID_0Corel-Layer"/>
  <path class="fil0" d="M5.99 213.95l-5.99 -1.93 12.52 1.29 -5.99 -1.92 -5.99 -1.93 12.52 1.29 -5.99 -1.93 -6 -1.92 12.53 1.29 -6 -1.93 -5.99 -1.92 12.52 1.28 -5.99 -1.92 -6 -1.92 12.53 1.28 -5.99 -1.92 -6 -1.93 12.53 1.29 -6 -1.93 -5.99 -1.92 12.52 1.28 -5.99 -1.92 -6 -1.92 12.53 1.28 -5.99 -1.92 -6 -1.92 12.53 1.28 -6 -1.92 -5.99 -1.93 12.53 1.29 -6 -1.93 -5.99 -1.92 12.52 1.28 -5.99 -1.92 -6.46 -2.02 13.45 1.48 -6.46 -2.02 -6.68 -2.07 13.9 1.58 -6.68 -2.07 -6.93 -2.12 14.4 1.68 -6.93 -2.12 -6.93 -2.12 14.39 1.67 -6.93 -2.12 -6.91 -2.11 14.37 1.67 -6.92 -2.12 -7.02 -2.14 14.58 1.72 -7.02 -2.14 -7.05 -2.15 14.64 1.73 -7.06 -2.14 -6.76 -2.09 14.07 1.61 -6.77 -2.09 -6.68 -2.06 13.89 1.57 -6.67 -2.07 -6.74 -2.08 14.01 1.6 -6.73 -2.08 -6.58 -2.05 13.69 1.54 -6.58 -2.05 -6.48 -2.03 13.5 1.49 -6.48 -2.02 -6.67 -2.07 13.88 1.57 -6.67 -2.07 -6.71 -2.07 13.94 1.58 -6.7 -2.07 -6.85 -2.1 14.24 1.64 -6.85 -2.1 -7.1 -2.16 14.74 1.75 -7.1 -2.15 -7.1 -2.16 14.73 1.75 -7.1 -2.16 -7.33 -2.2 15.2 1.84 -7.33 -2.2 -7.15 -2.17 14.84 1.77 -7.15 -2.16 -7.05 -2.15 14.63 1.73 -7.05 -2.14 -6.82 -2.1 14.18 1.63 -6.82 -2.1 -6.44 -2.01 13.42 1.47 -6.44 -2.02 -6.15 -1.95 12.83 1.34 -6.15 -1.95 -5.96 -1.92 12.46 1.27 -5.96 -1.91 -5.47 -1.82 11.48 1.07 -5.47 -1.82 -5.33 -1.78 11.19 1.01 -5.33 -1.79 -5.33 -1.78 11.21 1 -5.34 -1.78 -5.39 -1.8 11.31 1.03 -5.38 -1.79 -5.44 -1.81 11.41 1.05 -5.43 -1.81 -5.49 -1.81 11.51 1.07 -5.49 -1.82 -5.73 -1.87 12 1.18 -5.73 -1.87 -3.04 -2.89 7.56 3.62 -3.04 -2.89 0.52 -1.01 1.56 1.65 0.51 -1.01 0.64 -0.84 1.34 1.61 0.64 -0.83 0.65 -1.57 1.32 3.13 0.65 -1.56 0.46 -0.01 0.54 0 0.5 0 0.46 0 0.43 0 26.55 0c8.19,0 13.91,0.26 17.19,0.75 5.42,0.77 10.01,2.26 13.78,4.51 3.77,2.26 6.62,5.26 8.59,9.03 1.56,2.99 2.49,6.25 2.81,9.75 0.02,0.21 0.04,0.43 0.05,0.64l-0.04 1.45 -0.08 2.91 -0.04 1.45 -0.01 0.14 -0.34 1.41 -0.68 2.82 -0.35 1.42 -1.35 2.96 -0.83 1.19 -1.65 2.38 -0.83 1.19 -2.72 2.62 -1.21 0.8 -2.42 1.62 -1.2 0.81 -1.72 0.84 -0.57 0.81 -1.12 1.62 -0.57 0.82 1.29 0.68 2.56 1.37 1.29 0.68 1.07 0.97 2.15 1.95 1.08 0.97 0.72 1.26 1.43 2.53 0.72 1.26 0.52 1.35 1.03 2.71 0.52 1.35 0.07 1.45 0.15 2.89 0.08 1.45 -0.21 1.44 -0.42 2.87 -0.21 1.44 -0.45 1.38 -0.92 2.75 -0.46 1.38 -0.67 1.29 -1.33 2.58 -0.67 1.29 -0.88 1.39 -0.01 0.03 -0.41 0.52 -0.89 1.15 -0.14 0.18 -0.31 0.4 -0.48 0.54 -0.97 1.09 -0.48 0.55 -0.6 0.55 -0.95 0.88 -0.53 0.49 -0.72 0.57 -0.6 0.48 -0.16 0.13c-0.06,0.04 -0.11,0.08 -0.17,0.12 0,0 -0.01,0.01 -0.02,0.02 -0.04,0.02 -0.08,0.05 -0.11,0.08 0,0 0,0 0,0 -2.19,1.57 -4.61,2.88 -7.25,3.92 -6.61,2.6 -15.68,3.9 -27.17,3.9l-45.11 0 -0.65 0.7 -1.31 -1.41 -0.66 0.71 -0.65 0.7 -1.31 -1.41 -0.65 0.71 -1.64 0zm36.41 -65.73l1.45 0 2.91 -0.01 1.46 0 1.45 0 2.91 -0.01 1.45 0 1.46 -0.01 2.91 -0.01 1.45 0 1.45 -0.06 2.91 -0.1 1.45 -0.05 1.46 -0.09 2.9 -0.18 1.45 -0.09 1.42 -0.31 2.84 -0.62 1.42 -0.32 1.25 -0.72 2.52 -1.43 1.26 -0.72 0.84 -1.17 1.69 -2.36 0.84 -1.17 0.32 -1.42 0.62 -2.83 0.32 -1.42 -0.37 -2.02 -0.4 -2.21c-0.16,-0.4 -0.35,-0.78 -0.56,-1.14 -0.31,-0.53 -0.67,-1.03 -1.09,-1.49 -1.61,-1.8 -3.9,-3 -6.87,-3.59 -1.67,-0.31 -5.67,-0.46 -12.01,-0.46l-17.67 0 -1.41 6.73 -0.3 1.43 -0.59 2.84 -0.3 1.43 -0.14 0.65 -0.3 1.43 -0.59 2.85 -0.3 1.42 -0.3 1.42 -0.59 2.85 -0.3 1.42 -0.32 1.54zm-10.06 48.03l1.45 0 2.91 0 1.46 0 1.45 0 2.91 0 1.46 0 1.45 0 2.91 0 1.45 0 1.46 -0.01 2.91 -0.01 1.45 0 1.46 -0.04 2.9 -0.06 1.46 -0.04 1.45 -0.11 2.29 -0.19 -0.31 -5.77 0 -0.04 0.02 0.06 3.19 11.13 -0.31 -5.81 -0.49 -5.95 3.53 11.4 -0.48 -5.95 -2.05 -6.69 6.52 12.39 -2.05 -6.7 -2.06 -6.69 6.53 12.39 -2.05 -6.7 -4.41 -6.02 10.79 10.33 -4.42 -6.02 -4.52 -5.9 10.98 10.02 -4.53 -5.9 -5.87 -4.37 13.1 6.55 -5.87 -4.38 -6.26 -3.93 13.71 5.53 -6.26 -3.93 -7.14 -2.26 14.84 2.01 -7.14 -2.26 -6.9 -1.15 13.99 -0.31 -6.9 -1.15 -6.25 -0.04 12.25 -2.49 -6.25 -0.04 -5.3 0.76 9.92 -4.04 -5.3 0.75 -3.08 1.65 4.51 -5.33 -3.08 1.65 -2.31 1.53 2.7 -4.85 -2.31 1.54 -1.91 1.91 1.58 -5.17 -1.91 1.91 -1.55 2.01 0.68 -5.03 -1.55 2.01 -0.94 1.71 -0.7 -3.85 -0.94 1.71 -0.94 2.18 -0.72 -4.69 -0.94 2.18 -0.12 -0.02 -0.46 -0.05 -0.51 -0.07 -0.33 0 -0.45 -0.01 -0.47 -0.01 -0.34 -0.01 -0.16 -0.01 -0.2 0 -1.26 0 -2.91 0 -1.45 -0.01 -1.45 0 -2.91 0 -1.46 -0.01 -1.45 0 -2.91 0 -1.46 -0.01 -1.45 0 -2.91 -0.01 -1.45 0 -1.03 0.73 -2.05 1.47 -1.03 0.73 -0.3 1.42 -0.6 2.85 -0.3 1.42 -0.3 1.43 -0.6 2.84 -0.3 1.43 -0.3 1.42 -0.6 2.85 -0.3 1.42 -0.3 1.42 -0.6 2.85 -0.3 1.42 -0.65 3.08zm108.21 -92.52l0.99 0 0.73 0 1.45 0 0.73 0 0.72 0 1.46 0 0.73 0 0.72 0 1.46 0 0.72 0 0.73 0 1.46 0 0.72 0 0.73 0 1.46 0 0.72 0 0.73 0 1.45 0 0.73 0 0.64 0.07 1.29 0.14 0.64 0.07 -0.41 1.95 -0.15 0.71 -0.3 1.42 -0.15 0.72 -0.15 0.71 -0.29 1.42 -0.15 0.71 -0.12 0.58 -0.15 0.71 -0.3 1.43 -0.15 0.71 -0.24 1.13 -0.15 0.71 -0.29 1.43 -0.15 0.71 -0.24 1.15 -0.15 0.71 -0.3 1.42 -0.15 0.71 -0.01 0.04 -0.15 0.71 -0.15 0.71 -0.01 0.09 -0.02 0.05 0 0.05 -0.06 0.25 0.23 0.72 -0.99 1.13 0.23 0.71 -0.31 1.48 0.2 0.71 -0.95 1.14 0.21 0.71 -0.24 1.13 -0.07 0.35 0.16 0.7 -0.8 1.18 0.16 0.7 -0.07 0.44 -0.08 0.61 -0.13 0.88 -0.62 1.21 0.04 0.67 -0.28 1.34 -0.15 0.72 -0.1 0.65 -0.02 0.06 -0.24 0.93 -0.07 0.28 -0.11 0.65 -0.04 0.23 -0.04 0.14 -0.08 0.42 -0.3 1.42 -0.06 0.29 -0.3 1.43 -0.6 2.84 -0.29 1.43 -0.3 1.42 -0.6 2.85 -0.3 1.42 -0.3 1.42 -0.59 2.85 -0.3 1.43 0.21 1.13 0.42 2.29 0.21 1.14 1.05 -1 2.09 -2 1.04 -1.01 0.96 -1.09 1.92 -2.18 0.96 -1.1 0.96 -1.09 1.92 -2.19 0.96 -1.09 0.96 -1.09 1.92 -2.19 0.96 -1.09 0.95 -1.1 1.92 -2.18 0.96 -1.1 0.95 -1.09 1.92 -2.19 0.96 -1.1 0.95 -1.09 1.92 -2.2 0.95 -1.09 0.96 -1.1 1.91 -2.19 0.96 -1.09 0.96 -1.1 1.91 -2.19 0.96 -1.1 0.92 -1.06 0.37 -0.42 20.91 -23.96 2.73 0 1.46 0 2.9 0 1.46 0 0.4 0 1.45 0 2.91 0 1.45 0 1.8 0 1.07 0.31 2.15 0.62 1.08 0.31 -0.72 3.45 -0.33 1.6 -0.29 1.43 -0.59 2.84 -0.29 1.43 -0.17 0.81 -0.98 4.71 -0.29 1.42 -0.59 2.85 -0.29 1.43 -0.3 1.42 -0.59 2.85 -0.29 1.43 -0.29 1.42 -0.59 2.85 -0.3 1.42 -0.29 1.43 -0.59 2.85 -0.3 1.42 -0.14 0.68 -0.07 0.36 -0.22 1.05 -0.03 0.17 -0.3 1.43 -0.59 2.85 -0.29 1.42 -0.3 1.42 -0.58 2.85 -0.3 1.43 -0.7 3.42 -0.3 1.42 -0.59 2.85 -0.29 1.42 -0.3 1.43 -0.59 2.85 -0.29 1.42 -0.29 1.42 -0.59 2.85 -0.3 1.43 -0.29 1.42 -0.59 2.85 -0.3 1.43 -0.29 1.42 -0.59 2.85 -0.29 1.42 -0.3 1.43 -0.59 2.85 -0.29 1.42 -0.47 2.24 -0.39 1.93 -0.14 0.64 -2.86 13.85 -21.32 0 0.55 -2.64 -6.14 -1.95 12.82 1.34 -6.14 -1.95 -6.14 -1.95 12.82 1.34 -6.14 -1.95 -6.15 -1.96 12.82 1.35 -6.14 -1.96 -6.14 -1.95 12.82 1.35 -6.14 -1.96 -6.15 -1.95 12.83 1.34 -6.15 -1.95 -6.14 -1.95 12.82 1.34 -6.14 -1.95 -6.14 -1.96 12.82 1.35 -6.14 -1.95 -6.15 -1.96 12.82 1.35 -6.14 -1.96 -6.14 -1.95 12.82 1.34 -6.14 -1.95 -6.15 -1.95 12.83 1.34 -6.15 -1.95 -6.14 -1.96 12.82 1.35 -6.14 -1.96 -6.14 -1.95 12.82 1.34 -6.14 -1.95 -6.44 -2.01 13.4 1.46 -6.43 -2.01 -6.4 -2 13.33 1.44 -6.4 -2 -6.44 -2.02 13.43 1.47 -6.45 -2.02 -6.3 -1.98 13.14 1.4 -6.31 -1.98 -6.31 -1.98 13.16 1.4 -6.31 -1.98 -6.21 -1.96 12.95 1.36 -6.21 -1.96 -6.02 -1.93 12.58 1.29 -6.02 -1.93 -6.12 -1.94 12.76 1.32 -6.11 -1.94 -6.12 -1.94 12.78 1.32 -6.12 -1.94 -6.18 -1.95 12.88 1.33 -6.17 -1.95 -6.03 -1.91 12.59 1.27 -6.03 -1.92 -6.09 -1.92 12.71 1.27 -6.1 -1.91 -5.93 -1.89 12.4 1.21 -5.94 -1.89 0.06 -0.28 0.09 -0.43 0 -0.01 0 0.01 -0.62 0.43 -0.05 0.04 -0.57 0.4 0.62 1.71 -3.21 -1.72 0.61 1.72 -1.09 1.18 0.78 1.54 -3.28 -1.11 0.78 1.55 -1.12 1.28 0.3 1.12 -2.31 -0.26 0.3 1.12 -0.43 0.48 0.01 0.88 -1.73 0.23 0.01 0.87 -0.07 0.08 -0.18 0.71 -1.36 0.55 -0.18 0.71 -0.61 0.71 -0.36 0.55 -1 0.87 -0.36 0.55 -0.18 0.72 -1.36 0.55 -0.18 0.71 -0.15 0.18 -0.02 0.02 -0.01 0.02 -0.26 0.29 -0.05 0.06 -0.04 0.04 -0.06 0.07 -0.02 0.03 0 0 -0.01 0.01 -0.07 0.07 -0.1 0.13 -0.04 0.04 -0.01 0 -0.04 0.06 -0.12 0.14 -0.09 0.1 -0.39 0.45 -0.95 1.09 -1.91 2.2 -0.96 1.1 -0.95 1.09 -1.91 2.2 -0.95 1.1 -0.96 1.09 -1.91 2.2 -0.95 1.1 -0.95 1.1 -1.91 2.19 -0.96 1.1 -0.95 1.1 -1.91 2.19 -0.95 1.1 -0.96 1.1 -1.91 2.19 -0.95 1.1 -0.95 1.1 -1.91 2.19 -0.96 1.1 -1.66 1.91 -1.04 1.21 -11.91 13.69 -20.91 0 0.51 -2.44 -7.09 -2.15 14.72 1.75 -7.09 -2.16 -7.09 -2.15 14.72 1.74 -7.09 -2.15 -7.1 -2.16 14.73 1.75 -7.1 -2.15 -7.09 -2.16 14.73 1.75 -7.1 -2.16 -7.1 -2.15 14.73 1.75 -7.09 -2.16 -7.1 -2.15 14.73 1.74 -7.1 -2.15 -7.09 -2.16 14.73 1.75 -7.1 -2.15 -7.09 -2.16 14.72 1.75 -7.09 -2.16 -7.1 -2.15 14.73 1.75 -7.1 -2.16 -7.09 -2.15 14.73 1.74 -7.1 -2.15 -7.09 -2.16 14.72 1.75 -7.09 -2.15 -7.1 -2.16 14.73 1.75 -7.09 -2.16 -7.07 -2.14 14.66 1.73 -7.06 -2.15 -6.72 -2.08 13.98 1.6 -6.72 -2.08 -6.74 -2.08 14.01 1.6 -6.74 -2.08 -6.63 -2.06 13.8 1.55 -6.63 -2.05 -6.68 -2.07 13.9 1.57 -6.68 -2.07 -6.73 -2.07 14 1.59 -6.74 -2.08 -6.62 -2.06 13.79 1.56 -6.63 -2.06 -6.64 -2.06 13.82 1.55 -6.64 -2.05 -6.65 -2.06 13.83 1.55 -6.65 -2.06 -6.54 -2.04 13.62 1.52 -6.54 -2.04 -6.44 -2.01 13.42 1.47 -6.44 -2.02 -6.68 -2.07 13.9 1.58 -6.68 -2.07 -6.42 -2.01 13.37 1.46 -6.42 -2.02 -6.51 -2.03 13.56 1.51 -6.51 -2.04 -6.56 -2.04 13.65 1.52 -6.55 -2.04 -6.38 -2 13.29 1.44 -6.38 -2 -6.27 -1.98 13.08 1.4 -6.27 -1.98 -6.09 -1.95 12.71 1.33 -6.08 -1.95 -5.94 -1.91 12.41 1.27 -5.94 -1.92 -5.83 -1.89 12.21 1.22 -5.84 -1.89 -5.65 -1.85 11.84 1.14 -5.65 -1.85 -5.51 -1.82 11.55 1.08 -5.5 -1.82 -5.26 -1.77 11.04 0.97 -5.25 -1.77 -5.11 -1.73 10.76 0.91 -5.11 -1.74 -5.08 -1.73 10.69 0.9 -5.08 -1.73 -5.2 -1.76 10.95 0.96 -5.21 -1.76 -5.18 -1.75 10.89 0.94 -5.17 -1.75 -5.27 -1.78 11.07 0.98 -5.27 -1.77 -5.47 -1.81 11.48 1.06 -5.47 -1.81 0.09 -0.42 0.06 -0.31 0.03 -0.13 0 -0.01 0.09 -0.44 0.05 -0.23 0.05 -0.2 0.09 -0.42 0.11 -0.57zm105.98 110.22l-29.45 0 5.48 -6.26 -4.5 -4.81 10.73 7.64 -4.5 -4.8 -4.5 -4.81 10.72 7.64 -4.5 -4.81 -4.5 -4.8 10.72 7.64 -4.5 -4.81 -4.5 -4.8 10.73 7.63 -4.5 -4.8 -4.5 -4.8 10.72 7.63 -4.5 -4.8 -4.5 -4.8 10.72 7.63 -4.5 -4.8 -4.5 -4.8 10.73 7.63 -4.51 -4.8 -4.5 -4.8 10.73 7.63 -4.5 -4.8 -4.5 -4.81 10.72 7.64 -4.5 -4.8 -4.5 -4.81 10.72 7.64 -4.5 -4.81 -4.5 -4.8 10.73 7.64 -4.5 -4.81 -4.5 -4.8 10.72 7.64 -4.5 -4.81 -4.54 -4.83 10.8 7.7 -4.54 -4.84 -4.82 -5.07 11.36 8.17 -4.82 -5.07 -4.99 -5.23 11.7 8.48 -4.98 -5.22 -5.05 -5.28 11.81 8.58 -5.04 -5.27 -5.22 -5.43 12.16 8.88 -5.22 -5.43 -5.32 -5.51 12.36 9.05 -5.32 -5.51 -5.24 -5.44 12.2 8.91 -5.24 -5.44 -5.3 -5.5 12.32 9.02 -5.3 -5.49 -5.23 -5.44 12.18 8.9 -5.23 -5.44 -5.39 -5.25 12.45 8.49 -5.4 -5.26 -5.46 -5.14 12.55 8.23 -5.47 -5.15 -5.9 -3.39 12.89 4.4 -5.91 -3.39 -5.09 -1.24 10.49 -0.12 -5.1 -1.24 -4.75 -0.22 9.27 -2.17 -4.76 -0.22 -3.5 0.58 6.1 -3.62 -3.5 0.58 -3.91 0.92 6.82 -4.26 -3.91 0.92 -4.85 1.66 8.55 -5.66 -4.86 1.66 -4.99 1.74 8.83 -5.83 -5 1.74 -5.48 1.98 9.81 -6.31 -5.49 1.98 -5.96 2.22 10.76 -6.78 -5.96 2.22 -6.52 2.49 11.89 -7.34 -6.53 2.5 -6.51 2.49 11.87 -7.33 -6.52 2.49 -6.66 2.58 12.16 -7.5 -6.66 2.58 -6.9 2.7 12.63 -7.75 -6.9 2.7 -6.88 2.71 12.6 -7.75 -6.89 2.7 -6.96 2.75 12.75 -7.84 -6.96 2.75 -6.87 2.71 12.58 -7.76 -6.88 2.71 -6.55 2.55 11.93 -7.44 -6.55 2.55 -6.31 2.42 11.44 -7.19 -6.3 2.43 -6.15 2.34 11.12 -7.03 -6.15 2.35 -6.46 2.51 11.76 -7.36 -6.47 2.51 -7.03 2.79 12.89 -7.93 -7.03 2.8 -6.96 2.75 12.74 -7.85 -6.96 2.76 -0.1 -0.21 -0.17 -0.34 -0.17 -0.33 -0.09 -0.19 -0.16 -0.33 -0.01 -0.01 -0.47 -1.18 -0.96 -2.38 -0.47 -1.2 1.45 0 2.91 0 1.46 0 1.45 0 2.91 0 1.45 0 1.46 0 2.91 0 1.45 0 1.44 0.03 2.88 0.04 1.45 0.02 0 0.01 0.29 0.54 0.68 1.28 1.38 2.56 0.69 1.28 0.68 1.28 1.38 2.57 0.69 1.28 0.32 0.61 0.69 1.28 1.38 2.57 0.68 1.28 0.56 1.04 0.66 1.3 1.32 2.59 0.67 1.29 1.13 2.23 0.67 1.29 1.34 2.58 0.67 1.29 0.77 1.01 1.53 2.03 0.76 1.01 1.23 -0.74 2.46 -1.47 0.62 -0.37 0.23 -0.14 0.29 -0.17 0.09 -0.06 0.33 -0.39 0.58 -0.68 -4.36 -4.54 10.41 7.08 -4.36 -4.54 0.3 -0.36 -4.27 -4.47 10.23 6.94 -4.27 -4.47 0.37 -0.43 -3.97 -4.23 9.63 6.47 -3.96 -4.23 0.31 -0.37 -3.9 -4.28 9.52 6.59 -3.9 -4.28 0.82 -0.93 -3.69 -4.93 9.29 8.08 -3.68 -4.93 -3.69 -4.93 9.29 8.08 -3.68 -4.93 -3.69 -4.93 9.29 8.08 -3.69 -4.93 -3.68 -4.93 9.29 8.07 -3.69 -4.93 -3.68 -4.93 9.28 8.08 -3.68 -4.93 -3.69 -4.93 9.29 8.08 -3.68 -4.93 -3.69 -4.93 9.29 8.08 -3.68 -4.93 -3.69 -4.93 9.29 8.08 -3.68 -4.93 -3.69 -4.93 9.29 8.08 -3.69 -4.93 -3.68 -4.93 9.29 8.08 -3.69 -4.94 -3.68 -4.93 9.29 8.08 -3.69 -4.93 0.25 -2.88 2.09 5.39 0.25 -2.88 0.14 -0.02 0.79 -0.11 0.77 -0.12 21.59 0 -17.6 20.24 0 0 -0.1 0.12 -0.24 0.28 -0.14 0.16 -0.73 0.83 -0.23 0.26 -0.95 1.1 -1.91 2.2 -0.96 1.09 -0.59 0.68 -0.95 1.1 -1.91 2.19 -0.95 1.1 -2.03 2.33 -0.95 1.1 -1.91 2.19 -0.95 1.1 -0.33 0.37 -1.9 2.19 -0.95 1.09 -1.91 2.2 -0.95 1.1 -1.05 1.2 -0.02 0.02 -0.95 1.1 -1.91 2.2 -0.95 1.09 -0.92 1.13 -1.78 2.21 -0.04 0.05 -0.12 0.15 -0.67 0.83 -0.13 0.15 -0.54 0.79 0 0.23 -0.03 1.18 0 0.01 0.17 1.41 0.33 2.83 0.16 1.41 0.04 0.07 0.35 0.69 0.34 0.66 0.11 0.22 0 0.01 0.41 0.81 0.66 1.29 0.66 1.3 1.32 2.59 0.66 1.3 0.67 1.29 1.33 2.59 0.66 1.29 0.67 1.29 1.33 2.59 0.67 1.29 0.67 1.29 1.33 2.59 0.67 1.29 0.67 1.29 1.34 2.58 0.67 1.3 0.07 0.13 0.03 0.06 9.02 17.4 -21.48 0 -0.11 0 -0.13 0 -0.58 0 -0.33 0 -0.72 4.84 -1.17 -9.73 -0.72 4.85 -0.36 -0.05 -4.51 1.63 7.79 -5.58 -4.5 1.63 -0.09 -0.16 -5.01 1.9 8.8 -6.12 -5.01 1.91 -0.29 -0.56 -5.61 2.22 10 -6.75 -5.61 2.22 -0.36 -0.67 -6.19 2.52 11.17 -7.36 -6.2 2.52 -0.49 -0.93 -7.03 2.97 12.85 -8.25 -7.04 2.96 -7.02 2.94 12.84 -8.19 -7.03 2.93 -6.98 2.69 12.81 -7.72 -6.98 2.68 -6.98 2.69 12.8 -7.73 -6.97 2.69 -6.97 2.9 12.72 -8.12 -6.97 2.9 -6.95 2.96 12.68 -8.23 -6.96 2.96 -6.95 2.96 12.68 -8.23 -6.95 2.96 -5.84 4.45 10.01 -10.73 -5.83 4.44 -3.06 5.75 3.68 -12.48 -3.05 5.75 2.45 3.9 -6.83 -6.19 2.45 3.9 2.61 3.7 -7.08 -5.56 -0.01 -0.01 -0.03 -0.02 0.02 0.02 0.01 0.02 2.58 3.66 2.61 3.69 -7.03 -5.52 -0.03 -0.02 -0.04 -0.04 -0.02 -0.01 0.01 0.02 0.03 0.04 0.02 0.03 2.55 3.61 2.58 3.2 -6.91 -4.46 2.58 3.21 2.58 3.2 -6.91 -4.46 2.58 3.2 2.08 2.73 -5.9 -3.51 2.08 2.73 -0.15 0.17 -0.03 0.03 -0.05 0.06 -0.23 0.26 -0.1 0.12 -1.13 1.28 -0.95 1.1 -0.96 1.09 -1.92 2.19 -0.96 1.1 -0.96 1.09 -1.91 2.19 -0.96 1.09 -0.17 0.2 -0.96 1.09 -6 6.65zm106.81 0l-0.66 3.13 -1.31 -6.26 -0.65 3.13 -0.2 0 -11.86 0 -0.43 0 -0.44 0 -1.02 0 -0.66 0.5 -1.31 -1 -0.65 0.5 -0.6 0 -0.69 0.21 -1.23 -0.73 -0.68 0.21 -0.13 -0.36 -6.1 -1.94 12.73 1.32 -6.09 -1.94 0.01 -0.04 -6.24 -1.97 13.01 1.39 -6.24 -1.98 0.01 -0.04 -6.38 -2.01 13.3 1.45 -6.38 -2 0.01 -0.05 -6.53 -2.04 13.59 1.51 -6.52 -2.03 0.01 -0.06 -6.67 -2.07 13.87 1.57 -6.67 -2.06 0.01 -0.01 -6.63 -2.06 13.78 1.55 -6.62 -2.06 0.02 -0.06 -6.77 -2.08 14.07 1.61 -6.77 -2.09 0.01 -0.01 -6.72 -2.07 13.97 1.58 -6.72 -2.07 0.1 -0.48 -6.81 -2.1 14.17 1.63 -6.82 -2.1 0 -0.01 -6.77 -2.08 14.08 1.61 -6.77 -2.09 0.1 -0.48 -6.87 -2.11 14.28 1.65 -6.87 -2.1 0.08 -0.38 0.01 -0.05 -6.78 -2.09 14.09 1.62 -6.78 -2.09 0.02 -0.07 -6.93 -2.12 14.39 1.68 -6.93 -2.12 0.04 -0.16 0.08 -0.4 0.07 -0.35 -6.99 -2.13 14.52 1.7 -6.99 -2.13 0.04 -0.18 0.05 -0.24 -6.9 -2.12 14.33 1.67 -6.89 -2.12 0.08 -0.41 0.09 -0.41 0.03 -0.15 -7.15 -2.17 14.84 1.77 -7.15 -2.16 0.07 -0.37 0.02 -0.05 -7.07 -2.15 14.66 1.73 -7.06 -2.15 0.07 -0.34 0.02 -0.08 -6.97 -2.13 14.48 1.7 -6.97 -2.13 0.06 -0.31 0.04 -0.18 -7.08 -2.15 14.69 1.73 -7.07 -2.14 0.07 -0.35 0.11 -0.52 0.01 -0.04 -7.14 -2.17 14.81 1.77 -7.14 -2.17 0.08 -0.36 0.19 -0.93 0.01 -0.03 -7.16 -2.17 14.86 1.78 -7.16 -2.17 0.08 -0.37 0.19 -0.93 0.17 -0.81 0.02 -0.12 -7.29 -2.2 15.13 1.83 -7.3 -2.2 0.17 -0.8 0.19 -0.92 0.02 -0.1 -7.29 -2.2 15.13 1.83 -7.3 -2.19 0.06 -0.31 0.35 -1.63 -6.93 -2.12 14.39 1.67 -6.93 -2.12 0.22 -1.02 0.09 -0.42 -6.71 -2.08 13.95 1.59 -6.71 -2.08 0.14 -0.65 -6.41 -2.01 13.36 1.46 -6.41 -2.02 -6.41 -2.01 13.36 1.46 -6.41 -2.01 -6.42 -2.01 13.36 1.46 -6.41 -2.01 -6.41 -2.01 13.36 1.46 -6.41 -2.01 -6.43 -3.04 13.75 3.61 -6.43 -3.03 -6.39 -3.22 13.74 4 -6.39 -3.22 -6.39 -3.21 13.74 4 -6.39 -3.22 -6.39 -3.22 13.74 4 -6.39 -3.22 -6.39 -3.22 13.74 4 -6.39 -3.21 -6.39 -3.22 13.73 4 -6.38 -3.22 -6.39 -3.22 13.73 4 -6.39 -3.22 -6.38 -3.21 13.73 4 -6.39 -3.22 0.65 -0.78 1.32 1.54 0.65 -0.78 0.09 0 0.83 -0.01 37.67 0c7.98,0 14.26,0.95 18.88,2.83 4.64,1.87 8.31,4.97 11.01,9.31 2.5,4.03 3.85,8.79 4.03,14.25l0.14 0.66 -0.37 1.3 0.14 0.66 0.3 0.67 -0.75 1.27 0.3 0.67 0.41 0.73 -1.19 1.14 0.4 0.72 0.41 0.73 -1.2 1.14 0.41 0.72 0.55 0.84 -1.81 0.86 0.56 0.83 0.57 0.88 -1.97 0.72 0.57 0.88 0.38 0.87 -1.77 0.68 0.38 0.86 0.12 0.79 -1.38 0.79 0.12 0.78 -0.17 0.34 -0.13 0.27 -0.33 0.65 -0.65 1.3 -0.33 0.65 -0.36 0.62 -0.73 1.25 -0.37 0.63 -0.44 0.58 -0.89 1.15 -0.44 0.58 -0.49 0.53 -0.98 1.07 -0.49 0.54 -0.54 0.5 -1.06 0.99 -0.54 0.49 -0.48 0.38 -0.09 0.07 -1.14 0.89 -0.3 0.24 -1.25 0.74 -2.49 1.5 -1.25 0.74 -2.06 0.86 -1.39 0.43 -2.77 0.86 -1.39 0.44 -2.35 0.5 -1.43 0.23 -2.87 0.47 -1.44 0.23 -2.27 0.28 -1.46 0.07 -2.9 0.15 -1.45 0.07 -2.69 0.14 -1.45 0.02 -2.79 0.05 -0.12 0.01 -0.3 0 -1.02 0.02 -0.14 0 -0.44 0.01 -0.65 1.41 -1.33 -2.8 -0.64 1.41 -1.35 0.01 -0.66 0.59 -1.31 -1.17 -0.65 0.59 -0.13 0 -0.63 0.35 -1.34 -0.52 -0.64 0.35 -0.63 0.35 -1.35 -0.52 -0.63 0.35 -0.47 0.88 -1.61 -1.16 -0.47 0.88 -0.17 0.04 0.09 1.08 -2.14 -0.42 0.1 1.08 -1.08 1.13 3.13 1.34 -6.81 -0.12 3.13 1.34 -0.14 0.65 3.39 1.39 -7.33 -0.22 3.4 1.39 -0.31 1.46 3.76 1.47 -8.07 -0.37 3.77 1.46 -0.02 0.07 3.73 1.44 -7.99 -0.33 3.73 1.45 -0.11 0.52 3.63 1.43 -7.81 -0.3 3.64 1.43 3.64 1.43 -7.81 -0.29 3.63 1.43 3.64 1.43 -7.81 -0.3 3.64 1.43 3.63 1.43 -7.81 -0.3 3.64 1.43 3.64 1.43 -7.81 -0.3 3.63 1.43 3.64 1.43 -7.81 -0.3 3.63 1.44 3.64 1.43 -7.81 -0.3 3.64 1.43 3.64 1.43 -7.82 -0.3 3.64 1.43 3.64 1.43 -7.81 -0.3 3.64 1.43 -0.09 0.43 -0.3 1.41 -0.07 0.35zm12.64 -60.5l0.6 -2.85 1.42 5.65 0.6 -2.85 0.6 -2.85 1.42 5.65 0.6 -2.85 0.6 -2.85 1.42 5.65 0.6 -2.85 0.59 -2.86 1.43 5.66 0.59 -2.86 0.6 -2.85 1.42 5.65 0.6 -2.85 0.6 -2.85 1.42 5.65 0.6 -2.85 0.95 -0.02 0.79 -0.02 1.45 -0.12 0.18 -0.01 0.2 -0.01 0.41 -0.04 0.22 -0.01 0.22 -0.02 0.42 -0.03 0.27 -4.51 2.06 8.8 0.28 -4.51 0.61 -0.08 0.02 -3.73 2.54 7.02 0.02 -3.73 0.38 -0.07 -0.02 -3.13 2.6 5.69 -0.02 -3.12 0.77 -0.28 -0.58 -3.06 3.57 5.1 -0.58 -3.06 0.41 -0.18 -0.96 -2.94 4.19 4.56 -0.97 -2.94 1.38 -1.04 -1.86 -3.05 5.66 4.35 -1.85 -3.05 1.2 -1.31 -4.46 -2.96 10.08 3.58 -4.45 -2.96 -4.46 -2.96 10.08 3.58 -4.45 -2.96 -5 -2.76 10.99 3.11 -5 -2.76 -6.22 -1.86 12.93 1.16 -6.22 -1.87 -6.71 -1.19 13.63 -0.21 -6.71 -1.2 -7.19 0.24 14.06 -3.05 -7.19 0.23 -7.06 2.16 13.15 -6.74 -7.07 2.16 -6.07 4.03 10.52 -10.09 -6.08 4.03 -4.56 5.17 7.01 -11.88 -4.56 5.17 -2.83 5.58 3.23 -12.09 -2.84 5.58 -1.53 5.36 0.48 -11.14 -1.53 5.36 -1.13 5.15 -0.35 -10.54 -1.12 5.15 -0.88 4.94 -0.86 -10 -0.88 4.94 -0.06 0 -0.62 -0.03 -0.16 0 -0.28 -0.02 -0.06 0 -0.61 -0.03 -0.46 -0.01 -1.45 -0.04 -0.42 -0.02 -1.46 0 -2.91 0 -1.45 0 -2.87 0 -0.15 0 -0.34 0 -0.66 1.79 -1.31 -3.58 -0.65 1.79 -0.31 0 -0.36 1.78 -1.86 -3.13 -0.36 1.78 -1.42 0.67 2.88 3.38 -7.48 -4.78 2.88 3.38 -0.88 1.82 6.68 2.07 -11.59 -1.31 -0.1 -0.01 -0.06 -0.01 -0.02 0 -0.04 -0.01 -0.02 0 -0.13 -0.01 -0.45 -0.05 -0.97 -0.11 -0.51 -0.06 0.52 0.16 0.95 0.29 0.23 0.08 0.14 0.04 0.08 0.02 0.03 0.01 0.01 0.01 0.11 0.03 0.05 0.02 4.56 1.41 6.67 2.06 -11.83 -1.34 -0.31 -0.03 -0.12 -0.02 -0.12 -0.01 -0.37 -0.04 -0.09 -0.01 -0.25 -0.03 -0.03 0 -0.16 -0.02 -0.21 -0.03 -0.4 -0.04 0.34 0.1 0.29 0.09 0.04 0.01 0.01 0.01 0.24 0.07 0.21 0.07 0.22 0.07 0.14 0.04 0.2 0.06 0.24 0.08 4.75 1.47 6.68 2.07 -12.29 -1.4 -0.08 0 -0.17 -0.02 -0.11 -0.02 -0.57 -0.06 -0.31 -0.04 -0.23 -0.02 -0.13 -0.02 0.11 0.04 0.25 0.08 0.23 0.06 0.64 0.21 0.07 0.02 0.09 0.02 0.11 0.04 5.17 1.6 6.68 2.07 -12.43 -1.41 -0.31 -0.04 -0.14 -0.01 -0.14 -0.02 -0.38 -0.04 -0.01 0 -0.48 -0.06 0.42 0.14 0.07 0.02 0.36 0.11 0.07 0.02 0.15 0.05 0.34 0.1 5.26 1.63 6.68 2.07 -12.63 -1.43 -0.3 -0.03 -0.03 -0.01 -0.44 -0.05 -0.32 -0.03 -0.17 -0.02 0.17 0.05 0.27 0.08 0.47 0.15 0 0 0.27 0.08 5.5 1.7 6.68 2.07 -12.94 -1.46 -0.33 -0.04 -0.01 0 -0.01 0 -0.32 -0.04 -0.29 -0.03 0.29 0.09 0.26 0.08 0.03 0.01 0.02 0.01 0.31 0.09 5.77 1.79 6.68 2.07 -13.24 -1.51 -0.05 0 -0.06 -0.01 -0.16 -0.01 -0.38 -0.05 0.38 0.12 0.12 0.04 0.08 0.02 0.03 0.01 6.06 1.88 6.68 2.07 -13.26 -1.5 -0.13 -0.02 -0.06 -0.01 -0.19 -0.02 -0.19 -0.02 -0.06 -0.01 0.06 0.02 0.17 0.06 0.21 0.06 0.03 0.01 0.14 0.04 6.06 1.88 6.68 2.07 -13.33 -1.51 -0.09 -0.01 -0.01 0 -0.3 -0.04 -0.16 -0.01 0.15 0.04 0.29 0.09 0.01 0.01 0.08 0.02 6.15 1.9 6.68 2.07 -13.46 -1.52 -0.09 -0.01 -0.1 -0.01 -0.05 -0.01 -0.2 -0.02 0.19 0.06 0.04 0.01 0.11 0.03 0.08 0.03 6.26 1.94 -0.12 0.55 -0.1 0.47zm90.31 -49.72l1.34 0 18.73 0 2.25 0 -0.03 0.15 -0.11 0.5 5.2 1.74 -10.91 -0.91 5.19 1.74 -0.18 0.88 5.31 1.76 -11.16 -0.96 5.32 1.76 -0.2 0.98 4.99 1.7 -10.51 -0.83 4.99 1.7 -0.09 0.42 4.94 1.68 -10.41 -0.8 4.94 1.68 -0.21 1.02 4.62 1.62 -9.76 -0.67 4.62 1.62 -0.11 0.53 4.35 1.56 -9.23 -0.55 4.35 1.56 4.36 1.55 -9.24 -0.55 4.36 1.56 4.35 1.56 -9.23 -0.55 4.35 1.56 4.36 1.55 -9.23 -0.55 4.35 1.56 4.35 1.56 -9.23 -0.55 4.36 1.56 4.35 1.55 -9.23 -0.55 4.35 1.56 4.36 1.56 -9.24 -0.55 4.36 1.56 4.35 1.55 -9.23 -0.55 4.35 1.56 3.92 0.21 -7.55 2.13 3.91 0.21 2.12 -2.22 -2.3 5.68 2.11 -2.22 0.76 -3.68 1.11 7.44 0.75 -3.69 0.72 -3.7 1.18 7.45 0.72 -3.7 0.71 -3.71 1.19 7.46 0.71 -3.71 0.72 -3.71 1.19 7.46 0.71 -3.7 0.72 -3.71 1.18 7.46 0.72 -3.71 0.72 -3.71 1.18 7.46 0.72 -3.71 0.71 -3.7 1.19 7.45 0.72 -3.7 1.01 0.01 0.52 0.01 0.85 0.01 0.72 0.04 1.46 0.06 0.72 0.03 0.37 0.02 0.42 0.02 0.73 0.05 1.45 0.1 0.72 0.05 0.67 0.07 0.77 0.09 0.72 0.08 1.44 0.16 0.73 0.08 0.71 0.13 1.43 0.26 0.72 0.12 0.71 0.16 1.42 0.3 0.71 0.15 0.71 0.17 1.42 0.33 0.7 0.17 0.68 0.26 1.36 0.52 0.67 0.26 0.66 0.3 1.32 0.61 0.66 0.3 0.62 0.38 1.24 0.77 0.62 0.38 0.56 0.45 1.14 0.91 0.57 0.45 0.5 0.52 1.02 1.04 0.5 0.52 0.44 0.59 0.87 1.16 0.43 0.58 0.36 0.63 0.72 1.26 0.37 0.63 0.29 0.67 0.58 1.33 0.29 0.67 0.22 0.69 0.45 1.38 0.23 0.69 0.04 0.18 0.33 1.3 0.17 0.71 0.11 0.71 0.23 1.44 0.11 0.72 0.08 0.72 0.16 1.44 0.08 0.73 0.03 0.77 0.04 0.87 0.02 0.92 0.01 0.73 -0.03 0.73 -0.07 1.45 -0.03 0.73 -0.08 0.72 -0.15 1.44 -0.07 0.73 -0.04 0.28 -0.1 0.69c-1.37,7.93 -5.07,14.46 -11.13,19.62 -7.82,6.67 -18.86,10.01 -33.1,10.01l-54 0 0.54 -2.57 0 -0.01 0.1 -0.49 -5.88 -1.9 12.3 1.24 -5.88 -1.9 0.09 -0.42 -6.05 -1.93 12.63 1.3 -6.05 -1.93 0.09 -0.43 -6.21 -1.97 12.96 1.38 -6.21 -1.97 0.09 -0.43 -6.38 -2 13.29 1.44 -6.37 -2 0.19 -0.93 -6.49 -2.03 13.52 1.49 -6.49 -2.03 0.09 -0.44 -6.66 -2.06 13.86 1.56 -6.66 -2.06 0.18 -0.89 -6.55 -2.04 13.64 1.52 -6.55 -2.04 0.2 -0.93 -6.68 -2.07 13.89 1.57 -6.68 -2.07 0.19 -0.88 -6.57 -2.04 13.68 1.52 -6.58 -2.04 0.29 -1.37 -6.42 -2.02 13.38 1.47 -6.42 -2.02 0.12 -0.59 0.14 -0.64 0.14 -0.67 -6.45 -2.02 13.43 1.47 -6.45 -2.01 0.04 -0.16 0.06 -0.29 -6.61 -2.05 13.75 1.54 -6.61 -2.05 0.06 -0.25 0.03 -0.17 0.1 -0.46 0 0 -6.51 -2.03 13.55 1.5 -6.5 -2.04 0.11 -0.52 0.07 -0.36 -6.4 -2.01 13.34 1.45 -6.4 -2.01 0.13 -0.62 0.06 -0.31 -6.52 -2.03 13.58 1.51 -6.52 -2.04 0.08 -0.4 -6.46 -2.02 13.46 1.48 -6.46 -2.02 0.01 -0.04 0.23 -1.08 0.16 -0.78 -6.49 -2.03 13.52 1.49 -6.49 -2.02 0.01 -0.06 0.18 -0.88 -6.61 -2.05 13.76 1.54 -6.61 -2.05 0.09 -0.42 0.31 -1.48 -6.64 -2.06 13.81 1.55 -6.64 -2.05 0.1 -0.44 0.32 -1.53 -6.89 -2.11 14.3 1.66 -6.88 -2.11 0.08 -0.39 0.34 -1.59 -7.13 -2.17 14.79 1.77 -7.13 -2.17 0.19 -0.86 -7.03 -2.15 14.59 1.72 -7.03 -2.14 -7.02 -2.14 14.59 1.72 -7.03 -2.14 -7.03 -2.14 14.59 1.72 -7.02 -2.14 -7.03 -2.14 14.59 1.72 -7.03 -2.14 -7.02 -2.15 14.59 1.73 -7.03 -2.15 -7.03 -2.14 14.59 1.72 -7.02 -2.14 -7.03 -2.14 14.59 1.72 -7.03 -2.14 -7.02 -2.14 14.59 1.72 -7.03 -2.14 -7.03 -2.15 14.6 1.73 -7.03 -2.15 -7.03 -2.14 14.59 1.72 -7.02 -2.14 -7.03 -2.14 14.59 1.72 -7.03 -2.14 -7.02 -2.14 14.58 1.72 -7.02 -2.14 0.16 -0.78 0.02 -0.09zm3.34 92.21l22.73 0c3.07,0 5.84,-0.13 8.33,-0.39l-0.47 -7.43 3.53 14.47 -0.47 -7.43 -0.65 -7.56 3.88 14.66 -0.65 -7.55 -1.26 -7.27 5.04 13.86 -1.25 -7.27 -1.89 -6.68 6.21 12.43 -1.88 -6.69 -2.7 -5.96 7.65 10.61 -2.69 -5.96 -3.82 -4.97 9.53 8.14 -3.82 -4.97 -4.7 -4.23 10.94 6.36 -4.7 -4.24 -5.48 -3.64 12.19 4.97 -5.49 -3.64 -6.19 -3.13 13.34 3.83 -6.19 -3.13 -7.08 -2.47 14.8 2.41 -7.08 -2.47 -6.72 -1 13.57 -0.62 -6.72 -0.99 -5.76 0.02 11.22 -2.64 -5.76 0.03 -4.81 0.93 8.78 -4.35 -4.81 0.94 -4.11 1.69 6.88 -5.63 -4.11 1.7 -3.54 2.02 5.43 -6.08 -3.54 2.02 -2.83 2.63 3.58 -6.84 -2.83 2.63 -2.57 3.25 2.85 -7.78 -2.57 3.25 -1.95 3.84 1.42 -8.5 -1.95 3.84 -0.92 -0.24 -0.37 -0.04 -0.05 -0.01 -0.11 -0.01 -0.2 -0.02 -0.34 -0.04 -0.32 -0.04 -0.3 -0.03 -0.28 -0.04 -0.73 -0.08 -0.72 -0.08 -1.44 -0.17 -0.73 -0.08 -0.72 -0.04 -1.45 -0.06 -0.73 -0.03 -0.73 -0.01 -1.45 -0.02 -0.73 -0.01 -0.73 0 -1.45 -0.02 -0.73 -0.01 -0.72 0 -1.46 -0.02 -0.73 -0.01 -0.72 0 -1.46 -0.02 -0.73 0 -0.72 0 -1.46 -0.01 -0.72 0 -0.73 -0.01 -1.46 0 -0.72 -0.01 -0.73 0.06 -1.45 0.1 -0.72 0.06 -0.61 0.39 -1.21 0.8 -0.6 0.39 -0.25 0.67 -0.49 1.33 -0.25 0.67 -0.15 0.71 -0.29 1.42 -0.15 0.72 -0.14 0.71 -0.3 1.42 -0.14 0.72 -0.15 0.71 -0.29 1.42 -0.15 0.71 -0.04 0.2 -0.39 1.89 -0.03 0.17 -0.06 0.29 -0.24 1.13 -0.14 0.71 -0.15 0.72 -0.29 1.42 -0.15 0.71 -0.14 0.72 -0.3 1.42 -0.15 0.71 -0.14 0.71 -0.29 1.43 -0.15 0.71 -0.26 1.24 -1.01 4.95z"/>
 </g>
</svg>
