<?xml version="1.0" encoding="UTF-8"?>
<!DOCTYPE svg PUBLIC "-//W3C//DTD SVG 1.1//EN" "http://www.w3.org/Graphics/SVG/1.1/DTD/svg11.dtd">
<!-- Creator: CorelDRAW 2021.5 -->
<svg xmlns="http://www.w3.org/2000/svg" xml:space="preserve" width="504px" height="215px" version="1.1" style="shape-rendering:geometricPrecision; text-rendering:geometricPrecision; image-rendering:optimizeQuality; fill-rule:evenodd; clip-rule:evenodd"
viewBox="0 0 504 215"
 xmlns:xlink="http://www.w3.org/1999/xlink"
 xmlns:xodm="http://www.corel.com/coreldraw/odm/2003">
 <defs>
  <style type="text/css">
   <![CDATA[
    .str0 {stroke:#2B2A29;stroke-width:4;stroke-miterlimit:22.9256}
    .fil0 {fill:none}
   ]]>
  </style>
 </defs>
 <g id="Слой_x0020_1">
  <metadata id="CorelCorpID_0Corel-Layer"/>
  <path class="fil0 str0" d="M0.71 93.88c100.19,58.64 126.82,-43.66 169.52,-50.89 13.73,-3.74 62.48,-2.01 55.36,29.57 -10.45,21.39 -47.83,2.5 -35.42,-26.13 7.76,-14.04 17.1,-29.89 41.61,-28.54 24.57,1.82 41,38.72 31.63,82.87 -4.42,25.09 -20.22,60.4 -32.67,72.55 -6.62,6.46 -11,13.53 -22.08,18.1 -15.42,8.3 -57.46,8.47 -56.54,-15.03 14.16,-27.99 42.16,-24.81 68.3,-12.15 6.56,3.17 8.29,5.37 19.24,11.04 -3.61,-1.92 41.15,25.09 59.95,-8.77 15.51,-15.42 24.98,-88.48 52.99,-132.08 4.84,-7.02 10.95,-12.77 18.19,-17.39 34.13,-4 47.13,15.1 41.13,45.87l-5.15 13.44c-16.31,32.37 -39.16,19.42 -43.89,11.07 -0.94,-4.7 5.47,-7.79 9.72,-7.18 7.87,1.13 15.17,2.3 21.34,4.83 16.47,6.74 36.18,23.44 29.94,56.78 0,0 -0.12,1.89 -0.17,2.37 -0.16,1.68 -0.35,2.12 -0.56,3.32 -0.54,3 -1.42,5.84 -3.66,9.73 -12.01,20.92 -30.59,35.45 -51.72,35.27 -13.28,-0.11 -24.44,-9.12 -34.69,-23.21 -2.1,-5.52 -3.66,-17.32 5.81,-16.22 5.41,1.85 9.17,4.56 11.83,7.19 5.69,2.81 11.01,8.43 16.83,11.36 24.38,12.27 51.29,22.6 75.41,23.93 6.8,0.38 13.26,0.1 19.52,-1.13 5.76,-1.12 10.3,-1.57 15.79,-4.54 4,-2.16 8.99,-6.35 12.94,-9.7 10.61,-13.93 10.43,-26.5 6.94,-38.63"/>
 </g>
</svg>
