<?xml version="1.0" encoding="UTF-8"?>
<!DOCTYPE svg PUBLIC "-//W3C//DTD SVG 1.1//EN" "http://www.w3.org/Graphics/SVG/1.1/DTD/svg11.dtd">
<!-- Creator: CorelDRAW 2021.5 -->
<svg xmlns="http://www.w3.org/2000/svg" xml:space="preserve" width="504px" height="215px" version="1.1" style="shape-rendering:geometricPrecision; text-rendering:geometricPrecision; image-rendering:optimizeQuality; fill-rule:evenodd; clip-rule:evenodd"
viewBox="0 0 504 215"
 xmlns:xlink="http://www.w3.org/1999/xlink"
 xmlns:xodm="http://www.corel.com/coreldraw/odm/2003">
 <defs>
  <style type="text/css">
   <![CDATA[
    .fil2 {fill:url(#id0)}
    .fil6 {fill:url(#id1)}
    .fil9 {fill:url(#id2)}
    .fil5 {fill:url(#id3)}
    .fil7 {fill:url(#id4)}
    .fil1 {fill:url(#id5)}
    .fil8 {fill:url(#id6)}
    .fil11 {fill:url(#id7)}
    .fil10 {fill:url(#id8)}
    .fil4 {fill:url(#id9)}
    .fil0 {fill:url(#id10)}
    .fil3 {fill:url(#id11)}
   ]]>
  </style>
  <linearGradient id="id0" gradientUnits="userSpaceOnUse" x1="0.55" y1="182.04" x2="547.46" y2="-12.78">
   <stop offset="0" style="stop-opacity:1; stop-color:#868588"/>
   <stop offset="0.129412" style="stop-opacity:1; stop-color:#535054"/>
   <stop offset="0.341176" style="stop-opacity:1; stop-color:#1F1B20"/>
   <stop offset="0.54902" style="stop-opacity:1; stop-color:#1F1B20"/>
   <stop offset="0.701961" style="stop-opacity:1; stop-color:#1F1B20"/>
   <stop offset="0.870588" style="stop-opacity:1; stop-color:#1F1B20"/>
   <stop offset="1" style="stop-opacity:1; stop-color:black"/>
  </linearGradient>
  <linearGradient id="id1" gradientUnits="userSpaceOnUse" xlink:href="#id0" x1="0.55" y1="182.04" x2="547.46" y2="-12.78">
  </linearGradient>
  <linearGradient id="id2" gradientUnits="userSpaceOnUse" xlink:href="#id0" x1="0.54" y1="182.05" x2="547.46" y2="-12.78">
  </linearGradient>
  <linearGradient id="id3" gradientUnits="userSpaceOnUse" xlink:href="#id0" x1="31.82" y1="167.47" x2="540.93" y2="1.79">
  </linearGradient>
  <linearGradient id="id4" gradientUnits="userSpaceOnUse" xlink:href="#id0" x1="0.55" y1="182.04" x2="547.46" y2="-12.78">
  </linearGradient>
  <linearGradient id="id5" gradientUnits="userSpaceOnUse" xlink:href="#id0" x1="0.57" y1="182.04" x2="547.46" y2="-12.77">
  </linearGradient>
  <linearGradient id="id6" gradientUnits="userSpaceOnUse" xlink:href="#id0" x1="0.55" y1="182.05" x2="547.46" y2="-12.78">
  </linearGradient>
  <linearGradient id="id7" gradientUnits="userSpaceOnUse" xlink:href="#id0" x1="0.55" y1="182.04" x2="547.46" y2="-12.78">
  </linearGradient>
  <linearGradient id="id8" gradientUnits="userSpaceOnUse" xlink:href="#id0" x1="0.55" y1="182.04" x2="547.46" y2="-12.78">
  </linearGradient>
  <linearGradient id="id9" gradientUnits="userSpaceOnUse" xlink:href="#id0" x1="99.11" y1="270.98" x2="384.79" y2="47.23">
  </linearGradient>
  <linearGradient id="id10" gradientUnits="userSpaceOnUse" xlink:href="#id0" x1="0.55" y1="182.04" x2="547.46" y2="-12.78">
  </linearGradient>
  <linearGradient id="id11" gradientUnits="userSpaceOnUse" xlink:href="#id0" x1="254.62" y1="81.69" x2="413.31" y2="62.74">
  </linearGradient>
 </defs>
 <g id="Слой_x0020_1">
  <metadata id="CorelCorpID_0Corel-Layer"/>
  <g id="_1466960520592">
   <path class="fil0" d="M339.73 139.74c1.12,-1.16 2.81,-1.78 5.28,-1.49 5.24,1.8 8.88,4.43 11.46,6.97 5.51,2.73 10.67,8.17 16.31,11.01 23.63,11.89 49.71,21.9 73.09,23.19 6.58,0.37 12.85,0.1 18.91,-1.09 5.58,-1.09 9.98,-1.53 15.31,-4.4 3.87,-2.09 8.71,-6.16 12.54,-9.4 1.16,-1.52 2.19,-3.03 3.09,-4.53l0.99 -1.7 -0.49 0.86 -17.12 29.65c-1.02,1.77 -2.21,3.56 -3.59,5.38 -3.83,3.24 -8.67,7.3 -12.54,9.39 -5.33,2.88 -9.73,3.31 -15.31,4.4 -6.06,1.19 -12.33,1.46 -18.91,1.1 -23.38,-1.29 -49.46,-11.31 -73.09,-23.2 -5.64,-2.84 -10.8,-8.28 -16.31,-11 -2.58,-2.55 -6.22,-5.18 -11.46,-6.98 -2.47,-0.28 -4.16,0.33 -5.28,1.49l17.12 -29.65z"/>
  </g>
  <g id="_1466960586448">
   <path class="fil1" d="M479.58 187.95c6.08,-11.06 5.51,-21.28 2.65,-31.21l17.12 -29.66c2.86,9.93 3.43,20.15 -2.64,31.22l-17.13 29.65z"/>
  </g>
  <g id="_1466960586496">
   <path class="fil2" d="M351.14 104.24c-0.24,-1.15 -0.01,-2.2 0.52,-3.12l17.12 -29.65c1.57,-2.72 5.82,-4.28 8.89,-3.84 7.63,1.1 14.71,2.23 20.69,4.68 15.96,6.54 35.06,22.71 29.01,55.03 0,0 -0.11,1.83 -0.16,2.3 -0.16,1.63 -0.34,2.05 -0.55,3.22 -0.52,2.9 -1.18,5.33 -3.54,9.43l-0.11 0.19 -17.12 29.65c-3.73,6.46 -8.11,12.29 -13.01,17.22l17.12 -29.65 0.06 -0.05 0.03 -0.35c0.05,-0.48 0.16,-2.3 0.16,-2.3 6.05,-32.32 -13.05,-48.5 -29.01,-55.04 -5.98,-2.44 -13.06,-3.58 -20.69,-4.68 -1.9,-0.27 -4.24,0.22 -6.13,1.28l-3.28 5.68z"/>
  </g>
  <g id="_1466960582752">
   <path class="fil3" d="M300.76 159.41c9.5,-26.73 19.16,-70 37.1,-101.07l17.12 -29.66 0.18 -0.31 -0.21 0.37 -43.99 117.02 -8.31 14.43 -1.89 -0.78z"/>
  </g>
  <g id="_1466960580592">
   <path class="fil4" d="M146.87 190.47l1.35 -2.5 17.12 -29.66c14.11,-24.42 40.32,-21.15 64.85,-9.27 6.33,3.06 8.02,5.19 18.51,10.64l0.01 0 0.01 0 0.01 0.01 0 0 0.02 0.01 0.01 0.01 0.01 0 0.01 0.01 0.03 0.01 0.01 0 0.01 0.01 -0.01 0.02c2.61,1.55 33.36,17.66 51.94,-0.35l1.89 0.78c-1.3,2.25 -11.44,19.31 -12.82,20.69 -18.26,31.61 -58.33,8.44 -58.32,8.42l0 -0.01c-10.43,-5.42 -12.12,-7.54 -18.44,-10.6 -23.72,-11.48 -49.02,-14.92 -63.41,6.96l-2.79 4.82z"/>
  </g>
  <g id="_1466960575648">
   <path class="fil5" d="M355.16 28.37c1.02,-1.75 2.06,-3.47 3.13,-5.13 4.69,-6.81 10.62,-12.38 17.63,-16.87 33.08,-3.87 45.68,14.64 39.86,44.46l-4.98 13.03 -17.13 29.65 4.99 -13.03c5.82,-29.81 -6.78,-48.33 -39.86,-44.45 -7.01,4.48 -7.41,2.89 -12.1,9.7 -1.07,1.67 -0.81,-1.3 -1.82,0.45l10.28 -17.81z"/>
  </g>
  <g id="_1466960573248">
   <path class="fil6" d="M410.8 63.86l-1.81 3.34 -17.12 29.65c-15.64,27.1 -36.32,15.18 -40.73,7.39l17.12 -29.65c4.24,7.48 23.5,18.78 38.88,-4.41l3.66 -6.32z"/>
  </g>
  <g id="_1466960569312">
   <path class="fil7" d="M17.25 80.86c97.1,56.83 122.91,-42.31 164.29,-49.32 13.32,-3.63 60.56,-1.95 53.65,28.66l-17.12 29.65c6.91,-30.61 -40.34,-32.29 -53.65,-28.66 -41.38,7.01 -67.19,106.15 -164.29,49.32l17.12 -29.65z"/>
  </g>
  <g id="_1466960558704">
   <path class="fil8" d="M183.75 64.53l2.29 -4.09 17.12 -29.65c7.17,-12.41 16.64,-24.76 38.03,-23.58 23.82,1.77 39.74,37.53 30.66,80.32 -3.04,17.26 -11.64,39.51 -20.69,55.18l-17.12 29.66c-3.7,6.4 -7.47,11.71 -10.97,15.12l17.12 -29.65c0.8,-0.78 1.61,-1.66 2.44,-2.62 5.51,-12.6 10.06,-26.45 12.1,-38.04 9.08,-42.78 -6.84,-78.55 -30.66,-80.31 -19.58,-1.08 -29.17,9.17 -36.15,20.43l-4.17 7.23z"/>
  </g>
  <g id="_1466960551552">
   <path class="fil9" d="M235.19 60.2l-0.61 1.16 -17.12 29.65c-10.89,18.86 -45.51,0.73 -33.71,-26.48l17.12 -29.66c-11.57,26.7 21.52,44.66 33.06,27.51l1.26 -2.18z"/>
  </g>
  <g id="_1466960547808">
   <path class="fil10" d="M392.88 189.35c-10.39,10.46 -23.13,16.89 -37,16.77 -12.87,-0.11 -23.69,-8.84 -33.63,-22.5 -1.34,-3.51 -2.45,-9.68 -0.43,-13.17l17.12 -29.66 0.79 -1.05 -1.37 2.38c-1.18,3.57 -0.17,8.74 1.01,11.85 9.94,13.65 20.76,22.39 33.63,22.5 13.87,0.11 26.61,-6.31 37,-16.77l-17.12 29.65z"/>
  </g>
  <g id="_1466960548720">
   <path class="fil11" d="M223.07 187.49c-6.42,6.27 -10.66,13.12 -21.4,17.55 -14.95,8.04 -55.69,8.21 -54.8,-14.57l17.12 -29.65c-0.89,22.77 39.86,22.6 54.8,14.56 10.74,-4.42 14.98,-11.28 21.4,-17.54l-17.12 29.65z"/>
  </g>
 </g>
</svg>
