<?xml version="1.0" encoding="UTF-8"?>
<!DOCTYPE svg PUBLIC "-//W3C//DTD SVG 1.1//EN" "http://www.w3.org/Graphics/SVG/1.1/DTD/svg11.dtd">
<!-- Creator: CorelDRAW 2021.5 -->
<svg xmlns="http://www.w3.org/2000/svg" xml:space="preserve" width="504px" height="215px" version="1.1" style="shape-rendering:geometricPrecision; text-rendering:geometricPrecision; image-rendering:optimizeQuality; fill-rule:evenodd; clip-rule:evenodd"
viewBox="0 0 504 215"
 xmlns:xlink="http://www.w3.org/1999/xlink"
 xmlns:xodm="http://www.corel.com/coreldraw/odm/2003">
 <defs>
  <style type="text/css">
   <![CDATA[
    .fil3 {fill:#F28E16}
    .fil2 {fill:url(#id0)}
    .fil0 {fill:url(#id1)}
    .fil1 {fill:url(#id2)}
   ]]>
  </style>
  <linearGradient id="id0" gradientUnits="userSpaceOnUse" x1="-385.14" y1="123.46" x2="1207.63" y2="-443.92">
   <stop offset="0" style="stop-opacity:1; stop-color:#868588"/>
   <stop offset="0.129412" style="stop-opacity:1; stop-color:#535054"/>
   <stop offset="0.341176" style="stop-opacity:1; stop-color:#1F1B20"/>
   <stop offset="0.54902" style="stop-opacity:1; stop-color:#1F1B20"/>
   <stop offset="0.701961" style="stop-opacity:1; stop-color:#1F1B20"/>
   <stop offset="0.870588" style="stop-opacity:1; stop-color:#1F1B20"/>
   <stop offset="1" style="stop-opacity:1; stop-color:black"/>
  </linearGradient>
  <linearGradient id="id1" gradientUnits="userSpaceOnUse" xlink:href="#id0" x1="-91.87" y1="395.97" x2="746.33" y2="-282.64">
  </linearGradient>
  <linearGradient id="id2" gradientUnits="userSpaceOnUse" xlink:href="#id0" x1="-381.06" y1="124" x2="1201.76" y2="-440.32">
  </linearGradient>
 </defs>
 <g id="Слой_x0020_1">
  <metadata id="CorelCorpID_0Corel-Layer"/>
  <g id="_1466975483072">
   <path class="fil0" d="M41 148.01l3.94 -7.29 49.86 -86.36c41.07,-71.14 117.41,-61.61 188.85,-27.03 18.45,8.93 23.37,15.12 53.92,30.99l0.02 0.01 0.02 0.01 0.02 0.01 0.03 0.01 0.05 0.03 0.03 0.02 0.03 0.01 0.03 0.02 0.06 0.03 0.04 0.02 0.03 0.02 -0.03 0.07c61.26,36.23 117.55,33.15 167.1,-17.08 -10.77,18.84 -36.82,67.76 -47.65,78.56 -53.18,92.08 -169.89,24.59 -169.86,24.53l0.01 -0.02c-30.37,-15.78 -35.31,-21.98 -53.7,-30.87 -69.1,-33.45 -142.77,-43.46 -184.69,20.26l-8.11 14.05z"/>
  </g>
  <g id="_1466975458400">
   <path class="fil1" d="M349.47 0.47c-1.75,3.21 -2.98,5.39 -4.74,8.45l-49.86 86.36c-10.77,18.65 -21.76,34.1 -31.95,44.05l49.86 -86.36c2.33,-2.27 4.69,-4.82 7.09,-7.64 6.52,-14.9 12.24,-29.41 17.53,-44.84l12.07 -0.02z"/>
  </g>
  <g id="_1466975457344">
   <path class="fil2" d="M262.92 139.33c-18.71,18.24 -31.05,38.2 -62.32,51.09 -43.53,23.42 -162.18,23.92 -159.6,-42.41l49.86 -86.36c-2.58,66.33 116.07,65.83 159.6,42.41 31.27,-12.89 43.61,-32.85 62.32,-51.09l-49.86 86.36z"/>
  </g>
  <path class="fil3" d="M123.36 203.37c-16.21,-0.63 -31.98,-3.41 -44.99,-8.86 -12.39,-5.2 -22.15,-12.81 -27.07,-23.28 -1.67,-3.56 -6.04,-15.68 -8.83,-25.77 -0.01,-0.04 -0.02,-0.07 -0.03,-0.11 -1.5,-5.44 -2.54,-10.28 -2.44,-12.85l-5.15 23.71c-0.36,9.27 2.51,12.82 5.87,19.97 6.29,13.39 18.2,22.88 33.12,29.14 14.3,6 31.5,9.05 49.11,9.73 29.61,1.15 60.61,-4.46 80.79,-13.94l0.04 -0.02c29.51,-14.15 40.45,-28.88 52.35,-44.91 2.84,-3.84 5.76,-7.77 8.96,-11.71l5.44 -9.17 11.83 -19.99c8.81,-12.28 15.11,-24.64 22.73,-36.93l12.41 -22.3 0.02 -0.03 4.13 -6.39 4.25 -6.55c0.19,-0.33 0.46,-1.38 0.54,-2.52 0.15,-2.06 -0.34,-4.4 -3.11,-3.31 -0.72,0.29 -1.58,0.8 -2.63,1.6 -2.12,1.63 -4.59,3.63 -7.32,5.9 -19.05,15.82 -50.9,44.64 -68.11,51.73 -8.04,4.33 -17.75,7.5 -27.96,9.7 -16.09,3.48 -33.45,4.56 -47.63,4 -15.75,-0.61 -31.17,-3.23 -44,-8.35 -7.16,-2.85 -13.49,-6.48 -18.58,-10.96 -3.62,-3.2 -6.6,-6.82 -8.81,-10.92 -1.79,-3.32 -5.1,-11.18 -7.49,-18.7 -1.7,-5.35 -2.93,-10.54 -2.8,-13.78l-3.79 25.19c0.03,0.13 0.05,0.25 0.07,0.36 1.5,8.86 -0.26,5.09 3.71,12.48 1.85,3.44 4.11,6.61 6.71,9.52 6.82,7.61 16.02,13.43 26.67,17.67 14.14,5.64 30.9,8.52 47.9,9.18 22.9,0.89 46.44,-2.26 64.72,-8.11 6.13,-1.96 11.67,-4.23 16.4,-6.75 11.04,-4.58 19.92,-9.6 27.58,-14.96 -9.15,10.01 -18.33,19.36 -32.55,27.82 -4.58,2.72 -9.67,5.34 -15.45,7.86l-0.32 0.16c-17.62,9.05 -46.95,14.45 -75.41,13.34 -15.89,-0.61 -31.43,-3.29 -44.34,-8.53 -12.32,-5 -22.14,-12.3 -27.3,-22.34 -0.81,-1.58 -2.1,-4.1 -3.53,-7.08 -1.76,-3.64 -3.72,-7.98 -5.27,-12.11 -0.04,-0.09 -0.07,-0.19 -0.11,-0.28 -1.65,-4.43 -2.8,-8.6 -2.69,-11.42l-4.19 23.34c0.02,0.12 0.04,0.24 0.06,0.36 0.9,5.24 1.3,6 2.36,7.54 0.65,0.95 1.55,2.2 2.98,4.96 6.57,12.81 18.51,21.89 33.29,27.89 14.19,5.75 31.11,8.69 48.33,9.36 30.16,1.17 61.57,-4.68 80.84,-14.48 8.53,-3.72 15.66,-7.63 21.85,-11.69 0.61,-0.4 1.21,-0.8 1.8,-1.21 -0.43,0.51 -0.87,1.02 -1.3,1.52 -9.97,11.55 -21.29,22.26 -42.66,32.07l-0.14 0.07c-18.13,8.9 -47.26,14.18 -75.42,13.08 -16.08,-0.62 -31.74,-3.35 -44.68,-8.69 -12.35,-5.09 -22.14,-12.55 -27.18,-22.82 -1.59,-3.25 -5.51,-11.52 -8.42,-19.33 -0.3,-0.79 -0.58,-1.57 -0.85,-2.34 -0.03,-0.09 -0.07,-0.19 -0.1,-0.29 -1.58,-4.55 -2.67,-8.72 -2.57,-11.34l-3.32 21.55c-0.01,0.17 -0.02,0.33 -0.02,0.49 -0.01,0.25 -0.01,0.48 -0.02,0.72 -0.19,8.3 1.4,8.73 4.81,15.67 6.43,13.09 18.36,22.37 33.22,28.51 14.27,5.88 31.33,8.88 48.72,9.56 29.89,1.16 61.09,-4.58 80.82,-14.22 8.01,-3.67 14.71,-7.44 20.48,-11.3 -8.99,11.3 -19.75,21.91 -40.9,32.05 -18.63,8.75 -47.57,13.92 -75.43,12.84z"/>
 </g>
</svg>
