<?xml version="1.0" encoding="UTF-8"?>
<!DOCTYPE svg PUBLIC "-//W3C//DTD SVG 1.1//EN" "http://www.w3.org/Graphics/SVG/1.1/DTD/svg11.dtd">
<!-- Creator: CorelDRAW 2021.5 -->
<svg xmlns="http://www.w3.org/2000/svg" xml:space="preserve" width="504px" height="215px" version="1.1" style="shape-rendering:geometricPrecision; text-rendering:geometricPrecision; image-rendering:optimizeQuality; fill-rule:evenodd; clip-rule:evenodd"
viewBox="0 0 504 215"
 xmlns:xlink="http://www.w3.org/1999/xlink"
 xmlns:xodm="http://www.corel.com/coreldraw/odm/2003">
 <defs>
  <style type="text/css">
   <![CDATA[
    .fil2 {fill:url(#id0)}
    .fil0 {fill:url(#id1)}
    .fil1 {fill:url(#id2)}
    .fil3 {fill:url(#id3);fill-rule:nonzero}
   ]]>
  </style>
  <linearGradient id="id0" gradientUnits="userSpaceOnUse" x1="-385.14" y1="123.46" x2="1207.63" y2="-443.92">
   <stop offset="0" style="stop-opacity:1; stop-color:#868588"/>
   <stop offset="0.129412" style="stop-opacity:1; stop-color:#535054"/>
   <stop offset="0.341176" style="stop-opacity:1; stop-color:#1F1B20"/>
   <stop offset="0.54902" style="stop-opacity:1; stop-color:#1F1B20"/>
   <stop offset="0.701961" style="stop-opacity:1; stop-color:#1F1B20"/>
   <stop offset="0.870588" style="stop-opacity:1; stop-color:#1F1B20"/>
   <stop offset="1" style="stop-opacity:1; stop-color:black"/>
  </linearGradient>
  <linearGradient id="id1" gradientUnits="userSpaceOnUse" xlink:href="#id0" x1="-91.87" y1="395.97" x2="746.33" y2="-282.64">
  </linearGradient>
  <linearGradient id="id2" gradientUnits="userSpaceOnUse" xlink:href="#id0" x1="-381.06" y1="124" x2="1201.76" y2="-440.32">
  </linearGradient>
  <linearGradient id="id3" gradientUnits="userSpaceOnUse" x1="322.23" y1="106.43" x2="-7.12" y2="144.33">
   <stop offset="0" style="stop-opacity:1; stop-color:#E63F23"/>
   <stop offset="0.470588" style="stop-opacity:1; stop-color:#D7B041"/>
   <stop offset="1" style="stop-opacity:1; stop-color:#EE781C"/>
  </linearGradient>
 </defs>
 <g id="Слой_x0020_1">
  <metadata id="CorelCorpID_0Corel-Layer"/>
  <g id="_1466960025584">
   <path class="fil0" d="M41 148.01l3.94 -7.29 49.86 -86.36c41.07,-71.14 117.41,-61.61 188.85,-27.03 18.45,8.93 23.37,15.12 53.92,30.99l0.02 0.01 0.02 0.01 0.02 0.01 0.03 0.01 0.05 0.03 0.03 0.02 0.03 0.01 0.03 0.02 0.06 0.03 0.04 0.02 0.03 0.02 -0.03 0.07c61.26,36.23 117.55,33.15 167.1,-17.08 -10.77,18.84 -36.82,67.76 -47.65,78.56 -53.18,92.08 -169.89,24.59 -169.86,24.53l0.01 -0.02c-30.37,-15.78 -35.31,-21.98 -53.7,-30.87 -69.1,-33.45 -142.77,-43.46 -184.69,20.26l-8.11 14.05z"/>
  </g>
  <g id="_1466960023808">
   <path class="fil1" d="M349.47 0.47c-1.75,3.21 -2.98,5.39 -4.74,8.45l-49.86 86.36c-10.77,18.65 -21.76,34.1 -31.95,44.05l49.86 -86.36c2.33,-2.27 4.69,-4.82 7.09,-7.64 6.52,-14.9 12.24,-29.41 17.53,-44.84l12.07 -0.02z"/>
  </g>
  <g id="_1466960023184">
   <path class="fil2" d="M262.92 139.33c-18.71,18.24 -31.05,38.2 -62.32,51.09 -43.53,23.42 -162.18,23.92 -159.6,-42.41l49.86 -86.36c-2.58,66.33 116.07,65.83 159.6,42.41 31.27,-12.89 43.61,-32.85 62.32,-51.09l-49.86 86.36z"/>
   <path class="fil3" d="M73.98 90.42c-0.29,7.65 5.74,14.34 8.62,19.97 5.16,10.04 14.98,17.34 27.3,22.34 12.91,5.24 28.45,7.92 44.34,8.53 28.46,1.11 57.79,-4.29 75.41,-13.34l0.32 -0.16c23.76,-10.37 35.91,-22.46 48,-35.68 -7.66,5.36 -16.54,10.38 -27.58,14.96 -18.79,10.02 -50.54,16.05 -81.12,14.86 -17,-0.66 -33.76,-3.54 -47.9,-9.18 -14.72,-5.86 -26.68,-14.73 -33.38,-27.19 -4.03,-7.49 -2.17,-3.52 -3.78,-12.84l7.79 -13.48c-0.31,7.81 3.23,15.08 6.29,20.77 5.3,9.84 15.13,17 27.39,21.88 12.83,5.12 28.25,7.74 44,8.35 23.19,0.91 54.88,-2.55 75.59,-13.7 19.67,-8.1 58.47,-44.6 75.43,-57.63 7.35,-5.65 5.82,3.15 5.2,4.23l-8.38 12.94 -12.43 22.33c-7.62,12.29 -13.92,24.65 -22.73,36.93l-17.27 29.16c-3.2,3.94 -6.12,7.87 -8.96,11.71 -11.9,16.03 -22.84,30.76 -52.35,44.91l-0.04 0.02c-20.18,9.48 -51.18,15.09 -80.79,13.94 -17.61,-0.68 -34.81,-3.73 -49.11,-9.73 -14.92,-6.26 -26.83,-15.75 -33.12,-29.14 -3.36,-7.15 -6.23,-10.7 -5.87,-19.97l8.16 -11.69c-0.28,7.35 5.71,21.21 8.29,26.71 4.92,10.47 14.68,18.08 27.07,23.28 13.01,5.45 28.78,8.23 44.99,8.86 27.86,1.08 56.8,-4.09 75.43,-12.84 21.15,-10.14 31.91,-20.75 40.9,-32.05 -5.77,3.86 -12.47,7.63 -20.48,11.3 -19.73,9.64 -50.93,15.38 -80.82,14.22 -17.39,-0.68 -34.45,-3.68 -48.72,-9.56 -14.86,-6.14 -26.79,-15.42 -33.22,-28.51 -3.56,-7.27 -5.14,-7.39 -4.77,-16.88l6.25 -10.83c-0.29,7.5 6.28,17.02 9.01,22.58 5.04,10.27 14.83,17.73 27.18,22.82 12.94,5.34 28.6,8.07 44.68,8.69 28.16,1.1 57.29,-4.18 75.42,-13.08l0.14 -0.07c22.31,-10.24 33.66,-21.46 43.96,-33.59 -6.6,4.5 -14.28,8.81 -23.65,12.9 -19.27,9.8 -50.68,15.65 -80.84,14.48 -17.22,-0.67 -34.14,-3.61 -48.33,-9.36 -14.78,-6 -26.72,-15.08 -33.29,-27.89 -3.79,-7.37 -3.89,-3.95 -5.4,-12.86l7.17 -12.42z"/>
  </g>
 </g>
</svg>
