<?xml version="1.0" encoding="UTF-8"?>
<!DOCTYPE svg PUBLIC "-//W3C//DTD SVG 1.1//EN" "http://www.w3.org/Graphics/SVG/1.1/DTD/svg11.dtd">
<!-- Creator: CorelDRAW 2021.5 -->
<svg xmlns="http://www.w3.org/2000/svg" xml:space="preserve" width="504px" height="215px" version="1.1" style="shape-rendering:geometricPrecision; text-rendering:geometricPrecision; image-rendering:optimizeQuality; fill-rule:evenodd; clip-rule:evenodd"
viewBox="0 0 504 215"
 xmlns:xlink="http://www.w3.org/1999/xlink"
 xmlns:xodm="http://www.corel.com/coreldraw/odm/2003">
 <defs>
  <style type="text/css">
   <![CDATA[
    .fil10 {fill:url(#id0)}
    .fil2 {fill:url(#id1)}
    .fil22 {fill:url(#id2)}
    .fil6 {fill:url(#id3)}
    .fil16 {fill:url(#id4)}
    .fil4 {fill:url(#id5)}
    .fil14 {fill:url(#id6)}
    .fil0 {fill:url(#id7)}
    .fil18 {fill:url(#id8)}
    .fil20 {fill:url(#id9)}
    .fil8 {fill:url(#id10)}
    .fil12 {fill:url(#id11)}
    .fil15 {fill:url(#id12);fill-rule:nonzero}
    .fil3 {fill:url(#id13);fill-rule:nonzero}
    .fil19 {fill:url(#id14);fill-rule:nonzero}
    .fil23 {fill:url(#id15);fill-rule:nonzero}
    .fil7 {fill:url(#id16);fill-rule:nonzero}
    .fil13 {fill:url(#id17);fill-rule:nonzero}
    .fil1 {fill:url(#id18);fill-rule:nonzero}
    .fil21 {fill:url(#id19);fill-rule:nonzero}
    .fil17 {fill:url(#id20);fill-rule:nonzero}
    .fil9 {fill:url(#id21);fill-rule:nonzero}
    .fil5 {fill:url(#id22);fill-rule:nonzero}
    .fil11 {fill:url(#id23);fill-rule:nonzero}
   ]]>
  </style>
  <linearGradient id="id0" gradientUnits="userSpaceOnUse" x1="32.81" y1="165.02" x2="541.94" y2="-0.67">
   <stop offset="0" style="stop-opacity:1; stop-color:#868588"/>
   <stop offset="0.129412" style="stop-opacity:1; stop-color:#535054"/>
   <stop offset="0.341176" style="stop-opacity:1; stop-color:#1F1B20"/>
   <stop offset="0.54902" style="stop-opacity:1; stop-color:#1F1B20"/>
   <stop offset="0.701961" style="stop-opacity:1; stop-color:#1F1B20"/>
   <stop offset="0.870588" style="stop-opacity:1; stop-color:#1F1B20"/>
   <stop offset="1" style="stop-opacity:1; stop-color:black"/>
  </linearGradient>
  <linearGradient id="id1" gradientUnits="userSpaceOnUse" xlink:href="#id0" x1="1.54" y1="179.59" x2="548.46" y2="-15.24">
  </linearGradient>
  <linearGradient id="id2" gradientUnits="userSpaceOnUse" xlink:href="#id0" x1="1.55" y1="179.58" x2="548.46" y2="-15.24">
  </linearGradient>
  <linearGradient id="id3" gradientUnits="userSpaceOnUse" xlink:href="#id0" x1="255.62" y1="79.23" x2="414.31" y2="60.28">
  </linearGradient>
  <linearGradient id="id4" gradientUnits="userSpaceOnUse" xlink:href="#id0" x1="1.55" y1="179.59" x2="548.45" y2="-15.24">
  </linearGradient>
  <linearGradient id="id5" gradientUnits="userSpaceOnUse" xlink:href="#id0" x1="1.55" y1="179.58" x2="548.46" y2="-15.24">
  </linearGradient>
  <linearGradient id="id6" gradientUnits="userSpaceOnUse" xlink:href="#id0" x1="1.55" y1="179.59" x2="548.46" y2="-15.24">
  </linearGradient>
  <linearGradient id="id7" gradientUnits="userSpaceOnUse" xlink:href="#id0" x1="1.55" y1="179.59" x2="548.46" y2="-15.24">
  </linearGradient>
  <linearGradient id="id8" gradientUnits="userSpaceOnUse" xlink:href="#id0" x1="1.55" y1="179.58" x2="548.46" y2="-15.24">
  </linearGradient>
  <linearGradient id="id9" gradientUnits="userSpaceOnUse" xlink:href="#id0" x1="1.55" y1="179.58" x2="548.46" y2="-15.24">
  </linearGradient>
  <linearGradient id="id10" gradientUnits="userSpaceOnUse" xlink:href="#id0" x1="100.11" y1="268.52" x2="385.79" y2="44.77">
  </linearGradient>
  <linearGradient id="id11" gradientUnits="userSpaceOnUse" xlink:href="#id0" x1="1.55" y1="179.59" x2="548.46" y2="-15.24">
  </linearGradient>
  <linearGradient id="id12" gradientUnits="userSpaceOnUse" x1="228.05" y1="50.03" x2="13.72" y2="99.48">
   <stop offset="0" style="stop-opacity:1; stop-color:#BD6A33"/>
   <stop offset="0.321569" style="stop-opacity:1; stop-color:#ED731D"/>
   <stop offset="0.670588" style="stop-opacity:1; stop-color:#E9C235"/>
   <stop offset="1" style="stop-opacity:1; stop-color:#DE9528"/>
  </linearGradient>
  <linearGradient id="id13" gradientUnits="userSpaceOnUse" x1="494.05" y1="164.31" x2="484.03" y2="137.22">
   <stop offset="0" style="stop-opacity:1; stop-color:#EEA627"/>
   <stop offset="1" style="stop-opacity:1; stop-color:#B87D30"/>
  </linearGradient>
  <linearGradient id="id14" gradientUnits="userSpaceOnUse" x1="187.92" y1="45.45" x2="224.82" y2="93.77">
   <stop offset="0" style="stop-opacity:1; stop-color:#E4A012"/>
   <stop offset="0.490196" style="stop-opacity:1; stop-color:#FAC27C"/>
   <stop offset="1" style="stop-opacity:1; stop-color:#C76F22"/>
  </linearGradient>
  <linearGradient id="id15" gradientUnits="userSpaceOnUse" x1="244.44" y1="173.74" x2="131.35" y2="186.75">
   <stop offset="0" style="stop-opacity:1; stop-color:#E63F23"/>
   <stop offset="0.470588" style="stop-opacity:1; stop-color:#D7B041"/>
   <stop offset="1" style="stop-opacity:1; stop-color:#EE781C"/>
  </linearGradient>
  <linearGradient id="id16" gradientUnits="userSpaceOnUse" x1="306.41" y1="148.8" x2="351.67" y2="40.19">
   <stop offset="0" style="stop-opacity:1; stop-color:#ED7931"/>
   <stop offset="0.521569" style="stop-opacity:1; stop-color:#AE771A"/>
   <stop offset="1" style="stop-opacity:1; stop-color:#E19D31"/>
  </linearGradient>
  <linearGradient id="id17" gradientUnits="userSpaceOnUse" x1="410.37" y1="64.43" x2="359.65" y2="108.6">
   <stop offset="0" style="stop-opacity:1; stop-color:#CE711D"/>
   <stop offset="0.368627" style="stop-opacity:1; stop-color:#F5A10B"/>
   <stop offset="1" style="stop-opacity:1; stop-color:#B06537"/>
  </linearGradient>
  <linearGradient id="id18" gradientUnits="userSpaceOnUse" x1="340.67" y1="146.85" x2="480.58" y2="185.5">
   <stop offset="0" style="stop-opacity:1; stop-color:#9C5A1D"/>
   <stop offset="0.329412" style="stop-opacity:1; stop-color:#B5692E"/>
   <stop offset="0.6" style="stop-opacity:1; stop-color:#F1A925"/>
   <stop offset="1" style="stop-opacity:1; stop-color:#B76835"/>
  </linearGradient>
  <linearGradient id="id19" gradientUnits="userSpaceOnUse" x1="410.01" y1="158.66" x2="321.31" y2="183.08">
   <stop offset="0" style="stop-opacity:1; stop-color:#F1BD2C"/>
   <stop offset="0.560784" style="stop-opacity:1; stop-color:#D78A26"/>
   <stop offset="1" style="stop-opacity:1; stop-color:#B96C34"/>
  </linearGradient>
  <linearGradient id="id20" gradientUnits="userSpaceOnUse" x1="248.75" y1="146.17" x2="220.13" y2="14.98">
   <stop offset="0" style="stop-opacity:1; stop-color:#E63F23"/>
   <stop offset="0.25098" style="stop-opacity:1; stop-color:#E7822A"/>
   <stop offset="0.619608" style="stop-opacity:1; stop-color:#EAB31D"/>
   <stop offset="1" style="stop-opacity:1; stop-color:#E09812"/>
  </linearGradient>
  <linearGradient id="id21" gradientUnits="userSpaceOnUse" x1="177.24" y1="147.75" x2="283.47" y2="176.93">
   <stop offset="0" style="stop-opacity:1; stop-color:#A95D1E"/>
   <stop offset="0.780392" style="stop-opacity:1; stop-color:#D3A627"/>
   <stop offset="1" style="stop-opacity:1; stop-color:#FF7700"/>
  </linearGradient>
  <linearGradient id="id22" gradientUnits="userSpaceOnUse" x1="375.38" y1="71.1" x2="413.45" y2="152.55">
   <stop offset="0" style="stop-opacity:1; stop-color:#B46836"/>
   <stop offset="0.380392" style="stop-opacity:1; stop-color:#EE751D"/>
   <stop offset="1" style="stop-opacity:1; stop-color:#F0BC2D"/>
  </linearGradient>
  <linearGradient id="id23" gradientUnits="userSpaceOnUse" x1="359.56" y1="25.58" x2="416.38" y2="47.26">
   <stop offset="0" style="stop-opacity:1; stop-color:#DC992B"/>
   <stop offset="0.411765" style="stop-opacity:1; stop-color:#ECC30D"/>
   <stop offset="1" style="stop-opacity:1; stop-color:#D16C14"/>
  </linearGradient>
 </defs>
 <g id="Слой_x0020_1">
  <metadata id="CorelCorpID_0Corel-Layer"/>
  <g id="_1467009322288">
   <path class="fil0" d="M340.73 137.28c1.12,-1.16 2.81,-1.77 5.28,-1.49 5.24,1.8 8.88,4.43 11.46,6.98 5.51,2.72 10.67,8.16 16.31,11 23.63,11.89 49.71,21.91 73.09,23.2 6.58,0.36 12.85,0.09 18.91,-1.1 5.58,-1.09 9.98,-1.52 15.31,-4.4 3.87,-2.09 8.71,-6.16 12.54,-9.4 1.16,-1.52 2.19,-3.03 3.09,-4.52l0.98 -1.71 -0.48 0.86 -17.12 29.65c-1.02,1.77 -2.21,3.56 -3.59,5.38 -3.83,3.24 -8.67,7.3 -12.54,9.39 -5.33,2.88 -9.73,3.31 -15.31,4.41 -6.06,1.18 -12.33,1.45 -18.91,1.09 -23.38,-1.29 -49.46,-11.3 -73.09,-23.2 -5.64,-2.84 -10.8,-8.28 -16.31,-11 -2.58,-2.55 -6.22,-5.17 -11.46,-6.97 -2.47,-0.29 -4.16,0.32 -5.28,1.48l17.12 -29.65z"/>
   <path class="fil1" d="M330.74 154.27c6.23,0.86 15.24,5.98 27.16,12.74 32.12,18.21 81.58,46.25 118.49,14.84 0.01,-0.01 10.96,-9.8 10.98,-9.81l1.37 -0.67c-0.02,0.02 -9.4,13.9 -9.41,13.91 -39.32,33.48 -90.45,4.48 -123.66,-14.35 -11.5,-6.52 -20.78,-11.78 -26.16,-12.52l1.23 -4.14zm-5.41 9.37c6.02,1.62 14.47,6.35 25.19,12.34 31.69,17.71 80.44,44.95 116.13,19.58 0.02,-0.01 10.56,-7.45 22.36,-24.66l0.01 0.01c-0.05,-1.45 -0.68,13.52 -19.38,26.42 -0.53,0.36 -0.9,0.67 -1.13,0.84 -33.56,24.67 -87.52,0.01 -120.18,-18.24 -10.44,-5.84 -19.04,-10.64 -24.55,-12.13l1.55 -4.16zm11.04 -19.13c6.3,-0.06 15.36,5.76 28.22,13.17 31.48,18.13 79.71,45.9 117.54,14.1 -39.03,23.84 -83.64,-2.26 -113.51,-19.74 -12.84,-7.52 -24.59,-13.66 -29.26,-12.83 0.89,-1.71 1.99,-2.51 2.98,-3.77 7.48,-0.25 14.9,4.7 28.56,12.7 30.18,14.35 69.35,45.61 114.26,16.1 2.05,5.5 1.65,4.43 1.65,4.43l2.11 2.53c-40.84,39.96 -92.78,9.85 -126.57,-9.61 -12.27,-7.07 -21.98,-12.66 -27.06,-12.61l1.08 -4.47z"/>
  </g>
  <g id="_1467009318880">
   <path class="fil2" d="M480.58 185.5c6.08,-11.07 5.51,-21.29 2.65,-31.22l17.12 -29.65c2.86,9.92 3.43,20.15 -2.65,31.21l-17.12 29.66z"/>
   <path class="fil3" d="M495.89 132.36c1.37,4.76 2.36,13.93 2.26,18.92 1,-3 2.08,-8.68 2.22,-11.57 0.25,-4.92 -0.06,-7.85 -1.44,-12.63l1.83 -3.39c1.48,5.15 3.17,10.72 3.24,16.21 -0.5,5.53 -2.35,9.39 -5.4,15.96l-7.78 14.63c-3.89,7 -6.43,13.21 -11.96,18.97 2.88,-5.25 4.15,-15.21 4.39,-20.09 0.25,-4.93 0.44,-9.4 -0.94,-14.18l2.08 -2.92c1.37,4.75 3.01,11.06 2.91,16.05 1,-3.01 1.51,-5.95 1.66,-8.84 0.25,-4.92 -0.06,-7.85 -1.44,-12.63l2.77 -4.79c1.37,4.75 2.42,12.76 2.33,17.76 0.99,-3.01 1.9,-7.33 2.05,-10.22 0.24,-4.93 -0.07,-7.85 -1.44,-12.63l2.66 -4.61z"/>
  </g>
  <g id="_1467009320416">
   <path class="fil4" d="M352.14 101.79c-0.24,-1.16 -0.01,-2.21 0.52,-3.13l17.12 -29.65c1.57,-2.72 5.82,-4.28 8.89,-3.84 7.63,1.1 14.71,2.23 20.69,4.68 15.96,6.54 35.06,22.72 29.01,55.03 0,0 -0.11,1.83 -0.16,2.3 -0.16,1.63 -0.34,2.05 -0.55,3.22 -0.52,2.9 -1.18,5.33 -3.54,9.43l-0.11 0.19 -17.12 29.65c-3.73,6.46 -8.11,12.29 -13.01,17.22l17.12 -29.65 0.05 -0.05 0.04 -0.35c0.05,-0.48 0.16,-2.3 0.16,-2.3 6.05,-32.32 -13.05,-48.5 -29.01,-55.03 -5.98,-2.45 -13.06,-3.58 -20.69,-4.69 -1.9,-0.27 -4.24,0.22 -6.13,1.28l-3.28 5.69z"/>
   <path class="fil5" d="M359.83 88.97c1.44,-2.49 4.24,-6.51 10.23,-6.11 5.28,0.36 11.97,1.88 18.73,4.78 6.76,2.9 13.61,7.19 19.24,13.11 9.67,10.17 15.68,25.04 11.31,45.68l-7.03 11.37c7.89,-34.04 1.19,-44.74 -7.56,-53.94 -5.16,-5.43 -11.48,-9.38 -17.73,-12.07 -6.26,-2.69 -12.43,-4.09 -17.26,-4.42 -4.25,-0.28 -7.18,0.11 -7.73,1.07l-2.2 0.53zm-5.64 10.9c1.24,-2.15 4.59,-7.72 10.33,-7.2 5.13,0.46 11.73,2.02 18.42,4.94 6.71,2.92 13.55,7.22 19.18,13.17 9.79,10.34 16.94,23.8 10.13,47.24l-3.05 -1.44c4.37,-19.66 -1.49,-33.34 -10.35,-42.71 -5.16,-5.44 -11.49,-9.41 -17.71,-12.12 -6.23,-2.72 -12.32,-4.17 -17.02,-4.59 -3.96,-0.36 -6.59,-0.19 -6.95,0.42l-2.98 2.29zm15.88 -31.3c1.83,-3.19 4.53,-5.5 10.92,-5.36 5.6,0.13 12.5,1.55 19.39,4.41 6.88,2.85 13.79,7.15 19.45,13.04 9.56,9.83 13.38,40.87 5.22,57.45 -0.01,0.04 -11.83,20.81 -11.84,20.85l-1.17 -1.15c24.78,-35.99 13.07,-65.14 4.53,-74.02 -5.18,-5.4 -11.56,-9.35 -17.93,-12 -6.36,-2.64 -12.67,-3.95 -17.74,-4.06 -4.74,-0.11 -8.87,1.91 -9.84,3.59l-0.99 -2.75zm-5.33 11.38c1.64,-2.84 4.6,-7.18 10.81,-6.9 5.44,0.24 12.23,1.71 19.05,4.59 6.82,2.88 13.7,7.18 19.33,13.07 9.56,10.01 13.01,24.39 10.73,44.2l-4.97 9.75c4.38,-27.95 -0.39,-41.79 -9.03,-50.84 -5.17,-5.41 -11.51,-9.36 -17.81,-12.02 -6.3,-2.66 -12.54,-4.02 -17.5,-4.24 -4.51,-0.2 -8.8,2.18 -9.56,3.5l-1.05 -1.11z"/>
  </g>
  <g id="_1466954268096">
   <path class="fil6" d="M301.76 156.95c9.5,-26.73 19.16,-70 37.1,-101.07l17.12 -29.65 0.18 -0.32 -0.21 0.37 -43.99 117.02 -8.32 14.43 -1.88 -0.78z"/>
   <path class="fil7" d="M342.68 51.19c-14.63,27.48 -21.75,49.54 -30.79,77.54 -2.11,6.54 -4.32,13.4 -6.79,20.83l0.23 0.68 -1.89 -0.48 1.18 -2c2.43,-7.3 4.81,-16.3 6.94,-22.9 10.28,-31.84 16.63,-52.75 36.64,-85.54l0.49 0.29 0.08 -0.15 1 0.55 0.06 -0.12 1.03 0.51 0.01 -0.04 1.6 -0.33 -40.51 103.27 -3.83 6.66 41.56 -107.05c-9.43,19.96 -16.18,39.35 -23.29,59.41 -1.21,3.4 -2.44,6.86 -4.01,11.26l-14.34 36.53 -1.31 -0.37 14.24 -36.69c1.19,-3.31 2.61,-7.33 4,-11.23 6.69,-18.88 12.59,-35.53 21.12,-54.06 -12.22,23.87 -18.83,43.6 -26.92,67.72 -1.75,5.21 -3.56,10.61 -5.43,16.08l-7.25 18.72 -1.4 -0.54 7.22 -18.66c1.97,-5.75 3.73,-11.01 5.43,-16.07 7.64,-22.8 13.98,-41.68 24.93,-63.82z"/>
  </g>
  <g id="_1466954269776">
   <path class="fil8" d="M147.87 188.01l1.35 -2.5 17.12 -29.65c14.11,-24.43 40.32,-21.16 64.85,-9.28 6.33,3.06 8.02,5.19 18.51,10.64l0.01 0 0.01 0 0.01 0.01 0 0 0.02 0.01 0.01 0.01 0.01 0 0.01 0.01 0.03 0.01 0.01 0.01 0.01 0 -0.01 0.03c2.61,1.54 33.36,17.65 51.94,-0.36l1.88 0.78c-1.29,2.25 -11.43,19.31 -12.81,20.69 -18.26,31.62 -58.33,8.44 -58.32,8.42l0 0c-10.42,-5.43 -12.12,-7.55 -18.44,-10.61 -23.72,-11.48 -49.02,-14.92 -63.41,6.96l-2.79 4.82z"/>
   <path class="fil9" d="M297.85 168.91l-5.35 9.23 -0.13 0.13 0.14 0.08 -5.35 9.23 -0.22 0.22c-20.2,19.57 -42.12,7.54 -64.54,-4.77 -20.3,-11.13 -41.03,-22.51 -60.12,-8.61l-2.66 -3.65c21.43,-15.59 43.42,-3.52 64.95,8.3 20.76,11.39 41.05,22.53 58.73,5.95 -17.65,9.38 -36.42,-0.92 -55.56,-11.43 -20.29,-11.13 -41.02,-22.51 -60.12,-8.61l-2.66 -3.65c21.43,-15.59 43.42,-3.52 64.96,8.3 20.75,11.39 41.04,22.53 58.72,5.95 -17.64,9.38 -36.42,-0.92 -55.56,-11.43 -20.26,-11.12 -40.96,-22.48 -60.04,-8.67 -0.02,0.02 -7.9,5.73 -7.93,5.75l5.19 -9.34c21.43,-15.59 43.42,-3.52 64.96,8.3 20.75,11.39 41.04,22.53 58.72,5.95 -17.65,9.38 -36.42,-0.92 -55.56,-11.42 -18.31,-10.06 -40.26,-22.93 -60.08,-8.65 0,0 -8.47,6.8 -10.55,12.16 -0.37,0.96 -0.47,2.15 -0.82,2.55 -0.78,0.9 -1.64,0.29 -1.64,0.29l-0.7 -0.63c-1.44,-1.77 9.55,-16.85 11.04,-18 20.9,-16.25 43.4,-3.5 64.93,8.31 20.86,11.45 41.25,22.64 58.99,5.69l5.03 -8.68 3.58 2.07 -5.01 9.43 -0.14 0.13 0.14 0.08 -5.35 9.23 -0.13 0.13 0.14 0.08z"/>
  </g>
  <g id="_1466954315280">
   <path class="fil10" d="M356.16 25.91c1.02,-1.75 2.06,-3.46 3.13,-5.13 4.69,-6.81 10.62,-12.38 17.63,-16.86 33.08,-3.88 45.68,14.64 39.86,44.45l-4.99 13.03 -17.12 29.66 4.99 -13.03c5.82,-29.82 -6.78,-48.33 -39.86,-44.46 -7.01,4.48 -7.41,2.89 -12.1,9.7 -1.07,1.67 -0.81,-1.3 -1.82,0.45l10.28 -17.81z"/>
   <path class="fil11" d="M403.97 73.11l-1.48 -0.44 -1.84 -1.08 -2.18 -12.04c-0.74,-6.3 -2.85,-11.54 -6.37,-15.5 -3.51,-3.94 -8.49,-6.65 -14.96,-7.92 -2.68,-0.52 -14.33,-1.06 -16.65,-0.32 -1.24,0.58 -10.31,6.29 -13.66,8.7l-0.95 -0.79c0.82,-2.18 4.92,-8.81 6.02,-10.98 3.38,-6.67 9.61,-18.96 25.15,-30.78l0.5 -0.38 0.6 -0.07c6.91,-0.81 12.93,-0.66 18.08,0.34 7.26,1.42 12.84,4.54 16.82,9.1 3.97,4.53 6.31,10.43 7.13,17.44 0.71,6.02 0.29,12.89 -1.18,20.42l-0.06 0.28 -12.07 24.5 -2.9 -0.48zm-0.73 -5.93c1.25,-6.59 1.58,-12.59 0.96,-17.84 -0.73,-6.24 -2.79,-11.43 -6.25,-15.33 -3.44,-3.89 -8.34,-6.57 -14.74,-7.82 -4.65,-0.91 -10.08,-1.06 -16.33,-0.38 -2.29,1.81 -3.92,3.64 -5.12,5.28 6.1,-0.54 11.51,-0.32 16.24,0.6 7.49,1.46 13.3,4.67 17.48,9.36 4.15,4.66 6.63,10.75 7.48,17.98 0.3,2.57 0.39,5.29 0.28,8.15zm5.46 -18.36c0.31,2.63 0.4,5.41 0.28,8.33 1.25,-6.67 1.59,-12.73 0.97,-18.03 -0.73,-6.16 -2.75,-11.28 -6.15,-15.15 -3.39,-3.85 -8.2,-6.5 -14.51,-7.73 -4.6,-0.9 -10,-1.05 -16.22,-0.37 -2.3,1.79 -4.28,3.6 -5.97,5.37 6.41,-0.65 12.07,-0.45 16.98,0.51 7.41,1.44 13.14,4.62 17.25,9.27 4.1,4.63 6.53,10.65 7.37,17.8zm5.74 -10.21c0.31,2.67 0.4,5.5 0.28,8.48 1.25,-6.74 1.59,-12.85 0.97,-18.19 -0.72,-6.1 -2.7,-11.17 -6.03,-14.98 -3.32,-3.79 -8.05,-6.41 -14.3,-7.63 -4.55,-0.89 -9.9,-1.03 -16.09,-0.36 -2.33,1.8 -4.43,3.61 -6.34,5.41 6.54,-0.69 12.27,-0.51 17.22,0.46 7.35,1.43 13,4.58 17.05,9.18 4.03,4.58 6.41,10.54 7.24,17.63z"/>
  </g>
  <g id="_1466954313792">
   <path class="fil12" d="M411.79 61.4l-1.8 3.34 -17.12 29.65c-15.64,27.11 -36.32,15.18 -40.73,7.4l17.12 -29.66c4.24,7.48 23.5,18.78 38.88,-4.4l3.65 -6.33z"/>
   <path class="fil13" d="M359.03 87.67l0.86 1.26 -0.06 0.04c1.69,2.54 4.05,4.77 6.82,6.37l0.01 0c2.65,1.53 5.67,2.48 8.82,2.59 3.16,0.11 6.49,-0.63 9.76,-2.49 2.49,-1.41 4.96,-3.47 7.31,-6.3 -3.8,2.14 -7.76,3.28 -11.62,3.41 -3.96,0.14 -7.79,-0.78 -11.25,-2.77 -3.49,-2.02 -4.95,-3.45 -7.57,-7.48l2.38 -4.13 0.51 0.54 -0.04 0.02c1.92,3.22 4.31,5.59 6.98,7.13 2.71,1.57 5.73,2.29 8.85,2.18 3.17,-0.11 6.46,-1.08 9.65,-2.89 2.51,-1.43 4.96,-3.36 7.24,-5.8l-0.59 0.34c-3.47,1.96 -7.1,3.22 -10.72,3.5 -3.71,0.3 -7.39,-0.42 -10.84,-2.42 -3.43,-1.97 -5.33,-3.15 -8.01,-7.86l2.55 -4.34c2.25,3.97 4.96,6.71 7.7,8.29 2.61,1.51 5.41,2.05 8.25,1.82 2.94,-0.23 5.94,-1.28 8.84,-2.92 5.86,-3.32 11.25,-9.02 14.98,-15.48l2.8 1.61c-2.48,5.02 -3.66,7.42 -6.18,12.43l-5.91 11.15 -0.01 0c-0.24,0.42 -0.48,0.83 -0.72,1.23l-5.88 10.26c-3.89,6.74 -8.11,10.96 -12.36,13.37 -3.91,2.21 -7.8,2.91 -11.48,2.61 -3.64,-0.3 -7.04,-1.56 -10.01,-3.28l0.01 0c-4.94,-2.85 -6.91,-5.92 -8.61,-8.91l1.98 -3.5 1.32 1.9 -0.03 0.02c1.67,2.18 4.33,4.7 7.59,6.58l0.01 0c2.43,1.4 5.19,2.44 8.09,2.67 2.85,0.24 5.87,-0.3 8.9,-2.02 2.42,-1.37 4.85,-3.49 7.25,-6.56 -3.77,1.95 -7.59,2.73 -11.26,2.6 -3.94,-0.13 -7.68,-1.31 -10.94,-3.19l0 0c-3.89,-2.25 -5.68,-3.59 -7.99,-7.09l2.62 -4.49z"/>
  </g>
  <g id="_1466954311248">
   <path class="fil14" d="M18.25 78.4c97.1,56.83 122.91,-42.31 164.29,-49.32 13.32,-3.63 60.56,-1.95 53.65,28.66l-17.12 29.66c6.91,-30.62 -40.33,-32.29 -53.65,-28.66 -41.38,7 -67.19,106.14 -164.29,49.32l17.12 -29.66z"/>
   <path class="fil15" d="M19.39 76.45l1.12 0.65c64.26,37.61 96.14,4.91 122.6,-22.23 13.11,-13.45 24.95,-25.6 38.99,-28.01 6.29,-1.66 19.42,-2.23 31.35,0.46 5.66,1.28 11.08,3.28 15.46,6.24 4.56,3.08 8,7.18 9.47,12.56 1.12,11.39 -4.56,12.94 -5.59,17.52l-1.03 0.76 2.23 -7.15c0.86,-3.83 0.81,-7.12 0.04,-9.95 -1.15,-4.21 -3.93,-7.48 -7.65,-9.99 -3.89,-2.63 -8.78,-4.42 -13.92,-5.58 -11.31,-2.55 -23.61,-2.03 -29.33,-0.47l-0.15 0.04 -0.07 0.01c-7.04,1.2 -13.7,5.36 -20.39,11.05 4.46,-2.8 9.04,-4.78 13.88,-5.61 6.42,-1.71 20.08,-2.42 32.27,0.33 5.5,1.24 10.75,3.19 14.99,6.07 4.42,3 7.06,6.92 8.48,12.14 -0.36,3.69 -0.1,2.77 -0.85,7.39l-0.74 2.71 -2.13 3.15 0 -2.15c0.86,-3.81 0.81,-7.07 0.05,-9.85 -1.11,-4.08 -3.78,-7.24 -7.34,-9.66 -3.73,-2.53 -8.45,-4.27 -13.45,-5.39 -11.57,-2.61 -24.38,-1.95 -30.25,-0.35l-0.15 0.04 -0.07 0.02c-7.06,1.19 -13.74,5.37 -20.46,11.07 4.48,-2.81 9.08,-4.8 13.94,-5.64 6.57,-1.74 20.74,-2.61 33.18,0.19 5.36,1.21 10.44,3.11 14.54,5.9 4.26,2.91 7.47,6.79 8.85,11.87 0.93,3.42 -0.37,3.34 -1.38,7.84l-3.33 4.68 0.31 -1.58c0.85,-3.78 0.8,-7.01 0.05,-9.76 -1.07,-3.93 -3.63,-6.98 -7.05,-9.32 -3.59,-2.45 -8.14,-4.13 -12.99,-5.22 -11.8,-2.66 -25.13,-1.84 -31.15,-0.2l-0.15 0.04 -0.07 0.01c-7.08,1.2 -13.77,5.39 -20.51,11.11 4.5,-2.83 9.12,-4.83 13.99,-5.67 6.71,-1.78 21.4,-2.83 34.07,0.03 5.21,1.18 10.13,3.01 14.09,5.73 4.13,2.83 7.21,6.6 8.56,11.54 3.41,12.52 -1.77,-3.25 -4.41,10.85 0.84,-3.76 0.8,-6.95 0.06,-9.67 -1.04,-3.79 -3.48,-6.74 -6.76,-8.99 -3.46,-2.37 -7.84,-4 -12.54,-5.05 -12.02,-2.72 -25.87,-1.73 -32.04,-0.05l-0.15 0.04 -0.07 0.02c-12.6,2.13 -24,13.74 -36.62,26.6 -27.72,28.22 -61.13,62.25 -128.47,22.84l-0.7 -0.4 2.27 -3.91 0.7 0.42c47.19,27.61 77.02,17.38 100.06,-0.73 -22.89,14.93 -52.4,20.62 -96.49,-5.18l-0.83 -0.48 2.26 -3.91 0.85 0.49c47.11,27.58 76.89,17.39 99.88,-0.68 -22.84,14.89 -52.3,20.53 -96.31,-5.22l-0.98 -0.57 2.27 -3.91 0.98 0.58c47.05,27.53 76.77,17.4 99.71,-0.64 -22.79,14.85 -52.2,20.44 -96.13,-5.27l-1.12 -0.64 2.27 -3.91z"/>
  </g>
  <g id="_1466954307888">
   <path class="fil16" d="M184.75 62.07l2.3 -4.08 17.12 -29.66c7.16,-12.41 16.63,-24.75 38.02,-23.57 23.82,1.76 39.75,37.52 30.66,80.31 -3.04,17.26 -11.64,39.51 -20.69,55.18l-17.12 29.66c-3.7,6.4 -7.47,11.71 -10.97,15.13l17.12 -29.66c0.8,-0.78 1.61,-1.65 2.44,-2.62 5.51,-12.6 10.06,-26.44 12.1,-38.04 9.08,-42.78 -6.84,-78.55 -30.66,-80.31 -19.58,-1.08 -29.17,9.17 -36.15,20.43l-4.17 7.23z"/>
   <path class="fil17" d="M200.64 35.76c-5.03,-2.39 17.52,-32.52 37.84,-34.77 8,-0.89 15.16,1.95 21.16,7.47 5.8,5.33 10.49,13.2 13.77,22.61 9.5,27.31 0.73,89 -28.63,121.97l-1.68 -0.92c15.99,-30.16 12.62,-82.03 3.52,-98.55 -3.59,-6.53 -8.09,-11.51 -13.16,-14.55 -4.95,-2.95 -10.48,-4.05 -16.27,-2.89 -9.42,1.89 -19.64,9.71 -29.38,25.1l-2.38 -1.88c2.27,-3.58 12.51,-19.28 15.21,-23.59zm19.49 -20.78c4.35,-2.37 8.57,-3.64 12.6,-3.94 6.92,-0.51 13.24,1.78 18.71,6.2 5.3,4.3 9.77,10.61 13.17,18.28 7.31,16.52 9.67,39.62 4.55,62.52 7.17,-22.69 6.34,-47.23 -0.02,-65.49 -3.03,-8.71 -7.31,-15.94 -12.56,-20.77 -5.04,-4.64 -11.01,-7.03 -17.61,-6.29 -5.8,0.64 -12.13,3.62 -18.84,9.49zm12.93 0.57c-5.92,0.45 -12.39,3.37 -19.18,9.36 3.59,-1.92 7.11,-3.08 10.53,-3.56 6.93,-0.98 13.38,0.82 19.03,4.79 5.5,3.86 10.23,9.78 13.88,17.17 7.02,14.23 10.12,34.1 7.11,55.23 5.35,-22.38 3.17,-45.08 -3.96,-61.2 -3.11,-7.03 -7.15,-12.76 -11.88,-16.59 -4.57,-3.7 -9.82,-5.62 -15.53,-5.2zm-25.5 19.33c2.95,-1.55 5.87,-2.59 8.75,-3.17 6.94,-1.39 13.56,-0.09 19.46,3.44 5.78,3.45 10.84,9.02 14.82,16.25 6.54,11.88 10.2,28.38 9.25,47.32 3.1,-20.49 0.18,-39.72 -6.57,-53.41 -3.32,-6.71 -7.55,-12.05 -12.43,-15.47 -4.72,-3.32 -10.08,-4.82 -15.81,-4.02 -5.51,0.78 -11.4,3.65 -17.47,9.06z"/>
  </g>
  <g id="_1466954306640">
   <path class="fil18" d="M236.19 57.74l-0.61 1.16 -17.12 29.65c-10.89,18.87 -45.51,0.73 -33.71,-26.48l17.12 -29.65c-11.57,26.69 21.52,44.65 33.06,27.5l1.26 -2.18z"/>
   <path class="fil19" d="M200.41 32c-1.42,10 -18.81,28.8 -6.04,44.65 1.93,2.42 4.31,4.4 6.89,5.81 2.57,1.41 5.35,2.27 8.08,2.46 5.31,0.37 10.5,-1.81 13.73,-7.39l13.09 -19.71c-3.88,6.71 -11.3,31.75 -27.02,30.11 -3.17,-0.22 -6.36,-1.21 -9.32,-2.82 -2.93,-1.61 -5.63,-3.85 -7.81,-6.58 -5.29,-6.64 -7.58,-16.22 -2.94,-26.93l11.34 -19.6zm2.83 1.02c-4.03,9.3 -1.98,17.97 2.74,23.97 1.92,2.44 4.27,4.44 6.84,5.86 2.54,1.41 5.28,2.25 8,2.4 5.29,0.27 11.84,-1.39 15.37,-7.51l0 0c-4.18,7.24 -9.16,10.85 -15.52,10.51 -3.19,-0.16 -6.38,-1.14 -9.32,-2.77 -2.91,-1.62 -5.58,-3.88 -7.74,-6.63 -5.34,-6.78 -7.66,-16.56 -3.13,-27.02l2.76 1.19zm-1.38 -0.59c-4.08,9.42 -9.75,26.09 -1.69,34.4 1.92,2.42 4.29,4.4 6.87,5.83 2.56,1.41 5.32,2.26 8.04,2.42 5.3,0.33 12.05,-3.41 14.94,-9.96l6.1 -7.24c-4.03,6.98 -8.87,21.39 -21.21,20.21 -3.18,-0.19 -6.38,-1.17 -9.32,-2.79 -2.92,-1.61 -5.6,-3.86 -7.78,-6.61 -5.32,-6.71 -7.62,-16.39 -3.03,-26.97l7.08 -9.29zm-15.26 29.22c-4.17,9.62 -2.68,19.05 1.96,24.83 1.93,2.42 4.33,4.38 6.93,5.79 2.58,1.41 5.37,2.27 8.11,2.48 5.33,0.42 10.49,-1.64 13.56,-6.95l19.03 -30.06c-16.69,37.21 -25.59,40.93 -32.83,40.02 -3.15,-0.25 -6.35,-1.23 -9.31,-2.84 -2.95,-1.6 -5.66,-3.83 -7.84,-6.55 -14.42,-20.86 9.58,-45.72 14.27,-56.54l-13.88 29.82z"/>
  </g>
  <g id="_1466954302176">
   <path class="fil20" d="M393.88 186.89c-10.39,10.46 -23.13,16.89 -37,16.77 -12.87,-0.11 -23.69,-8.84 -33.63,-22.5 -1.34,-3.51 -2.45,-9.68 -0.43,-13.17l17.12 -29.65 0.79 -1.06 -1.37 2.38c-1.18,3.57 -0.17,8.74 1.01,11.85 9.94,13.66 20.76,22.39 33.63,22.5 13.87,0.11 26.61,-6.31 37,-16.77l-17.12 29.65z"/>
   <path class="fil21" d="M333.65 149.23c-1.98,4.13 1.65,9.44 4.79,14.56 2.52,4.1 6.38,8.03 11.18,11.13 4.82,3.12 10.57,5.38 16.83,6.14 10.24,1.24 21.9,-1.56 33.22,-11.27 -9.21,5.35 -18.5,7.01 -27.01,6.2 -7.18,-0.68 -13.79,-3.11 -19.32,-6.57 -6.41,-4 -20.3,-17.14 -16.72,-25.28l0.42 -0.92c1.22,-1.96 2.3,-4.32 3.65,-5.88 -2.34,3.6 0.38,11.8 3.5,16.92 2.58,4.23 6.58,8.22 11.54,11.32 4.98,3.12 10.92,5.31 17.35,5.92 11.2,1.06 24.21,-3.16 36.18,-15.2l4.18 2.25c-4.13,6.81 -7.76,13.52 -12.38,20.43 -12.98,13.06 -10.92,26.07 -49.07,25.52 -6.49,-1.21 -12.37,-3.87 -17.29,-7.29 -4.93,-3.43 -8.91,-7.65 -11.6,-11.98 -3.07,-7.4 -2.42,-10.89 -0.79,-16.13l1.34 -2.55c-2.02,3.49 0.12,11.19 3.29,16.31 2.36,3.8 5.92,7.55 10.34,10.64 4.44,3.09 9.73,5.48 15.53,6.56 10.61,1.97 23.04,-0.44 35.38,-10.96 -10.1,5.9 -20.14,7.32 -29.15,5.96 -6.75,-1.02 -12.91,-3.62 -18.07,-7.07 -5.57,-3.73 -18.76,-18.41 -15.64,-24.36l2.86 -4.95c-2,3.83 1.34,9.52 4.5,14.64 2.44,3.97 6.16,7.82 10.79,10.92 4.63,3.1 10.16,5.43 16.23,6.35 10.41,1.57 22.42,-1.06 34.21,-11.14 -9.62,5.61 -19.25,7.16 -28,6.1 -6.98,-0.84 -13.38,-3.36 -18.74,-6.82 -5.98,-3.87 -20.07,-16.89 -16.44,-24.46l2.91 -5.04z"/>
  </g>
  <g id="_1466954301456">
   <path class="fil22" d="M224.07 185.04c-6.42,6.26 -10.66,13.11 -21.4,17.54 -14.95,8.04 -55.69,8.21 -54.8,-14.57l17.12 -29.65c-0.89,22.78 39.85,22.61 54.8,14.56 10.74,-4.42 14.98,-11.28 21.4,-17.54l-17.12 29.66z"/>
   <path class="fil23" d="M159.2 168.24c-0.11,2.63 1.96,4.93 2.96,6.86 1.77,3.44 5.14,5.95 9.37,7.67 4.43,1.8 9.77,2.72 15.22,2.93 9.78,0.38 19.85,-1.48 25.9,-4.58l0.11 -0.06c8.16,-3.56 12.33,-7.71 16.48,-12.25 -2.63,1.84 -5.68,3.56 -9.47,5.14 -6.45,3.44 -17.35,5.51 -27.86,5.1 -5.83,-0.23 -11.59,-1.22 -16.44,-3.15 -5.06,-2.02 -9.16,-5.06 -11.46,-9.34 -1.39,-2.57 -0.75,-1.21 -1.3,-4.41l2.67 -4.63c-0.1,2.68 1.11,5.18 2.16,7.14 1.82,3.38 5.2,5.83 9.41,7.51 4.4,1.76 9.7,2.66 15.11,2.87 7.96,0.31 18.84,-0.88 25.95,-4.71 6.75,-2.78 20.08,-15.31 25.9,-19.79 2.53,-1.94 2,1.09 1.79,1.45l-2.88 4.45 -4.27 7.67c-2.61,4.22 -4.78,8.46 -7.8,12.68l-5.93 10.01c-1.1,1.35 -2.1,2.7 -3.08,4.02 -4.09,5.5 -7.84,10.56 -17.97,15.42l-0.02 0.01c-6.93,3.25 -17.57,5.18 -27.74,4.78 -6.05,-0.23 -11.95,-1.28 -16.86,-3.34 -5.13,-2.15 -9.21,-5.4 -11.38,-10 -1.15,-2.46 -2.14,-3.68 -2.01,-6.86l2.8 -4.01c-0.1,2.52 1.96,7.28 2.85,9.17 1.69,3.59 5.04,6.21 9.29,7.99 4.47,1.87 9.88,2.83 15.45,3.04 9.57,0.38 19.5,-1.4 25.9,-4.41 7.26,-3.48 10.96,-7.12 14.05,-11 -1.99,1.33 -4.29,2.62 -7.04,3.88 -6.77,3.31 -17.49,5.28 -27.75,4.88 -5.97,-0.23 -11.83,-1.26 -16.73,-3.28 -5.1,-2.11 -9.2,-5.3 -11.4,-9.79 -1.23,-2.49 -1.77,-2.54 -1.64,-5.8l2.14 -3.71c-0.1,2.57 2.16,5.84 3.1,7.75 1.73,3.52 5.09,6.09 9.33,7.84 4.44,1.83 9.82,2.77 15.34,2.98 9.67,0.38 19.67,-1.44 25.9,-4.49l0.05 -0.03c7.66,-3.51 11.56,-7.36 15.09,-11.53 -2.27,1.55 -4.9,3.03 -8.12,4.43 -6.62,3.36 -17.4,5.37 -27.76,4.97 -5.91,-0.23 -11.72,-1.24 -16.59,-3.21 -5.08,-2.06 -9.18,-5.18 -11.43,-9.58 -1.3,-2.53 -1.34,-1.35 -1.86,-4.42l2.47 -4.26z"/>
  </g>
 </g>
</svg>
