<?xml version="1.0" encoding="utf-8"?>
<!-- Generator: Adobe Illustrator 26.0.1, SVG Export Plug-In . SVG Version: 6.00 Build 0)  -->
<svg version="1.1" id="Слой_1" xmlns="http://www.w3.org/2000/svg" xmlns:xlink="http://www.w3.org/1999/xlink" x="0px" y="0px"
	 viewBox="0 0 1000 560" style="enable-background:new 0 0 1000 560;" xml:space="preserve">
<style type="text/css">
	.st0{fill:none;stroke:#000000;stroke-width:10;stroke-miterlimit:10;}
</style>
<g>
	<g>
		<path class="st0" d="M489.2,260.5l137.8,252.4c0,0,0,0,0,0.1c-81.5,50.9-185.3,55.1-273.2,1.4L489.2,260.5"/>
		<line class="st0" x1="489.2" y1="260.5" x2="752.1" y2="259"/>
		<path class="st0" d="M489.2,260.5L624.6,6.6C712.5,60.2,761.9,158,762.4,259c0,0-10.3,0.1-10.3,0.1"/>
		<path class="st0" d="M489.2,260.5c0,0-68.9-126.3-137.9-252.5c-40.1,25-74.7,61.4-99.4,107.6s-36.2,96.7-35.9,146.4
			c0,0,0.1,0,0.1,0L489.2,260.5"/>
	</g>
</g>
</svg>
