<?xml version="1.0" encoding="utf-8"?>
<!-- Generator: Adobe Illustrator 26.0.1, SVG Export Plug-In . SVG Version: 6.00 Build 0)  -->
<svg version="1.1" id="Слой_1" xmlns="http://www.w3.org/2000/svg" xmlns:xlink="http://www.w3.org/1999/xlink" x="0px" y="0px"
	 viewBox="0 0 1000 560" style="enable-background:new 0 0 1000 560;" xml:space="preserve">
<g>
	<g>
		<path d="M356.8,3c13.9,23.7,27.7,47.3,41.5,70.9c16.4,28,32.8,56,49.1,84c4.1,7,8.2,14.1,12.5,21c1.4,2.2,1,3.6-1,4.9
			c-16.3,10.2-27.4,24.8-34.8,42.3c-3.8,8.9-6,18.4-6.1,28.1c0,3.8-0.6,5.3-4.9,5.2c-17.6-0.2-35.3-0.3-52.9,0.2
			c-40.8,1.1-81.5,0.1-122.3,0.8c-8.2,0.2-16.3,0.4-24.5,0.8c-3.6,0.1-4.6-1.5-4.3-4.6c1.3-14.9,2-29.8,4.4-44.5
			c4.6-27.9,13-54.5,25-80c11.2-23.8,25.6-45.6,42.7-65.6C302.9,41.2,328,20.1,356.8,3z"/>
		<path d="M759.4,257.1c-42,1.1-88.4,0.7-134.8,1.1c-7.1,0.1-14.3,0.5-21.4,0.8c-3.4,0.1-4.3-1.1-4.4-4.4
			c-1.4-31-16.1-54.5-41.4-71.7c-2.4-1.6-2.7-2.2-1.3-4.6c12.6-21.7,25.1-43.5,37.6-65.2c14.8-26,29.6-52,44.4-78
			c5.8-10.2,11.6-20.4,17.4-30.6c1.3-2.2,2.4-3.2,5.1-1.5c15.7,9.6,30.7,20.2,44.6,32.3c24.6,21.5,45.1,46.5,61.5,74.8
			c15.3,26.3,26.5,54.2,33.2,83.9c4.1,18.4,7.3,36.9,7.2,55.9c0,0.8,0,1.8,0.2,2.5c1.5,4.3-0.7,4.9-4.3,4.9
			C789.9,257,776.8,257.1,759.4,257.1z"/>
		<path d="M464.5,339c10.3,6.1,21.5,9,33.2,10.5c19.1,2.4,37.1-0.9,54-10.1c2.3-1.3,2.6,0.6,3.3,1.8c10.5,17.9,21,35.8,31.5,53.7
			c13.1,22.4,26.3,44.9,39.4,67.3c10,17.1,20.1,34.3,30.2,51.3c1.8,3,1.9,4.3-1.8,6.3c-20.5,11-41.7,20.2-64.1,26.6
			c-22.8,6.5-45.8,10.3-69.5,11.4c-20.9,1-41.4-0.9-61.9-4.1c-17.1-2.7-33.8-7.2-50-12.9c-15.3-5.4-30.2-12-44.3-20.1
			c-2.3-1.3-2.6-2-1.1-4.5c17.5-30.3,34.8-60.8,52.1-91.2c14.9-26.1,29.8-52.2,44.7-78.3C461.6,344,463,341.5,464.5,339z"/>
		<path d="M449.4,259.5c0.4-32.2,26.1-59.2,59.3-58.8c34.1,0.4,58.6,26.2,58.8,58.7c0.2,33-25.7,59-59.4,59.1
			C476.5,318.7,449.5,292.1,449.4,259.5z"/>
	</g>
</g>
</svg>
