<?xml version="1.0" encoding="UTF-8"?>
<!DOCTYPE svg PUBLIC "-//W3C//DTD SVG 1.1//EN" "http://www.w3.org/Graphics/SVG/1.1/DTD/svg11.dtd">
<!-- Creator: CorelDRAW 2021.5 -->
<svg xmlns="http://www.w3.org/2000/svg" xml:space="preserve" width="8000px" height="4500px" version="1.1" style="shape-rendering:geometricPrecision; text-rendering:geometricPrecision; image-rendering:optimizeQuality; fill-rule:evenodd; clip-rule:evenodd"
viewBox="0 0 8000 4500"
 xmlns:xlink="http://www.w3.org/1999/xlink"
 xmlns:xodm="http://www.corel.com/coreldraw/odm/2003">
 <defs>
  <style type="text/css">
   <![CDATA[
    .str0 {stroke:black;stroke-width:4.17;stroke-miterlimit:10}
    .fil2 {fill:none;fill-rule:nonzero}
    .fil0 {fill:black;fill-rule:nonzero}
    .fil1 {fill:yellow;fill-rule:nonzero}
   ]]>
  </style>
 </defs>
 <g id="Слой_x0020_5">
  <metadata id="CorelCorpID_0Corel-Layer"/>
  <polygon class="fil0" points="0,4497.92 7997.92,4497.92 7997.92,2.09 0,2.09 "/>
  <polygon class="fil1" points="0,4497.92 7997.92,4497.92 7997.92,1897.92 0,1897.92 "/>
  <polygon class="fil1" points="2611.76,657.16 2483,1048.56 2623.81,1523.97 2391.49,1523.97 2299.99,1152.48 2299.99,1523.97 2074.25,1523.97 2074.25,657.16 2299.99,657.16 2299.99,993.95 2401.36,657.16 "/>
  <polygon id="_1" class="fil1" points="2662.35,657.16 3038.22,657.16 3038.22,830.31 2888.09,830.31 2888.09,995.78 3028.36,995.78 3028.36,1160.15 2888.09,1160.15 2888.09,1350.83 3053.56,1350.83 3053.56,1523.97 2662.35,1523.97 "/>
  <polygon id="_2" class="fil1" points="3117.67,657.16 3493.54,657.16 3493.54,830.31 3343.41,830.31 3343.41,995.78 3483.67,995.78 3483.67,1160.15 3343.41,1160.15 3343.41,1350.83 3508.88,1350.83 3508.88,1523.97 3117.67,1523.97 "/>
  <path id="_3" class="fil1" d="M3572.98 657.16l227.03 0c61.36,0 108.48,4.75 141.54,14.43 32.87,9.68 57.71,23.56 74.33,41.64 16.62,18.27 27.77,40.37 33.79,66.12 5.85,25.93 8.77,65.93 8.77,120.18l0 75.43c0,55.15 -5.66,95.52 -17.17,120.72 -11.32,25.39 -32.33,44.93 -62.64,58.44 -30.51,13.52 -70.32,20.28 -119.45,20.28l-60.45 0 0 349.57 -225.75 0 0 -866.81zm225.75 147.94l0 220.81c6.39,0.37 11.87,0.55 16.43,0.55 20.64,0 34.89,-5.11 42.92,-15.34 7.86,-10.05 11.87,-31.23 11.87,-63.38l0 -71.41c0,-29.59 -4.56,-48.95 -13.88,-57.9 -9.13,-8.95 -28.3,-13.33 -57.34,-13.33z"/>
  <path id="_4" class="fil1" d="M4830.27 1165.27c0,87.11 -2.01,148.66 -6.21,184.83 -4.02,36.34 -16.8,69.4 -38.35,99.35 -21.55,29.95 -50.78,52.97 -87.49,69.04 -36.71,16.07 -79.45,24.11 -128.21,24.11 -46.39,0 -87.85,-7.67 -124.74,-22.83 -36.89,-15.16 -66.67,-37.81 -88.95,-68.13 -22.46,-30.31 -35.79,-63.37 -40.18,-98.99 -4.2,-35.79 -6.39,-98.26 -6.39,-187.38l0 -148.31c0,-87.12 2.01,-148.67 6.21,-184.83 4.02,-36.34 16.8,-69.4 38.35,-99.35 21.56,-29.96 50.78,-52.97 87.49,-69.04 36.71,-16.07 79.45,-24.11 128.21,-24.11 46.39,0 87.85,7.67 124.74,22.83 36.9,15.16 66.67,37.81 88.95,68.12 22.46,30.32 35.8,63.38 40.18,98.99 4.2,35.8 6.39,98.27 6.39,187.39l0 148.31zm-225.74 -284.74c0,-40.18 -2.19,-65.93 -6.58,-77.26 -4.38,-11.14 -13.33,-16.8 -26.84,-16.8 -11.51,0 -20.28,4.57 -26.49,13.7 -6.02,8.95 -9.13,35.8 -9.13,80.36l0 404.55c0,50.22 2.01,81.27 6.03,92.96 4.02,11.87 13.33,17.72 27.94,17.72 14.98,0 24.66,-6.76 28.86,-20.28 4.2,-13.51 6.21,-45.84 6.21,-96.8l0 -398.15z"/>
  <path id="_5" class="fil1" d="M5426.77 657.16l0 579.52c0,65.75 -2.19,111.95 -6.39,138.44 -4.39,26.66 -16.99,54.06 -37.99,82 -21.01,28.13 -48.77,49.31 -83.1,63.74 -34.52,14.43 -75.07,21.74 -121.82,21.74 -51.69,0 -97.35,-8.59 -136.8,-25.75 -39.63,-17.17 -69.22,-39.45 -88.76,-66.85 -19.73,-27.58 -31.23,-56.62 -34.89,-87.12 -3.47,-30.5 -5.29,-94.79 -5.29,-192.5l0 -513.22 225.74 0 0 650.2c0,37.8 2.01,62.1 6.03,72.51 4.02,10.59 12.23,15.89 24.47,15.89 13.88,0 23.01,-5.85 27.03,-17.36 4.02,-11.68 6.03,-39.08 6.03,-82.18l0 -639.06 225.74 0z"/>
  <polygon id="_6" class="fil1" points="5967.93,657.16 5967.93,830.31 5835.33,830.31 5835.33,1523.97 5609.59,1523.97 5609.59,830.31 5475.9,830.31 5475.9,657.16 "/>
  <path class="fil0" d="M1302.98 2463.09l-206.86 0 0 -137.9c0,-40.17 -2.18,-65.1 -6.53,-75.14 -4.35,-9.88 -14.06,-14.9 -28.95,-14.9 -16.74,0 -27.45,6.03 -31.97,18.07 -4.51,12.22 -6.86,38.33 -6.86,78.5l0 368.53c0,38.66 2.35,63.76 6.86,75.64 4.52,11.72 14.73,17.58 30.46,17.58 15.23,0 25.27,-5.86 29.96,-17.74 4.69,-11.72 7.03,-39.5 7.03,-83.18l0 -99.92 206.86 0 0 30.97c0,82.34 -5.86,140.75 -17.41,175.05 -11.55,34.48 -37.32,64.61 -76.98,90.55 -39.84,25.94 -88.71,38.82 -146.95,38.82 -60.41,0 -110.29,-10.87 -149.62,-32.8 -39.16,-21.92 -65.27,-52.22 -77.99,-91.04 -12.72,-38.83 -19.08,-97.07 -19.08,-174.89l0 -231.97c0,-57.23 2.01,-100.08 5.86,-128.7 4.02,-28.62 15.57,-56.23 35.15,-82.67 19.41,-26.45 46.36,-47.37 80.83,-62.6 34.48,-15.23 74.14,-22.76 119,-22.76 60.75,0 110.96,11.72 150.62,35.31 39.5,23.44 65.44,52.72 77.99,87.87 12.39,35.15 18.58,89.71 18.58,163.85l0 75.47z"/>
  <path id="_1_0" class="fil0" d="M1847.91 2582.26c0,79.83 -1.85,136.23 -5.69,169.37 -3.69,33.3 -15.4,63.59 -35.15,91.04 -19.75,27.45 -46.53,48.54 -80.17,63.26 -33.64,14.73 -72.8,22.09 -117.48,22.09 -42.51,0 -80.5,-7.02 -114.31,-20.92 -33.81,-13.89 -61.09,-34.64 -81.51,-62.42 -20.58,-27.78 -32.8,-58.08 -36.82,-90.71 -3.85,-32.8 -5.85,-90.04 -5.85,-171.71l0 -135.9c0,-79.83 1.84,-136.23 5.69,-169.37 3.68,-33.3 15.39,-63.6 35.14,-91.04 19.75,-27.45 46.53,-48.54 80.17,-63.27 33.64,-14.72 72.8,-22.09 117.49,-22.09 42.51,0 80.5,7.03 114.3,20.92 33.81,13.89 61.09,34.65 81.51,62.43 20.58,27.78 32.8,58.07 36.82,90.71 3.85,32.8 5.86,90.04 5.86,171.71l0 135.9zm-206.86 -260.92c0,-36.82 -2.01,-60.42 -6.03,-70.79 -4.01,-10.21 -12.21,-15.4 -24.6,-15.4 -10.54,0 -18.58,4.18 -24.27,12.55 -5.52,8.2 -8.36,32.8 -8.36,73.64l0 370.71c0,46.02 1.84,74.47 5.52,85.18 3.68,10.88 12.22,16.24 25.6,16.24 13.73,0 22.6,-6.2 26.45,-18.58 3.85,-12.39 5.69,-42.01 5.69,-88.7l0 -364.85z"/>
  <polygon id="_2_1" class="fil0" points="2386.47,2116.66 2386.47,2910.95 2205.72,2910.95 2098.28,2549.79 2098.28,2910.95 1925.56,2910.95 1925.56,2116.66 2098.28,2116.66 2213.76,2474.31 2213.76,2116.66 "/>
  <polygon id="_3_2" class="fil0" points="2885.04,2116.66 2885.04,2275.32 2763.54,2275.32 2763.54,2910.95 2556.68,2910.95 2556.68,2275.32 2434.17,2275.32 2434.17,2116.66 "/>
  <path id="_4_3" class="fil0" d="M3248.38 2116.66l118.16 794.29 -211.04 0 -11.22 -142.59 -74.47 0 -11.22 142.59 -213.72 0 104.77 -794.29 298.74 0zm-109.62 511.12c-9.87,-90.04 -20.25,-201.5 -31.3,-334.56 -20.41,152.64 -33.3,264.1 -38.82,334.56l70.12 0z"/>
  <path id="_5_4" class="fil0" d="M4038.66 2116.66l0 794.29 -180.75 0 -0.5 -536.22 -71.8 536.22 -126.52 0 -75.82 -524.17 -0.5 524.17 -180.75 0 0 -794.29 266.94 0c7.53,48.03 15.73,104.6 24.6,169.2l29.29 201.67 47.03 -370.87 268.78 0z"/>
  <polygon id="_6_5" class="fil0" points="4328.7,2116.66 4328.7,2910.95 4121.84,2910.95 4121.84,2116.66 "/>
  <polygon id="_7" class="fil0" points="4872.12,2116.66 4872.12,2910.95 4691.37,2910.95 4583.92,2549.79 4583.92,2910.95 4411.21,2910.95 4411.21,2116.66 4583.92,2116.66 4699.4,2474.31 4699.4,2116.66 "/>
  <path id="_8" class="fil0" d="M5311.27 2116.66l118.16 794.29 -211.04 0 -11.21 -142.59 -74.48 0 -11.21 142.59 -213.72 0 104.76 -794.29 298.74 0zm-109.62 511.12c-9.87,-90.04 -20.25,-201.5 -31.29,-334.56 -20.42,152.64 -33.31,264.1 -38.83,334.56l70.12 0z"/>
  <polygon id="_9" class="fil0" points="5825.24,2116.66 5825.24,2275.32 5703.74,2275.32 5703.74,2910.95 5496.88,2910.95 5496.88,2275.32 5374.37,2275.32 5374.37,2116.66 "/>
  <polygon id="_10" class="fil0" points="6079.29,2116.66 6079.29,2910.95 5872.44,2910.95 5872.44,2116.66 "/>
  <path id="_11" class="fil0" d="M6632.76 2582.26c0,79.83 -1.84,136.23 -5.69,169.37 -3.68,33.3 -15.4,63.59 -35.15,91.04 -19.75,27.45 -46.52,48.54 -80.16,63.26 -33.64,14.73 -72.81,22.09 -117.49,22.09 -42.51,0 -80.5,-7.02 -114.31,-20.92 -33.81,-13.89 -61.09,-34.64 -81.5,-62.42 -20.59,-27.78 -32.81,-58.08 -36.82,-90.71 -3.85,-32.8 -5.86,-90.04 -5.86,-171.71l0 -135.9c0,-79.83 1.84,-136.23 5.69,-169.37 3.68,-33.3 15.4,-63.6 35.14,-91.04 19.75,-27.45 46.53,-48.54 80.17,-63.27 33.64,-14.72 72.8,-22.09 117.49,-22.09 42.51,0 80.5,7.03 114.31,20.92 33.8,13.89 61.08,34.65 81.5,62.43 20.59,27.78 32.8,58.07 36.82,90.71 3.85,32.8 5.86,90.04 5.86,171.71l0 135.9zm-206.86 -260.92c0,-36.82 -2.01,-60.42 -6.03,-70.79 -4.01,-10.21 -12.21,-15.4 -24.6,-15.4 -10.54,0 -18.58,4.18 -24.26,12.55 -5.53,8.2 -8.37,32.8 -8.37,73.64l0 370.71c0,46.02 1.84,74.47 5.52,85.18 3.68,10.88 12.22,16.24 25.61,16.24 13.72,0 22.59,-6.2 26.44,-18.58 3.85,-12.39 5.69,-42.01 5.69,-88.7l0 -364.85z"/>
  <polygon id="_12" class="fil0" points="7171.33,2116.66 7171.33,2910.95 6990.58,2910.95 6883.13,2549.79 6883.13,2910.95 6710.41,2910.95 6710.41,2116.66 6883.13,2116.66 6998.61,2474.31 6998.61,2116.66 "/>
  <path id="_13" class="fil0" d="M3350.96 3361.54l128.94 866.81 -230.31 0 -12.24 -155.61 -81.27 0 -12.24 155.61 -233.23 0 114.34 -866.81 326.01 0zm-119.63 557.78c-10.78,-98.26 -22.1,-219.9 -34.16,-365.09 -22.28,166.56 -36.34,288.2 -42.37,365.09l76.53 0z"/>
  <path id="_14" class="fil0" d="M3518.62 3361.54l159.44 0c106.3,0 178.26,4.02 215.88,12.24 37.63,8.22 68.31,29.22 92.05,63.01 23.75,33.61 35.62,87.48 35.62,161.27 0,67.39 -8.4,112.69 -25.21,135.88 -16.62,23.2 -49.67,37.08 -98.99,41.64 44.57,11.15 74.7,25.94 90.04,44.57 15.35,18.45 24.84,35.61 28.49,51.14 3.84,15.52 5.67,58.26 5.67,128.21l0 228.85 -209.31 0 0 -288.39c0,-46.39 -3.65,-75.06 -10.96,-86.21 -7.12,-11.14 -26.11,-16.62 -56.98,-16.62l0 391.22 -225.74 0 0 -866.81zm225.74 147.94l0 192.87c25.21,0 42.74,-3.47 52.78,-10.41 10.05,-6.94 15.16,-29.59 15.16,-67.76l0 -47.67c0,-27.58 -4.93,-45.66 -14.61,-54.24 -9.68,-8.59 -27.58,-12.79 -53.33,-12.79z"/>
  <polygon id="_15" class="fil0" points="4108.73,3361.54 4484.6,3361.54 4484.6,3534.68 4334.47,3534.68 4334.47,3700.16 4474.73,3700.16 4474.73,3864.53 4334.47,3864.53 4334.47,4055.21 4499.94,4055.21 4499.94,4228.35 4108.73,4228.35 "/>
  <path id="_16" class="fil0" d="M4952.88 3361.54l128.95 866.81 -230.31 0 -12.24 -155.61 -81.27 0 -12.24 155.61 -233.23 0 114.33 -866.81 326.01 0zm-119.63 557.78c-10.77,-98.26 -22.09,-219.9 -34.15,-365.09 -22.28,166.56 -36.34,288.2 -42.37,365.09l76.52 0z"/>
 </g>
 <g id="Слой_x0020_4">
  <metadata id="CorelCorpID_1Corel-Layer"/>
  <path class="fil0" d="M924.23 4189.75c-73.13,-13.11 -143.85,-38.62 -208.8,-75.66l224.56 -394.1c0,0 0.83,-1.47 1.99,-3.5 28.56,16.47 61.7,25.82 97.01,25.82 36.11,0 69.94,-9.78 99,-26.82 7.19,12.28 12.49,21.34 12.49,21.34l218.5 373.54c-139.73,81.74 -297.16,105.82 -444.75,79.38z"/>
  <path class="fil2 str0" d="M924.23 4189.75c-73.13,-13.11 -143.85,-38.62 -208.8,-75.66l224.56 -394.1c0,0 0.83,-1.47 1.99,-3.5 28.56,16.47 61.7,25.82 97.01,25.82 36.11,0 69.94,-9.78 99,-26.82 7.19,12.28 12.49,21.34 12.49,21.34l218.5 373.54c-139.73,81.74 -297.16,105.82 -444.75,79.38z"/>
  <path class="fil0" d="M1479.04 3543.81c-117.22,0.68 -239.01,1.38 -239.01,1.38l-5.23 0c-0.27,-72.41 -40,-135.68 -98.82,-169.4 84.91,-148.66 198.18,-347.4 222.1,-389.56 0,0 2.29,-4.03 4.65,-8.01 96.43,54.9 180.31,135.14 240.41,238.1 18.56,31.63 34.25,64.31 46.8,97.51 28.49,74.51 42.35,151.89 42.61,228.75 0,0 -104.78,0.6 -213.51,1.23z"/>
  <path class="fil2 str0" d="M1479.04 3543.81c-117.22,0.68 -239.01,1.38 -239.01,1.38l-5.23 0c-0.27,-72.41 -40,-135.68 -98.82,-169.4 84.91,-148.66 198.18,-347.4 222.1,-389.56 0,0 2.29,-4.03 4.65,-8.01 96.43,54.9 180.31,135.14 240.41,238.1 18.56,31.63 34.25,64.31 46.8,97.51 28.49,74.51 42.35,151.89 42.61,228.75 0,0 -104.78,0.6 -213.51,1.23z"/>
  <path class="fil0" d="M1169.7 3546.24c0,72.19 -58.52,130.71 -130.71,130.71 -72.19,0 -130.71,-58.52 -130.71,-130.71 0,-72.19 58.52,-130.72 130.71,-130.72 72.19,0 130.71,58.53 130.71,130.72z"/>
  <path class="fil2 str0" d="M1169.7 3546.24c0,72.19 -58.52,130.71 -130.71,130.71 -72.19,0 -130.71,-58.52 -130.71,-130.71 0,-72.19 58.52,-130.72 130.71,-130.72 72.19,0 130.71,58.53 130.71,130.72z"/>
  <path class="fil0" d="M939.91 3377.09c-58.82,35.04 -97.51,101.18 -96.99,170.19 -152.41,1.05 -305.08,1.83 -457.49,2.62 -0.79,-113.98 29.02,-228.23 85.49,-327.31 56.46,-99.08 139.6,-183 238.15,-240.51 76.34,130.45 152.41,260.9 228.75,391.36 0.26,0.52 1.83,3.13 2.09,3.65z"/>
  <path class="fil2 str0" d="M939.91 3377.09c-58.82,35.04 -97.51,101.18 -96.99,170.19 -152.41,1.05 -305.08,1.83 -457.49,2.62 -0.79,-113.98 29.02,-228.23 85.49,-327.31 56.46,-99.08 139.6,-183 238.15,-240.51 76.34,130.45 152.41,260.9 228.75,391.36 0.26,0.52 1.83,3.13 2.09,3.65z"/>
  <path class="fil0" d="M6826.32 4206.18c-73.13,-13.11 -143.85,-38.61 -208.8,-75.66l224.55 -394.1c0,0 0.84,-1.46 2,-3.5 28.56,16.47 61.7,25.82 97.01,25.82 36.1,0 69.94,-9.77 99,-26.82 7.18,12.28 12.48,21.34 12.48,21.34l218.51 373.54c-139.74,81.75 -297.16,105.82 -444.75,79.38z"/>
  <path class="fil2 str0" d="M6826.32 4206.18c-73.13,-13.11 -143.85,-38.61 -208.8,-75.66l224.55 -394.1c0,0 0.84,-1.46 2,-3.5 28.56,16.47 61.7,25.82 97.01,25.82 36.1,0 69.94,-9.77 99,-26.82 7.18,12.28 12.48,21.34 12.48,21.34l218.51 373.54c-139.74,81.75 -297.16,105.82 -444.75,79.38z"/>
  <path class="fil0" d="M7381.13 3560.24c-117.22,0.68 -239.02,1.38 -239.02,1.38l-5.23 0c-0.26,-72.41 -39.99,-135.68 -98.81,-169.4 84.9,-148.65 198.18,-347.4 222.1,-389.56 0,0 2.28,-4.02 4.65,-8.01 96.43,54.9 180.31,135.14 240.41,238.1 18.56,31.64 34.25,64.31 46.79,97.52 28.5,74.5 42.36,151.88 42.62,228.74 0,0 -104.79,0.61 -213.51,1.23z"/>
  <path class="fil2 str0" d="M7381.13 3560.24c-117.22,0.68 -239.02,1.38 -239.02,1.38l-5.23 0c-0.26,-72.41 -39.99,-135.68 -98.81,-169.4 84.9,-148.65 198.18,-347.4 222.1,-389.56 0,0 2.28,-4.02 4.65,-8.01 96.43,54.9 180.31,135.14 240.41,238.1 18.56,31.64 34.25,64.31 46.79,97.52 28.5,74.5 42.36,151.88 42.62,228.74 0,0 -104.79,0.61 -213.51,1.23z"/>
  <path class="fil0" d="M7071.79 3562.67c0,72.19 -58.52,130.71 -130.71,130.71 -72.2,0 -130.72,-58.52 -130.72,-130.71 0,-72.19 58.52,-130.71 130.72,-130.71 72.19,0 130.71,58.52 130.71,130.71z"/>
  <path class="fil2 str0" d="M7071.79 3562.67c0,72.19 -58.52,130.71 -130.71,130.71 -72.2,0 -130.72,-58.52 -130.72,-130.71 0,-72.19 58.52,-130.71 130.72,-130.71 72.19,0 130.71,58.52 130.71,130.71z"/>
  <path class="fil0" d="M6842 3393.53c-58.82,35.03 -97.52,101.17 -96.99,170.19 -152.41,1.04 -305.08,1.83 -457.5,2.61 -0.78,-113.98 29.02,-228.22 85.49,-327.3 56.47,-99.08 139.6,-183 238.16,-240.51 76.33,130.45 152.41,260.9 228.75,391.35 0.26,0.52 1.82,3.14 2.09,3.66z"/>
  <path class="fil2 str0" d="M6842 3393.53c-58.82,35.03 -97.52,101.17 -96.99,170.19 -152.41,1.04 -305.08,1.83 -457.5,2.61 -0.78,-113.98 29.02,-228.22 85.49,-327.3 56.47,-99.08 139.6,-183 238.16,-240.51 76.33,130.45 152.41,260.9 228.75,391.35 0.26,0.52 1.82,3.14 2.09,3.66z"/>
 </g>
</svg>
