<?xml version="1.0" encoding="UTF-8"?>
<!DOCTYPE svg PUBLIC "-//W3C//DTD SVG 1.1//EN" "http://www.w3.org/Graphics/SVG/1.1/DTD/svg11.dtd">
<!-- Creator: CorelDRAW 2021.5 -->
<svg xmlns="http://www.w3.org/2000/svg" xml:space="preserve" width="2421px" height="2421px" version="1.1" style="shape-rendering:geometricPrecision; text-rendering:geometricPrecision; image-rendering:optimizeQuality; fill-rule:evenodd; clip-rule:evenodd"
viewBox="0 0 2421 2421"
 xmlns:xlink="http://www.w3.org/1999/xlink"
 xmlns:xodm="http://www.corel.com/coreldraw/odm/2003">
 <defs>
  <style type="text/css">
   <![CDATA[
    .str0 {stroke:#FEFEFE;stroke-width:2;stroke-miterlimit:22.9256}
    .fil68 {fill:#FEFEFE}
    .fil77 {fill:#DA9713}
    .fil48 {fill:#F0A365}
    .fil47 {fill:#C88716}
    .fil0 {fill:#1F1B20}
    .fil1 {fill:#1C0F05}
    .fil7 {fill:#422B04}
    .fil4 {fill:#452E05}
    .fil6 {fill:#4D3205}
    .fil8 {fill:#7D5F18}
    .fil2 {fill:#875C07}
    .fil84 {fill:#8C6E35}
    .fil66 {fill:#BC7C10}
    .fil65 {fill:#BD7D10}
    .fil64 {fill:#BD7D11}
    .fil63 {fill:#BE7E11}
    .fil5 {fill:#BE8108}
    .fil62 {fill:#BF7E12}
    .fil61 {fill:#BF7F12}
    .fil60 {fill:#C07F12}
    .fil59 {fill:#C08013}
    .fil58 {fill:#C18113}
    .fil50 {fill:#C18D25}
    .fil57 {fill:#C28113}
    .fil56 {fill:#C28214}
    .fil55 {fill:#C38214}
    .fil54 {fill:#C48315}
    .fil53 {fill:#C58415}
    .fil52 {fill:#C58416}
    .fil74 {fill:#C59636}
    .fil51 {fill:#C68516}
    .fil78 {fill:#C68C06}
    .fil81 {fill:#CB4F35}
    .fil73 {fill:#CB9B0D}
    .fil45 {fill:#D3982D}
    .fil44 {fill:#D59357}
    .fil46 {fill:#D89D01}
    .fil72 {fill:#D9C255}
    .fil76 {fill:#DEAB12}
    .fil49 {fill:#EAA166}
    .fil75 {fill:#EDB613}
    .fil83 {fill:#EDD77E}
    .fil9 {fill:#EEBF3A}
    .fil10 {fill:#F2C858}
    .fil80 {fill:#F9BB3F}
    .fil12 {fill:#FAD766}
    .fil11 {fill:#FAD96C}
    .fil67 {fill:white}
    .fil71 {fill:white;fill-opacity:0.149020}
    .fil69 {fill:#FEFEFE;fill-opacity:0.211765}
    .fil85 {fill:#D9C255;fill-opacity:0.309804}
    .fil79 {fill:#FCE53D;fill-opacity:0.368627}
    .fil70 {fill:#F9D04D;fill-opacity:0.439216}
    .fil3 {fill:#875C07;fill-opacity:0.450980}
    .fil82 {fill:#EFD982;fill-opacity:0.501961}
    .fil43 {fill:#FDEFC3;fill-opacity:0.501961}
    .fil42 {fill:#FDEEC0;fill-opacity:0.517647}
    .fil41 {fill:#FDEDBD;fill-opacity:0.533333}
    .fil40 {fill:#FDEDBA;fill-opacity:0.549020}
    .fil39 {fill:#FDECB7;fill-opacity:0.564706}
    .fil38 {fill:#FDEBB4;fill-opacity:0.580392}
    .fil37 {fill:#FCEAB1;fill-opacity:0.596078}
    .fil36 {fill:#FCEAAE;fill-opacity:0.611765}
    .fil35 {fill:#FCE9AB;fill-opacity:0.627451}
    .fil34 {fill:#FCE8A8;fill-opacity:0.647059}
    .fil33 {fill:#FCE7A5;fill-opacity:0.662745}
    .fil32 {fill:#FCE6A2;fill-opacity:0.678431}
    .fil31 {fill:#FCE69F;fill-opacity:0.694118}
    .fil30 {fill:#FCE59C;fill-opacity:0.709804}
    .fil29 {fill:#FCE499;fill-opacity:0.725490}
    .fil28 {fill:#FCE396;fill-opacity:0.741176}
    .fil27 {fill:#FBE393;fill-opacity:0.756863}
    .fil26 {fill:#FBE290;fill-opacity:0.772549}
    .fil25 {fill:#FBE18D;fill-opacity:0.792157}
    .fil24 {fill:#FBE08A;fill-opacity:0.807843}
    .fil23 {fill:#FBE087;fill-opacity:0.823529}
    .fil22 {fill:#FBDF84;fill-opacity:0.839216}
    .fil21 {fill:#FBDE81;fill-opacity:0.854902}
    .fil20 {fill:#FBDD7E;fill-opacity:0.870588}
    .fil19 {fill:#FBDC7B;fill-opacity:0.886275}
    .fil18 {fill:#FBDC78;fill-opacity:0.901961}
    .fil17 {fill:#FADB75;fill-opacity:0.917647}
    .fil16 {fill:#FADA72;fill-opacity:0.937255}
    .fil15 {fill:#FAD96F;fill-opacity:0.952941}
    .fil14 {fill:#FAD96C;fill-opacity:0.968627}
    .fil13 {fill:#FAD869;fill-opacity:0.984314}
   ]]>
  </style>
    <mask id="id0">
  <linearGradient id="id1" gradientUnits="userSpaceOnUse" x1="1190.66" y1="1937.4" x2="1214.17" y2="2346.79">
   <stop offset="0" style="stop-opacity:1; stop-color:white"/>
   <stop offset="0.180392" style="stop-opacity:0.501961; stop-color:white"/>
   <stop offset="1" style="stop-opacity:0; stop-color:white"/>
  </linearGradient>
     <rect style="fill:url(#id1)" x="1078.79" y="2159.47" width="269.39" height="38.63"/>
    </mask>
    <mask id="id2">
  <linearGradient id="id3" gradientUnits="userSpaceOnUse" x1="938.42" y1="1988.8" x2="1115.41" y2="2016.23">
   <stop offset="0" style="stop-opacity:1; stop-color:white"/>
   <stop offset="1" style="stop-opacity:0; stop-color:white"/>
  </linearGradient>
     <rect style="fill:url(#id3)" x="976.47" y="2077.73" width="116.17" height="61.72"/>
    </mask>
    <mask id="id4">
  <linearGradient id="id5" gradientUnits="userSpaceOnUse" x1="1441.08" y1="1958.46" x2="1260.02" y2="2007.04">
   <stop offset="0" style="stop-opacity:1; stop-color:white"/>
   <stop offset="1" style="stop-opacity:0; stop-color:white"/>
  </linearGradient>
     <rect style="fill:url(#id5)" x="1259.36" y="2084.74" width="160.73" height="58.39"/>
    </mask>
    <mask id="id6">
  <linearGradient id="id7" gradientUnits="userSpaceOnUse" x1="1441.08" y1="1958.46" x2="1260.02" y2="2007.04">
   <stop offset="0" style="stop-opacity:1; stop-color:white"/>
   <stop offset="1" style="stop-opacity:0; stop-color:white"/>
  </linearGradient>
     <rect style="fill:url(#id7)" x="1278.18" y="2003.87" width="153.93" height="86.85"/>
    </mask>
    <mask id="id8">
  <linearGradient id="id9" gradientUnits="userSpaceOnUse" x1="1442.02" y1="1958.24" x2="1260.16" y2="2006.97">
   <stop offset="0" style="stop-opacity:1; stop-color:white"/>
   <stop offset="1" style="stop-opacity:0; stop-color:white"/>
  </linearGradient>
     <rect style="fill:url(#id9)" x="1222.72" y="1922.33" width="214.36" height="84.62"/>
    </mask>
    <mask id="id10">
  <linearGradient id="id11" gradientUnits="userSpaceOnUse" x1="941.23" y1="1989.18" x2="1115.85" y2="2015.93">
   <stop offset="0" style="stop-opacity:1; stop-color:white"/>
   <stop offset="1" style="stop-opacity:0; stop-color:white"/>
  </linearGradient>
     <rect style="fill:url(#id11)" x="950.2" y="1916.46" width="195.01" height="87.4"/>
    </mask>
    <mask id="id12">
  <linearGradient id="id13" gradientUnits="userSpaceOnUse" x1="938.42" y1="1988.8" x2="1115.41" y2="2016.23">
   <stop offset="0" style="stop-opacity:1; stop-color:white"/>
   <stop offset="1" style="stop-opacity:0; stop-color:white"/>
  </linearGradient>
     <rect style="fill:url(#id13)" x="945.88" y="1847.75" width="265.8" height="101.65"/>
    </mask>
    <mask id="id14">
  <linearGradient id="id15" gradientUnits="userSpaceOnUse" x1="1441.08" y1="1958.46" x2="1260.02" y2="2007.04">
   <stop offset="0" style="stop-opacity:1; stop-color:white"/>
   <stop offset="1" style="stop-opacity:0; stop-color:white"/>
  </linearGradient>
     <rect style="fill:url(#id15)" x="1271.58" y="1855.61" width="160.03" height="87.27"/>
    </mask>
    <mask id="id16">
  <linearGradient id="id17" gradientUnits="userSpaceOnUse" x1="938.35" y1="1988.68" x2="1115.42" y2="2016.07">
   <stop offset="0" style="stop-opacity:1; stop-color:white"/>
   <stop offset="1" style="stop-opacity:0; stop-color:white"/>
  </linearGradient>
     <rect style="fill:url(#id17)" x="953.88" y="1997.26" width="130.4" height="75.79"/>
    </mask>
    <mask id="id18">
  <linearGradient id="id19" gradientUnits="userSpaceOnUse" x1="923.41" y1="1815.44" x2="1115.34" y2="1867.32">
   <stop offset="0" style="stop-opacity:1; stop-color:white"/>
   <stop offset="1" style="stop-opacity:0; stop-color:white"/>
  </linearGradient>
     <rect style="fill:url(#id19)" x="945.15" y="1811.5" width="262.88" height="60.79"/>
    </mask>
    <mask id="id20">
  <linearGradient id="id21" gradientUnits="userSpaceOnUse" x1="1438.49" y1="1826.6" x2="1319" y2="1860.54">
   <stop offset="0" style="stop-opacity:1; stop-color:white"/>
   <stop offset="1" style="stop-opacity:0; stop-color:white"/>
  </linearGradient>
     <rect style="fill:url(#id21)" x="1229.03" y="1816.59" width="218.63" height="54.49"/>
    </mask>
    <mask id="id22">
  <linearGradient id="id23" gradientUnits="userSpaceOnUse" x1="1190.66" y1="1937.4" x2="1214.17" y2="2346.79">
   <stop offset="0" style="stop-opacity:1; stop-color:white"/>
   <stop offset="0.180392" style="stop-opacity:0.501961; stop-color:white"/>
   <stop offset="1" style="stop-opacity:0; stop-color:white"/>
  </linearGradient>
     <rect style="fill:url(#id23)" x="1109.44" y="2097.79" width="174.47" height="14.66"/>
    </mask>
    <mask id="id24">
  <linearGradient id="id25" gradientUnits="userSpaceOnUse" x1="1297.83" y1="150.3" x2="1246.05" y2="703.74">
   <stop offset="0" style="stop-opacity:0; stop-color:white"/>
   <stop offset="0.4" style="stop-opacity:0.501961; stop-color:white"/>
   <stop offset="1" style="stop-opacity:1; stop-color:white"/>
  </linearGradient>
     <rect style="fill:url(#id25)" x="638.06" y="295.26" width="1114.06" height="575.97"/>
    </mask>
    <mask id="id26">
  <linearGradient id="id27" gradientUnits="userSpaceOnUse" x1="902.15" y1="163.42" x2="1087.25" y2="565.48">
   <stop offset="0" style="stop-opacity:0; stop-color:white"/>
   <stop offset="0.45098" style="stop-opacity:0.501961; stop-color:white"/>
   <stop offset="1" style="stop-opacity:1; stop-color:white"/>
  </linearGradient>
     <rect style="fill:url(#id27)" x="610.88" y="263.32" width="1166.61" height="575.97"/>
    </mask>
    <mask id="id28">
  <linearGradient id="id29" gradientUnits="userSpaceOnUse" x1="1256.17" y1="1902.25" x2="1272.78" y2="1282.51">
   <stop offset="0" style="stop-opacity:1; stop-color:white"/>
   <stop offset="0.258824" style="stop-opacity:0.501961; stop-color:white"/>
   <stop offset="1" style="stop-opacity:0; stop-color:white"/>
  </linearGradient>
     <rect style="fill:url(#id29)" x="846.58" y="1310.72" width="157.3" height="482.62"/>
    </mask>
    <mask id="id30">
  <linearGradient id="id31" gradientUnits="userSpaceOnUse" x1="1256.17" y1="1902.25" x2="1272.78" y2="1282.51">
   <stop offset="0" style="stop-opacity:1; stop-color:white"/>
   <stop offset="0.258824" style="stop-opacity:0.501961; stop-color:white"/>
   <stop offset="1" style="stop-opacity:0; stop-color:white"/>
  </linearGradient>
     <rect style="fill:url(#id31)" x="989.47" y="1216.4" width="615.66" height="632.49"/>
    </mask>
    <mask id="id32">
  <linearGradient id="id33" gradientUnits="userSpaceOnUse" x1="1235.75" y1="1955.83" x2="1254.56" y2="756.06">
   <stop offset="0" style="stop-opacity:1; stop-color:white"/>
   <stop offset="0.25098" style="stop-opacity:0.501961; stop-color:white"/>
   <stop offset="1" style="stop-opacity:0; stop-color:white"/>
  </linearGradient>
     <rect style="fill:url(#id33)" x="651.42" y="982.34" width="538.67" height="761.71"/>
    </mask>
    <mask id="id34">
  <linearGradient id="id35" gradientUnits="userSpaceOnUse" x1="1235.75" y1="1955.83" x2="1254.56" y2="756.06">
   <stop offset="0" style="stop-opacity:1; stop-color:white"/>
   <stop offset="0.25098" style="stop-opacity:0.501961; stop-color:white"/>
   <stop offset="1" style="stop-opacity:0; stop-color:white"/>
  </linearGradient>
     <rect style="fill:url(#id35)" x="1277.86" y="1223.16" width="345.84" height="534.45"/>
    </mask>
    <mask id="id36">
  <linearGradient id="id37" gradientUnits="userSpaceOnUse" x1="1210.16" y1="1941.76" x2="1196.73" y2="879.92">
   <stop offset="0" style="stop-opacity:0; stop-color:white"/>
   <stop offset="0.619608" style="stop-opacity:0.501961; stop-color:white"/>
   <stop offset="1" style="stop-opacity:1; stop-color:white"/>
  </linearGradient>
     <rect style="fill:url(#id37)" x="1272.14" y="1197.63" width="361.69" height="572.91"/>
    </mask>
    <mask id="id38">
  <linearGradient id="id39" gradientUnits="userSpaceOnUse" x1="1210.16" y1="1941.76" x2="1196.73" y2="879.92">
   <stop offset="0" style="stop-opacity:0; stop-color:white"/>
   <stop offset="0.619608" style="stop-opacity:0.501961; stop-color:white"/>
   <stop offset="1" style="stop-opacity:1; stop-color:white"/>
  </linearGradient>
     <rect style="fill:url(#id39)" x="662.64" y="1019.72" width="483.54" height="707.23"/>
    </mask>
    <mask id="id40">
  <linearGradient id="id41" gradientUnits="userSpaceOnUse" x1="457.72" y1="392.12" x2="1026.67" y2="661.47">
   <stop offset="0" style="stop-opacity:1; stop-color:white"/>
   <stop offset="0.458824" style="stop-opacity:0.501961; stop-color:white"/>
   <stop offset="1" style="stop-opacity:0; stop-color:white"/>
  </linearGradient>
     <rect style="fill:url(#id41)" x="609.34" y="281.23" width="776.28" height="678.94"/>
    </mask>
    <mask id="id42">
  <linearGradient id="id43" gradientUnits="userSpaceOnUse" x1="1193.16" y1="1013.1" x2="1202.46" y2="1452.37">
   <stop offset="0" style="stop-opacity:0; stop-color:white"/>
   <stop offset="0.2" style="stop-opacity:0.501961; stop-color:white"/>
   <stop offset="1" style="stop-opacity:1; stop-color:white"/>
  </linearGradient>
     <rect style="fill:url(#id43)" x="1176.16" y="1061.19" width="41.18" height="340.44"/>
    </mask>
    <mask id="id44">
  <linearGradient id="id45" gradientUnits="userSpaceOnUse" x1="1196.01" y1="1777.3" x2="1196.75" y2="1231.41">
   <stop offset="0" style="stop-opacity:1; stop-color:white"/>
   <stop offset="0.129412" style="stop-opacity:0.501961; stop-color:white"/>
   <stop offset="1" style="stop-opacity:0; stop-color:white"/>
  </linearGradient>
     <rect style="fill:url(#id45)" x="1064.03" y="1142.65" width="261.31" height="526.1"/>
    </mask>
    <mask id="id46">
  <linearGradient id="id47" gradientUnits="userSpaceOnUse" x1="1101.5" y1="1171.73" x2="1227.79" y2="1401.81">
   <stop offset="0" style="stop-opacity:1; stop-color:white"/>
   <stop offset="0.239216" style="stop-opacity:0.501961; stop-color:white"/>
   <stop offset="1" style="stop-opacity:0; stop-color:white"/>
  </linearGradient>
     <rect style="fill:url(#id47)" x="928.13" y="828.02" width="495.1" height="513.67"/>
    </mask>
 </defs>
 <g id="Слой_x0020_1">
  <metadata id="CorelCorpID_0Corel-Layer"/>
  <g id="_1381399355408">
   <circle class="fil0" cx="1210.13" cy="1210.87" r="1210.5"/>
  </g>
  <g id="цоколь">
   <path class="fil1" d="M937.41 1800.84c9.28,4.13 15.92,55.28 6.17,71.61 -13.08,21.88 34.13,44.6 8.43,59.82 -0.26,0.16 -10.04,32.36 0.09,38.52 7.16,4.35 15.79,11.73 8.99,20.46 -0.12,0.16 -7.15,12.32 -11.52,18.01 -1.91,2.48 -6.19,16.27 -2.23,20.37 4.98,5.14 10.61,16.26 24.65,16.92 9.75,0.46 9.2,19.34 -1.8,28.17 -4.42,3.55 -5.48,28.94 8.94,39.19 8.85,6.29 5.75,21.74 20.72,37.36 4.41,4.6 74.61,35.83 79.55,40.19 26.22,23.1 13.76,15.8 17.95,34.45 5.57,24.77 164.37,37.44 197.61,17.93 3.13,-1.84 24.61,-13.03 24.24,-28.99 -0.46,-19.84 38.59,-24.62 46.94,-36.38 0.12,-0.16 37.83,-18.56 42.08,-23.34 4.08,-4.59 12.24,-5.02 6.21,-18.23 -8.41,-18.43 38.66,-25.83 18.67,-55.57 -17.23,-25.62 1.34,-28.71 9.82,-39.73 30.8,-40.04 -28.16,-29.45 -6.21,-63.9 36.32,-57.03 -37.75,-25.87 -0.8,-68.73 29.9,-34.67 -15.65,-32.59 0.98,-58.77 0.95,-1.49 23.9,-53.59 20.14,-50.73 -11.34,8.65 -18.8,14.42 -49.1,28.12 -0.53,0.24 -1.11,0.36 -1.67,0.54 -101.63,32.81 -329.96,52.39 -468.85,-27.29z"/>
   <path class="fil2" style="mask:url(#id0)" d="M1089.84 2160.82c-63.27,14.56 161.61,71.02 256.94,8.32 5.64,-3.71 -6.7,-13.65 -21.49,-7.94 -53.54,20.67 -170.8,6.61 -235.45,-0.38z"/>
   <path class="fil2" style="mask:url(#id2)" d="M988.95 2108.19c-3.89,-0.26 -0.41,-10.03 -6.97,-16.1 -1.54,-1.42 -0.64,-4.26 -3.3,-6.21 -5.92,-4.35 1.04,-11.66 9.15,-6.2 1.86,1.26 18.87,7.68 21.63,8.07 4.56,0.64 9.33,-0.98 15.37,2.47 0.08,0.04 8.52,2.11 10.52,3.06 0.05,0.02 9.81,2.26 11.96,3.11 3.58,1.42 12.17,2.56 16.51,5.69 0.79,0.56 15.16,4.6 15.94,8 1.78,7.73 15.14,23.02 12.55,28.24 -2.05,4.13 -25.86,-4.34 -29.37,-4.32 -1.75,0 -24.75,-1.7 -25.36,-1.98 -1.99,-0.91 -22.15,-7.74 -23.48,-7.66 -5.38,0.31 -15.82,-1.55 -15.72,-8.64 0.03,-2.37 -6.92,-5.85 -9.43,-7.53z"/>
   <path class="fil2" style="mask:url(#id4)" d="M1420.07 2087.53c-4.66,-0.67 -3.93,-4.51 -15.9,-1.87 -7.15,1.59 -39.31,8.86 -43.5,11.52 -0.11,0.06 -23,4.91 -26.18,6.24 -8.75,3.64 -23.7,6 -33.61,6.23 -5.73,0.13 -38.52,3.2 -40.43,7.25 -1.65,3.53 -1.88,8.23 2.52,9.57 11.98,3.64 15.4,-8.55 40.22,0.78 2.12,0.79 4.81,5.45 -3.39,6.28 -7.94,0.8 -11.13,9.82 -1.21,9.59 5.32,-0.12 10.4,-2.39 19.47,-2.43 7.54,-0.04 84.35,-8.24 76.95,-19.32 -2.66,-3.99 15.19,-2.8 14.97,-12.26 -0.23,-9.99 10.66,-21.5 10.09,-21.58z"/>
   <path class="fil2" style="mask:url(#id6)" d="M1281.64 2053.68c-3.45,0.68 -7.9,26.03 6.55,31.94 8.24,3.37 10.83,5.64 21.14,4.99 5.47,-0.34 29.92,-9.81 34.56,-13.37 2.51,-1.94 21.69,0.29 32.31,-6.34 5.91,-3.69 20.09,-8.37 29.84,-14.62 7.16,-4.6 7.52,-14.13 5.56,-17.95 -1.97,-3.85 15.08,-15.15 16.74,-18.51 4.26,-8.68 7.68,-15.68 -5.92,-15.95 -1.58,-0.03 -14.81,9.56 -21.41,11.14 -5.3,1.26 -22.9,10.59 -30.93,12.7 -17.36,4.55 -71.27,16.16 -88.44,25.97z"/>
   <path class="fil2" style="mask:url(#id8)" d="M1364.81 1987.44c-9.97,0.23 1.35,-8.67 10.6,-9.7 1.9,-0.21 22.18,-11.99 31.49,-14.06 6.62,-1.47 25.31,-10.55 28.84,-16.98 6.43,-11.69 -12.48,-10.4 -10.38,-20.26 1.02,-4.8 -2.76,-5.8 -8.12,-0.81 -2.65,2.46 -18.44,10.44 -22.26,11.34 -16.24,3.81 -35.81,15.66 -54.49,14.03 -7.19,-0.63 -1.92,5.09 6.57,4.35 0.96,-0.08 3.51,4.83 -11.88,4.78 -7.2,-0.02 -19.72,4.96 -31.12,5.23 -2.57,0.06 -20.66,1.53 -20.78,0.48 -0.57,-5.09 14.97,-5.29 11.26,-7.23 -0.38,-0.2 -8.92,2.67 -10.66,2.71 -5.63,0.13 -59.59,1.48 -60.88,4 -4.61,8.96 49.06,6.56 53.55,4.78 2.37,-0.93 45.58,-2.13 48.3,-1.26 6.91,2.19 -14.93,5.84 -16.04,6.12 -2.21,0.56 -49.29,8.76 -49.36,11.36 -0.3,12.37 20.95,5.54 30.59,8.62 0.38,0.12 5.76,0.4 2.52,5.18 -6.88,10.14 15.33,6.41 19.65,4.86 3.25,-1.17 33.38,-1.03 44.37,-3.97 3.85,-1.03 20.96,-4.53 21.31,-4.75 7.31,-4.55 24.22,-6.1 32.18,-11.3 1.64,-1.07 34.48,-18.04 13.43,-15.89 -0.3,0.03 -16.37,8.68 -19.62,9.69 -3.42,1.07 -6.92,3.62 -12.06,4.67 -5.9,1.21 -17.92,4.79 -27.01,4.01z"/>
   <path class="fil2" style="mask:url(#id10)" d="M981.72 1958.78c-6.75,-2.44 -27.75,-10.04 -30.57,-17.14 -1.31,-3.32 -1.38,-6.28 0.52,-9.73 0.59,-1.08 3.57,-1.9 5.55,-4.79 0.14,-0.22 3.46,-3.14 1.42,-10.44 -0.24,-0.87 2.06,1.09 3.58,2.47 2.77,2.52 28.17,12.07 32.23,12.99 17.22,3.9 50.32,17.11 70.17,15.89 8,-0.48 -9.54,3.78 -19.37,2.76 -1.02,-0.1 -2.76,-0.73 12.6,4.85 16.53,6.02 46.38,11.96 27.64,-0.88 -0.47,-0.33 1.15,-0.03 1.74,-0.02 8.53,0.13 17.78,2.3 24.88,4.02 10.41,2.51 25.91,1.84 31.12,4.49 9.11,4.63 -15.75,1.63 -22.08,3.98 -26.75,9.95 -49.77,-4.34 -52.36,-2.82 -13.07,7.62 72.03,19.83 73.03,20.25 10.46,4.39 -26.77,9.27 -36.17,6.05 -7.07,-2.42 -36.36,-1.74 -2.68,5.16 29.71,6.09 -6.92,9.85 -19.83,7.04 -3.56,-0.78 -36.46,-3.51 -48.12,-6.51 -4.07,-1.04 -22.22,-4.65 -22.6,-4.87 -7.74,-4.59 -25.68,-6.24 -34.12,-11.48 -1.74,-1.08 -36.55,-18.24 -14.21,-15.97 0.32,0.03 17.35,8.78 20.8,9.8 3.63,1.09 7.5,3.01 12.78,4.74 36.31,11.88 -3.93,-15.48 -15.95,-19.84z"/>
   <path class="fil3" d="M1202.98 1993.87c22.28,-0.52 40.24,-0.1 40.27,1.24 0.03,1.34 -19.23,3.87 -41.51,4.39 -22.27,0.52 -41.97,-5.1 -42,-6.44 -0.03,-1.34 20.97,1.32 43.24,0.81z"/>
   <path class="fil4" style="mask:url(#id12)" d="M1211.41 1948.72c-25.15,0.59 -28.67,1.62 -57.18,-1.21 -10.03,-1 -25.93,1.1 -38.98,-1.53 -11.6,-2.34 -38.63,-6.33 -47.84,-10.37 -1.13,-0.5 -31.25,-7.43 -33.98,-7.8 -6.98,-0.94 -45.46,-11.85 -48.97,-16.17 -2.37,-2.93 -8.58,-13.35 -17.54,-19.08 -14.3,-9.14 -28.87,-13.39 -16.19,-33.25 6.17,-9.65 23.12,11.08 27.65,14.29 0.33,0.24 11.86,13.27 15.67,13.56 6.48,0.49 7.36,6.1 4.15,-11.86 -1.2,-6.73 -4.93,-11.07 5.83,-10.33 4.51,0.32 3.35,-4.97 -0.16,-5.6 -4.39,-0.78 -9.12,-11.28 -0.84,-6.41 1,0.59 -1.26,-11.95 10.89,-0.1 3.85,3.75 5.5,6.31 8.47,10.16 1.8,2.33 3.11,16.38 -7.4,5.6 -1.98,-2.03 -8.7,4.76 0.81,12.13 8.56,6.63 -12.32,19.6 22.19,17.32 2.91,-0.19 9.49,9.73 23.65,9.36 0.19,0 45.93,9.04 46.59,9.34 25.31,11.37 38.17,2.43 59.16,7.85 3.19,0.82 25.76,-1.48 27.86,1.34 5.11,-0.77 14.67,0.68 15.86,6.23 1.15,5.32 0.18,11.39 0.3,16.53z"/>
   <path class="fil4" style="mask:url(#id14)" d="M1271.58 1923.58c0.14,-0.06 3.11,19.54 4.98,19.3 13.56,-1.76 66.76,-7.7 69.14,-8.01 6.93,-0.9 45.14,-11.54 48.63,-15.8 2.37,-2.9 8.57,-13.2 17.49,-18.84 14.22,-9 23.51,-13.39 18.34,-36.19 -4.93,-21.74 -42.12,24.24 -45.22,30.71 -2.77,5.78 -10.3,4.79 -5.32,-12.25 1.9,-6.5 6.2,-10.49 -4.47,-9.8 -4.47,0.29 -3.3,-4.95 0.18,-5.55 4.36,-0.75 9.09,-11.14 0.87,-6.35 -1,0.58 1.3,-11.85 -10.8,-0.15 -3.84,3.7 -5.48,6.22 -8.45,10.03 -1.8,2.31 -3.16,16.23 7.31,5.59 1.98,-2 8.61,4.76 -0.86,12.02 -8.52,6.54 12.66,20.97 -21.54,18.56 -2.01,-0.15 -69.13,16.22 -70.28,16.73z"/>
   <path class="fil2" style="mask:url(#id16)" d="M960.66 2015.89c-2.08,-0.05 -5.68,-6.07 -6.56,-11.23 -0.05,-0.27 -0.32,-0.64 -0.18,-0.87 2.2,-3.65 1.78,-2.85 4.02,-6.4 0.19,-0.31 0.8,0.01 1.22,0.04 0.34,0.03 0.71,0.07 1.1,0.15 13.06,2.36 18.02,7.8 30.61,12.18 2.82,0.98 22.48,8.35 23.47,9.2 9.24,7.88 23.96,7.65 34.69,11.48 12.03,4.29 23.6,4.4 34.44,14.48 2.06,1.92 0.24,22.16 -5.98,24.86 -16.05,6.95 -12.1,0.98 -25.46,-1.19 -2.22,-0.37 -7.79,-3.24 -12.39,-2.93 -6.17,0.4 -21.74,-4.12 -27.81,-5.89 -9.22,-2.7 -16.16,-4.33 -24.72,-9.5 -10.2,-6.16 -14.25,-4.41 -14.25,-16.79 0,-1.93 8.38,-5.91 -6.27,-9.56 -3.29,-0.82 -0.33,-3.35 -5.93,-8.03z"/>
   <path class="fil5" style="mask:url(#id18)" d="M967.7 1833.61c-10.49,-8.11 -10.28,-2.87 -17.71,-14.34 -5.09,-7.84 -10.05,-10.93 6.81,-3.64 4.23,1.83 8.66,5.43 16.07,7.42 13.64,3.66 25.66,11.17 41.21,14.41 7.52,1.56 28.74,8.04 34.87,8.03 5.97,-0.01 13.56,4.59 20.15,4.21 0.11,-0.01 5.88,1.26 7.25,1.16 9.45,-0.71 26.68,5.65 39.73,4.94 1.99,-0.11 22.51,3.73 28.95,3.76 3.47,0.01 5.5,1.4 12.01,1.24 8.28,-0.19 19.93,-0.24 27.83,1.05 1.91,0.31 23.14,0.36 23.16,1.33 0.06,2.7 -2.64,9.04 -5.28,9.1 -6.32,0.15 -14.9,-1.16 -22.02,-0.99 -4.94,0.11 -13.25,-0.29 -17.75,-1.31 -10.82,-2.44 -25.25,0.86 -36.99,-0.75 -7.1,-0.97 -14.11,-3.21 -21.41,-2.7 -0.18,0.01 -12.25,-1.51 -14.83,-1.62 -1.67,-0.07 -50.36,-9.07 -52.32,-9.77 -3.82,-1.36 -8.53,0.12 -17.74,-4.42 -0.19,-0.09 -11.31,-3.35 -12.99,-3.89 -5.58,-1.81 -38.18,-12.6 -39,-13.22z"/>
   <path class="fil5" style="mask:url(#id20)" d="M1425.83 1837.91c9.83,-4.1 34.01,-27.26 14.33,-19.88 -43.47,16.31 -64.26,31.66 -170.47,44.79 -6.54,0.81 -15.87,-0.6 -22.18,0.27 -1.53,0.21 -18.43,-0.18 -18.47,0.59 -0.11,2.15 1.92,7.25 4.02,7.36 5.03,0.24 11.89,-0.63 17.56,-0.35 3.93,0.19 17.52,-2.16 14.16,-0.67 -11.21,4.97 103.17,-11.67 161.05,-32.11z"/>
   <path class="fil2" style="mask:url(#id22)" d="M1199.79 2100.37c46.54,-1.08 84.05,-0.17 84.12,2.69 0.06,2.86 -40.16,8.24 -86.71,9.32 -46.54,1.08 -87.69,-10.91 -87.76,-13.77 -0.06,-2.86 43.81,2.83 90.35,1.76z"/>
   <path class="fil6" d="M974.77 1889.49c-7.94,-0.06 -25.78,-16.89 -2.53,-15.78 6.39,0.31 14.23,15.87 2.53,15.78z"/>
   <path class="fil6" d="M1414.07 1868.34c-3.2,5.03 -9.17,6.64 -6.44,18.43 7.75,2.34 22.81,-10.52 12.15,-18.2 -0.88,-0.64 -4.49,-0.26 -5.71,-0.23z"/>
   <g>
    <g>
     <path class="fil7" d="M1001.97 2095.07c5.93,-9.61 105.45,16.41 106.79,21.61 3.29,12.66 -32.12,9.35 -35.44,9.33 -2.21,-0.02 -81.7,-14.18 -71.35,-30.94z"/>
     <path class="fil8" d="M1008.83 2098.3c0.19,-3.89 14.95,-0.58 17.66,0.66 5.91,2.68 84.8,12.55 71.05,21.78 -12.89,8.65 -89.36,-8.88 -88.71,-22.44z"/>
     <path class="fil9" d="M1046.84 2108.51c3.93,-0.26 23.4,5.3 29.13,7.25 1.43,10.24 -46.02,-6.13 -29.13,-7.25z"/>
    </g>
    <g>
     <path class="fil7" d="M1044.05 2123.51c3.04,0.59 59.08,14.03 41.87,14.43 -3.94,0.09 -5.53,0.88 -9.79,0.98 -6.51,0.15 -65.58,-8.07 -60.52,-16.32 10.7,-1.18 17.6,-1.19 28.44,0.91z"/>
     <path class="fil8" d="M1028.33 2124.82c-3.66,4.96 33.99,12.1 37.15,11.23 1.33,-0.37 9.4,0.36 6.69,-2.07 -1.53,-1.37 -23.36,-6.39 -26.3,-7.91 -2.39,-1.24 -14.37,-2.68 -17.54,-1.25z"/>
     <path class="fil9" d="M1046.86 2128.38c-0.91,-0.04 -5.51,-1.47 -5.48,0.11 0.12,5.17 29.17,6.85 19.98,3.22 -8.14,-3.21 -8.58,-2.07 -14.5,-3.33z"/>
    </g>
    <g>
     <path class="fil7" d="M985.45 2019.03c2.08,-11.95 119.71,28.31 116.9,33.3 -4.6,8.19 -38.88,0.15 -35.72,5.2 2.01,3.24 18.22,5.46 18.99,9.53 1.66,8.82 -91.72,-6.67 -90.02,-19.73 0.48,-3.68 23.41,2.79 25.24,-0.77 3.15,-6.12 -38.14,-11.76 -35.39,-27.53z"/>
     <path class="fil8" d="M1004.78 2051.1c-3.89,-3.05 40.11,7.22 39.69,1.5 -0.09,-1.23 -52.1,-26.31 -52.57,-28.99 -1.14,-6.53 100.94,21.62 100.06,28.09 -0.41,3.01 -29.97,2.92 -32.36,2.32 -3.18,-0.81 -4.14,4.39 5.61,5.37 3.13,0.31 14.99,3.18 13.41,7.82 -1.66,4.85 -65,-9.16 -73.84,-16.11z"/>
     <path class="fil9" d="M1033.24 2055.89c3.41,-1.59 9,2.15 13.39,-1.46 2.22,-1.82 0.36,-4.98 -2.32,-5.84 -3.57,-1.14 -12.7,-6.41 -12.47,-10.63 11.23,-2.58 43.67,6.67 44.82,10.82 -7.55,4.78 -26.82,-0.8 -24.34,6.85 0.74,2.31 9.65,4.32 9.76,6.09 0.09,3.74 -41.05,-0.11 -28.84,-5.83z"/>
    </g>
    <g>
     <path class="fil7" d="M980.05 1977.84c-2.64,-9.1 121.66,5 103.89,18.31 -6.9,5.17 -100.37,-6.19 -103.89,-18.31z"/>
     <path class="fil8" d="M991.5 1978.45c0.17,-1.75 85.49,5.78 86.25,12.8 1.04,9.75 -87.02,-4.79 -86.25,-12.8z"/>
     <path class="fil9" d="M1015.06 1983.73c-11.39,-5.96 25.07,0.09 29.11,2 10.69,5.09 -23.97,0.69 -29.11,-2z"/>
    </g>
    <g>
     <path class="fil7" d="M1090.32 1977.54c0.14,-5.22 -92.89,-32.98 -92.74,-26.41 0.49,21.42 92.25,44.47 92.74,26.41z"/>
     <path class="fil8" d="M1000.94 1953.28c5.1,-3.08 77.92,20.17 84.83,23.96 0.45,0.25 -0.08,0.98 -0.3,1.4 -5.42,10.54 -76.81,-9.44 -83.98,-23.6 -0.3,-0.6 -1.05,-1.47 -0.55,-1.76z"/>
     <path class="fil9" d="M1023.2 1962.89c3.24,-0.38 51.2,11.29 50.69,13.28 -1.93,7.42 -58.76,-12.34 -50.69,-13.28z"/>
    </g>
    <g>
     <path class="fil7" d="M1408.02 1979c1.8,-7.88 -103.39,10.26 -87.59,20.72 6.13,4.06 85.19,-10.22 87.59,-20.72z"/>
     <path class="fil8" d="M1398.29 1980.08c-0.23,-1.48 -72.54,9.14 -72.83,15.16 -0.41,8.35 73.88,-8.37 72.83,-15.16z"/>
     <path class="fil9" d="M1378.48 1985.74c9.41,-5.64 -21.35,1.31 -24.69,3.14 -8.86,4.86 20.45,-0.59 24.69,-3.14z"/>
    </g>
    <g>
     <path class="fil7" d="M1301.57 1980.04c-0.07,-5.22 93.37,-31.58 93.12,-25.01 -0.82,21.41 -92.91,43.08 -93.12,25.01z"/>
     <path class="fil8" d="M1391.3 1957.13c-5.06,-3.16 -78.22,18.99 -85.18,22.68 -0.46,0.24 0.07,0.98 0.27,1.4 5.26,10.63 76.95,-8.27 84.33,-22.33 0.31,-0.59 1.07,-1.45 0.58,-1.75z"/>
     <path class="fil9" d="M1368.89 1966.4c-3.23,-0.42 -51.36,10.52 -50.88,12.52 1.82,7.45 58.94,-11.46 50.88,-12.52z"/>
    </g>
    <g>
     <path class="fil7" d="M1418 2026.75c-1.62,-12.02 -120.71,23.68 -118.1,28.77 4.28,8.37 38.84,1.65 35.5,6.58 -2.14,3.15 -18.43,4.74 -19.35,8.79 -2,8.75 91.91,-3.14 90.72,-16.25 -0.34,-3.69 -23.5,1.88 -25.19,-1.74 -2.92,-6.24 38.55,-10.28 36.42,-26.15z"/>
     <path class="fil8" d="M1397.45 2058.06c4,-2.9 -40.36,5.66 -39.72,-0.03 0.14,-1.23 53.08,-24.29 53.65,-26.95 1.39,-6.48 -101.7,17.72 -101.07,24.21 0.29,3.02 29.83,4.08 32.25,3.56 3.21,-0.68 3.96,4.56 -5.81,5.15 -3.15,0.2 -15.11,2.61 -13.71,7.31 1.47,4.91 65.3,-6.65 74.41,-13.25z"/>
     <path class="fil9" d="M1368.82 2061.74c-3.34,-1.72 -9.08,1.81 -13.32,-1.97 -2.15,-1.91 -0.17,-4.99 2.54,-5.75 3.62,-1 12.95,-5.91 12.87,-10.14 -11.12,-3.01 -43.89,4.98 -45.2,9.09 7.36,5.06 26.83,0.23 24.06,7.78 -0.83,2.28 -9.81,3.94 -9.99,5.7 -0.23,3.74 41.02,1.47 29.04,-4.71z"/>
    </g>
    <g>
     <path class="fil7" d="M1401.17 2101.03c-5.34,-9.63 -103.41,11.21 -104.96,16.21 -3.76,12.17 30.86,10.55 34.09,10.68 2.15,0.08 80.18,-10.11 70.87,-26.89z"/>
     <path class="fil8" d="M1394.34 2103.86c0,-3.8 -14.53,-1.24 -17.22,-0.16 -5.88,2.35 -83.13,8.38 -70.16,17.99 12.16,9.01 87.4,-4.6 87.38,-17.83z"/>
     <path class="fil9" d="M1356.88 2112.08c-3.82,-0.43 -23.03,4.1 -28.7,5.74 -1.85,9.91 45.09,-3.89 28.7,-5.74z"/>
    </g>
    <g>
     <path class="fil7" d="M1358.3 2128.58c-2.62,0.44 -50.91,10.79 -36.18,11.49 3.38,0.16 4.72,0.87 8.37,1.04 5.57,0.26 56.36,-5.54 52.19,-12.71 -9.14,-1.24 -15.05,-1.39 -24.38,0.18z"/>
     <path class="fil8" d="M1371.73 2130.03c3.04,4.33 -29.36,9.66 -32.05,8.84 -1.14,-0.34 -8.07,0.12 -5.69,-1.91 1.34,-1.14 20.15,-4.98 22.69,-6.22 2.08,-1.01 12.37,-2 15.05,-0.71z"/>
     <path class="fil9" d="M1355.78 2132.69c0.79,-0.01 4.76,-1.14 4.7,0.22 -0.21,4.42 -25.14,5.25 -17.18,2.33 7.04,-2.58 7.39,-1.59 12.48,-2.55z"/>
    </g>
   </g>
  </g>
  <g id="лампочка">
   <path id="тень_x0020_колбы" class="fil10" d="M1194.8 274.34c288.62,0 528.45,208.8 576.73,483.58 0.67,3.77 1.29,7.56 1.88,11.35l0.44 2.83c0.62,4.09 1.19,8.2 1.72,12.33l0.24 1.84c0.54,4.32 1.03,8.64 1.48,12.98l0.18 1.74c0.44,4.46 0.84,8.93 1.19,13.42l0.07 0.96c0.36,4.72 0.66,9.46 0.9,14.21l0.02 0.24 0 0.04 0.01 0.19c0.25,4.89 0.43,9.8 0.56,14.73l0 0.06 0 0.02 0 0.03c0.13,5 0.19,10.02 0.19,15.06 0,4.72 -0.06,9.42 -0.17,14.11l-0.01 0.02c-3.34,140.89 -56.42,269.47 -142.38,368.83l-0.02 0.01c-14.51,16.78 -29.98,32.69 -46.28,47.72 -79.2,89.63 -134.09,198.37 -131.47,308.2 -1.22,130.44 -0.61,65.22 -1.83,195.67 -150.98,86.17 -339.6,87.05 -520.25,7.81l-0.31 -210.77c1.05,-121.96 -54.97,-207.8 -142.1,-303.21 -92.47,-86.21 -156.98,-201.99 -178.5,-332.28l-0.04 -0.1c-0.33,-1.95 -0.65,-3.92 -0.95,-5.88l-0.31 -2.07c-0.62,-4.14 -1.21,-8.29 -1.74,-12.45l-0.24 -1.85c-0.55,-4.37 -1.05,-8.75 -1.51,-13.14l-0.15 -1.49c-0.45,-4.51 -0.85,-9.04 -1.2,-13.58l-0.07 -0.93c-0.36,-4.7 -0.66,-9.42 -0.9,-14.15l-0.02 -0.33 -0.01 -0.28c-0.25,-4.84 -0.43,-9.7 -0.56,-14.58l0 -0.16 0 -0.01c-0.13,-5.02 -0.19,-10.06 -0.19,-15.11 0,-5.02 0.06,-10.02 0.19,-15.01l0 -0.1 0.01 -0.26c0.12,-4.85 0.31,-9.69 0.55,-14.51l0.02 -0.46c0.25,-4.85 0.56,-9.68 0.92,-14.5l0.03 -0.42c0.36,-4.66 0.77,-9.29 1.24,-13.91l0.15 -1.53c0.45,-4.34 0.95,-8.67 1.49,-12.98l0.22 -1.74c0.54,-4.25 1.14,-8.47 1.77,-12.69l0.35 -2.24c0.61,-3.92 1.26,-7.83 1.94,-11.72l0.55 -3.11 0.33 -1.8 0.02 0c50.28,-272.33 288.94,-478.63 575.82,-478.63z"/>
   <path id="колба" class="fil11" d="M1184 313.82c260.95,0.24 539.46,191.88 557.22,504.22 0,3.37 0,6.74 0,10.12l3.37 3.37c0,3.37 0,6.74 0,10.11l0 0c0,3.37 0,6.74 0,13.49l0 0c3.38,3.37 3.38,6.74 3.38,10.11l0 3.37c0,3.38 0,6.74 0,10.12l0 0 0 0 0 0c0,3.37 0,10.11 0,13.48l0 0 0 0 0 0c0,3.37 0,8.43 0,13.49 0,5.05 0,6.74 0,10.11l0 0c-66.04,388.75 -214.47,284.83 -312.93,624.01 -3.38,111.26 -1.09,79.08 -1.09,190.33 -19.5,10.77 -25.71,24.17 -46.64,34.29 -20.55,9.94 -26.72,-7.39 -52.76,-26.22 -24.54,-17.74 -22.45,43.22 -51.92,50.01 -20.25,4.66 -29.85,-86.03 -50.42,-84.13 -34.06,3.15 -103.49,24.09 -134.08,-2.86 -17.51,-15.43 -103.23,39.42 -125.79,29.39l0.77 -180.23c-41.99,-252.91 -303.08,-320.66 -319.76,-599.42l0 0c0,-3.37 0,-3.37 0,-6.74l0 0c-3.37,-3.38 -3.37,-6.74 -3.37,-10.12l0 -3.37c0,-3.37 0,-6.74 0,-10.11l0 0c-3.37,-6.75 -3.37,-10.12 -3.37,-13.49l0 0c0,-3.37 0,-6.74 0,-13.48l0 0 0 0c0,-3.38 0,-6.75 0,-10.12l0 0 0 0c0,-6.74 0,-8.43 0,-13.49 0,-5.05 0,-10.11 0,-13.48l0 0 0 0c0,-3.37 0,-10.11 0,-13.48l0 0c0,-3.38 0,-6.75 0,-13.49l0 0c0,-3.37 0,-6.74 3.37,-10.12l0 0c0,-6.74 0,-10.11 0,-13.48l0 0c0,-3.37 0,-6.74 3.37,-10.11l0 -3.38c0,-3.37 0,-6.74 0,-10.11l0 -3.37 0 0 0 0c37.63,-286.89 269.71,-465.45 530.65,-465.22z"/>
   <circle class="fil12" cx="1195.72" cy="868.91" r="557.54"/>
   <g>
    <path class="fil13" d="M1196.23 328.32c301.6,0 546.1,244.49 546.1,546.09 0,301.6 -244.5,546.1 -546.1,546.1 -301.6,0 -546.09,-244.5 -546.09,-546.1 0,-301.6 244.49,-546.09 546.09,-546.09z"/>
    <path class="fil14" d="M1196.73 345.27c295.28,0 534.65,239.37 534.65,534.65 0,295.27 -239.37,534.65 -534.65,534.65 -295.27,0 -534.65,-239.38 -534.65,-534.65 0,-295.28 239.38,-534.65 534.65,-534.65z"/>
    <path class="fil15" d="M1197.25 362.21c288.95,0 523.2,234.25 523.2,523.21 0,288.96 -234.25,523.21 -523.2,523.21 -288.96,0 -523.21,-234.25 -523.21,-523.21 0,-288.96 234.25,-523.21 523.21,-523.21z"/>
    <path class="fil16" d="M1197.75 379.16c282.64,0 511.76,229.12 511.76,511.76 0,282.64 -229.12,511.76 -511.76,511.76 -282.64,0 -511.76,-229.12 -511.76,-511.76 0,-282.64 229.12,-511.76 511.76,-511.76z"/>
    <path class="fil17" d="M1198.26 396.12c276.32,0 500.31,223.99 500.31,500.31 0,276.32 -223.99,500.31 -500.31,500.31 -276.31,0 -500.31,-223.99 -500.31,-500.31 0,-276.32 224,-500.31 500.31,-500.31z"/>
    <path class="fil18" d="M1198.77 413.07c269.99,0 488.87,218.87 488.87,488.86 0,270 -218.88,488.87 -488.87,488.87 -270,0 -488.87,-218.87 -488.87,-488.87 0,-269.99 218.87,-488.86 488.87,-488.86z"/>
    <path class="fil19" d="M1199.28 430.01c263.67,0 477.42,213.75 477.42,477.42 0,263.68 -213.75,477.43 -477.42,477.43 -263.67,0 -477.43,-213.75 -477.43,-477.43 0,-263.67 213.76,-477.42 477.43,-477.42z"/>
    <path class="fil20" d="M1199.78 446.97c257.35,0 465.98,208.62 465.98,465.97 0,257.35 -208.63,465.98 -465.98,465.98 -257.35,0 -465.98,-208.63 -465.98,-465.98 0,-257.35 208.63,-465.97 465.98,-465.97z"/>
    <path class="fil21" d="M1200.3 463.92c251.02,0 454.52,203.5 454.52,454.53 0,251.03 -203.5,454.53 -454.52,454.53 -251.04,0 -454.54,-203.5 -454.54,-454.53 0,-251.03 203.5,-454.53 454.54,-454.53z"/>
    <path class="fil22" d="M1200.8 480.87c244.7,0 443.08,198.37 443.08,443.08 0,244.71 -198.38,443.09 -443.08,443.09 -244.71,0 -443.09,-198.38 -443.09,-443.09 0,-244.71 198.38,-443.08 443.09,-443.08z"/>
    <path class="fil23" d="M1201.31 497.82c238.38,0 431.64,193.25 431.64,431.64 0,238.38 -193.26,431.64 -431.64,431.64 -238.39,0 -431.64,-193.26 -431.64,-431.64 0,-238.39 193.25,-431.64 431.64,-431.64z"/>
    <path class="fil24" d="M1201.81 514.76c232.07,0 420.19,188.13 420.19,420.2 0,232.06 -188.12,420.19 -420.19,420.19 -232.06,0 -420.19,-188.13 -420.19,-420.19 0,-232.07 188.13,-420.2 420.19,-420.2z"/>
    <path class="fil25" d="M1202.33 531.72c225.74,0 408.74,183 408.74,408.75 0,225.74 -183,408.75 -408.74,408.75 -225.75,0 -408.75,-183.01 -408.75,-408.75 0,-225.75 183,-408.75 408.75,-408.75z"/>
    <path class="fil26" d="M1202.83 548.67c219.42,0 397.3,177.88 397.3,397.3 0,219.42 -177.88,397.3 -397.3,397.3 -219.42,0 -397.3,-177.88 -397.3,-397.3 0,-219.42 177.88,-397.3 397.3,-397.3z"/>
    <path class="fil27" d="M1203.34 565.62c213.1,0 385.85,172.75 385.85,385.85 0,213.11 -172.75,385.86 -385.85,385.86 -213.1,0 -385.85,-172.75 -385.85,-385.86 0,-213.1 172.75,-385.85 385.85,-385.85z"/>
    <path class="fil28" d="M1203.84 582.57c206.78,0 374.41,167.63 374.41,374.41 0,206.78 -167.63,374.41 -374.41,374.41 -206.78,0 -374.41,-167.63 -374.41,-374.41 0,-206.78 167.63,-374.41 374.41,-374.41z"/>
    <path class="fil29" d="M1204.35 599.52c200.46,0 362.97,162.5 362.97,362.96 0,200.46 -162.51,362.97 -362.97,362.97 -200.46,0 -362.97,-162.51 -362.97,-362.97 0,-200.46 162.51,-362.96 362.97,-362.96z"/>
    <path class="fil30" d="M1204.85 616.47c194.14,0 351.52,157.38 351.52,351.52 0,194.14 -157.38,351.52 -351.52,351.52 -194.14,0 -351.51,-157.38 -351.51,-351.52 0,-194.14 157.37,-351.52 351.51,-351.52z"/>
    <path class="fil31" d="M1205.37 633.43c187.82,0 340.07,152.25 340.07,340.07 0,187.81 -152.25,340.07 -340.07,340.07 -187.82,0 -340.08,-152.26 -340.08,-340.07 0,-187.82 152.26,-340.07 340.08,-340.07z"/>
    <path class="fil32" d="M1205.87 650.37c181.5,0 328.63,147.13 328.63,328.63 0,181.49 -147.13,328.62 -328.63,328.62 -181.5,0 -328.63,-147.13 -328.63,-328.62 0,-181.5 147.13,-328.63 328.63,-328.63z"/>
    <path class="fil33" d="M1206.38 667.32c175.18,0 317.18,142.01 317.18,317.18 0,175.18 -142,317.18 -317.18,317.18 -175.18,0 -317.18,-142 -317.18,-317.18 0,-175.17 142,-317.18 317.18,-317.18z"/>
    <path class="fil34" d="M1206.89 684.27c168.85,0 305.73,136.88 305.73,305.74 0,168.85 -136.88,305.73 -305.73,305.73 -168.86,0 -305.74,-136.88 -305.74,-305.73 0,-168.86 136.88,-305.74 305.74,-305.74z"/>
    <path class="fil35" d="M1207.4 701.22c162.53,0 294.28,131.76 294.28,294.29 0,162.53 -131.75,294.29 -294.28,294.29 -162.54,0 -294.29,-131.76 -294.29,-294.29 0,-162.53 131.75,-294.29 294.29,-294.29z"/>
    <path class="fil36" d="M1207.9 718.18c156.21,0 282.84,126.63 282.84,282.84 0,156.21 -126.63,282.84 -282.84,282.84 -156.21,0 -282.84,-126.63 -282.84,-282.84 0,-156.21 126.63,-282.84 282.84,-282.84z"/>
    <path class="fil37" d="M1208.41 735.12c149.89,0 271.4,121.51 271.4,271.4 0,149.89 -121.51,271.4 -271.4,271.4 -149.89,0 -271.39,-121.51 -271.39,-271.4 0,-149.89 121.5,-271.4 271.39,-271.4z"/>
    <path class="fil38" d="M1208.92 752.07c143.57,0 259.95,116.39 259.95,259.95 0,143.57 -116.38,259.96 -259.95,259.96 -143.57,0 -259.96,-116.39 -259.96,-259.96 0,-143.56 116.39,-259.95 259.96,-259.95z"/>
    <path class="fil39" d="M1209.43 769.03c137.25,0 248.51,111.26 248.51,248.5 0,137.25 -111.26,248.51 -248.51,248.51 -137.25,0 -248.51,-111.26 -248.51,-248.51 0,-137.24 111.26,-248.5 248.51,-248.5z"/>
    <path class="fil40" d="M1209.93 785.97c130.93,0 237.06,106.14 237.06,237.06 0,130.93 -106.13,237.06 -237.06,237.06 -130.93,0 -237.06,-106.13 -237.06,-237.06 0,-130.92 106.13,-237.06 237.06,-237.06z"/>
    <path class="fil41" d="M1210.44 802.92c124.61,0 225.62,101.01 225.62,225.62 0,124.6 -101.01,225.61 -225.62,225.61 -124.6,0 -225.61,-101.01 -225.61,-225.61 0,-124.61 101.01,-225.62 225.61,-225.62z"/>
    <path class="fil42" d="M1210.95 819.87c118.28,0 214.17,95.89 214.17,214.17 0,118.29 -95.89,214.17 -214.17,214.17 -118.29,0 -214.17,-95.88 -214.17,-214.17 0,-118.28 95.88,-214.17 214.17,-214.17z"/>
   </g>
   <path class="fil43" d="M1211.46 836.82c111.96,0 202.72,90.77 202.72,202.73 0,111.96 -90.76,202.72 -202.72,202.72 -111.96,0 -202.72,-90.76 -202.72,-202.72 0,-111.96 90.76,-202.73 202.72,-202.73z"/>
   <path class="fil44" style="mask:url(#id24)" d="M1195.09 295.26c307.64,0 557.03,253.83 557.03,566.95 0,3.02 -0.07,6.02 -0.11,9.02 -4.74,-308.95 -252.24,-557.93 -556.92,-557.93 -304.68,0 -552.18,248.98 -556.92,557.93 -0.04,-3 -0.11,-6 -0.11,-9.02 0,-313.12 249.39,-566.95 557.03,-566.95z"/>
   <path class="fil45" style="mask:url(#id26)" d="M1194.19 263.32c322.15,0 583.3,253.84 583.3,566.96 0,3.01 -0.07,6.01 -0.12,9.01 -4.96,-308.95 -264.13,-557.93 -583.18,-557.93 -319.05,0 -578.22,248.98 -583.19,557.93 -0.04,-3 -0.12,-6 -0.12,-9.01 0,-313.12 261.16,-566.96 583.31,-566.96z"/>
   <path class="fil46" d="M1195.48 1740.02c143.14,0 294.28,39.02 257.04,63.71 -36.57,24.25 -100.42,54.15 -227.34,58.81 -8.65,0.32 -18.39,-0.04 -27.97,-0.9 -140.68,-12.71 -260.04,-31.3 -260.83,-67.98 -0.79,-36.69 115.96,-53.64 259.1,-53.64z"/>
   <path class="fil47" style="mask:url(#id28)" d="M1003.88 1740.08c-37.09,0.91 -10.4,2.53 -24.22,23.25 -9.47,14.19 -24.01,-0.82 -24.01,14.2 0,37.63 -29.79,1.9 -11.43,-42.62 6.19,-15.01 -0.66,-184.38 -5.15,-206.35 -3.52,-17.3 -4.67,-43.36 -15.31,-58.36 -1.83,-2.59 -11.37,-42.25 -26.87,-58.64 0.01,-0.05 -30.84,-53.39 -12.28,-46.79 19.3,6.87 43.3,79.22 34.59,39.14 -5.75,-26.46 -22.3,-44.82 -43.98,-62.48 -13.5,-10.99 -52.4,-28.8 -7.86,-30.71 4.28,-0.18 13.83,6.61 14.79,9.49 35.03,10.72 92.81,121.5 94.72,163.21 2.06,44.94 -0.5,22.57 -5.07,59.69 -5.61,45.51 -21.99,-1.67 2.37,78.14 13.46,44.04 13.71,57.24 11.92,103.51 -0.03,0.84 17.79,15.32 17.79,15.32z"/>
   <path class="fil47" style="mask:url(#id30)" d="M1003.34 1743.03c0.09,-0.18 31.67,7.26 36.65,5.6 41.13,-13.75 39.44,11.74 78,-12.76 9.42,-5.98 26.47,22.98 77.49,4.15 25.33,-9.34 12.75,-12.93 56.95,-7.37 15.16,1.9 14.47,-4.38 25.59,11.37 16.2,22.93 94.6,3.85 109.71,21.55 1.38,1.61 43.09,13.36 42.66,3.22 -0.46,-10.74 11.91,-9.37 -8.9,-21.33 -4.19,-2.41 -18.9,-15.84 -9.33,-25.06 11.49,-11.07 13.55,-0.29 20,-18.91 23.94,-69.14 3.66,-43.92 -7.14,-97.01 -6.87,-33.79 -4.14,-85.6 8.9,-116.79 31.69,-75.81 65.78,-120.01 102.38,-187.9 11.42,-21.2 23.1,-44.09 40.95,-60.44 0.12,-0.12 27.88,-37.39 27.88,-20.6 0,0.78 -26.95,45.12 -30.23,52.72 -6.31,14.64 -80.62,121.64 -68.61,104.14 0.26,-0.37 27.77,-23.72 20,-15.96 -1.31,1.31 -38.42,73.57 -45.49,83.48 -6.29,8.83 -23.34,67.23 -22.8,79.66 0.1,2.28 -5.54,52.75 -5.54,75.22 0,26.82 4.84,202.41 -13.63,205 -1.74,-2.91 -5.08,-1.47 -9.09,1.08 -29.91,19.01 -34.4,10.75 -55.37,20.29 -16.38,7.46 -86.2,15.55 -108.13,18.24 -17.06,2.09 -76.93,7.17 -90.09,2.06 -19.09,-7.4 -99.95,-4.24 -125.9,-11.04 -65.97,-17.3 -6.98,-41.33 -48.69,-48.39 -11.75,-1.98 -21.05,-11.4 2.58,-11.4 12.46,0 1.19,-30.28 -0.8,-32.82zm363.62 59.88c-6.38,-6.42 10.42,-16.92 6.52,3.84 -5.7,0 -5.21,-2.52 -6.52,-3.84z"/>
   <path class="fil48" style="mask:url(#id32)" d="M651.53 990.73c26.45,55.49 11.5,101.32 67.52,162.11 34.61,37.57 43.42,61.91 91.91,107 25.3,23.53 77.09,94.02 93.91,125.03 17.85,32.91 36.28,53.38 48.35,90.34 21.72,66.52 15.44,42.41 23.95,111.49 5.28,42.88 -13.78,154.46 49.35,154.46 24.14,0 76.5,9.99 91.11,-7.18 16.7,-19.62 79.77,31.66 71.76,-7.71 -4.02,-19.76 -70.85,-11.23 -90.11,-2.11 -28.76,13.61 -103.84,11.36 -107.34,-40.41 -3.45,-51.18 -0.83,-98.4 -6.94,-148.1 -6.93,-56.3 5.58,-55.05 -31.78,-114.51 -13.44,-21.39 -32.61,-67.1 -59.87,-83.17 -0.91,-0.53 -95.57,-120.51 -113.63,-138 -24.63,-23.85 -46.06,-50.09 -61.32,-79.82 -9.02,-17.55 -61.51,-136.55 -61.91,-137.01 -3.19,-3.65 -5.6,6.26 -4.96,7.59z"/>
   <path class="fil48" style="mask:url(#id34)" d="M1623.7 1223.16c-26.25,36.27 -70.22,50.86 -107.91,111.02 -23.11,36.86 -50.14,65.33 -53.73,110.14 -3.11,38.75 -36.79,88.1 -39.19,170.58 -1.07,37.19 1.61,76.58 -19.68,106.46 -1.16,1.63 9.37,48.39 -43.33,33.23 -17.64,-5.07 -10.22,-32.5 -40.18,-14.43 -59.76,36.05 -43.1,-36.43 -25.29,-11.09 9.46,13.46 34.09,-31.27 63.13,5.38 1.04,1.31 32.07,15.44 30.55,-10.41 -0.28,-4.8 25.26,-36.7 24.18,-62.13 -1.72,-40.22 13.76,-178.78 32.23,-209.19 9.51,-15.65 15.04,-73.38 42.75,-112.17 33.91,-47.47 60.01,-82.06 113.18,-112.72 7.52,-4.34 20.7,-1.1 23.29,-4.67z"/>
   <path class="fil49" style="mask:url(#id36)" d="M1430.53 1753.67c-6.06,1.94 6.38,28.93 -28.87,10.41 -18.43,-9.69 -45,-4.56 -58.98,-19.56 -7.68,-8.24 -12.66,-17.96 -26.9,-1.22 -10.82,12.72 -67.49,-14.32 -32.21,-15.71 11.09,-0.43 14.14,3.81 32.5,-3.8 24.66,-10.21 40.27,17.45 68.15,22 5.89,0.96 47.33,26.49 16.51,-4.32 -23.07,-23.08 13.02,-32.2 16.66,-39.54 10.03,-20.21 20.17,-42.27 9.14,-64.48 -26.31,-53.04 -11.7,-36.11 -14.89,-72.47 -3.7,-42.32 -0.7,-63.89 16.52,-104.28 21.93,-51.46 43.88,-54.07 73.46,-102.95 13,-21.48 127.23,-171.78 131.65,-159.39 9.51,26.7 -104.04,112.99 -120.89,156.17 -6.87,17.62 -58.82,85.74 -65.97,107.07 -18.34,54.65 -24.71,54.78 -24.61,107.53 0.09,42.59 -1.71,37.06 20.98,75.43 9.89,16.72 -4.26,75.42 -26.23,79.9 -0.39,0.08 -6.82,35.85 13.98,29.21z"/>
   <path class="fil49" style="mask:url(#id38)" d="M663.42 1021.27c-6.05,25.2 24.68,76.09 35.18,100.34 23.92,55.2 59.75,101.75 104.34,143 30.6,28.31 46.19,40.4 83.86,54.92 32.67,12.6 34.26,41.39 50.53,71.26 44.04,80.82 29.16,88.85 23.87,181.21 -1.63,28.58 14.46,47.06 19.75,73.05 2.28,11.24 1.32,81.57 9.25,81.88 30.6,1.2 65.57,-44.64 136.25,-13.55 19.01,8.36 50.41,-41.75 -53.51,-23.83 -18.5,3.18 -64.45,34.69 -68.72,19.85 -4.4,-15.3 -10.58,-13.09 -9.35,-42.05 1.04,-24.18 -10.08,-63.73 -10.08,-99.39 0,-25.04 7.4,-134.06 -6.17,-149.33 -43.6,-49.08 -25.03,-111.5 -101.73,-126.46 -43.31,-8.46 -124.61,-110.27 -142.51,-148.79 -29.84,-64.25 -30.64,-53.98 -60.46,-114.16 -0.77,-1.56 -9.1,-13.74 -10.5,-7.95z"/>
   <path class="fil50" d="M1482.68 1467.98c0,0 22.97,-58.59 32.94,-71.48 9.97,-12.89 -51.83,24.55 -32.94,71.48z"/>
   <path class="fil50" d="M931.2 1519.87c0,0 -20.93,-91.47 -65.69,-146.15 -45.98,-56.18 107.13,66.33 65.69,146.15z"/>
   <path class="fil50" d="M937.81 1674.13c-2.47,5.11 0.17,111.97 0.17,117.01 0.03,14.13 10.86,-10.25 14.54,-7.48 9.23,6.96 12.72,27.41 26.26,27.41 0,-20.44 -7.57,-14.64 -14.95,-29.45 -1.78,-3.58 -9.43,-25.06 -2.42,-25.06 3.93,0 13.85,16.95 13.85,-5.71 0,-0.27 -27.56,-49.19 -31.32,-57.07 -1.25,-2.63 -6.09,-19.72 -6.13,-19.65z"/>
   <path class="fil51" d="M1367.69 1828.92c-3.97,-0.13 -32.89,14.16 -46.93,15.25 -28.64,2.24 -42.42,7.77 -77.71,7.77 -42.76,0 -122.89,-0.21 -162.15,-9.04 -15.16,-3.41 -19.66,8.14 -15.03,-29.46 2.74,-22.33 -44.58,3.27 -17.58,-22.84 7.95,-7.69 30.78,12.15 25.08,-15.53 -8.03,-1.66 -24.89,-24.39 16.3,-19.32 27.6,3.39 3.04,-19.17 52.37,-13.09 22.42,2.76 67.41,1.34 94.71,3.08 25.98,1.65 58.37,1.88 83.1,6.93 18.66,3.81 3.61,-4.55 30.87,6.66 24.41,10.05 37.73,-0.39 37.73,40.24 0,12.77 -9.53,29.72 -20.76,29.35z"/>
   <g>
    <path class="fil52" d="M1366.08 1829.09c-3.92,-0.13 -32.52,14.01 -46.4,15.09 -28.31,2.22 -41.93,7.69 -76.83,7.69 -42.26,0 -121.49,-0.21 -160.31,-8.95 -14.98,-3.37 -19.42,8.06 -14.85,-29.15 2.71,-22.1 -44.07,3.23 -17.38,-22.61 7.86,-7.6 30.43,12.03 24.8,-15.37 -7.94,-1.64 -24.61,-24.13 16.11,-19.12 27.29,3.36 3.01,-18.98 51.77,-12.95 22.17,2.73 66.64,1.32 93.64,3.05 25.68,1.62 57.71,1.86 82.16,6.86 18.44,3.76 3.56,-4.51 30.51,6.59 24.13,9.94 37.31,-0.39 37.31,39.82 0,12.64 -9.43,29.42 -20.53,29.05z"/>
    <path class="fil53" d="M1364.48 1829.27c-3.88,-0.13 -32.15,13.86 -45.87,14.93 -27.98,2.2 -41.45,7.61 -75.94,7.61 -41.79,0 -120.09,-0.2 -158.47,-8.85 -14.8,-3.35 -19.2,7.97 -14.68,-28.86 2.67,-21.86 -43.57,3.2 -17.18,-22.37 7.77,-7.52 30.08,11.91 24.51,-15.21 -7.85,-1.62 -24.33,-23.88 15.93,-18.92 26.98,3.32 2.97,-18.78 51.18,-12.82 21.91,2.71 65.87,1.32 92.56,3.02 25.38,1.61 57.04,1.84 81.21,6.79 18.23,3.73 3.52,-4.46 30.16,6.52 23.86,9.84 36.88,-0.38 36.88,39.42 0,12.5 -9.32,29.1 -20.29,28.74z"/>
    <path class="fil54" d="M1362.87 1829.44c-3.83,-0.13 -31.77,13.72 -45.33,14.78 -27.66,2.17 -40.97,7.53 -75.06,7.53 -41.3,0 -118.7,-0.21 -156.62,-8.77 -14.64,-3.31 -18.98,7.89 -14.52,-28.55 2.65,-21.63 -43.06,3.17 -16.97,-22.13 7.68,-7.45 29.73,11.77 24.22,-15.06 -7.76,-1.6 -24.04,-23.63 15.74,-18.72 26.67,3.29 2.94,-18.58 50.58,-12.68 21.66,2.68 65.11,1.3 91.49,2.98 25.09,1.6 56.38,1.83 80.26,6.72 18.03,3.69 3.48,-4.41 29.82,6.46 23.57,9.73 36.44,-0.38 36.44,39 0,12.37 -9.2,28.8 -20.05,28.44z"/>
    <path class="fil54" d="M1361.26 1829.61c-3.79,-0.12 -31.4,13.58 -44.8,14.63 -27.33,2.15 -40.48,7.45 -74.18,7.45 -40.8,0 -117.29,-0.21 -154.77,-8.68 -14.46,-3.27 -18.76,7.81 -14.34,-28.24 2.61,-21.41 -42.56,3.13 -16.78,-21.9 7.59,-7.37 29.38,11.65 23.94,-14.89 -7.67,-1.59 -23.76,-23.38 15.56,-18.52 26.35,3.25 2.91,-18.39 49.98,-12.55 21.4,2.64 64.34,1.28 90.41,2.95 24.79,1.58 55.71,1.8 79.32,6.65 17.81,3.64 3.44,-4.37 29.46,6.38 23.3,9.63 36.02,-0.37 36.02,38.58 0,12.25 -9.1,28.5 -19.82,28.14z"/>
    <path class="fil55" d="M1359.66 1829.78c-3.75,-0.12 -31.03,13.43 -44.27,14.47 -27.01,2.12 -40,7.37 -73.29,7.37 -40.32,0 -115.9,-0.2 -152.93,-8.58 -14.3,-3.24 -18.54,7.72 -14.18,-27.94 2.59,-21.18 -42.04,3.09 -16.57,-21.67 7.49,-7.29 29.03,11.53 23.65,-14.73 -7.58,-1.57 -23.48,-23.13 15.38,-18.32 26.03,3.21 2.86,-18.19 49.38,-12.42 21.15,2.62 63.58,1.27 89.33,2.92 24.5,1.56 55.05,1.79 78.38,6.58 17.6,3.61 3.39,-4.32 29.11,6.32 23.02,9.52 35.59,-0.37 35.59,38.17 0,12.11 -8.99,28.19 -19.58,27.83z"/>
    <path class="fil56" d="M1358.04 1829.96c-3.69,-0.12 -30.64,13.28 -43.73,14.31 -26.68,2.1 -39.52,7.29 -72.41,7.29 -39.83,0 -114.5,-0.2 -151.08,-8.49 -14.12,-3.2 -18.31,7.64 -14.01,-27.64 2.56,-20.94 -41.54,3.07 -16.37,-21.43 7.4,-7.21 28.68,11.41 23.37,-14.57 -7.49,-1.55 -23.2,-22.87 15.18,-18.12 25.72,3.18 2.84,-17.99 48.8,-12.28 20.89,2.59 62.81,1.26 88.25,2.88 24.2,1.55 54.39,1.77 77.43,6.51 17.39,3.57 3.36,-4.27 28.76,6.25 22.75,9.42 35.16,-0.37 35.16,37.76 0,11.98 -8.88,27.88 -19.35,27.53z"/>
    <path class="fil57" d="M1356.45 1830.13c-3.66,-0.12 -30.28,13.13 -43.2,14.15 -26.36,2.08 -39.04,7.21 -71.53,7.21 -39.35,0 -113.1,-0.2 -149.24,-8.39 -13.95,-3.17 -18.09,7.55 -13.83,-27.34 2.52,-20.72 -41.03,3.03 -16.18,-21.19 7.32,-7.13 28.33,11.28 23.09,-14.42 -7.4,-1.53 -22.92,-22.62 15,-17.92 25.4,3.14 2.8,-17.79 48.2,-12.14 20.63,2.56 62.04,1.24 87.17,2.85 23.91,1.53 53.72,1.75 76.48,6.43 17.18,3.53 3.32,-4.22 28.42,6.19 22.46,9.31 34.72,-0.37 34.72,37.34 0,11.85 -8.77,27.57 -19.1,27.23z"/>
    <path class="fil58" d="M1354.83 1830.31c-3.6,-0.12 -29.9,12.99 -42.66,13.99 -26.03,2.06 -38.56,7.13 -70.64,7.13 -38.87,0 -111.71,-0.19 -147.4,-8.3 -13.78,-3.13 -17.86,7.47 -13.66,-27.03 2.49,-20.49 -40.53,3 -15.98,-20.96 7.23,-7.05 27.99,11.15 22.8,-14.25 -7.3,-1.52 -22.63,-22.38 14.82,-17.73 25.09,3.11 2.76,-17.59 47.6,-12.01 20.38,2.54 61.28,1.23 86.1,2.82 23.61,1.52 53.06,1.73 75.54,6.37 16.96,3.49 3.27,-4.18 28.06,6.11 22.19,9.22 34.29,-0.36 34.29,36.93 0,11.72 -8.66,27.27 -18.87,26.93z"/>
    <path class="fil59" d="M1353.22 1830.48c-3.56,-0.12 -29.52,12.84 -42.13,13.84 -25.7,2.03 -38.07,7.04 -69.76,7.04 -38.37,0 -110.3,-0.19 -145.55,-8.2 -13.6,-3.1 -17.64,7.39 -13.49,-26.73 2.46,-20.26 -40.02,2.97 -15.78,-20.72 7.14,-6.98 27.63,11.02 22.51,-14.1 -7.21,-1.5 -22.34,-22.12 14.64,-17.52 24.78,3.07 2.73,-17.4 47,-11.88 20.13,2.51 60.51,1.22 85.03,2.79 23.31,1.5 52.39,1.71 74.59,6.3 16.75,3.45 3.23,-4.14 27.71,6.04 21.91,9.11 33.87,-0.36 33.87,36.51 0,11.59 -8.56,26.97 -18.64,26.63z"/>
    <path class="fil60" d="M1351.62 1830.65c-3.52,-0.12 -29.16,12.7 -41.6,13.68 -25.37,2.01 -37.59,6.97 -68.87,6.97 -37.89,0 -108.91,-0.19 -143.71,-8.11 -13.43,-3.06 -17.42,7.3 -13.32,-26.43 2.43,-20.02 -39.51,2.94 -15.58,-20.48 7.05,-6.9 27.28,10.9 22.23,-13.94 -7.12,-1.48 -22.06,-21.87 14.45,-17.33 24.46,3.04 2.69,-17.2 46.41,-11.74 19.87,2.48 59.74,1.21 83.94,2.76 23.02,1.48 51.73,1.69 73.65,6.22 16.54,3.42 3.19,-4.08 27.36,5.98 21.63,9.01 33.44,-0.35 33.44,36.1 0,11.45 -8.45,26.65 -18.4,26.32z"/>
    <path class="fil61" d="M1350.01 1830.83c-3.47,-0.12 -28.78,12.55 -41.06,13.52 -25.05,1.99 -37.11,6.89 -67.99,6.89 -37.4,0 -107.52,-0.19 -141.87,-8.02 -13.26,-3.03 -17.19,7.22 -13.15,-26.12 2.4,-19.8 -39,2.89 -15.37,-20.26 6.95,-6.81 26.93,10.78 21.94,-13.77 -7.03,-1.47 -21.78,-21.62 14.26,-17.13 24.15,3.01 2.66,-17 45.82,-11.6 19.61,2.44 58.97,1.18 82.86,2.72 22.73,1.46 51.07,1.67 72.71,6.15 16.32,3.37 3.15,-4.04 27.01,5.91 21.35,8.9 33.01,-0.35 33.01,35.68 0,11.32 -8.34,26.36 -18.17,26.03z"/>
    <path class="fil62" d="M1348.4 1831c-3.42,-0.12 -28.4,12.41 -40.53,13.36 -24.72,1.97 -36.62,6.81 -67.1,6.81 -36.92,0 -106.12,-0.18 -140.02,-7.92 -13.09,-2.99 -16.97,7.13 -12.98,-25.82 2.37,-19.57 -38.5,2.86 -15.18,-20.02 6.87,-6.74 26.58,10.65 21.66,-13.62 -6.94,-1.45 -21.49,-21.36 14.08,-16.92 23.83,2.97 2.62,-16.81 45.22,-11.47 19.36,2.42 58.21,1.17 81.79,2.69 22.42,1.45 50.4,1.65 71.75,6.08 16.12,3.33 3.12,-3.99 26.66,5.84 21.08,8.8 32.58,-0.34 32.58,35.27 0,11.19 -8.23,26.04 -17.93,25.72z"/>
    <path class="fil63" d="M1346.8 1831.17c-3.38,-0.11 -28.03,12.26 -40,13.21 -24.4,1.94 -36.14,6.73 -66.22,6.73 -36.43,0 -104.72,-0.18 -138.18,-7.83 -12.91,-2.96 -16.75,7.05 -12.8,-25.52 2.33,-19.34 -38,2.83 -14.98,-19.78 6.77,-6.66 26.23,10.53 21.37,-13.46 -6.85,-1.43 -21.21,-21.11 13.89,-16.73 23.52,2.94 2.59,-16.61 44.63,-11.33 19.1,2.39 57.44,1.16 80.71,2.66 22.13,1.43 49.74,1.63 70.81,6.01 15.91,3.29 3.07,-3.95 26.31,5.77 20.8,8.7 32.15,-0.34 32.15,34.85 0,11.06 -8.12,25.74 -17.69,25.42z"/>
    <path class="fil64" d="M1345.19 1831.34c-3.34,-0.11 -27.66,12.12 -39.46,13.06 -24.08,1.91 -35.67,6.65 -65.35,6.65 -35.94,0 -103.32,-0.18 -136.33,-7.75 -12.74,-2.91 -16.52,6.97 -12.63,-25.21 2.3,-19.11 -37.49,2.8 -14.78,-19.54 6.68,-6.58 25.88,10.4 21.08,-13.3 -6.75,-1.42 -20.92,-20.86 13.71,-16.53 23.21,2.9 2.56,-16.41 44.03,-11.2 18.85,2.36 56.67,1.14 79.63,2.63 21.84,1.41 49.08,1.61 69.88,5.94 15.68,3.25 3.02,-3.9 25.95,5.69 20.52,8.6 31.72,-0.33 31.72,34.44 0,10.94 -8.01,25.44 -17.45,25.12z"/>
    <path class="fil65" d="M1343.59 1831.52c-3.29,-0.11 -27.29,11.97 -38.93,12.89 -23.75,1.9 -35.18,6.57 -64.45,6.57 -35.46,0 -101.93,-0.18 -134.49,-7.64 -12.58,-2.89 -16.31,6.88 -12.47,-24.92 2.27,-18.87 -36.98,2.77 -14.58,-19.31 6.59,-6.5 25.53,10.28 20.8,-13.13 -6.66,-1.4 -20.64,-20.62 13.52,-16.34 22.9,2.87 2.53,-16.21 43.44,-11.06 18.59,2.33 55.91,1.13 78.56,2.6 21.54,1.39 48.4,1.59 68.92,5.86 15.48,3.22 2.99,-3.84 25.6,5.64 20.25,8.49 31.3,-0.33 31.3,34.02 0,10.8 -7.91,25.13 -17.22,24.82z"/>
   </g>
   <path class="fil66" d="M1341.98 1831.69c-3.25,-0.11 -26.91,11.82 -38.4,12.74 -23.42,1.87 -34.7,6.49 -63.57,6.49 -34.97,0 -100.53,-0.18 -132.65,-7.56 -12.39,-2.85 -16.07,6.81 -12.29,-24.6 2.24,-18.65 -36.47,2.73 -14.38,-19.08 6.5,-6.42 25.18,10.15 20.52,-12.97 -6.57,-1.39 -20.36,-20.37 13.33,-16.14 22.58,2.83 2.49,-16.01 42.84,-10.93 18.34,2.31 55.14,1.12 77.48,2.57 21.25,1.38 47.75,1.57 67.98,5.79 15.27,3.18 2.95,-3.8 25.25,5.56 19.97,8.39 30.87,-0.32 30.87,33.62 0,10.66 -7.8,24.82 -16.98,24.51z"/>
   <path class="fil67" style="mask:url(#id40)" d="M1382.39 319.76c2.23,2.3 9.57,13.35 -9.8,6.01 -130.9,-49.57 -299.06,-46.4 -458.75,46.96 -312.46,182.66 -263.61,512.12 -296.75,583.33 -1.45,-2.44 0.82,29.18 -6.21,-51.49 -7.04,-80.67 -2.33,-371.18 296.29,-549.94 177.49,-106.24 433.48,-77.8 475.22,-34.87z"/>
   <path class="fil68" d="M1551.65 469.46c44.65,12.68 75.85,48.08 79.54,87.7 -66.96,-47.47 -60.98,-39.47 -79.54,-87.7z"/>
   <path class="fil69" d="M1337.23 1812.63c-6.11,-5.59 6.84,-11.69 6.84,-3.64 0,7.1 -3.65,7.08 -5.92,3.72l-0.92 -0.08z"/>
   <path id="Стекляный_x0020_центр_x0020_лампочки" class="fil70" d="M1227.8 1054.5l0 381.1c19.15,-0.32 15.71,12.9 23.56,14.37 -30.34,113.8 -13.87,254.03 0,393.07l-113.37 0c14.97,-130.81 36.23,-261.65 -0.58,-392.46 12.51,-1.59 9.77,-15.14 25.22,-16.16l0 -378.16 -10.14 -15.22 -5.3 -5.89c21.82,-7.95 74.75,-6.67 97.71,-0.54l-5.82 5.93 -11.28 13.96zm-41.82 18.57c3.72,-3.38 7.45,-5.27 11.17,-5.31 3.59,-0.05 7.19,1.62 10.78,5.31l0 315.81c-8.35,8.32 -15.62,8.25 -21.95,0l0 -315.81z"/>
   <path id="Стекляный_x0020_центр_x0020_лампочки_0" class="fil71" d="M1227.8 1054.5l0 381.1c19.15,-0.32 15.71,12.9 23.56,14.37 -30.34,113.8 -13.87,254.03 0,393.07l-38.54 -5.87c-8.4,-78.92 -19.08,-360.31 -50.19,-402.75l0 -378.16 -10.14 -15.22c-18.2,-20.21 82.38,-9.11 92.41,-6.43l-5.82 5.93 -11.28 13.96zm-41.82 18.57c3.72,-3.38 7.45,-5.27 11.17,-5.31 3.59,-0.05 7.19,1.62 10.78,5.31l0 315.81c-8.35,8.32 -15.62,8.25 -21.95,0l0 -315.81z"/>
   <path class="fil72" style="mask:url(#id42)" d="M1217.34 1396.44c-17.42,7.43 -27.47,6.42 -41.18,-0.12l0.35 -330.87c17.12,-4.83 26,-5.85 39.94,-1.53l0.89 332.52zm-9.41 -7.55c-8.25,6.11 -15.46,5.38 -21.95,0l0 -315.54c8.11,-3.96 15.35,-3.55 21.95,0l0 315.54z"/>
   <path class="fil73" style="mask:url(#id44)" d="M1137.41 1450.58l2.13 7.8c-6.04,-4.44 4.68,-60.53 24.99,-60.53 26.13,0 9.33,23.35 19.78,38.01 1.23,1.72 -1.09,16.1 2.94,-16.65 3.64,-29.59 24.04,4.09 22.51,-37.69 0,-0.15 1.94,22.14 15.4,30.97 5.05,3.31 17.73,49.11 19.78,49.43 -1.6,-4.86 42.62,-156.14 45.01,-160.91 0.31,-0.63 33.57,-209.42 35.39,-146.57 0.23,7.88 -16.56,76.78 -18.74,106.47 -0.06,0.83 -21.78,100.01 -23.65,106.46 -8.81,30.33 -11.41,67.62 -27.53,98.21 38.51,13.53 18.17,61.03 17.26,39.05 -0.44,-10.61 -6.39,18.58 -6.39,-8.79 0,-41.58 -30.48,22.81 -22.72,-15.18 5.2,-25.49 -14.21,4.79 -16.11,-18.74 -2.11,-26.05 -19.81,13.52 -41.89,-2.19 -14.22,-10.11 -9.55,-33.33 -20,-3.05 -30.22,10.49 -12.94,15.35 -46.26,14.03 -2.72,-0.1 -11.72,16.06 7.53,17.48 3.38,0.25 -8.79,8.07 -8.79,34.03 0,36.71 13.98,49.66 2.83,76.64 -3.07,7.44 1.28,42.63 25.42,32.34 35.4,-15.1 35.06,2.27 77.38,-1.04 1.2,-0.1 61.09,-9.01 37.26,6.06 -14.53,9.2 -20,-9.72 -1.04,-1.87 0,16.04 -58.37,-11.06 -74.23,9.95 -0.25,0.33 -21.26,-9.01 -24.91,-9.01 -75.13,0 -37.32,8.92 -45.44,32.45 -20,6.94 -15.77,-23.85 -10.16,-37.47 19.39,-47.09 -4.7,-118.14 -4.7,-169.61 0,-18.19 12.1,-10.66 14.21,-22.56 1.5,-8.42 -2,-26.57 -18.3,-70.41 -2.15,-5.79 -32.34,-93.82 -32.34,-94.22 13.11,0 31.04,66.37 38.01,88.86 2.09,6.75 30.44,76.65 35.37,88.25z"/>
   <g>
    <path class="fil74" d="M1270.99 1508.16c-0.29,-0.84 -2.02,14.62 -0.19,14.94 3.2,0.56 2.93,7.68 -1.45,5.43 -1.26,-0.65 -2.09,8.96 -4.97,12.96 -2.29,3.2 1.52,5.28 -4.54,5.28 -10.14,0 -1.56,-25.91 -1.56,-33.71 0,-3.83 0.5,-8.94 -0.04,-12.05 -0.66,-3.83 2.88,-8.85 -6.94,-7.02 1.57,12.17 -12.96,-3.24 -4.46,11.38 3.25,5.58 6.24,-3.69 4.44,15.95 -0.63,6.89 -2.05,7.52 -2.05,16.92 0,1.81 0.61,10.51 -0.55,10.56 -5.26,0.22 6.96,2.83 0.25,4.4 -1.16,3.2 -1.46,-0.18 -1.46,6.64 0,6.49 0.05,8.92 1.44,15.1 0.65,2.87 -1.21,26.17 3.69,22.53 2.39,-1.79 0.53,-37.74 2.41,-37.63 3.98,0.26 5.28,10.28 6.97,13.5 4.32,8.27 -0.35,6.32 8.57,11.68 1.07,0.64 8.84,23.34 6.39,5.01 -0.61,-4.51 -1.57,-17.13 -3.48,-20.08 -0.94,-1.46 2.29,-10.36 -4.91,-10.81 -3.61,-7.08 -5.69,-4.45 1.56,-8.72 2.53,-1.49 0.2,-0.24 2.26,-4.91 3.48,-7.91 2.83,-27.66 2.28,-36.99 -0.04,-0.85 -3.23,-2.72 -4.39,-0.37l0.73 0.01zm-14.29 47.38l-0.65 -0.25c-1.21,-0.74 -0.59,-1.35 -0.16,-2.44 0.25,-0.61 0.29,-0.57 0.44,-1.24 0.2,-0.91 0.9,-2.03 1.7,-2.52 0.34,-0.21 0.95,0.15 1.09,0.59 0.08,0.28 0.17,0.42 0.25,0.77 0.4,1.5 0.86,1.11 1.13,1.88 0.17,0.48 0.13,2.61 0.01,3.05 -0.29,1.14 -0.72,2.33 -2.31,1.53 -0.04,-0.02 -1.27,-0.82 -1.29,-0.85 0.02,0.03 1.25,0.83 1.29,0.85l-1.5 -1.37z"/>
   </g>
   <path class="fil74" d="M1285.98 1666.84c-7.33,-13.44 -0.96,-33.97 -4.57,-36.9 2.39,-18.63 -11.6,-3.32 -1.99,-19.82 2.96,-5.06 -4.07,-19.12 5.39,-13.29 0.39,3.53 1.77,16.52 -2.17,16.39 -3.58,-0.11 4.26,9.4 4.26,17.11 0,11.68 7.16,6.9 6.94,20.92 -0.19,12.05 1.76,3.89 -6.32,13.03 -0.9,1.02 -1.4,2.82 -1.54,2.56z"/>
   <path class="fil74" d="M1143.34 1495.2c-7.53,-3.55 -6.33,-12.13 -1.51,-8.93 1.82,1.21 7.09,-0.92 2.66,5.65 -4.63,6.86 9.9,6.2 13.38,4.61 0.07,-0.03 1.39,20.38 -0.78,17.67 -4.38,-5.45 -13.75,-5.36 -13.75,-14.26 0,-1.58 0.61,-4.45 0,-4.74z"/>
   <path class="fil75" d="M1116.43 1794c2.01,4.64 -7.56,80.05 -7.56,28.89 0,-22.52 -1.41,-45.14 2.39,-66.54 1.61,-9.02 -2.74,-63.98 0.22,-64.65 1.05,-4.36 1.88,4.17 2.39,-7.26 0.29,-6.41 8.61,-16.74 9.07,-30.92 0.08,-2.2 13.17,-26.61 8.2,3.2 -1.38,8.27 -2.95,15.83 -6.97,23.1 -2.11,3.82 3.13,13 5.08,13.44 1.43,4.33 10.05,9.63 6.08,11.46 -1.19,4.96 5.95,2.57 -2.72,6.77 -1.1,8.68 7.91,4.15 2.56,18.23 -1.52,4.02 12.47,8.72 11.01,-11.5 -0.07,-0.92 2.5,-25.1 3.9,-27.14 2.59,-3.79 1.18,-26.37 11,-10.34 0.46,0.74 -6.95,24.77 -7.3,30.16 -1.62,25.17 -3.01,24.62 -26.72,27.35 -8.87,1.03 1.73,16.32 -3.02,18.78 -6.81,3.52 3,44.81 2.89,45.37 2.94,2.07 4.56,42.84 2.02,42.76 -11.05,-0.35 -2.58,-18.47 -5.83,-27.73 -0.63,-1.8 -6.66,-23.37 -6.69,-23.43z"/>
   <path class="fil76" d="M1249.98 1611.36c0,17.86 2.1,37.4 4.11,54.67 3.26,27.89 4.76,65.03 -9.44,88.67 -4.96,8.24 -23.94,-34.86 -41.05,4 -11.32,25.69 -59.36,4.28 -77.45,-0.76 -14.1,-3.93 -12.06,29.61 -5.65,29.46 13.13,-0.3 59.48,17.4 59.48,30.52 0,49.69 -5.42,35.79 53.94,35.79 34.71,0 22.23,8.5 37.68,-23.78 3,-6.28 10.38,-56.88 10.38,-65.17 0,-38.76 -18,-9.62 -18,-37.28 0,-11.65 1.7,-25.07 1.7,-39.88 0,-10.9 -15.7,-114.16 -15.7,-76.24z"/>
   <path class="fil77" d="M1261.53 1742.61c-5.98,3.14 -7.85,-5.64 -7.03,11.89 0.42,8.97 -11.35,-1.49 -12.21,7.9 -0.87,9.61 -21.92,-12.47 -18.55,8.74 0.02,0.11 10.76,8.7 3.12,8.42 -0.18,-0.01 -9.07,-7.6 -11.05,-8.64 -4.31,-2.28 -6.71,-13.35 -15.03,2.74 -3.34,6.45 11.35,29.8 -29.14,10.03 -24.54,-11.99 -9.73,11.64 1.28,13.89 19.96,4.09 3.41,18.77 26.33,17.55 6.95,-0.37 1.55,-16.18 27.1,-1.25 6.27,3.67 -2.22,14.03 10.56,13.46 4.72,-6.51 0.29,-13.5 10.42,-8.26 2.74,1.42 -2.71,27.9 9.08,20.36 1.96,-1.26 13.93,-36.53 2.29,-39.11 -2.13,-5.83 28.49,-41.52 10.8,-53.99 -2.53,-1.78 -5,-5.3 -7.97,-3.73z"/>
   <path class="fil78" d="M1250.84 1792.31c0,0 19.05,-11.46 12.47,-36.82 -6.58,-25.36 -8.06,29.83 -12.47,36.82z"/>
   <g>
    <path class="fil79" d="M1173.43 1667.82c22.42,-10.97 44.5,4.6 70.44,4.75 4.7,5.36 4.08,14.88 3.36,23.17 -26.37,7.18 -48.75,8.48 -71.67,1.76 -4.01,-10.01 -6.11,-19.32 -2.13,-29.68z"/>
    <path class="fil79" d="M1227.35 1647.28c1.22,0.71 14.55,8.87 14.25,2.84 -0.08,-1.66 -17.04,-14.28 -14.25,-2.84z"/>
    <path class="fil79" d="M1216.08 1476.64c-11.02,-4.66 -13.68,1.27 -20.3,5.97 -3.04,2.16 -6.13,6.71 -6.13,0.02 0,-7.23 -3.5,-13.39 -13.19,-7.37 -5.11,3.17 -21.62,-0.95 -13.96,8.87 3.92,5.03 8.99,3.29 4.1,11.51 -1.23,2.08 1.42,10.57 6.9,10.91 4.34,0.28 2.79,13.04 14.62,13.05 8.76,0 4.39,5.53 19.33,-0.06 7.13,-2.67 4.03,-3.64 13.32,-4.23 4.09,-0.27 0.17,-13.65 3.09,-19.28 1.36,-2.61 1.09,-10.78 -0.69,-12.29 -0.15,-0.13 -7.6,-14.55 -7.09,-7.1z"/>
    <path class="fil79" d="M1168.87 1511.26c-9.17,-11.59 -17.04,2.44 0.58,12.24 19.29,10.74 17.72,7.63 30.15,12.83 1.77,0.74 23.81,-4.4 26.66,-6.42 8.98,-6.36 5.73,-7.11 10.37,-15.66 5.01,-9.21 -10.23,-31.15 -8.26,-12.22 1.61,15.43 -6.31,11.25 -14.86,20.18 -11.06,11.56 -5.41,0.21 -8.03,-0.84 -3.02,-1.22 -1.23,4.84 -8.29,4.03 -10.13,-1.18 -21.39,-9.91 -26.71,-12.75 -0.46,-0.25 -0.75,-0.86 -1.61,-1.39z"/>
   </g>
   <g>
    <path class="fil80" d="M1289.64 1681.59c-2.26,-0.25 -11.04,-10.3 -5.19,-10.94 4.98,-0.55 -4.41,-34.84 4.89,-25.07 4.14,4.34 -5.61,8.23 7.69,15.16 7.12,3.7 -2.93,5.61 -1.45,9.32 2.2,5.57 6.76,5.58 4.64,19.07 -0.38,2.39 -9.72,-0.61 -10.1,-8.57 -0.12,-2.42 -2.03,-0.85 -1.8,-3.36l1.32 4.39zm-75.1 -34.26c-7.8,-2.5 -9.34,9.79 -26.65,2.24 -0.07,-0.04 -19.53,-0.98 -19.46,2.08 0.06,2.59 0.65,13.01 5.01,6.48 2.72,-4.06 22.25,-4.97 24.22,-1.17 0.42,0.82 11.49,14.48 10.29,-2.68 -0.08,-1.19 2.89,-4.9 3.96,-6.07l2.63 -0.88zm-8.82 -16.99c-0.93,-7.65 0.39,-8.72 10.08,-12.09 3.02,-1.05 24.96,-3.51 13.77,8.57 -3.29,3.55 -23.88,3.27 -23.85,3.52zm-78.88 -142.15c-0.17,1.88 -20.2,-2.45 -11.02,-17.82 4.58,-7.66 13.14,-1.44 26.09,-3.9 19.28,-3.67 26.26,-24.37 30.32,-24.7 6.99,-0.57 6.26,20.89 19.86,19.74 18.05,-1.54 15.97,-0.46 24.45,-6.14 22.56,-15.1 2.01,14.94 26.26,14.46 7.5,-0.14 -3.4,31.4 -5.29,20.58 -0.91,-5.18 -1.02,-9.92 -9.3,-6.62 -11.62,4.64 1.72,-9.51 -21.99,-7.5 -7.71,0.65 -17.92,26.73 -18.85,0.91 -0.11,-3.17 -5.73,-6.2 -11.93,-1.9 -2.72,1.87 -6.65,7.39 -10.73,0.11 -2.53,-4.53 -1.19,-18.13 -10.09,-6.77 -4.59,5.86 9.11,12.58 -10.77,12.11 -6.48,-0.15 -4.16,6.69 -15,5.71 -1.71,-0.15 -1.83,-0.21 -2.01,1.73zm64.45 28.36c-12.27,-11.67 10.43,-11.08 15.81,-13.58 8.53,-3.96 18.59,6.96 -5.28,5.89 -4.26,-0.19 -10.92,7.31 -10.53,7.69z"/>
   </g>
   <path class="fil81" d="M1155.22 1512.38c-0.98,1.78 -0.25,14.08 -0.16,17.29 0.13,4.29 4.09,13.34 4.09,22.35 0,15.59 -0.96,22.07 2.9,36.94 0.57,2.18 3.01,29.32 2.28,30.95 -4.19,9.28 3.91,5.76 6.69,9.6 1.77,2.45 2.83,-4.45 9.39,-4.3 3.78,0.09 -7.33,-5.08 -7.6,-9.43 -0.11,-1.66 -3.76,-9.74 -3.56,-14.06 0.21,-4.46 -4.55,-18.92 -4.55,-29.55 0,-6.12 -0.15,-10.2 -1.45,-15.91 -0.57,-2.54 0.06,-10.69 -1.95,-15.16 -0.02,-0.05 -0.44,-12.3 -1.52,-13.79 -2.62,-3.6 -0.22,-10.7 -3.64,-14.25 -0.54,-0.55 -0.68,-1.11 -0.92,-0.68z"/>
   <path class="fil81" d="M1258.25 1540.28c-0.34,0.26 6.91,3.88 6.35,-5.29 -0.01,-0.2 2.16,-6.75 2.01,-13.42 0,-0.06 3.16,-15 0.39,-13.24 -0.76,7.57 0.06,2.21 -1.4,-0.92 -2.79,1.09 2.09,13.74 -1.25,19.23 -0.13,0.21 -1.67,8.76 -2.99,10.35 -1.8,2.19 -4.53,0.96 -3,3.96l-0.11 -0.67z"/>
   <polygon class="fil82" points="1144.05,1038 1157.61,1057.55 1163.6,1395.49 1169.56,1395.94 1163.14,1056.07 1147.69,1034.96 "/>
   <g>
    <path class="fil83" d="M1164.45 1036.4c-0.75,0.84 -10.57,2.08 -10.94,0.62 -0.13,-0.49 1.08,-2.6 2.45,-2.48 0.02,0 1.51,-0.33 2.09,-0.33 1.63,0 2.02,-1.08 5.62,-1.08 3.31,0 9.06,-0.3 11.94,-0.09 2.26,-1.02 3.35,1.07 -0.33,3.16 -1.62,0.92 -10.07,-0.17 -10.83,0.2z"/>
    <path class="fil83" d="M1194.86 1043.1c4.27,0 6.12,-0.41 10.93,0 7.01,0.6 19.25,-0.01 23.95,-5.7 0.01,-0.01 2.53,-1.44 0.6,-1.53 -0.5,-0.02 -4.41,2.08 -6.28,1.99 -0.04,0 -3.53,0.75 -5.32,0.75 -6.06,0 -19.95,0.84 -25.02,-1.19 -1.04,-0.42 -0.41,-0.46 -0.78,1.93 -0.21,1.3 1.17,2.18 1.92,3.75z"/>
    <path class="fil83" d="M1213.38 1047.4c0.25,-0.01 2.68,0.33 4.36,0.33 0.82,0 9.28,-1.07 9.35,-1.39 0.47,-2.28 -2.29,-0.71 -4.07,-0.77 -3.65,-0.1 -4.3,1.87 -9.6,1.19 -0.03,0 -6.2,-0.11 -4.59,-0.11 1.6,0 3.47,0.07 4.75,0.87 0.16,0.1 -0.39,-0.12 -0.2,-0.12z"/>
    <path class="fil83" d="M1227.31 1060.97c0.38,-5.91 -3.41,7.15 -3.93,9.96 -0.4,2.12 -0.59,21.64 0.62,23.04 0.01,0.01 2.71,15.08 3.3,11.25 0.5,-3.19 -0.52,-17.4 -0.27,-20.57 0.77,-9.67 -0.15,-16.94 0.28,-23.68z"/>
   </g>
   <g>
    <path class="fil68" d="M1186.84 1039.17c0.1,-1.73 2.15,-4.06 -1.92,-4.36 -2.89,-0.21 -0.22,8.86 -7.71,8.86 -5.49,0 -5.51,2.22 -5.59,7.45 -0.04,3.26 2.69,7.32 -4.28,7.46 -4.45,0.1 5.47,2.55 6.37,2.52 3.37,-0.09 1.45,-0.08 4.67,-1.83 2.81,-1.53 5.76,0.06 10.16,0.06 5.51,0 7.2,1.07 6.6,-5.71 -0.44,-5.06 -11.16,-5.63 -7.78,-11.7 0.11,-0.2 -0.53,-2.53 -0.52,-2.75z"/>
    <path class="fil68" d="M1226.14 1049.88c-6.22,0 -2.94,7.17 0.47,5.08 0.1,-0.06 0.49,-5.08 -0.47,-5.08z"/>
    <path class="fil68" d="M1195.85 1495.85c-2.61,-2.09 -1.78,-8.48 5.54,-6.76 8.68,2.04 19.49,-9.33 17.99,1.66 -0.29,2.16 -4.1,4.81 -7.46,4.81 -7.22,0 1.83,7.87 -9.78,5.99 -2.28,-0.37 -6.29,-5.7 -6.29,-5.7z"/>
    <path class="fil68" d="M1187.82 1505.07c-9.14,-19.06 -27.09,-27.35 -25.49,4.45 0.54,10.64 10.73,10.64 13.06,15.57 2.31,0.19 3.96,15.66 8.14,5.25 2.94,-7.3 -2.26,-18.91 4.29,-25.27z"/>
    <path class="fil68" d="M1259.77 1522.46c-3.87,12.21 5.22,8.38 2.91,-0.17 -0.27,-1.02 -2.53,-1.04 -2.91,0.17z"/>
    <path class="fil68" d="M1274.63 1472.96c-8.23,-1.22 -1.41,-16.72 4.6,-8.2 5.23,7.41 -1.08,8.66 -4.6,8.2z"/>
    <path class="fil68" d="M1209.27 1637.14c7.27,-2.48 22.51,6.69 5.8,5.89 -15.11,-0.72 -5.65,4.61 -15.93,2.65 -14.73,-2.8 8.6,-8.02 10.13,-8.54z"/>
    <path class="fil68" d="M1165.23 1639.89c-6.39,1.82 3.54,12.82 2.99,0.44 -0.06,-1.56 -2.12,-0.69 -2.99,-0.44z"/>
    <path class="fil68" d="M1139.81 1688.49c-2.72,1.61 -7.88,-0.21 -7.88,-6.43 0,-18.24 9.19,-9.89 9.19,-22.08 3.2,-1.57 15.29,-0.75 11.16,5.43 -6.34,9.47 0.4,15.49 -12.47,23.08z"/>
   </g>
   <path class="fil84" d="M1003.36 1086.92l18.53 0.95c18.9,45.99 124.21,354.69 96.98,347.08 -35.31,-95.71 -81.84,-240.33 -115.51,-348.03z"/>
   <path class="fil84" d="M1245.16 1458.99c22.39,-98.17 43.59,-184.64 54.81,-216.58 1.72,-0.99 5.04,-3.91 8.72,1.33 -8.13,64.85 -33.4,142.09 -53.87,222.44l-9.66 -7.19z"/>
   <path class="fil85" d="M946.9 933.67l166.67 486.77 5.3 14.51c5.95,0.96 4.39,-9.02 6.58,-13.52 -33.57,-169.86 -100.68,-338.62 -162.05,-495.04l-16.5 7.28z"/>
   <path class="fil85" d="M1245.16 1458.99c37.14,-178.81 98.68,-358.35 148.03,-537.53l16.88 1.85c-55.73,171.42 -105.01,352.14 -155.25,542.87 -4.08,-0.43 -6.61,-4.81 -9.66,-7.19z"/>
   <path class="fil68 str0" style="mask:url(#id46)" d="M1392.6 888.19c-80.38,-38.11 -143.3,7.72 -207.52,-59.17 3.35,24.04 -46.92,41.75 -64.01,46.13 -32.13,8.22 -119.98,27.42 -153.41,27.42 -6.06,-20.27 -40.66,-6.08 -38.42,7.28 0.45,2.73 0.23,5.54 0.23,8.3 4.97,20.2 15.87,44.87 20.71,70.77 -5.48,1.52 -8.85,3.05 -8.79,4.41 1.27,28.68 5.62,11.99 15.24,18.07 10.19,6.46 35.36,71.4 39.45,87.68 3.83,15.26 18.8,67.24 27.5,88.79 9.23,22.84 15.28,41.15 21.96,55.18 -6.77,2.11 -37.79,12.16 -24.6,22.33 11.98,-21.01 24.27,50.24 -7.95,56.15 -9.76,22.09 34.05,21.21 39.3,16.26 12.5,-11.79 10.35,-8.5 16.8,-24.46 47.99,-5.08 38.46,-21.75 78.55,-38.57 20.99,-8.8 47.05,5.71 66.94,-0.59 17.99,-5.69 18.49,11.38 23.5,-12.16 0.04,-0.18 14.73,-15.91 15.88,-41.39 0.51,-11.33 7.24,-20.23 -17.54,-25.71 -14.18,-3.14 -56.91,3.28 -70.82,-5.83 -17.3,-11.35 -19.28,24.61 -18.33,32.73 1.42,12.05 -47.89,8.5 -72.36,13.56 -15.59,-61.88 -46.32,-168.03 -67.84,-228.07 19.5,-18.12 193.46,11.23 190.16,11.83 -8.1,1.47 124.02,-62.92 160.57,-23.06 3.31,3.61 -35.36,157.59 -55.22,176.18 -0.28,0.26 -23.27,64.11 -22,92.43 0.46,10.22 -16.85,22.02 24.15,18.41 3.63,-0.32 5.53,-41.7 14.12,-55.52 0.2,-0.33 28.55,-76.45 33.08,-89.87 17.79,-52.8 36.88,-77.74 46.13,-136.57 10.05,1.47 12.69,-1.46 12.69,-22.47 -2.78,0 -5.56,0.08 -8.33,0.08 8.6,-35.35 24.86,-97.36 18.28,-98.49 -2.09,-0.35 -18.68,-10 -20.93,-11.34 -0.93,3.93 -5.72,15.33 -7.17,19.28zm-29.72 91.11c-7.39,-37.27 -140.86,-16.57 -182.06,4.65 2.8,-11.8 12.18,-49.93 11.1,-48.15 4.7,-0.24 52.69,-19.95 65.95,-8.4 0.09,0.08 23.97,15.5 26.38,1.6 3.94,-22.76 -52.26,-15.23 -83.64,-12.26 3.15,-5.68 5.56,-14.56 7,-15.21l2.48 -0.25c19.56,-0.41 39.48,1.62 57.26,0.37 66.45,-4.67 128.19,-10.31 95.53,77.65zm-382.5 -41.28c26.39,-8.57 68.33,-0.26 93.59,-10.71 -0.31,0.05 -10.27,39.42 4.4,27.44 19.56,-15.98 71.92,-0.39 64.38,-23.45 -12.59,-4.13 -35.66,7.51 -47.64,8.78 -6.83,0.72 -3.53,-30.1 -10.91,-18.95 34.76,-30.35 32.63,-1.8 69.24,-12.75 11.97,-3.58 25.42,-5.45 39.41,-6.38 0.44,3.46 -14.22,57.29 -18.81,79.05 -28.51,-5.36 -140.96,-3.91 -177.99,0.23 -0.29,-0.86 -8.33,-22.82 -15.67,-43.26m229.71 -36.74l0 0"/>
  </g>
 </g>
</svg>
