<?xml version="1.0" encoding="UTF-8"?>
<!DOCTYPE svg PUBLIC "-//W3C//DTD SVG 1.1//EN" "http://www.w3.org/Graphics/SVG/1.1/DTD/svg11.dtd">
<!-- Creator: CorelDRAW 2021.5 -->
<svg xmlns="http://www.w3.org/2000/svg" xml:space="preserve" width="205px" height="205px" version="1.1" style="shape-rendering:geometricPrecision; text-rendering:geometricPrecision; image-rendering:optimizeQuality; fill-rule:evenodd; clip-rule:evenodd"
viewBox="0 0 205 205"
 xmlns:xlink="http://www.w3.org/1999/xlink"
 xmlns:xodm="http://www.corel.com/coreldraw/odm/2003">
 <defs>
  <style type="text/css">
   <![CDATA[
    .fil1 {fill:#FAD766}
    .fil0 {fill:#FAD96C}
    .fil32 {fill:#FDEFC3;fill-opacity:0.501961}
    .fil31 {fill:#FDEEC0;fill-opacity:0.517647}
    .fil30 {fill:#FDEDBD;fill-opacity:0.533333}
    .fil29 {fill:#FDEDBA;fill-opacity:0.549020}
    .fil28 {fill:#FDECB7;fill-opacity:0.564706}
    .fil27 {fill:#FDEBB4;fill-opacity:0.580392}
    .fil26 {fill:#FCEAB1;fill-opacity:0.596078}
    .fil25 {fill:#FCEAAE;fill-opacity:0.611765}
    .fil24 {fill:#FCE9AB;fill-opacity:0.627451}
    .fil23 {fill:#FCE8A8;fill-opacity:0.647059}
    .fil22 {fill:#FCE7A5;fill-opacity:0.662745}
    .fil21 {fill:#FCE6A2;fill-opacity:0.678431}
    .fil20 {fill:#FCE69F;fill-opacity:0.694118}
    .fil19 {fill:#FCE59C;fill-opacity:0.709804}
    .fil18 {fill:#FCE499;fill-opacity:0.725490}
    .fil17 {fill:#FCE396;fill-opacity:0.741176}
    .fil16 {fill:#FBE393;fill-opacity:0.756863}
    .fil15 {fill:#FBE290;fill-opacity:0.772549}
    .fil14 {fill:#FBE18D;fill-opacity:0.792157}
    .fil13 {fill:#FBE08A;fill-opacity:0.807843}
    .fil12 {fill:#FBE087;fill-opacity:0.823529}
    .fil11 {fill:#FBDF84;fill-opacity:0.839216}
    .fil10 {fill:#FBDE81;fill-opacity:0.854902}
    .fil9 {fill:#FBDD7E;fill-opacity:0.870588}
    .fil8 {fill:#FBDC7B;fill-opacity:0.886275}
    .fil7 {fill:#FBDC78;fill-opacity:0.901961}
    .fil6 {fill:#FADB75;fill-opacity:0.917647}
    .fil5 {fill:#FADA72;fill-opacity:0.937255}
    .fil4 {fill:#FAD96F;fill-opacity:0.952941}
    .fil3 {fill:#FAD96C;fill-opacity:0.968627}
    .fil2 {fill:#FAD869;fill-opacity:0.984314}
   ]]>
  </style>
 </defs>
 <g id="Слой_x0020_1">
  <metadata id="CorelCorpID_0Corel-Layer"/>
  <g id="лампочка">
   <path id="колба" class="fil0" d="M104.55 1.6c35.85,0.04 74.12,26.37 76.56,69.28 0,0.46 0,0.92 0,1.39l0.46 0.46c0,0.46 0,0.93 0,1.39l0 0c0,0.46 0,0.93 0,1.85l0 0c0.46,0.47 0.46,0.93 0.46,1.39l0 0.47c0,0.46 0,0.92 0,1.39l0 0 0 0 0 0c0,0.46 0,1.39 0,1.85l0 0 0 0 0 0c0,0.46 0,1.16 0,1.85 0,0.7 0,0.93 0,1.39l0 0c-9.07,53.41 -29.46,39.13 -42.99,85.73 -0.46,15.29 -0.15,10.87 -0.15,26.15 -14.76,6.75 -48.56,7 -63.42,0.07l0.11 -24.76c-5.77,-34.75 -41.64,-44.06 -43.93,-82.36l0 0c0,-0.46 0,-0.46 0,-0.92l0 0c-0.47,-0.47 -0.47,-0.93 -0.47,-1.39l0 -0.47c0,-0.46 0,-0.92 0,-1.39l0 0c-0.46,-0.92 -0.46,-1.39 -0.46,-1.85l0 0c0,-0.46 0,-0.93 0,-1.85l0 0 0 0c0,-0.47 0,-0.93 0,-1.39l0 0 0 0c0,-0.93 0,-1.16 0,-1.85 0,-0.7 0,-1.39 0,-1.86l0 0 0 0c0,-0.46 0,-1.39 0,-1.85l0 0c0,-0.46 0,-0.93 0,-1.85l0 0c0,-0.47 0,-0.93 0.46,-1.39l0 0c0,-0.93 0,-1.39 0,-1.85l0 0c0,-0.47 0,-0.93 0.47,-1.39l0 -0.47c0,-0.46 0,-0.92 0,-1.39l0 -0.46 0 0 0 0c5.17,-39.42 37.05,-63.95 72.9,-63.92z"/>
   <circle class="fil1" cx="106.16" cy="77.87" r="76.6"/>
   <g>
    <path class="fil2" d="M106.23 3.6c41.44,0 75.03,33.59 75.03,75.02 0,41.44 -33.59,75.03 -75.03,75.03 -41.44,0 -75.03,-33.59 -75.03,-75.03 0,-41.43 33.59,-75.02 75.03,-75.02z"/>
    <path class="fil3" d="M106.3 5.92c40.57,0 73.45,32.89 73.45,73.46 0,40.57 -32.88,73.45 -73.45,73.45 -40.57,0 -73.45,-32.88 -73.45,-73.45 0,-40.57 32.88,-73.46 73.45,-73.46z"/>
    <path class="fil4" d="M106.37 8.25c39.7,0 71.88,32.19 71.88,71.89 0,39.69 -32.18,71.88 -71.88,71.88 -39.7,0 -71.88,-32.19 -71.88,-71.88 0,-39.7 32.18,-71.89 71.88,-71.89z"/>
    <path class="fil5" d="M106.44 10.58c38.83,0 70.31,31.48 70.31,70.31 0,38.83 -31.48,70.31 -70.31,70.31 -38.83,0 -70.31,-31.48 -70.31,-70.31 0,-38.83 31.48,-70.31 70.31,-70.31z"/>
    <path class="fil6" d="M106.51 12.91c37.96,0 68.74,30.78 68.74,68.74 0,37.96 -30.78,68.73 -68.74,68.73 -37.96,0 -68.74,-30.77 -68.74,-68.73 0,-37.96 30.78,-68.74 68.74,-68.74z"/>
    <path class="fil7" d="M106.58 15.24c37.09,0 67.16,30.07 67.16,67.16 0,37.1 -30.07,67.17 -67.16,67.17 -37.1,0 -67.17,-30.07 -67.17,-67.17 0,-37.09 30.07,-67.16 67.17,-67.16z"/>
    <path class="fil8" d="M106.65 17.57c36.22,0 65.59,29.36 65.59,65.59 0,36.23 -29.37,65.59 -65.59,65.59 -36.23,0 -65.59,-29.36 -65.59,-65.59 0,-36.23 29.36,-65.59 65.59,-65.59z"/>
    <path class="fil9" d="M106.72 19.9c35.36,0 64.02,28.66 64.02,64.02 0,35.35 -28.66,64.02 -64.02,64.02 -35.36,0 -64.02,-28.67 -64.02,-64.02 0,-35.36 28.66,-64.02 64.02,-64.02z"/>
    <path class="fil10" d="M106.79 22.23c34.49,0 62.45,27.95 62.45,62.44 0,34.49 -27.96,62.45 -62.45,62.45 -34.49,0 -62.45,-27.96 -62.45,-62.45 0,-34.49 27.96,-62.44 62.45,-62.44z"/>
    <path class="fil11" d="M106.86 24.55c33.62,0 60.87,27.26 60.87,60.88 0,33.62 -27.25,60.87 -60.87,60.87 -33.62,0 -60.88,-27.25 -60.88,-60.87 0,-33.62 27.26,-60.88 60.88,-60.88z"/>
    <path class="fil12" d="M106.93 26.88c32.75,0 59.3,26.55 59.3,59.31 0,32.75 -26.55,59.3 -59.3,59.3 -32.75,0 -59.3,-26.55 -59.3,-59.3 0,-32.76 26.55,-59.31 59.3,-59.31z"/>
    <path class="fil13" d="M107 29.21c31.88,0 57.73,25.85 57.73,57.73 0,31.88 -25.85,57.73 -57.73,57.73 -31.89,0 -57.73,-25.85 -57.73,-57.73 0,-31.88 25.84,-57.73 57.73,-57.73z"/>
    <path class="fil14" d="M107.07 31.54c31.01,0 56.15,25.14 56.15,56.16 0,31.01 -25.14,56.15 -56.15,56.15 -31.02,0 -56.16,-25.14 -56.16,-56.15 0,-31.02 25.14,-56.16 56.16,-56.16z"/>
    <path class="fil15" d="M107.14 33.87c30.14,0 54.58,24.44 54.58,54.58 0,30.15 -24.44,54.59 -54.58,54.59 -30.15,0 -54.59,-24.44 -54.59,-54.59 0,-30.14 24.44,-54.58 54.59,-54.58z"/>
    <path class="fil16" d="M107.21 36.2c29.27,0 53.01,23.73 53.01,53.01 0,29.28 -23.74,53.01 -53.01,53.01 -29.28,0 -53.02,-23.73 -53.02,-53.01 0,-29.28 23.74,-53.01 53.02,-53.01z"/>
    <path class="fil17" d="M107.28 38.53c28.41,0 51.44,23.03 51.44,51.44 0,28.41 -23.03,51.44 -51.44,51.44 -28.41,0 -51.44,-23.03 -51.44,-51.44 0,-28.41 23.03,-51.44 51.44,-51.44z"/>
    <path class="fil18" d="M107.35 40.86c27.54,0 49.86,22.32 49.86,49.86 0,27.54 -22.32,49.87 -49.86,49.87 -27.54,0 -49.87,-22.33 -49.87,-49.87 0,-27.54 22.33,-49.86 49.87,-49.86z"/>
    <path class="fil19" d="M107.42 43.18c26.67,0 48.29,21.63 48.29,48.3 0,26.67 -21.62,48.29 -48.29,48.29 -26.68,0 -48.3,-21.62 -48.3,-48.29 0,-26.67 21.62,-48.3 48.3,-48.3z"/>
    <path class="fil20" d="M107.49 45.51c25.8,0 46.72,20.92 46.72,46.73 0,25.8 -20.92,46.72 -46.72,46.72 -25.81,0 -46.73,-20.92 -46.73,-46.72 0,-25.81 20.92,-46.73 46.73,-46.73z"/>
    <path class="fil21" d="M107.56 47.84c24.93,0 45.14,20.22 45.14,45.15 0,24.94 -20.21,45.15 -45.14,45.15 -24.94,0 -45.15,-20.21 -45.15,-45.15 0,-24.93 20.21,-45.15 45.15,-45.15z"/>
    <path class="fil22" d="M107.63 50.17c24.06,0 43.57,19.51 43.57,43.58 0,24.06 -19.51,43.57 -43.57,43.57 -24.07,0 -43.58,-19.51 -43.58,-43.57 0,-24.07 19.51,-43.58 43.58,-43.58z"/>
    <path class="fil23" d="M107.69 52.5c23.2,0 42.01,18.81 42.01,42 0,23.2 -18.81,42.01 -42.01,42.01 -23.19,0 -42,-18.81 -42,-42.01 0,-23.19 18.81,-42 42,-42z"/>
    <path class="fil24" d="M107.76 54.83c22.33,0 40.44,18.1 40.44,40.43 0,22.33 -18.11,40.43 -40.44,40.43 -22.33,0 -40.43,-18.1 -40.43,-40.43 0,-22.33 18.1,-40.43 40.43,-40.43z"/>
    <path class="fil25" d="M107.83 57.16c21.47,0 38.86,17.4 38.86,38.86 0,21.46 -17.39,38.86 -38.86,38.86 -21.46,0 -38.86,-17.4 -38.86,-38.86 0,-21.46 17.4,-38.86 38.86,-38.86z"/>
    <path class="fil26" d="M107.9 59.49c20.6,0 37.29,16.69 37.29,37.28 0,20.6 -16.69,37.29 -37.29,37.29 -20.59,0 -37.28,-16.69 -37.28,-37.29 0,-20.59 16.69,-37.28 37.28,-37.28z"/>
    <path class="fil27" d="M107.97 61.81c19.73,0 35.72,15.99 35.72,35.72 0,19.72 -15.99,35.71 -35.72,35.71 -19.72,0 -35.71,-15.99 -35.71,-35.71 0,-19.73 15.99,-35.72 35.71,-35.72z"/>
    <path class="fil28" d="M108.04 64.14c18.86,0 34.15,15.29 34.15,34.15 0,18.85 -15.29,34.14 -34.15,34.14 -18.85,0 -34.14,-15.29 -34.14,-34.14 0,-18.86 15.29,-34.15 34.14,-34.15z"/>
    <path class="fil29" d="M108.11 66.47c17.99,0 32.57,14.58 32.57,32.57 0,17.99 -14.58,32.57 -32.57,32.57 -17.98,0 -32.57,-14.58 -32.57,-32.57 0,-17.99 14.59,-32.57 32.57,-32.57z"/>
    <path class="fil30" d="M108.18 68.8c17.12,0 31,13.88 31,31 0,17.12 -13.88,30.99 -31,30.99 -17.12,0 -30.99,-13.87 -30.99,-30.99 0,-17.12 13.87,-31 30.99,-31z"/>
    <path class="fil31" d="M108.25 71.13c16.25,0 29.43,13.17 29.43,29.42 0,16.26 -13.18,29.43 -29.43,29.43 -16.25,0 -29.42,-13.17 -29.42,-29.43 0,-16.25 13.17,-29.42 29.42,-29.42z"/>
   </g>
   <path class="fil32" d="M108.32 73.46c15.38,0 27.85,12.47 27.85,27.85 0,15.38 -12.47,27.85 -27.85,27.85 -15.38,0 -27.85,-12.47 -27.85,-27.85 0,-15.38 12.47,-27.85 27.85,-27.85z"/>
  </g>
 </g>
</svg>
