<?xml version="1.0" encoding="UTF-8"?>
<!DOCTYPE svg PUBLIC "-//W3C//DTD SVG 1.1//EN" "http://www.w3.org/Graphics/SVG/1.1/DTD/svg11.dtd">
<!-- Creator: CorelDRAW 2021.5 -->
<svg xmlns="http://www.w3.org/2000/svg" xml:space="preserve" width="205px" height="205px" version="1.1" style="shape-rendering:geometricPrecision; text-rendering:geometricPrecision; image-rendering:optimizeQuality; fill-rule:evenodd; clip-rule:evenodd"
viewBox="0 0 205 205"
 xmlns:xlink="http://www.w3.org/1999/xlink"
 xmlns:xodm="http://www.corel.com/coreldraw/odm/2003">
 <defs>
  <style type="text/css">
   <![CDATA[
    .fil58 {fill:#FEFEFE}
    .fil67 {fill:#DA9713}
    .fil38 {fill:#F0A365}
    .fil37 {fill:#C88716}
    .fil74 {fill:#8C6E35}
    .fil56 {fill:#BC7C10}
    .fil55 {fill:#BD7D10}
    .fil54 {fill:#BD7D11}
    .fil53 {fill:#BE7E11}
    .fil52 {fill:#BF7E12}
    .fil51 {fill:#BF7F12}
    .fil50 {fill:#C07F12}
    .fil49 {fill:#C08013}
    .fil48 {fill:#C18113}
    .fil40 {fill:#C18D25}
    .fil47 {fill:#C28113}
    .fil46 {fill:#C28214}
    .fil45 {fill:#C38214}
    .fil44 {fill:#C48315}
    .fil43 {fill:#C58415}
    .fil42 {fill:#C58416}
    .fil64 {fill:#C59636}
    .fil41 {fill:#C68516}
    .fil68 {fill:#C68C06}
    .fil71 {fill:#CB4F35}
    .fil63 {fill:#CB9B0D}
    .fil35 {fill:#D3982D}
    .fil34 {fill:#D59357}
    .fil36 {fill:#D89D01}
    .fil62 {fill:#D9C255}
    .fil66 {fill:#DEAB12}
    .fil39 {fill:#EAA166}
    .fil65 {fill:#EDB613}
    .fil73 {fill:#EDD77E}
    .fil0 {fill:#F2C858}
    .fil70 {fill:#F9BB3F}
    .fil2 {fill:#FAD766}
    .fil1 {fill:#FAD96C}
    .fil57 {fill:white}
    .fil61 {fill:white;fill-opacity:0.149020}
    .fil59 {fill:#FEFEFE;fill-opacity:0.211765}
    .fil75 {fill:#D9C255;fill-opacity:0.309804}
    .fil69 {fill:#FCE53D;fill-opacity:0.368627}
    .fil60 {fill:#F9D04D;fill-opacity:0.439216}
    .fil72 {fill:#EFD982;fill-opacity:0.501961}
    .fil33 {fill:#FDEFC3;fill-opacity:0.501961}
    .fil32 {fill:#FDEEC0;fill-opacity:0.517647}
    .fil31 {fill:#FDEDBD;fill-opacity:0.533333}
    .fil30 {fill:#FDEDBA;fill-opacity:0.549020}
    .fil29 {fill:#FDECB7;fill-opacity:0.564706}
    .fil28 {fill:#FDEBB4;fill-opacity:0.580392}
    .fil27 {fill:#FCEAB1;fill-opacity:0.596078}
    .fil26 {fill:#FCEAAE;fill-opacity:0.611765}
    .fil25 {fill:#FCE9AB;fill-opacity:0.627451}
    .fil24 {fill:#FCE8A8;fill-opacity:0.647059}
    .fil23 {fill:#FCE7A5;fill-opacity:0.662745}
    .fil22 {fill:#FCE6A2;fill-opacity:0.678431}
    .fil21 {fill:#FCE69F;fill-opacity:0.694118}
    .fil20 {fill:#FCE59C;fill-opacity:0.709804}
    .fil19 {fill:#FCE499;fill-opacity:0.725490}
    .fil18 {fill:#FCE396;fill-opacity:0.741176}
    .fil17 {fill:#FBE393;fill-opacity:0.756863}
    .fil16 {fill:#FBE290;fill-opacity:0.772549}
    .fil15 {fill:#FBE18D;fill-opacity:0.792157}
    .fil14 {fill:#FBE08A;fill-opacity:0.807843}
    .fil13 {fill:#FBE087;fill-opacity:0.823529}
    .fil12 {fill:#FBDF84;fill-opacity:0.839216}
    .fil11 {fill:#FBDE81;fill-opacity:0.854902}
    .fil10 {fill:#FBDD7E;fill-opacity:0.870588}
    .fil9 {fill:#FBDC7B;fill-opacity:0.886275}
    .fil8 {fill:#FBDC78;fill-opacity:0.901961}
    .fil7 {fill:#FADB75;fill-opacity:0.917647}
    .fil6 {fill:#FADA72;fill-opacity:0.937255}
    .fil5 {fill:#FAD96F;fill-opacity:0.952941}
    .fil4 {fill:#FAD96C;fill-opacity:0.968627}
    .fil3 {fill:#FAD869;fill-opacity:0.984314}
   ]]>
  </style>
    <mask id="id0">
  <linearGradient id="id1" gradientUnits="userSpaceOnUse" x1="117.57" y1="-14.25" x2="110.96" y2="56.4">
   <stop offset="0" style="stop-opacity:0; stop-color:white"/>
   <stop offset="0.4" style="stop-opacity:0.501961; stop-color:white"/>
   <stop offset="1" style="stop-opacity:1; stop-color:white"/>
  </linearGradient>
     <rect style="fill:url(#id1)" x="33.35" y="4.26" width="142.2" height="73.51"/>
    </mask>
    <mask id="id2">
  <linearGradient id="id3" gradientUnits="userSpaceOnUse" x1="67.06" y1="-12.57" x2="90.69" y2="38.75">
   <stop offset="0" style="stop-opacity:0; stop-color:white"/>
   <stop offset="0.45098" style="stop-opacity:0.501961; stop-color:white"/>
   <stop offset="1" style="stop-opacity:1; stop-color:white"/>
  </linearGradient>
     <rect style="fill:url(#id3)" x="29.89" y="0.18" width="148.9" height="73.52"/>
    </mask>
    <mask id="id4">
  <linearGradient id="id5" gradientUnits="userSpaceOnUse" x1="112.25" y1="209.37" x2="114.37" y2="130.27">
   <stop offset="0" style="stop-opacity:1; stop-color:white"/>
   <stop offset="0.258824" style="stop-opacity:0.501961; stop-color:white"/>
   <stop offset="1" style="stop-opacity:0; stop-color:white"/>
  </linearGradient>
     <rect style="fill:url(#id5)" x="59.97" y="133.87" width="20.08" height="61.6"/>
    </mask>
    <mask id="id6">
  <linearGradient id="id7" gradientUnits="userSpaceOnUse" x1="112.25" y1="209.37" x2="114.37" y2="130.27">
   <stop offset="0" style="stop-opacity:1; stop-color:white"/>
   <stop offset="0.258824" style="stop-opacity:0.501961; stop-color:white"/>
   <stop offset="1" style="stop-opacity:0; stop-color:white"/>
  </linearGradient>
     <rect style="fill:url(#id7)" x="78.21" y="121.83" width="78.58" height="80.73"/>
    </mask>
    <mask id="id8">
  <linearGradient id="id9" gradientUnits="userSpaceOnUse" x1="109.64" y1="216.21" x2="112.04" y2="63.07">
   <stop offset="0" style="stop-opacity:1; stop-color:white"/>
   <stop offset="0.25098" style="stop-opacity:0.501961; stop-color:white"/>
   <stop offset="1" style="stop-opacity:0; stop-color:white"/>
  </linearGradient>
     <rect style="fill:url(#id9)" x="35.06" y="91.96" width="68.76" height="97.22"/>
    </mask>
    <mask id="id10">
  <linearGradient id="id11" gradientUnits="userSpaceOnUse" x1="109.64" y1="216.21" x2="112.04" y2="63.07">
   <stop offset="0" style="stop-opacity:1; stop-color:white"/>
   <stop offset="0.25098" style="stop-opacity:0.501961; stop-color:white"/>
   <stop offset="1" style="stop-opacity:0; stop-color:white"/>
  </linearGradient>
     <rect style="fill:url(#id11)" x="115.02" y="122.69" width="44.14" height="68.22"/>
    </mask>
    <mask id="id12">
  <linearGradient id="id13" gradientUnits="userSpaceOnUse" x1="106.38" y1="214.41" x2="104.66" y2="78.88">
   <stop offset="0" style="stop-opacity:0; stop-color:white"/>
   <stop offset="0.619608" style="stop-opacity:0.501961; stop-color:white"/>
   <stop offset="1" style="stop-opacity:1; stop-color:white"/>
  </linearGradient>
     <rect style="fill:url(#id13)" x="114.29" y="119.44" width="46.16" height="73.12"/>
    </mask>
    <mask id="id14">
  <linearGradient id="id15" gradientUnits="userSpaceOnUse" x1="106.38" y1="214.41" x2="104.66" y2="78.88">
   <stop offset="0" style="stop-opacity:0; stop-color:white"/>
   <stop offset="0.619608" style="stop-opacity:0.501961; stop-color:white"/>
   <stop offset="1" style="stop-opacity:1; stop-color:white"/>
  </linearGradient>
     <rect style="fill:url(#id15)" x="36.49" y="96.73" width="61.72" height="90.27"/>
    </mask>
    <mask id="id16">
  <linearGradient id="id17" gradientUnits="userSpaceOnUse" x1="10.34" y1="16.62" x2="82.96" y2="51">
   <stop offset="0" style="stop-opacity:1; stop-color:white"/>
   <stop offset="0.458824" style="stop-opacity:0.501961; stop-color:white"/>
   <stop offset="1" style="stop-opacity:0; stop-color:white"/>
  </linearGradient>
     <rect style="fill:url(#id17)" x="29.69" y="2.47" width="99.08" height="86.66"/>
    </mask>
    <mask id="id18">
  <linearGradient id="id19" gradientUnits="userSpaceOnUse" x1="104.21" y1="95.88" x2="105.4" y2="151.95">
   <stop offset="0" style="stop-opacity:0; stop-color:white"/>
   <stop offset="0.2" style="stop-opacity:0.501961; stop-color:white"/>
   <stop offset="1" style="stop-opacity:1; stop-color:white"/>
  </linearGradient>
     <rect style="fill:url(#id19)" x="102.04" y="102.02" width="5.25" height="43.45"/>
    </mask>
    <mask id="id20">
  <linearGradient id="id21" gradientUnits="userSpaceOnUse" x1="104.57" y1="193.42" x2="104.67" y2="123.75">
   <stop offset="0" style="stop-opacity:1; stop-color:white"/>
   <stop offset="0.129412" style="stop-opacity:0.501961; stop-color:white"/>
   <stop offset="1" style="stop-opacity:0; stop-color:white"/>
  </linearGradient>
     <rect style="fill:url(#id21)" x="87.73" y="112.42" width="33.35" height="67.15"/>
    </mask>
 </defs>
 <g id="Слой_x0020_1">
  <metadata id="CorelCorpID_0Corel-Layer"/>
  <g id="лампочка">
   <path id="тень_x0020_колбы" class="fil0" d="M104.42 1.59c36.84,0 67.45,26.65 73.61,61.72 0.09,0.48 0.16,0.97 0.24,1.45l0.06 0.36c0.07,0.52 0.15,1.05 0.22,1.57l0.03 0.24c0.07,0.55 0.13,1.1 0.19,1.66l0.02 0.22c0.05,0.57 0.11,1.14 0.15,1.71l0.01 0.12c0.04,0.61 0.08,1.21 0.11,1.82l0.01 0.03 0 0 0 0.03c0.03,0.62 0.05,1.25 0.07,1.88l0 0 0 0.01 0 0c0.02,0.64 0.02,1.28 0.02,1.92 0,0.61 0,1.21 -0.02,1.8l0 0.01c-0.43,17.98 -7.2,34.39 -18.17,47.07l-0.01 0.01c-1.85,2.14 -3.82,4.17 -5.9,6.09 -10.11,11.44 -17.12,25.32 -16.78,39.34 -0.16,16.64 -0.08,8.32 -0.24,24.97 -19.27,11 -43.34,11.11 -66.4,1l-0.04 -26.91c0.13,-15.56 -7.02,-26.52 -18.14,-38.7 -11.8,-11 -20.03,-25.78 -22.78,-42.41l-0.01 -0.01c-0.04,-0.25 -0.08,-0.5 -0.12,-0.75l-0.04 -0.27c-0.08,-0.52 -0.15,-1.05 -0.22,-1.59l-0.03 -0.23c-0.07,-0.56 -0.13,-1.12 -0.19,-1.68l-0.02 -0.19c-0.06,-0.57 -0.11,-1.15 -0.16,-1.73l0 -0.12c-0.05,-0.6 -0.09,-1.2 -0.12,-1.81l0 -0.04 0 -0.04c-0.03,-0.61 -0.06,-1.23 -0.07,-1.86l0 -0.02 0 0c-0.02,-0.64 -0.03,-1.28 -0.03,-1.93 0,-0.64 0.01,-1.27 0.03,-1.91l0 -0.02 0 -0.03c0.01,-0.62 0.04,-1.24 0.07,-1.85l0 -0.06c0.03,-0.62 0.07,-1.23 0.12,-1.85l0 -0.05c0.05,-0.6 0.1,-1.19 0.16,-1.78l0.02 -0.19c0.06,-0.56 0.12,-1.11 0.19,-1.66l0.03 -0.22c0.07,-0.54 0.14,-1.08 0.22,-1.62l0.05 -0.29c0.07,-0.5 0.16,-1 0.24,-1.49l0.08 -0.4 0.04 -0.23 0 0c6.42,-34.76 36.88,-61.09 73.5,-61.09z"/>
   <path id="колба" class="fil1" d="M103.04 6.63c33.31,0.03 68.85,24.49 71.12,64.35 0,0.43 0,0.86 0,1.3l0.43 0.43c0,0.43 0,0.86 0,1.29l0 0c0,0.43 0,0.86 0,1.72l0 0c0.43,0.43 0.43,0.86 0.43,1.29l0 0.43c0,0.43 0,0.86 0,1.29l0 0 0 0 0 0c0,0.43 0,1.29 0,1.72l0 0 0 0 0 0c0,0.43 0,1.08 0,1.72 0,0.65 0,0.86 0,1.29l0 0c-8.43,49.62 -27.37,36.36 -39.94,79.65 -0.43,14.2 -0.14,10.09 -0.14,24.3 -2.49,1.37 -3.28,3.08 -5.95,4.37 -2.62,1.27 -3.41,-0.94 -6.74,-3.35 -3.13,-2.26 -2.86,5.52 -6.62,6.39 -2.59,0.59 -3.81,-10.98 -6.44,-10.74 -4.35,0.4 -13.21,3.08 -17.11,-0.37 -2.24,-1.96 -13.18,5.04 -16.06,3.76l0.1 -23.01c-5.36,-32.28 -38.68,-40.93 -40.81,-76.51l0 0c0,-0.43 0,-0.43 0,-0.86l0 0c-0.43,-0.43 -0.43,-0.86 -0.43,-1.29l0 -0.43c0,-0.43 0,-0.86 0,-1.29l0 0c-0.43,-0.86 -0.43,-1.29 -0.43,-1.72l0 0c0,-0.43 0,-0.86 0,-1.72l0 0 0 0c0,-0.43 0,-0.86 0,-1.29l0 0 0 0c0,-0.86 0,-1.08 0,-1.73 0,-0.64 0,-1.29 0,-1.72l0 0 0 0c0,-0.43 0,-1.29 0,-1.72l0 0c0,-0.43 0,-0.86 0,-1.72l0 0c0,-0.43 0,-0.86 0.43,-1.29l0 0c0,-0.86 0,-1.29 0,-1.72l0 0c0,-0.43 0,-0.86 0.43,-1.29l0 -0.43c0,-0.43 0,-0.86 0,-1.29l0 -0.43 0 0 0 0c4.8,-36.62 34.42,-59.41 67.73,-59.38z"/>
   <circle class="fil2" cx="104.53" cy="77.48" r="71.16"/>
   <g>
    <path class="fil3" d="M104.6 8.48c38.5,0 69.7,31.2 69.7,69.7 0,38.5 -31.2,69.7 -69.7,69.7 -38.5,0 -69.7,-31.2 -69.7,-69.7 0,-38.5 31.2,-69.7 69.7,-69.7z"/>
    <path class="fil4" d="M104.66 10.64c37.69,0 68.25,30.55 68.25,68.24 0,37.69 -30.56,68.24 -68.25,68.24 -37.69,0 -68.24,-30.55 -68.24,-68.24 0,-37.69 30.55,-68.24 68.24,-68.24z"/>
    <path class="fil5" d="M104.73 12.8c36.88,0 66.78,29.9 66.78,66.78 0,36.89 -29.9,66.79 -66.78,66.79 -36.88,0 -66.78,-29.9 -66.78,-66.79 0,-36.88 29.9,-66.78 66.78,-66.78z"/>
    <path class="fil6" d="M104.79 14.97c36.08,0 65.32,29.24 65.32,65.32 0,36.07 -29.24,65.32 -65.32,65.32 -36.07,0 -65.32,-29.25 -65.32,-65.32 0,-36.08 29.25,-65.32 65.32,-65.32z"/>
    <path class="fil7" d="M104.86 17.13c35.27,0 63.86,28.59 63.86,63.86 0,35.27 -28.59,63.86 -63.86,63.86 -35.27,0 -63.86,-28.59 -63.86,-63.86 0,-35.27 28.59,-63.86 63.86,-63.86z"/>
    <path class="fil8" d="M104.92 19.29c34.46,0 62.4,27.94 62.4,62.4 0,34.46 -27.94,62.4 -62.4,62.4 -34.46,0 -62.4,-27.94 -62.4,-62.4 0,-34.46 27.94,-62.4 62.4,-62.4z"/>
    <path class="fil9" d="M104.99 21.46c33.65,0 60.94,27.28 60.94,60.93 0,33.66 -27.29,60.94 -60.94,60.94 -33.66,0 -60.94,-27.28 -60.94,-60.94 0,-33.65 27.28,-60.93 60.94,-60.93z"/>
    <path class="fil10" d="M105.05 23.62c32.85,0 59.48,26.63 59.48,59.48 0,32.85 -26.63,59.47 -59.48,59.47 -32.85,0 -59.47,-26.62 -59.47,-59.47 0,-32.85 26.62,-59.48 59.47,-59.48z"/>
    <path class="fil11" d="M105.12 25.78c32.04,0 58.01,25.98 58.01,58.02 0,32.04 -25.97,58.02 -58.01,58.02 -32.04,0 -58.02,-25.98 -58.02,-58.02 0,-32.04 25.98,-58.02 58.02,-58.02z"/>
    <path class="fil12" d="M105.18 27.95c31.24,0 56.56,25.32 56.56,56.55 0,31.24 -25.32,56.56 -56.56,56.56 -31.23,0 -56.55,-25.32 -56.55,-56.56 0,-31.23 25.32,-56.55 56.55,-56.55z"/>
    <path class="fil13" d="M105.25 30.11c30.42,0 55.09,24.67 55.09,55.1 0,30.42 -24.67,55.09 -55.09,55.09 -30.43,0 -55.1,-24.67 -55.1,-55.09 0,-30.43 24.67,-55.1 55.1,-55.1z"/>
    <path class="fil14" d="M105.31 32.27c29.62,0 53.63,24.02 53.63,53.64 0,29.62 -24.01,53.63 -53.63,53.63 -29.62,0 -53.63,-24.01 -53.63,-53.63 0,-29.62 24.01,-53.64 53.63,-53.64z"/>
    <path class="fil15" d="M105.38 34.44c28.81,0 52.17,23.36 52.17,52.17 0,28.81 -23.36,52.17 -52.17,52.17 -28.82,0 -52.17,-23.36 -52.17,-52.17 0,-28.81 23.35,-52.17 52.17,-52.17z"/>
    <path class="fil16" d="M105.44 36.6c28.01,0 50.71,22.71 50.71,50.71 0,28.01 -22.7,50.71 -50.71,50.71 -28.01,0 -50.71,-22.7 -50.71,-50.71 0,-28 22.7,-50.71 50.71,-50.71z"/>
    <path class="fil17" d="M105.51 38.77c27.2,0 49.25,22.05 49.25,49.24 0,27.21 -22.05,49.26 -49.25,49.26 -27.2,0 -49.25,-22.05 -49.25,-49.26 0,-27.19 22.05,-49.24 49.25,-49.24z"/>
    <path class="fil18" d="M105.57 40.93c26.39,0 47.79,21.4 47.79,47.79 0,26.39 -21.4,47.79 -47.79,47.79 -26.39,0 -47.79,-21.4 -47.79,-47.79 0,-26.39 21.4,-47.79 47.79,-47.79z"/>
    <path class="fil19" d="M105.64 43.09c25.58,0 46.32,20.74 46.32,46.33 0,25.59 -20.74,46.33 -46.32,46.33 -25.59,0 -46.33,-20.74 -46.33,-46.33 0,-25.59 20.74,-46.33 46.33,-46.33z"/>
    <path class="fil20" d="M105.7 45.26c24.78,0 44.87,20.08 44.87,44.86 0,24.78 -20.09,44.87 -44.87,44.87 -24.78,0 -44.87,-20.09 -44.87,-44.87 0,-24.78 20.09,-44.86 44.87,-44.86z"/>
    <path class="fil21" d="M105.77 47.42c23.97,0 43.4,19.43 43.4,43.41 0,23.97 -19.43,43.4 -43.4,43.4 -23.98,0 -43.41,-19.43 -43.41,-43.4 0,-23.98 19.43,-43.41 43.41,-43.41z"/>
    <path class="fil22" d="M105.83 49.58c23.17,0 41.95,18.78 41.95,41.95 0,23.16 -18.78,41.94 -41.95,41.94 -23.17,0 -41.95,-18.78 -41.95,-41.94 0,-23.17 18.78,-41.95 41.95,-41.95z"/>
    <path class="fil23" d="M105.9 51.75c22.35,0 40.48,18.12 40.48,40.48 0,22.36 -18.13,40.49 -40.48,40.49 -22.36,0 -40.49,-18.13 -40.49,-40.49 0,-22.36 18.13,-40.48 40.49,-40.48z"/>
    <path class="fil24" d="M105.96 53.91c21.55,0 39.02,17.47 39.02,39.02 0,21.56 -17.47,39.03 -39.02,39.03 -21.55,0 -39.02,-17.47 -39.02,-39.03 0,-21.55 17.47,-39.02 39.02,-39.02z"/>
    <path class="fil25" d="M106.02 56.07c20.75,0 37.57,16.82 37.57,37.57 0,20.74 -16.82,37.56 -37.57,37.56 -20.74,0 -37.56,-16.82 -37.56,-37.56 0,-20.75 16.82,-37.57 37.56,-37.57z"/>
    <path class="fil26" d="M106.09 58.24c19.94,0 36.1,16.16 36.1,36.1 0,19.94 -16.16,36.1 -36.1,36.1 -19.94,0 -36.1,-16.16 -36.1,-36.1 0,-19.94 16.16,-36.1 36.1,-36.1z"/>
    <path class="fil27" d="M106.15 60.4c19.14,0 34.64,15.51 34.64,34.64 0,19.13 -15.5,34.64 -34.64,34.64 -19.13,0 -34.64,-15.51 -34.64,-34.64 0,-19.13 15.51,-34.64 34.64,-34.64z"/>
    <path class="fil28" d="M106.22 62.56c18.32,0 33.18,14.86 33.18,33.18 0,18.33 -14.86,33.18 -33.18,33.18 -18.33,0 -33.18,-14.85 -33.18,-33.18 0,-18.32 14.85,-33.18 33.18,-33.18z"/>
    <path class="fil29" d="M106.28 64.73c17.52,0 31.72,14.2 31.72,31.72 0,17.52 -14.2,31.72 -31.72,31.72 -17.51,0 -31.72,-14.2 -31.72,-31.72 0,-17.52 14.21,-31.72 31.72,-31.72z"/>
    <path class="fil30" d="M106.35 66.89c16.71,0 30.26,13.55 30.26,30.26 0,16.71 -13.55,30.26 -30.26,30.26 -16.71,0 -30.26,-13.55 -30.26,-30.26 0,-16.71 13.55,-30.26 30.26,-30.26z"/>
    <path class="fil31" d="M106.41 69.05c15.91,0 28.8,12.9 28.8,28.8 0,15.91 -12.89,28.8 -28.8,28.8 -15.9,0 -28.79,-12.89 -28.79,-28.8 0,-15.9 12.89,-28.8 28.79,-28.8z"/>
    <path class="fil32" d="M106.48 71.22c15.1,0 27.33,12.24 27.33,27.33 0,15.1 -12.23,27.34 -27.33,27.34 -15.1,0 -27.34,-12.24 -27.34,-27.34 0,-15.09 12.24,-27.33 27.34,-27.33z"/>
   </g>
   <path class="fil33" d="M106.54 73.38c14.29,0 25.88,11.59 25.88,25.88 0,14.29 -11.59,25.87 -25.88,25.87 -14.29,0 -25.87,-11.58 -25.87,-25.87 0,-14.29 11.58,-25.88 25.87,-25.88z"/>
   <path class="fil34" style="mask:url(#id0)" d="M104.45 4.26c39.27,0 71.1,32.4 71.1,72.36 0,0.39 -0.01,0.77 -0.01,1.15 -0.61,-39.43 -32.2,-71.21 -71.09,-71.21 -38.89,0 -70.48,31.78 -71.08,71.21 -0.01,-0.38 -0.02,-0.76 -0.02,-1.15 0,-39.96 31.84,-72.36 71.1,-72.36z"/>
   <path class="fil35" style="mask:url(#id2)" d="M104.34 0.18c41.12,0 74.45,32.4 74.45,72.37 0,0.38 -0.01,0.76 -0.01,1.15 -0.64,-39.44 -33.72,-71.22 -74.44,-71.22 -40.72,0 -73.8,31.78 -74.44,71.22 0,-0.39 -0.01,-0.77 -0.01,-1.15 0,-39.97 33.33,-72.37 74.45,-72.37z"/>
   <path class="fil36" d="M104.5 188.67c18.27,0 37.57,4.97 32.81,8.13 -4.67,3.09 -12.82,6.91 -29.02,7.5 -1.1,0.04 -2.34,0 -3.57,-0.11 -17.95,-1.62 -33.19,-4 -33.29,-8.68 -0.1,-4.68 14.8,-6.84 33.07,-6.84z"/>
   <path class="fil37" style="mask:url(#id4)" d="M80.05 188.67c-4.74,0.12 -1.33,0.33 -3.09,2.97 -1.21,1.81 -3.07,-0.1 -3.07,1.81 0,4.81 -3.8,0.25 -1.46,-5.44 0.79,-1.91 -0.08,-23.53 -0.65,-26.34 -0.45,-2.2 -0.6,-5.53 -1.96,-7.44 -0.23,-0.34 -1.45,-5.4 -3.43,-7.49 0,-0.01 -3.93,-6.81 -1.57,-5.97 2.47,0.87 5.53,10.11 4.42,4.99 -0.73,-3.37 -2.85,-5.72 -5.61,-7.97 -1.73,-1.4 -6.69,-3.68 -1.01,-3.92 0.55,-0.02 1.77,0.84 1.89,1.21 4.47,1.37 11.85,15.51 12.09,20.83 0.26,5.74 -0.06,2.88 -0.65,7.62 -0.71,5.81 -2.8,-0.21 0.31,9.98 1.71,5.62 1.75,7.3 1.52,13.21 -0.01,0.11 2.27,1.95 2.27,1.95z"/>
   <path class="fil37" style="mask:url(#id6)" d="M79.98 189.05c0.01,-0.02 4.04,0.93 4.68,0.71 5.25,-1.75 5.03,1.5 9.95,-1.62 1.2,-0.77 3.38,2.93 9.89,0.53 3.24,-1.2 1.63,-1.66 7.27,-0.95 1.94,0.25 1.85,-0.55 3.27,1.46 2.07,2.92 12.07,0.49 14,2.75 0.18,0.2 5.5,1.7 5.45,0.41 -0.06,-1.37 1.52,-1.2 -1.14,-2.73 -0.53,-0.3 -2.41,-2.02 -1.19,-3.19 1.47,-1.42 1.73,-0.04 2.55,-2.42 3.06,-8.82 0.47,-5.6 -0.91,-12.38 -0.87,-4.31 -0.53,-10.93 1.14,-14.91 4.04,-9.67 8.39,-15.31 13.07,-23.98 1.45,-2.71 2.94,-5.63 5.22,-7.72 0.02,-0.01 3.56,-4.77 3.56,-2.62 0,0.1 -3.44,5.76 -3.86,6.72 -0.8,1.87 -10.29,15.53 -8.75,13.3 0.03,-0.05 3.54,-3.03 2.55,-2.04 -0.17,0.17 -4.91,9.39 -5.81,10.66 -0.8,1.12 -2.98,8.58 -2.91,10.16 0.01,0.29 -0.71,6.74 -0.71,9.6 0,3.43 0.62,25.84 -1.74,26.17 -0.22,-0.37 -0.64,-0.19 -1.16,0.14 -3.81,2.42 -4.39,1.37 -7.06,2.59 -2.09,0.95 -11.01,1.98 -13.8,2.33 -2.18,0.26 -9.82,0.91 -11.5,0.26 -2.44,-0.95 -12.76,-0.54 -16.07,-1.41 -8.42,-2.21 -0.89,-5.28 -6.22,-6.18 -1.5,-0.25 -2.68,-1.45 0.33,-1.45 1.59,0 0.15,-3.87 -0.1,-4.19zm46.41 7.64c-0.81,-0.82 1.33,-2.16 0.83,0.49 -0.72,0 -0.66,-0.32 -0.83,-0.49z"/>
   <path class="fil38" style="mask:url(#id8)" d="M35.07 93.03c3.38,7.08 1.47,12.93 8.62,20.69 4.42,4.79 5.55,7.9 11.73,13.66 3.23,3 9.84,12 11.99,15.95 2.28,4.21 4.63,6.82 6.17,11.53 2.77,8.49 1.97,5.42 3.06,14.23 0.67,5.48 -1.76,19.72 6.3,19.72 3.08,0 9.76,1.28 11.63,-0.92 2.13,-2.5 10.18,4.05 9.16,-0.98 -0.52,-2.52 -9.05,-1.43 -11.5,-0.27 -3.68,1.74 -13.26,1.45 -13.71,-5.16 -0.44,-6.53 -0.1,-12.56 -0.88,-18.9 -0.89,-7.19 0.71,-7.03 -4.06,-14.62 -1.71,-2.73 -4.16,-8.56 -7.64,-10.61 -0.12,-0.07 -12.2,-15.38 -14.5,-17.62 -3.15,-3.04 -5.88,-6.39 -7.83,-10.18 -1.15,-2.24 -7.85,-17.43 -7.9,-17.49 -0.41,-0.47 -0.72,0.8 -0.64,0.97z"/>
   <path class="fil38" style="mask:url(#id10)" d="M159.16 122.69c-3.35,4.63 -8.96,6.5 -13.77,14.17 -2.95,4.71 -6.4,8.34 -6.86,14.06 -0.4,4.95 -4.7,11.25 -5,21.77 -0.14,4.75 0.2,9.78 -2.51,13.59 -0.15,0.21 1.19,6.18 -5.54,4.24 -2.25,-0.64 -1.3,-4.14 -5.12,-1.84 -7.63,4.6 -5.5,-4.65 -3.23,-1.41 1.21,1.72 4.35,-3.99 8.06,0.68 0.13,0.17 4.09,1.97 3.9,-1.32 -0.04,-0.62 3.22,-4.69 3.08,-7.93 -0.22,-5.14 1.76,-22.82 4.12,-26.71 1.21,-1.99 1.92,-9.36 5.45,-14.31 4.33,-6.06 7.66,-10.48 14.45,-14.39 0.96,-0.55 2.64,-0.14 2.97,-0.6z"/>
   <path class="fil39" style="mask:url(#id12)" d="M134.51 190.41c-0.78,0.24 0.81,3.69 -3.69,1.33 -2.35,-1.24 -5.74,-0.59 -7.53,-2.5 -0.98,-1.05 -1.61,-2.29 -3.43,-0.16 -1.38,1.63 -8.62,-1.82 -4.11,-2 1.41,-0.06 1.8,0.48 4.15,-0.49 3.14,-1.3 5.14,2.23 8.69,2.81 0.76,0.12 6.05,3.38 2.11,-0.55 -2.94,-2.95 1.66,-4.11 2.13,-5.05 1.28,-2.58 2.57,-5.39 1.17,-8.23 -3.36,-6.77 -1.5,-4.61 -1.91,-9.25 -0.47,-5.4 -0.08,-8.15 2.11,-13.31 2.8,-6.57 5.6,-6.9 9.38,-13.14 1.66,-2.74 16.24,-21.92 16.8,-20.34 1.22,3.41 -13.28,14.42 -15.43,19.93 -0.87,2.25 -7.51,10.95 -8.42,13.67 -2.34,6.97 -3.15,6.99 -3.14,13.72 0.01,5.44 -0.22,4.73 2.68,9.63 1.26,2.13 -0.54,9.63 -3.35,10.2 -0.05,0.01 -0.87,4.57 1.79,3.73z"/>
   <path class="fil39" style="mask:url(#id14)" d="M36.59 96.92c-0.77,3.22 3.15,9.72 4.49,12.81 3.06,7.05 7.63,12.99 13.32,18.25 3.91,3.62 5.9,5.16 10.7,7.01 4.17,1.61 4.38,5.29 6.45,9.1 5.62,10.32 3.73,11.34 3.05,23.13 -0.21,3.65 1.85,6.01 2.52,9.32 0.29,1.44 0.17,10.41 1.18,10.45 3.91,0.16 8.37,-5.69 17.39,-1.73 2.43,1.07 6.44,-5.32 -6.83,-3.04 -2.36,0.41 -8.22,4.43 -8.77,2.54 -0.56,-1.96 -1.35,-1.67 -1.19,-5.37 0.13,-3.09 -1.29,-8.14 -1.29,-12.69 0,-3.19 0.95,-17.11 -0.79,-19.06 -5.56,-6.26 -3.19,-14.23 -12.98,-16.14 -5.53,-1.08 -15.91,-14.07 -18.19,-18.99 -3.81,-8.2 -3.91,-6.89 -7.72,-14.57 -0.1,-0.2 -1.16,-1.75 -1.34,-1.02z"/>
   <path class="fil40" d="M141.16 153.94c0,0 2.93,-7.48 4.21,-9.12 1.27,-1.65 -6.62,3.13 -4.21,9.12z"/>
   <path class="fil40" d="M70.77 160.56c0,0 -2.67,-11.67 -8.38,-18.65 -5.87,-7.17 13.67,8.47 8.38,18.65z"/>
   <path class="fil40" d="M71.62 180.26c-0.32,0.65 0.02,14.29 0.02,14.93 0,1.8 1.38,-1.31 1.85,-0.95 1.18,0.88 1.63,3.49 3.35,3.49 0,-2.61 -0.96,-1.87 -1.9,-3.76 -0.23,-0.45 -1.21,-3.19 -0.31,-3.19 0.5,0 1.77,2.16 1.77,-0.73 0,-0.04 -3.52,-6.28 -4,-7.29 -0.16,-0.33 -0.78,-2.51 -0.78,-2.5z"/>
   <path class="fil41" d="M126.48 200.01c-0.5,-0.01 -4.19,1.81 -5.99,1.95 -3.65,0.28 -5.41,0.99 -9.92,0.99 -5.45,0 -15.68,-0.03 -20.69,-1.15 -1.94,-0.44 -2.51,1.04 -1.92,-3.76 0.35,-2.85 -5.69,0.41 -2.24,-2.92 1.01,-0.98 3.93,1.55 3.2,-1.98 -1.03,-0.21 -3.18,-3.11 2.08,-2.47 3.52,0.44 0.39,-2.44 6.68,-1.67 2.86,0.35 8.61,0.17 12.09,0.39 3.32,0.22 7.45,0.25 10.61,0.89 2.38,0.49 0.46,-0.58 3.94,0.85 3.11,1.28 4.81,-0.05 4.81,5.14 0,1.63 -1.21,3.79 -2.65,3.74z"/>
   <g>
    <path class="fil42" d="M126.28 200.03c-0.5,-0.01 -4.15,1.79 -5.92,1.93 -3.62,0.28 -5.36,0.98 -9.81,0.98 -5.39,0 -15.51,-0.03 -20.46,-1.14 -1.91,-0.43 -2.48,1.03 -1.9,-3.72 0.35,-2.82 -5.62,0.41 -2.22,-2.89 1.01,-0.97 3.89,1.54 3.17,-1.96 -1.01,-0.21 -3.14,-3.08 2.06,-2.44 3.48,0.43 0.38,-2.42 6.6,-1.65 2.83,0.35 8.51,0.17 11.96,0.39 3.27,0.2 7.36,0.23 10.48,0.87 2.36,0.48 0.46,-0.57 3.9,0.84 3.08,1.27 4.76,-0.05 4.76,5.09 0,1.61 -1.2,3.75 -2.62,3.7z"/>
    <path class="fil43" d="M126.07 200.06c-0.49,-0.02 -4.1,1.77 -5.85,1.9 -3.57,0.28 -5.29,0.97 -9.69,0.97 -5.34,0 -15.33,-0.02 -20.23,-1.13 -1.89,-0.42 -2.45,1.02 -1.87,-3.68 0.34,-2.79 -5.57,0.41 -2.2,-2.85 1,-0.97 3.84,1.51 3.13,-1.95 -1,-0.2 -3.1,-3.04 2.04,-2.41 3.44,0.42 0.37,-2.4 6.53,-1.64 2.79,0.35 8.41,0.17 11.81,0.39 3.24,0.2 7.28,0.23 10.37,0.86 2.32,0.48 0.45,-0.56 3.85,0.84 3.04,1.25 4.7,-0.05 4.7,5.03 0,1.59 -1.18,3.71 -2.59,3.67z"/>
    <path class="fil44" d="M125.87 200.08c-0.49,-0.02 -4.06,1.75 -5.79,1.88 -3.53,0.28 -5.23,0.97 -9.58,0.97 -5.27,0 -15.15,-0.03 -19.99,-1.12 -1.87,-0.43 -2.42,1 -1.85,-3.65 0.34,-2.76 -5.5,0.41 -2.17,-2.82 0.98,-0.95 3.8,1.5 3.09,-1.92 -0.99,-0.21 -3.06,-3.02 2.01,-2.39 3.41,0.42 0.38,-2.37 6.46,-1.62 2.76,0.34 8.31,0.16 11.68,0.38 3.2,0.2 7.19,0.23 10.24,0.86 2.3,0.47 0.45,-0.57 3.81,0.82 3.01,1.24 4.65,-0.05 4.65,4.98 0,1.58 -1.18,3.67 -2.56,3.63z"/>
    <path class="fil44" d="M125.66 200.1c-0.48,-0.02 -4,1.73 -5.71,1.87 -3.49,0.27 -5.17,0.95 -9.47,0.95 -5.21,0 -14.97,-0.03 -19.76,-1.11 -1.84,-0.42 -2.39,1 -1.83,-3.6 0.34,-2.74 -5.43,0.4 -2.14,-2.8 0.97,-0.94 3.75,1.49 3.06,-1.9 -0.98,-0.2 -3.04,-2.98 1.98,-2.36 3.36,0.41 0.37,-2.35 6.38,-1.61 2.73,0.34 8.21,0.17 11.54,0.38 3.17,0.2 7.11,0.23 10.13,0.85 2.27,0.46 0.43,-0.56 3.76,0.81 2.97,1.23 4.59,-0.04 4.59,4.93 0,1.56 -1.16,3.64 -2.53,3.59z"/>
    <path class="fil45" d="M125.46 200.12c-0.48,-0.01 -3.96,1.72 -5.65,1.85 -3.45,0.27 -5.11,0.94 -9.36,0.94 -5.14,0 -14.79,-0.03 -19.52,-1.1 -1.82,-0.41 -2.36,0.99 -1.81,-3.56 0.33,-2.71 -5.36,0.39 -2.11,-2.77 0.96,-0.93 3.7,1.47 3.02,-1.88 -0.97,-0.2 -3,-2.95 1.96,-2.34 3.32,0.41 0.37,-2.32 6.3,-1.58 2.7,0.33 8.12,0.16 11.41,0.37 3.12,0.2 7.02,0.23 10,0.84 2.25,0.46 0.43,-0.55 3.72,0.81 2.93,1.21 4.54,-0.05 4.54,4.87 0,1.55 -1.15,3.6 -2.5,3.55z"/>
    <path class="fil46" d="M125.25 200.14c-0.47,-0.01 -3.91,1.7 -5.58,1.83 -3.4,0.27 -5.04,0.93 -9.24,0.93 -5.09,0 -14.62,-0.02 -19.29,-1.08 -1.8,-0.41 -2.33,0.97 -1.78,-3.53 0.32,-2.67 -5.3,0.39 -2.09,-2.73 0.94,-0.93 3.66,1.45 2.98,-1.86 -0.96,-0.2 -2.96,-2.92 1.94,-2.32 3.28,0.41 0.36,-2.29 6.23,-1.57 2.66,0.34 8.01,0.17 11.26,0.37 3.09,0.2 6.94,0.23 9.88,0.83 2.22,0.46 0.43,-0.54 3.67,0.8 2.91,1.2 4.49,-0.05 4.49,4.82 0,1.53 -1.13,3.56 -2.47,3.51z"/>
    <path class="fil47" d="M125.05 200.17c-0.47,-0.02 -3.87,1.67 -5.51,1.8 -3.37,0.27 -4.99,0.92 -9.13,0.92 -5.03,0 -14.44,-0.02 -19.05,-1.07 -1.78,-0.4 -2.31,0.97 -1.77,-3.49 0.32,-2.64 -5.24,0.39 -2.06,-2.7 0.93,-0.91 3.61,1.44 2.94,-1.84 -0.94,-0.2 -2.92,-2.89 1.92,-2.29 3.24,0.4 0.36,-2.27 6.15,-1.55 2.63,0.33 7.92,0.16 11.13,0.36 3.05,0.2 6.85,0.23 9.76,0.83 2.19,0.45 0.42,-0.54 3.63,0.78 2.86,1.19 4.43,-0.04 4.43,4.77 0,1.51 -1.12,3.52 -2.44,3.48z"/>
    <path class="fil48" d="M124.84 200.19c-0.46,-0.02 -3.81,1.66 -5.44,1.79 -3.32,0.26 -4.92,0.9 -9.02,0.9 -4.96,0 -14.26,-0.02 -18.81,-1.05 -1.76,-0.4 -2.28,0.95 -1.75,-3.45 0.32,-2.62 -5.17,0.38 -2.04,-2.68 0.93,-0.9 3.58,1.42 2.91,-1.82 -0.93,-0.19 -2.88,-2.85 1.9,-2.26 3.2,0.4 0.35,-2.25 6.07,-1.53 2.6,0.32 7.82,0.15 10.99,0.36 3.01,0.19 6.77,0.22 9.64,0.81 2.17,0.44 0.42,-0.54 3.58,0.78 2.84,1.17 4.38,-0.05 4.38,4.71 0,1.5 -1.1,3.48 -2.41,3.44z"/>
    <path class="fil49" d="M124.64 200.21c-0.46,-0.01 -3.77,1.64 -5.38,1.77 -3.28,0.26 -4.86,0.9 -8.9,0.9 -4.9,0 -14.08,-0.03 -18.58,-1.05 -1.74,-0.4 -2.25,0.94 -1.72,-3.41 0.31,-2.59 -5.11,0.38 -2.02,-2.65 0.91,-0.89 3.53,1.41 2.88,-1.8 -0.92,-0.19 -2.86,-2.82 1.86,-2.23 3.17,0.39 0.35,-2.22 6,-1.52 2.57,0.32 7.73,0.16 10.86,0.36 2.97,0.19 6.68,0.22 9.52,0.8 2.13,0.44 0.41,-0.53 3.53,0.77 2.8,1.16 4.33,-0.04 4.33,4.66 0,1.48 -1.1,3.44 -2.38,3.4z"/>
    <path class="fil50" d="M124.43 200.23c-0.45,-0.01 -3.72,1.62 -5.31,1.75 -3.24,0.26 -4.79,0.89 -8.79,0.89 -4.83,0 -13.9,-0.03 -18.34,-1.04 -1.71,-0.39 -2.22,0.94 -1.7,-3.37 0.31,-2.56 -5.04,0.37 -1.99,-2.61 0.9,-0.88 3.48,1.39 2.84,-1.78 -0.91,-0.19 -2.82,-2.79 1.84,-2.22 3.13,0.39 0.35,-2.19 5.93,-1.49 2.53,0.31 7.62,0.15 10.71,0.35 2.94,0.19 6.6,0.21 9.4,0.79 2.11,0.44 0.41,-0.52 3.49,0.77 2.76,1.15 4.27,-0.05 4.27,4.6 0,1.46 -1.08,3.41 -2.35,3.36z"/>
    <path class="fil51" d="M124.23 200.26c-0.45,-0.02 -3.68,1.6 -5.24,1.72 -3.2,0.26 -4.74,0.88 -8.68,0.88 -4.78,0 -13.72,-0.02 -18.11,-1.02 -1.69,-0.39 -2.19,0.92 -1.68,-3.34 0.31,-2.52 -4.98,0.37 -1.96,-2.58 0.89,-0.87 3.44,1.37 2.8,-1.76 -0.9,-0.19 -2.78,-2.76 1.82,-2.19 3.08,0.39 0.34,-2.17 5.85,-1.48 2.5,0.31 7.53,0.15 10.58,0.35 2.9,0.19 6.51,0.21 9.28,0.78 2.08,0.44 0.4,-0.51 3.44,0.76 2.73,1.14 4.22,-0.05 4.22,4.55 0,1.45 -1.07,3.37 -2.32,3.33z"/>
    <path class="fil52" d="M124.02 200.28c-0.43,-0.02 -3.62,1.58 -5.17,1.7 -3.16,0.25 -4.68,0.87 -8.57,0.87 -4.71,0 -13.54,-0.02 -17.87,-1.01 -1.67,-0.38 -2.16,0.91 -1.65,-3.3 0.3,-2.49 -4.92,0.37 -1.94,-2.55 0.87,-0.86 3.39,1.36 2.76,-1.74 -0.88,-0.18 -2.74,-2.73 1.8,-2.16 3.04,0.38 0.33,-2.14 5.77,-1.46 2.47,0.31 7.43,0.15 10.44,0.34 2.86,0.19 6.43,0.21 9.16,0.78 2.06,0.42 0.4,-0.51 3.4,0.74 2.69,1.13 4.16,-0.04 4.16,4.5 0,1.43 -1.05,3.33 -2.29,3.29z"/>
    <path class="fil53" d="M123.82 200.3c-0.43,-0.01 -3.58,1.56 -5.11,1.69 -3.11,0.24 -4.61,0.85 -8.45,0.85 -4.65,0 -13.37,-0.02 -17.64,-1 -1.65,-0.37 -2.13,0.9 -1.63,-3.25 0.3,-2.47 -4.85,0.36 -1.91,-2.53 0.86,-0.85 3.34,1.35 2.72,-1.71 -0.87,-0.19 -2.7,-2.7 1.78,-2.14 3,0.37 0.33,-2.12 5.69,-1.45 2.44,0.31 7.34,0.15 10.31,0.34 2.82,0.18 6.34,0.21 9.03,0.77 2.03,0.42 0.4,-0.5 3.36,0.74 2.66,1.11 4.11,-0.05 4.11,4.44 0,1.42 -1.04,3.29 -2.26,3.25z"/>
    <path class="fil54" d="M123.61 200.32c-0.42,-0.01 -3.53,1.55 -5.03,1.67 -3.08,0.24 -4.56,0.85 -8.34,0.85 -4.59,0 -13.19,-0.03 -17.41,-0.99 -1.62,-0.37 -2.11,0.89 -1.61,-3.22 0.3,-2.44 -4.78,0.36 -1.89,-2.49 0.86,-0.84 3.31,1.32 2.7,-1.7 -0.87,-0.18 -2.67,-2.67 1.75,-2.11 2.96,0.37 0.32,-2.1 5.62,-1.43 2.4,0.3 7.23,0.14 10.16,0.33 2.79,0.18 6.26,0.21 8.92,0.76 2,0.42 0.38,-0.5 3.31,0.73 2.62,1.1 4.05,-0.04 4.05,4.4 0,1.39 -1.02,3.24 -2.23,3.2z"/>
    <path class="fil55" d="M123.41 200.34c-0.42,-0.01 -3.48,1.53 -4.97,1.65 -3.03,0.24 -4.49,0.84 -8.23,0.84 -4.52,0 -13.01,-0.02 -17.16,-0.98 -1.61,-0.37 -2.08,0.88 -1.59,-3.18 0.28,-2.41 -4.72,0.36 -1.87,-2.46 0.85,-0.83 3.26,1.31 2.66,-1.68 -0.85,-0.18 -2.64,-2.63 1.73,-2.08 2.92,0.36 0.32,-2.07 5.54,-1.42 2.37,0.3 7.14,0.15 10.03,0.34 2.75,0.17 6.17,0.2 8.79,0.74 1.98,0.41 0.38,-0.49 3.27,0.72 2.59,1.09 4,-0.04 4,4.35 0,1.37 -1.01,3.2 -2.2,3.16z"/>
   </g>
   <path class="fil56" d="M123.2 200.37c-0.41,-0.02 -3.43,1.5 -4.9,1.62 -2.99,0.24 -4.43,0.83 -8.11,0.83 -4.47,0 -12.83,-0.02 -16.93,-0.96 -1.59,-0.37 -2.06,0.86 -1.57,-3.15 0.28,-2.38 -4.66,0.35 -1.84,-2.43 0.83,-0.82 3.22,1.3 2.62,-1.66 -0.84,-0.17 -2.6,-2.6 1.7,-2.06 2.89,0.37 0.32,-2.04 5.47,-1.39 2.34,0.29 7.04,0.14 9.89,0.33 2.71,0.17 6.09,0.2 8.68,0.74 1.95,0.4 0.37,-0.49 3.22,0.71 2.55,1.07 3.94,-0.05 3.94,4.29 0,1.36 -1,3.17 -2.17,3.13z"/>
   <path class="fil57" style="mask:url(#id16)" d="M128.36 7.38c0.29,0.3 1.22,1.71 -1.25,0.77 -16.71,-6.33 -38.17,-5.92 -58.55,5.99 -39.89,23.32 -33.65,65.37 -37.88,74.46 -0.19,-0.31 0.1,3.73 -0.79,-6.57 -0.9,-10.3 -0.3,-47.38 37.81,-70.19 22.66,-13.57 55.33,-9.94 60.66,-4.46z"/>
   <path class="fil58" d="M149.96 26.49c5.7,1.62 9.69,6.14 10.16,11.2 -8.55,-6.06 -7.79,-5.04 -10.16,-11.2z"/>
   <path class="fil59" d="M122.6 197.93c-0.78,-0.71 0.87,-1.49 0.87,-0.46 0,0.9 -0.47,0.9 -0.76,0.47l-0.11 -0.01z"/>
   <path id="Стекляный_x0020_центр_x0020_лампочки" class="fil60" d="M108.63 101.17l0 48.64c2.44,-0.04 2,1.65 3.01,1.83 -3.88,14.53 -1.77,32.43 0,50.17l-14.47 0c1.91,-16.69 4.62,-33.39 -0.08,-50.09 1.6,-0.2 1.25,-1.93 3.22,-2.06l0 -48.27 -1.29 -1.94 -0.68 -0.75c2.78,-1.02 9.54,-0.86 12.47,-0.07l-0.74 0.75 -1.44 1.79zm-5.34 2.37c0.48,-0.43 0.95,-0.68 1.43,-0.68 0.45,-0.01 0.91,0.2 1.37,0.68l0 40.31c-1.06,1.06 -1.99,1.05 -2.8,0l0 -40.31z"/>
   <path id="Стекляный_x0020_центр_x0020_лампочки_0" class="fil61" d="M108.63 101.17l0 48.64c2.44,-0.04 2,1.65 3.01,1.83 -3.88,14.53 -1.77,32.43 0,50.17l-4.92 -0.75c-1.08,-10.07 -2.44,-45.99 -6.41,-51.4l0 -48.27 -1.29 -1.94c-2.33,-2.58 10.51,-1.16 11.79,-0.82l-0.74 0.75 -1.44 1.79zm-5.34 2.37c0.48,-0.43 0.95,-0.68 1.43,-0.68 0.45,-0.01 0.91,0.2 1.37,0.68l0 40.31c-1.06,1.06 -1.99,1.05 -2.8,0l0 -40.31z"/>
   <path class="fil62" style="mask:url(#id18)" d="M107.29 144.81c-2.22,0.95 -3.5,0.82 -5.25,-0.01l0.04 -42.24c2.19,-0.61 3.32,-0.74 5.1,-0.19l0.11 42.44zm-1.2 -0.96c-1.05,0.78 -1.97,0.68 -2.8,0l0 -40.28c1.04,-0.5 1.96,-0.45 2.8,0l0 40.28z"/>
   <path class="fil63" style="mask:url(#id20)" d="M97.09 151.72l0.27 1c-0.77,-0.57 0.6,-7.73 3.19,-7.73 3.34,0 1.19,2.98 2.53,4.85 0.16,0.22 -0.14,2.06 0.37,-2.12 0.47,-3.78 3.07,0.52 2.88,-4.81 0,-0.02 0.24,2.82 1.96,3.95 0.65,0.42 2.26,6.27 2.53,6.31 -0.21,-0.62 5.44,-19.93 5.74,-20.54 0.04,-0.08 4.29,-26.73 4.52,-18.71 0.03,1.01 -2.12,9.8 -2.39,13.59 -0.01,0.11 -2.78,12.77 -3.02,13.59 -1.13,3.87 -1.46,8.63 -3.52,12.54 4.92,1.72 2.32,7.79 2.21,4.98 -0.06,-1.35 -0.82,2.37 -0.82,-1.12 0,-5.31 -3.89,2.91 -2.9,-1.94 0.67,-3.25 -1.81,0.61 -2.06,-2.39 -0.26,-3.33 -2.52,1.72 -5.34,-0.28 -1.82,-1.29 -1.22,-4.26 -2.55,-0.39 -3.86,1.34 -1.66,1.96 -5.91,1.79 -0.35,-0.01 -1.49,2.05 0.96,2.23 0.43,0.03 -1.12,1.03 -1.12,4.35 0,4.68 1.78,6.33 0.36,9.78 -0.39,0.95 0.16,5.44 3.25,4.12 4.51,-1.92 4.47,0.3 9.87,-0.13 0.16,-0.01 7.8,-1.15 4.76,0.78 -1.86,1.17 -2.55,-1.24 -0.13,-0.24 0,2.04 -7.45,-1.42 -9.48,1.27 -0.03,0.04 -2.71,-1.15 -3.18,-1.15 -9.59,0 -4.76,1.14 -5.8,4.14 -2.55,0.88 -2.01,-3.04 -1.29,-4.78 2.47,-6.01 -0.6,-15.08 -0.6,-21.65 0,-2.32 1.54,-1.36 1.81,-2.88 0.19,-1.08 -0.26,-3.39 -2.34,-8.99 -0.27,-0.74 -4.12,-11.97 -4.12,-12.02 1.67,0 3.96,8.47 4.85,11.34 0.26,0.86 3.88,9.78 4.51,11.26z"/>
   <g>
    <path class="fil64" d="M114.14 159.07c-0.04,-0.11 -0.26,1.87 -0.02,1.91 0.41,0.07 0.37,0.98 -0.19,0.69 -0.16,-0.08 -0.27,1.14 -0.63,1.65 -0.29,0.41 0.19,0.68 -0.58,0.68 -1.3,0 -0.2,-3.31 -0.2,-4.3 0,-0.49 0.06,-1.14 -0.01,-1.54 -0.08,-0.49 0.37,-1.13 -0.88,-0.9 0.2,1.55 -1.66,-0.41 -0.57,1.45 0.41,0.72 0.8,-0.47 0.57,2.04 -0.08,0.88 -0.27,0.96 -0.27,2.16 0,0.23 0.08,1.34 -0.07,1.35 -0.67,0.03 0.89,0.36 0.04,0.56 -0.15,0.41 -0.19,-0.02 -0.19,0.85 0,0.83 0.01,1.14 0.18,1.92 0.09,0.37 -0.15,3.34 0.47,2.88 0.31,-0.23 0.07,-4.82 0.31,-4.8 0.51,0.03 0.68,1.31 0.89,1.72 0.55,1.06 -0.04,0.81 1.1,1.49 0.13,0.08 1.12,2.98 0.81,0.64 -0.08,-0.58 -0.2,-2.19 -0.44,-2.56 -0.12,-0.19 0.29,-1.33 -0.63,-1.38 -0.46,-0.91 -0.73,-0.57 0.2,-1.12 0.32,-0.19 0.02,-0.03 0.29,-0.62 0.44,-1.01 0.36,-3.53 0.29,-4.72 -0.01,-0.11 -0.41,-0.35 -0.56,-0.05l0.09 0zm-1.82 6.05l-0.09 -0.03c-0.15,-0.1 -0.07,-0.18 -0.02,-0.32 0.04,-0.07 0.04,-0.07 0.06,-0.15 0.03,-0.12 0.12,-0.26 0.22,-0.33 0.04,-0.02 0.12,0.02 0.14,0.08 0.01,0.04 0.02,0.05 0.03,0.1 0.05,0.19 0.11,0.14 0.14,0.24 0.02,0.06 0.02,0.33 0,0.39 -0.03,0.14 -0.09,0.3 -0.29,0.19 -0.01,0 -0.16,-0.1 -0.17,-0.11 0.01,0.01 0.16,0.11 0.17,0.11l-0.19 -0.17z"/>
   </g>
   <path class="fil64" d="M116.05 179.32c-0.93,-1.71 -0.12,-4.33 -0.58,-4.71 0.31,-2.37 -1.48,-0.42 -0.25,-2.52 0.37,-0.65 -0.52,-2.45 0.69,-1.7 0.05,0.45 0.22,2.11 -0.28,2.09 -0.46,-0.01 0.54,1.2 0.54,2.18 0,1.5 0.92,0.88 0.89,2.67 -0.03,1.54 0.22,0.5 -0.81,1.67 -0.11,0.13 -0.18,0.36 -0.2,0.32z"/>
   <path class="fil64" d="M97.85 157.42c-0.96,-0.46 -0.81,-1.55 -0.19,-1.14 0.23,0.15 0.9,-0.12 0.34,0.72 -0.6,0.87 1.26,0.79 1.7,0.59 0.01,-0.01 0.18,2.6 -0.1,2.25 -0.56,-0.69 -1.75,-0.68 -1.75,-1.82 0,-0.2 0.08,-0.57 0,-0.6z"/>
   <path class="fil65" d="M94.41 195.55c0.26,0.6 -0.96,10.22 -0.96,3.69 0,-2.87 -0.18,-5.76 0.3,-8.49 0.21,-1.15 -0.35,-8.17 0.03,-8.25 0.14,-0.56 0.24,0.53 0.31,-0.93 0.03,-0.82 1.1,-2.14 1.16,-3.95 0,-0.28 1.68,-3.39 1.04,0.41 -0.18,1.06 -0.38,2.02 -0.89,2.95 -0.27,0.49 0.4,1.66 0.65,1.72 0.18,0.55 1.28,1.23 0.78,1.46 -0.16,0.63 0.76,0.33 -0.35,0.86 -0.14,1.11 1.01,0.53 0.33,2.33 -0.2,0.51 1.59,1.11 1.4,-1.47 -0.01,-0.12 0.32,-3.2 0.5,-3.46 0.33,-0.49 0.15,-3.37 1.4,-1.32 0.06,0.09 -0.88,3.16 -0.93,3.85 -0.21,3.21 -0.38,3.14 -3.41,3.49 -1.13,0.13 0.22,2.08 -0.38,2.4 -0.87,0.45 0.38,5.72 0.36,5.79 0.38,0.26 0.59,5.46 0.26,5.45 -1.41,-0.04 -0.33,-2.35 -0.74,-3.53 -0.08,-0.23 -0.85,-2.99 -0.86,-3z"/>
   <path class="fil66" d="M111.46 172.24c0,2.28 0.27,4.78 0.53,6.98 0.41,3.56 0.6,8.3 -1.21,11.32 -0.63,1.05 -3.06,-4.45 -5.24,0.51 -1.44,3.28 -7.58,0.54 -9.89,-0.1 -1.8,-0.5 -1.53,3.78 -0.72,3.76 1.68,-0.04 7.59,2.22 7.59,3.9 0,6.34 -0.69,4.57 6.89,4.57 4.43,0 2.84,1.08 4.81,-3.04 0.38,-0.8 1.32,-7.26 1.32,-8.32 0,-4.94 -2.29,-1.23 -2.29,-4.76 0,-1.48 0.21,-3.2 0.21,-5.09 0,-1.39 -2,-14.57 -2,-9.73z"/>
   <path class="fil67" d="M112.93 189c-0.76,0.4 -1,-0.72 -0.89,1.51 0.05,1.15 -1.45,-0.19 -1.56,1.01 -0.11,1.23 -2.8,-1.59 -2.37,1.12 0,0.01 1.37,1.11 0.4,1.07 -0.02,0 -1.16,-0.97 -1.41,-1.1 -0.55,-0.29 -0.86,-1.71 -1.92,0.35 -0.43,0.82 1.45,3.8 -3.72,1.28 -3.13,-1.53 -1.24,1.48 0.16,1.77 2.55,0.52 0.44,2.4 3.36,2.24 0.89,-0.05 0.2,-2.06 3.46,-0.16 0.8,0.47 -0.28,1.79 1.35,1.72 0.6,-0.83 0.04,-1.72 1.33,-1.05 0.35,0.18 -0.34,3.56 1.16,2.59 0.25,-0.16 1.78,-4.66 0.29,-4.99 -0.27,-0.74 3.64,-5.3 1.38,-6.89 -0.32,-0.23 -0.64,-0.67 -1.02,-0.47z"/>
   <path class="fil68" d="M111.57 195.34c0,0 2.43,-1.46 1.59,-4.7 -0.84,-3.24 -1.03,3.81 -1.59,4.7z"/>
   <g>
    <path class="fil69" d="M101.69 179.45c2.86,-1.4 5.68,0.59 8.99,0.61 0.6,0.68 0.52,1.89 0.43,2.95 -3.37,0.92 -6.22,1.09 -9.15,0.23 -0.51,-1.28 -0.78,-2.47 -0.27,-3.79z"/>
    <path class="fil69" d="M108.57 176.83c0.16,0.09 1.86,1.13 1.82,0.36 -0.01,-0.21 -2.17,-1.82 -1.82,-0.36z"/>
    <path class="fil69" d="M107.13 155.05c-1.4,-0.6 -1.74,0.16 -2.59,0.76 -0.39,0.27 -0.78,0.86 -0.78,0 0,-0.92 -0.45,-1.71 -1.68,-0.94 -0.66,0.41 -2.76,-0.12 -1.79,1.13 0.5,0.64 1.15,0.42 0.53,1.47 -0.16,0.27 0.18,1.35 0.88,1.4 0.55,0.03 0.35,1.66 1.86,1.66 1.12,0 0.56,0.71 2.47,-0.01 0.91,-0.34 0.52,-0.46 1.7,-0.54 0.52,-0.03 0.02,-1.74 0.4,-2.46 0.17,-0.33 0.13,-1.37 -0.09,-1.57 -0.02,-0.01 -0.97,-1.85 -0.91,-0.9z"/>
    <path class="fil69" d="M101.11 159.47c-1.17,-1.48 -2.18,0.31 0.07,1.56 2.46,1.37 2.26,0.97 3.85,1.64 0.23,0.09 3.04,-0.56 3.4,-0.82 1.15,-0.82 0.73,-0.91 1.33,-2 0.64,-1.18 -1.31,-3.98 -1.06,-1.56 0.21,1.97 -0.8,1.43 -1.9,2.57 -1.41,1.48 -0.69,0.03 -1.02,-0.1 -0.39,-0.16 -0.16,0.61 -1.06,0.51 -1.29,-0.15 -2.73,-1.26 -3.41,-1.63 -0.06,-0.03 -0.09,-0.11 -0.2,-0.17z"/>
   </g>
   <g>
    <path class="fil70" d="M116.52 181.21c-0.29,-0.04 -1.41,-1.32 -0.66,-1.4 0.63,-0.07 -0.56,-4.45 0.62,-3.2 0.53,0.55 -0.71,1.05 0.99,1.94 0.9,0.47 -0.38,0.71 -0.19,1.18 0.28,0.72 0.86,0.72 0.59,2.44 -0.05,0.3 -1.24,-0.08 -1.29,-1.09 -0.01,-0.31 -0.26,-0.11 -0.23,-0.43l0.17 0.56zm-9.58 -4.38c-1,-0.32 -1.2,1.25 -3.41,0.29 0,0 -2.49,-0.13 -2.48,0.27 0.01,0.33 0.08,1.66 0.64,0.82 0.35,-0.52 2.84,-0.63 3.09,-0.15 0.06,0.11 1.47,1.85 1.32,-0.34 -0.02,-0.15 0.36,-0.62 0.5,-0.77l0.34 -0.12zm-1.13 -2.16c-0.12,-0.98 0.05,-1.12 1.29,-1.55 0.38,-0.13 3.18,-0.45 1.75,1.1 -0.41,0.45 -3.04,0.41 -3.04,0.45zm-10.07 -18.15c-0.02,0.24 -2.58,-0.31 -1.4,-2.27 0.58,-0.98 1.67,-0.19 3.33,-0.5 2.46,-0.47 3.35,-3.11 3.87,-3.15 0.89,-0.08 0.79,2.66 2.53,2.52 2.3,-0.2 2.04,-0.06 3.12,-0.79 2.88,-1.93 0.26,1.91 3.35,1.85 0.96,-0.02 -0.43,4.01 -0.67,2.63 -0.12,-0.67 -0.13,-1.27 -1.19,-0.85 -1.48,0.59 0.22,-1.21 -2.81,-0.96 -0.98,0.09 -2.28,3.41 -2.4,0.12 -0.02,-0.41 -0.73,-0.79 -1.52,-0.24 -0.35,0.24 -0.85,0.94 -1.37,0.01 -0.33,-0.58 -0.16,-2.31 -1.29,-0.86 -0.59,0.74 1.16,1.6 -1.38,1.54 -0.82,-0.02 -0.53,0.86 -1.91,0.73 -0.22,-0.02 -0.23,-0.03 -0.26,0.22zm8.23 3.62c-1.57,-1.49 1.33,-1.41 2.02,-1.73 1.08,-0.51 2.37,0.89 -0.68,0.75 -0.54,-0.02 -1.39,0.93 -1.34,0.98z"/>
   </g>
   <path class="fil71" d="M99.37 159.61c-0.13,0.23 -0.04,1.8 -0.03,2.21 0.02,0.54 0.53,1.7 0.53,2.85 0,1.99 -0.13,2.82 0.37,4.71 0.07,0.28 0.38,3.75 0.29,3.95 -0.54,1.19 0.5,0.74 0.85,1.23 0.23,0.31 0.36,-0.57 1.2,-0.55 0.48,0.01 -0.94,-0.65 -0.97,-1.2 -0.01,-0.22 -0.48,-1.25 -0.45,-1.8 0.02,-0.57 -0.58,-2.41 -0.58,-3.77 0,-0.78 -0.02,-1.3 -0.19,-2.03 -0.07,-0.32 0.01,-1.37 -0.25,-1.93 0,-0.01 -0.06,-1.58 -0.19,-1.76 -0.34,-0.46 -0.03,-1.37 -0.47,-1.82 -0.07,-0.07 -0.08,-0.15 -0.11,-0.09z"/>
   <path class="fil71" d="M112.52 163.17c-0.05,0.03 0.88,0.5 0.81,-0.68 -0.01,-0.02 0.27,-0.86 0.25,-1.71 0,0 0.41,-1.91 0.05,-1.69 -0.09,0.97 0.01,0.28 -0.18,-0.11 -0.35,0.13 0.27,1.75 -0.16,2.45 -0.01,0.03 -0.21,1.12 -0.38,1.32 -0.23,0.28 -0.58,0.12 -0.38,0.51l-0.01 -0.09z"/>
   <polygon class="fil72" points="97.94,99.06 99.67,101.55 100.43,144.69 101.19,144.75 100.38,101.37 98.4,98.67 "/>
   <g>
    <path class="fil73" d="M100.54 98.86c-0.09,0.1 -1.35,0.26 -1.39,0.07 -0.02,-0.06 0.13,-0.33 0.31,-0.31 0,0 0.19,-0.04 0.27,-0.04 0.2,0 0.25,-0.14 0.71,-0.14 0.43,0 1.16,-0.04 1.53,-0.01 0.29,-0.13 0.43,0.13 -0.05,0.4 -0.2,0.12 -1.28,-0.02 -1.38,0.03z"/>
    <path class="fil73" d="M104.42 99.71c0.55,0 0.79,-0.05 1.4,0 0.89,0.08 2.46,0 3.06,-0.73 0,0 0.32,-0.18 0.07,-0.19 -0.06,-0.01 -0.56,0.26 -0.8,0.25 0,0 -0.45,0.1 -0.68,0.1 -0.77,0 -2.54,0.11 -3.19,-0.15 -0.13,-0.06 -0.05,-0.06 -0.1,0.24 -0.03,0.17 0.15,0.28 0.24,0.48z"/>
    <path class="fil73" d="M106.79 100.26c0.03,0 0.34,0.04 0.56,0.04 0.1,0 1.18,-0.13 1.19,-0.18 0.06,-0.29 -0.29,-0.09 -0.52,-0.09 -0.47,-0.02 -0.55,0.23 -1.23,0.15 0,0 -0.79,-0.02 -0.58,-0.02 0.2,0 0.44,0.01 0.6,0.11 0.02,0.02 -0.05,-0.01 -0.02,-0.01z"/>
    <path class="fil73" d="M108.57 101.99c0.04,-0.75 -0.44,0.91 -0.51,1.27 -0.05,0.27 -0.07,2.76 0.08,2.94 0,0 0.35,1.93 0.43,1.44 0.06,-0.41 -0.07,-2.22 -0.04,-2.63 0.1,-1.23 -0.02,-2.16 0.04,-3.02z"/>
   </g>
   <g>
    <path class="fil58" d="M103.4 99.21c0.01,-0.22 0.28,-0.52 -0.24,-0.56 -0.37,-0.02 -0.03,1.13 -0.99,1.13 -0.7,0 -0.7,0.29 -0.71,0.96 -0.01,0.41 0.34,0.93 -0.55,0.95 -0.57,0.01 0.7,0.32 0.81,0.32 0.43,-0.01 0.19,-0.01 0.6,-0.24 0.36,-0.19 0.74,0.01 1.3,0.01 0.7,0 0.92,0.14 0.84,-0.73 -0.06,-0.64 -1.42,-0.72 -0.99,-1.49 0.01,-0.03 -0.07,-0.32 -0.07,-0.35z"/>
    <path class="fil58" d="M108.42 100.58c-0.8,0 -0.38,0.91 0.06,0.65 0.01,-0.01 0.06,-0.65 -0.06,-0.65z"/>
    <path class="fil58" d="M104.55 157.5c-0.33,-0.27 -0.23,-1.08 0.71,-0.86 1.11,0.26 2.49,-1.19 2.29,0.21 -0.03,0.27 -0.52,0.61 -0.95,0.61 -0.92,0 0.24,1.01 -1.25,0.77 -0.29,-0.05 -0.8,-0.73 -0.8,-0.73z"/>
    <path class="fil58" d="M103.53 158.68c-1.17,-2.44 -3.46,-3.49 -3.26,0.56 0.07,1.36 1.37,1.36 1.67,1.99 0.29,0.03 0.5,2 1.04,0.67 0.37,-0.93 -0.29,-2.41 0.55,-3.22z"/>
    <path class="fil58" d="M112.71 160.9c-0.49,1.55 0.67,1.06 0.37,-0.03 -0.03,-0.13 -0.32,-0.13 -0.37,0.03z"/>
    <path class="fil58" d="M114.61 154.58c-1.05,-0.16 -0.18,-2.14 0.58,-1.05 0.67,0.95 -0.13,1.11 -0.58,1.05z"/>
    <path class="fil58" d="M106.26 175.53c0.93,-0.31 2.88,0.86 0.74,0.76 -1.93,-0.1 -0.72,0.58 -2.03,0.33 -1.88,-0.35 1.1,-1.02 1.29,-1.09z"/>
    <path class="fil58" d="M100.64 175.88c-0.81,0.24 0.45,1.64 0.38,0.06 0,-0.2 -0.27,-0.09 -0.38,-0.06z"/>
    <path class="fil58" d="M97.4 182.09c-0.35,0.2 -1.01,-0.03 -1.01,-0.82 0,-2.33 1.17,-1.27 1.18,-2.82 0.4,-0.2 1.95,-0.1 1.42,0.69 -0.81,1.21 0.05,1.98 -1.59,2.95z"/>
   </g>
   <path class="fil74" d="M79.98 105.3l2.37 0.13c2.41,5.87 15.85,45.27 12.38,44.3 -4.51,-12.22 -10.45,-30.68 -14.75,-44.43z"/>
   <path class="fil74" d="M110.84 152.79c2.86,-12.53 5.57,-23.56 7,-27.64 0.22,-0.13 0.64,-0.5 1.11,0.17 -1.03,8.28 -4.26,18.14 -6.87,28.39l-1.24 -0.92z"/>
   <path class="fil75" d="M72.78 85.74l21.27 62.13 0.68 1.86c0.76,0.12 0.55,-1.15 0.83,-1.73 -4.28,-21.68 -12.85,-43.22 -20.68,-63.19l-2.1 0.93z"/>
   <path class="fil75" d="M110.84 152.79c4.75,-22.82 12.6,-45.73 18.9,-68.6l2.15 0.23c-7.11,21.88 -13.4,44.95 -19.81,69.29 -0.52,-0.05 -0.85,-0.61 -1.24,-0.92z"/>
  </g>
 </g>
</svg>
