<?xml version="1.0" encoding="UTF-8"?>
<!DOCTYPE svg PUBLIC "-//W3C//DTD SVG 1.1//EN" "http://www.w3.org/Graphics/SVG/1.1/DTD/svg11.dtd">
<!-- Creator: CorelDRAW 2021.5 -->
<svg xmlns="http://www.w3.org/2000/svg" xml:space="preserve" width="205px" height="205px" version="1.1" style="shape-rendering:geometricPrecision; text-rendering:geometricPrecision; image-rendering:optimizeQuality; fill-rule:evenodd; clip-rule:evenodd"
viewBox="0 0 205 205"
 xmlns:xlink="http://www.w3.org/1999/xlink"
 xmlns:xodm="http://www.corel.com/coreldraw/odm/2003">
 <defs>
  <style type="text/css">
   <![CDATA[
    .str0 {stroke:#FEFEFE;stroke-width:0.17;stroke-miterlimit:22.9256}
    .fil67 {fill:#FEFEFE}
    .fil76 {fill:#DA9713}
    .fil47 {fill:#F0A365}
    .fil46 {fill:#C88716}
    .fil0 {fill:#1C0F05}
    .fil6 {fill:#422B04}
    .fil3 {fill:#452E05}
    .fil5 {fill:#4D3205}
    .fil7 {fill:#7D5F18}
    .fil1 {fill:#875C07}
    .fil83 {fill:#8C6E35}
    .fil65 {fill:#BC7C10}
    .fil64 {fill:#BD7D10}
    .fil63 {fill:#BD7D11}
    .fil62 {fill:#BE7E11}
    .fil4 {fill:#BE8108}
    .fil61 {fill:#BF7E12}
    .fil60 {fill:#BF7F12}
    .fil59 {fill:#C07F12}
    .fil58 {fill:#C08013}
    .fil57 {fill:#C18113}
    .fil49 {fill:#C18D25}
    .fil56 {fill:#C28113}
    .fil55 {fill:#C28214}
    .fil54 {fill:#C38214}
    .fil53 {fill:#C48315}
    .fil52 {fill:#C58415}
    .fil51 {fill:#C58416}
    .fil73 {fill:#C59636}
    .fil50 {fill:#C68516}
    .fil77 {fill:#C68C06}
    .fil80 {fill:#CB4F35}
    .fil72 {fill:#CB9B0D}
    .fil44 {fill:#D3982D}
    .fil43 {fill:#D59357}
    .fil45 {fill:#D89D01}
    .fil71 {fill:#D9C255}
    .fil75 {fill:#DEAB12}
    .fil48 {fill:#EAA166}
    .fil74 {fill:#EDB613}
    .fil82 {fill:#EDD77E}
    .fil8 {fill:#EEBF3A}
    .fil9 {fill:#F2C858}
    .fil79 {fill:#F9BB3F}
    .fil11 {fill:#FAD766}
    .fil10 {fill:#FAD96C}
    .fil66 {fill:white}
    .fil70 {fill:white;fill-opacity:0.149020}
    .fil68 {fill:#FEFEFE;fill-opacity:0.211765}
    .fil84 {fill:#D9C255;fill-opacity:0.309804}
    .fil78 {fill:#FCE53D;fill-opacity:0.368627}
    .fil69 {fill:#F9D04D;fill-opacity:0.439216}
    .fil2 {fill:#875C07;fill-opacity:0.450980}
    .fil81 {fill:#EFD982;fill-opacity:0.501961}
    .fil42 {fill:#FDEFC3;fill-opacity:0.501961}
    .fil41 {fill:#FDEEC0;fill-opacity:0.517647}
    .fil40 {fill:#FDEDBD;fill-opacity:0.533333}
    .fil39 {fill:#FDEDBA;fill-opacity:0.549020}
    .fil38 {fill:#FDECB7;fill-opacity:0.564706}
    .fil37 {fill:#FDEBB4;fill-opacity:0.580392}
    .fil36 {fill:#FCEAB1;fill-opacity:0.596078}
    .fil35 {fill:#FCEAAE;fill-opacity:0.611765}
    .fil34 {fill:#FCE9AB;fill-opacity:0.627451}
    .fil33 {fill:#FCE8A8;fill-opacity:0.647059}
    .fil32 {fill:#FCE7A5;fill-opacity:0.662745}
    .fil31 {fill:#FCE6A2;fill-opacity:0.678431}
    .fil30 {fill:#FCE69F;fill-opacity:0.694118}
    .fil29 {fill:#FCE59C;fill-opacity:0.709804}
    .fil28 {fill:#FCE499;fill-opacity:0.725490}
    .fil27 {fill:#FCE396;fill-opacity:0.741176}
    .fil26 {fill:#FBE393;fill-opacity:0.756863}
    .fil25 {fill:#FBE290;fill-opacity:0.772549}
    .fil24 {fill:#FBE18D;fill-opacity:0.792157}
    .fil23 {fill:#FBE08A;fill-opacity:0.807843}
    .fil22 {fill:#FBE087;fill-opacity:0.823529}
    .fil21 {fill:#FBDF84;fill-opacity:0.839216}
    .fil20 {fill:#FBDE81;fill-opacity:0.854902}
    .fil19 {fill:#FBDD7E;fill-opacity:0.870588}
    .fil18 {fill:#FBDC7B;fill-opacity:0.886275}
    .fil17 {fill:#FBDC78;fill-opacity:0.901961}
    .fil16 {fill:#FADB75;fill-opacity:0.917647}
    .fil15 {fill:#FADA72;fill-opacity:0.937255}
    .fil14 {fill:#FAD96F;fill-opacity:0.952941}
    .fil13 {fill:#FAD96C;fill-opacity:0.968627}
    .fil12 {fill:#FAD869;fill-opacity:0.984314}
   ]]>
  </style>
    <mask id="id0">
  <linearGradient id="id1" gradientUnits="userSpaceOnUse" x1="101.68" y1="171.53" x2="104.09" y2="213.56">
   <stop offset="0" style="stop-opacity:1; stop-color:white"/>
   <stop offset="0.180392" style="stop-opacity:0.501961; stop-color:white"/>
   <stop offset="1" style="stop-opacity:0; stop-color:white"/>
  </linearGradient>
     <rect style="fill:url(#id1)" x="90.19" y="194.33" width="27.66" height="3.97"/>
    </mask>
    <mask id="id2">
  <linearGradient id="id3" gradientUnits="userSpaceOnUse" x1="75.78" y1="176.81" x2="93.95" y2="179.62">
   <stop offset="0" style="stop-opacity:1; stop-color:white"/>
   <stop offset="1" style="stop-opacity:0; stop-color:white"/>
  </linearGradient>
     <rect style="fill:url(#id3)" x="79.68" y="185.94" width="11.93" height="6.33"/>
    </mask>
    <mask id="id4">
  <linearGradient id="id5" gradientUnits="userSpaceOnUse" x1="127.39" y1="173.69" x2="108.8" y2="178.68">
   <stop offset="0" style="stop-opacity:1; stop-color:white"/>
   <stop offset="1" style="stop-opacity:0; stop-color:white"/>
  </linearGradient>
     <rect style="fill:url(#id5)" x="108.73" y="186.66" width="16.5" height="5.99"/>
    </mask>
    <mask id="id6">
  <linearGradient id="id7" gradientUnits="userSpaceOnUse" x1="127.39" y1="173.69" x2="108.8" y2="178.68">
   <stop offset="0" style="stop-opacity:1; stop-color:white"/>
   <stop offset="1" style="stop-opacity:0; stop-color:white"/>
  </linearGradient>
     <rect style="fill:url(#id7)" x="110.66" y="178.35" width="15.81" height="8.92"/>
    </mask>
    <mask id="id8">
  <linearGradient id="id9" gradientUnits="userSpaceOnUse" x1="127.48" y1="173.67" x2="108.81" y2="178.67">
   <stop offset="0" style="stop-opacity:1; stop-color:white"/>
   <stop offset="1" style="stop-opacity:0; stop-color:white"/>
  </linearGradient>
     <rect style="fill:url(#id9)" x="104.97" y="169.98" width="22.01" height="8.69"/>
    </mask>
    <mask id="id10">
  <linearGradient id="id11" gradientUnits="userSpaceOnUse" x1="76.07" y1="176.85" x2="93.99" y2="179.59">
   <stop offset="0" style="stop-opacity:1; stop-color:white"/>
   <stop offset="1" style="stop-opacity:0; stop-color:white"/>
  </linearGradient>
     <rect style="fill:url(#id11)" x="76.99" y="169.38" width="20.02" height="8.97"/>
    </mask>
    <mask id="id12">
  <linearGradient id="id13" gradientUnits="userSpaceOnUse" x1="75.78" y1="176.81" x2="93.95" y2="179.62">
   <stop offset="0" style="stop-opacity:1; stop-color:white"/>
   <stop offset="1" style="stop-opacity:0; stop-color:white"/>
  </linearGradient>
     <rect style="fill:url(#id13)" x="76.54" y="162.32" width="27.29" height="10.44"/>
    </mask>
    <mask id="id14">
  <linearGradient id="id15" gradientUnits="userSpaceOnUse" x1="127.39" y1="173.69" x2="108.8" y2="178.68">
   <stop offset="0" style="stop-opacity:1; stop-color:white"/>
   <stop offset="1" style="stop-opacity:0; stop-color:white"/>
  </linearGradient>
     <rect style="fill:url(#id15)" x="109.98" y="163.13" width="16.43" height="8.96"/>
    </mask>
    <mask id="id16">
  <linearGradient id="id17" gradientUnits="userSpaceOnUse" x1="75.77" y1="176.79" x2="93.95" y2="179.61">
   <stop offset="0" style="stop-opacity:1; stop-color:white"/>
   <stop offset="1" style="stop-opacity:0; stop-color:white"/>
  </linearGradient>
     <rect style="fill:url(#id17)" x="77.36" y="177.67" width="13.39" height="7.79"/>
    </mask>
    <mask id="id18">
  <linearGradient id="id19" gradientUnits="userSpaceOnUse" x1="74.24" y1="159.01" x2="93.94" y2="164.33">
   <stop offset="0" style="stop-opacity:1; stop-color:white"/>
   <stop offset="1" style="stop-opacity:0; stop-color:white"/>
  </linearGradient>
     <rect style="fill:url(#id19)" x="76.47" y="158.6" width="26.99" height="6.24"/>
    </mask>
    <mask id="id20">
  <linearGradient id="id21" gradientUnits="userSpaceOnUse" x1="127.12" y1="160.15" x2="114.85" y2="163.64">
   <stop offset="0" style="stop-opacity:1; stop-color:white"/>
   <stop offset="1" style="stop-opacity:0; stop-color:white"/>
  </linearGradient>
     <rect style="fill:url(#id21)" x="105.61" y="159.12" width="22.45" height="5.6"/>
    </mask>
    <mask id="id22">
  <linearGradient id="id23" gradientUnits="userSpaceOnUse" x1="101.68" y1="171.53" x2="104.09" y2="213.56">
   <stop offset="0" style="stop-opacity:1; stop-color:white"/>
   <stop offset="0.180392" style="stop-opacity:0.501961; stop-color:white"/>
   <stop offset="1" style="stop-opacity:0; stop-color:white"/>
  </linearGradient>
     <rect style="fill:url(#id23)" x="93.34" y="188" width="17.91" height="1.5"/>
    </mask>
    <mask id="id24">
  <linearGradient id="id25" gradientUnits="userSpaceOnUse" x1="112.95" y1="-11.96" x2="107.63" y2="44.86">
   <stop offset="0" style="stop-opacity:0; stop-color:white"/>
   <stop offset="0.4" style="stop-opacity:0.501961; stop-color:white"/>
   <stop offset="1" style="stop-opacity:1; stop-color:white"/>
  </linearGradient>
     <rect style="fill:url(#id25)" x="45.21" y="2.93" width="114.38" height="59.13"/>
    </mask>
    <mask id="id26">
  <linearGradient id="id27" gradientUnits="userSpaceOnUse" x1="72.32" y1="-10.61" x2="91.33" y2="30.67">
   <stop offset="0" style="stop-opacity:0; stop-color:white"/>
   <stop offset="0.45098" style="stop-opacity:0.501961; stop-color:white"/>
   <stop offset="1" style="stop-opacity:1; stop-color:white"/>
  </linearGradient>
     <rect style="fill:url(#id27)" x="42.42" y="-0.35" width="119.78" height="59.13"/>
    </mask>
    <mask id="id28">
  <linearGradient id="id29" gradientUnits="userSpaceOnUse" x1="108.67" y1="167.92" x2="110.38" y2="104.29">
   <stop offset="0" style="stop-opacity:1; stop-color:white"/>
   <stop offset="0.258824" style="stop-opacity:0.501961; stop-color:white"/>
   <stop offset="1" style="stop-opacity:0; stop-color:white"/>
  </linearGradient>
     <rect style="fill:url(#id29)" x="66.62" y="107.19" width="16.15" height="49.55"/>
    </mask>
    <mask id="id30">
  <linearGradient id="id31" gradientUnits="userSpaceOnUse" x1="108.67" y1="167.92" x2="110.38" y2="104.29">
   <stop offset="0" style="stop-opacity:1; stop-color:white"/>
   <stop offset="0.258824" style="stop-opacity:0.501961; stop-color:white"/>
   <stop offset="1" style="stop-opacity:0; stop-color:white"/>
  </linearGradient>
     <rect style="fill:url(#id31)" x="81.29" y="97.5" width="63.21" height="64.94"/>
    </mask>
    <mask id="id32">
  <linearGradient id="id33" gradientUnits="userSpaceOnUse" x1="106.57" y1="173.42" x2="108.51" y2="50.24">
   <stop offset="0" style="stop-opacity:1; stop-color:white"/>
   <stop offset="0.25098" style="stop-opacity:0.501961; stop-color:white"/>
   <stop offset="1" style="stop-opacity:0; stop-color:white"/>
  </linearGradient>
     <rect style="fill:url(#id33)" x="46.58" y="73.47" width="55.31" height="78.21"/>
    </mask>
    <mask id="id34">
  <linearGradient id="id35" gradientUnits="userSpaceOnUse" x1="106.57" y1="173.42" x2="108.51" y2="50.24">
   <stop offset="0" style="stop-opacity:1; stop-color:white"/>
   <stop offset="0.25098" style="stop-opacity:0.501961; stop-color:white"/>
   <stop offset="1" style="stop-opacity:0; stop-color:white"/>
  </linearGradient>
     <rect style="fill:url(#id35)" x="110.9" y="98.2" width="35.51" height="54.87"/>
    </mask>
    <mask id="id36">
  <linearGradient id="id37" gradientUnits="userSpaceOnUse" x1="103.95" y1="171.98" x2="102.57" y2="62.95">
   <stop offset="0" style="stop-opacity:0; stop-color:white"/>
   <stop offset="0.619608" style="stop-opacity:0.501961; stop-color:white"/>
   <stop offset="1" style="stop-opacity:1; stop-color:white"/>
  </linearGradient>
     <rect style="fill:url(#id37)" x="110.31" y="95.57" width="37.14" height="58.83"/>
    </mask>
    <mask id="id38">
  <linearGradient id="id39" gradientUnits="userSpaceOnUse" x1="103.95" y1="171.98" x2="102.57" y2="62.95">
   <stop offset="0" style="stop-opacity:0; stop-color:white"/>
   <stop offset="0.619608" style="stop-opacity:0.501961; stop-color:white"/>
   <stop offset="1" style="stop-opacity:1; stop-color:white"/>
  </linearGradient>
     <rect style="fill:url(#id39)" x="47.73" y="77.31" width="49.65" height="72.61"/>
    </mask>
    <mask id="id40">
  <linearGradient id="id41" gradientUnits="userSpaceOnUse" x1="26.69" y1="12.87" x2="85.11" y2="40.53">
   <stop offset="0" style="stop-opacity:1; stop-color:white"/>
   <stop offset="0.458824" style="stop-opacity:0.501961; stop-color:white"/>
   <stop offset="1" style="stop-opacity:0; stop-color:white"/>
  </linearGradient>
     <rect style="fill:url(#id41)" x="42.26" y="1.48" width="79.7" height="69.71"/>
    </mask>
    <mask id="id42">
  <linearGradient id="id43" gradientUnits="userSpaceOnUse" x1="102.2" y1="76.63" x2="103.16" y2="121.73">
   <stop offset="0" style="stop-opacity:0; stop-color:white"/>
   <stop offset="0.2" style="stop-opacity:0.501961; stop-color:white"/>
   <stop offset="1" style="stop-opacity:1; stop-color:white"/>
  </linearGradient>
     <rect style="fill:url(#id43)" x="100.46" y="81.57" width="4.22" height="34.95"/>
    </mask>
    <mask id="id44">
  <linearGradient id="id45" gradientUnits="userSpaceOnUse" x1="102.49" y1="155.09" x2="102.57" y2="99.04">
   <stop offset="0" style="stop-opacity:1; stop-color:white"/>
   <stop offset="0.129412" style="stop-opacity:0.501961; stop-color:white"/>
   <stop offset="1" style="stop-opacity:0; stop-color:white"/>
  </linearGradient>
     <rect style="fill:url(#id45)" x="88.94" y="89.93" width="26.83" height="54.02"/>
    </mask>
    <mask id="id46">
  <linearGradient id="id47" gradientUnits="userSpaceOnUse" x1="92.79" y1="92.92" x2="105.76" y2="116.54">
   <stop offset="0" style="stop-opacity:1; stop-color:white"/>
   <stop offset="0.239216" style="stop-opacity:0.501961; stop-color:white"/>
   <stop offset="1" style="stop-opacity:0; stop-color:white"/>
  </linearGradient>
     <rect style="fill:url(#id47)" x="75.01" y="57.65" width="50.79" height="52.69"/>
    </mask>
 </defs>
 <g id="Слой_x0020_1">
  <metadata id="CorelCorpID_0Corel-Layer"/>
  <g id="цоколь">
   <path class="fil0" d="M75.67 157.51c0.96,0.42 1.64,5.67 0.64,7.35 -1.35,2.25 3.5,4.58 0.86,6.14 -0.02,0.02 -1.03,3.33 0.01,3.96 0.74,0.44 1.62,1.2 0.92,2.1 -0.01,0.01 -0.73,1.26 -1.18,1.85 -0.19,0.25 -0.63,1.67 -0.23,2.09 0.51,0.53 1.09,1.67 2.53,1.74 1,0.04 0.95,1.98 -0.18,2.89 -0.45,0.36 -0.56,2.97 0.92,4.02 0.9,0.65 0.59,2.23 2.12,3.84 0.46,0.47 7.66,3.68 8.17,4.12 2.69,2.38 1.41,1.63 1.84,3.54 0.58,2.54 16.88,3.85 20.29,1.84 0.33,-0.19 2.53,-1.34 2.49,-2.97 -0.04,-2.04 3.97,-2.53 4.82,-3.74 0.01,-0.02 3.89,-1.91 4.32,-2.4 0.42,-0.47 1.26,-0.51 0.64,-1.87 -0.86,-1.89 3.97,-2.65 1.92,-5.7 -1.77,-2.63 0.13,-2.95 1.01,-4.08 3.16,-4.11 -2.9,-3.03 -0.64,-6.56 3.73,-5.86 -3.88,-2.66 -0.08,-7.06 3.07,-3.56 -1.61,-3.35 0.1,-6.03 0.09,-0.16 2.45,-5.51 2.06,-5.21 -1.16,0.88 -1.93,1.48 -5.04,2.88 -0.05,0.03 -0.11,0.04 -0.17,0.06 -10.43,3.37 -33.88,5.38 -48.14,-2.8z"/>
   <path class="fil1" style="mask:url(#id0)" d="M91.32 194.47c-6.49,1.49 16.6,7.29 26.38,0.85 0.58,-0.38 -0.68,-1.4 -2.2,-0.81 -5.5,2.12 -17.54,0.68 -24.18,-0.04z"/>
   <path class="fil1" style="mask:url(#id2)" d="M80.96 189.06c-0.39,-0.02 -0.04,-1.03 -0.71,-1.65 -0.16,-0.14 -0.07,-0.44 -0.34,-0.64 -0.61,-0.44 0.11,-1.19 0.94,-0.63 0.19,0.13 1.94,0.79 2.22,0.83 0.47,0.06 0.96,-0.1 1.58,0.25 0.01,0 0.87,0.22 1.08,0.31 0,0.01 1.01,0.24 1.23,0.32 0.36,0.15 1.25,0.27 1.69,0.59 0.08,0.05 1.56,0.47 1.64,0.82 0.18,0.79 1.55,2.36 1.29,2.9 -0.21,0.42 -2.66,-0.45 -3.02,-0.45 -0.18,0 -2.54,-0.17 -2.6,-0.2 -0.21,-0.09 -2.28,-0.79 -2.41,-0.79 -0.56,0.04 -1.63,-0.15 -1.62,-0.88 0.01,-0.25 -0.71,-0.6 -0.97,-0.78z"/>
   <path class="fil1" style="mask:url(#id4)" d="M125.23 186.94c-0.48,-0.07 -0.4,-0.46 -1.63,-0.19 -0.74,0.16 -4.04,0.91 -4.47,1.18 -0.01,0.01 -2.36,0.51 -2.69,0.64 -0.9,0.38 -2.43,0.62 -3.45,0.64 -0.59,0.02 -3.95,0.33 -4.15,0.75 -0.17,0.36 -0.19,0.84 0.26,0.98 1.23,0.37 1.58,-0.88 4.13,0.08 0.22,0.08 0.49,0.56 -0.35,0.65 -0.81,0.08 -1.14,1 -0.12,0.98 0.54,-0.01 1.06,-0.24 2,-0.25 0.77,0 8.66,-0.84 7.9,-1.98 -0.28,-0.41 1.56,-0.29 1.53,-1.26 -0.02,-1.03 1.1,-2.21 1.04,-2.22z"/>
   <path class="fil1" style="mask:url(#id6)" d="M111.02 183.47c-0.36,0.07 -0.81,2.67 0.67,3.28 0.84,0.34 1.11,0.58 2.17,0.51 0.56,-0.04 3.07,-1.01 3.55,-1.37 0.26,-0.2 2.22,0.03 3.31,-0.65 0.61,-0.38 2.07,-0.86 3.07,-1.51 0.73,-0.47 0.77,-1.45 0.57,-1.84 -0.2,-0.39 1.55,-1.55 1.72,-1.9 0.44,-0.89 0.79,-1.61 -0.61,-1.64 -0.16,0 -1.52,0.99 -2.2,1.15 -0.54,0.13 -2.35,1.08 -3.17,1.3 -1.79,0.47 -7.32,1.66 -9.08,2.67z"/>
   <path class="fil1" style="mask:url(#id8)" d="M119.56 176.67c-1.03,0.02 0.13,-0.89 1.08,-1 0.2,-0.02 2.28,-1.23 3.24,-1.44 0.68,-0.15 2.6,-1.09 2.96,-1.75 0.66,-1.2 -1.28,-1.06 -1.07,-2.08 0.11,-0.49 -0.28,-0.59 -0.83,-0.08 -0.27,0.25 -1.89,1.07 -2.29,1.16 -1.66,0.4 -3.67,1.61 -5.59,1.44 -0.74,-0.06 -0.2,0.53 0.67,0.45 0.1,-0.01 0.36,0.5 -1.22,0.49 -0.74,0 -2.02,0.51 -3.19,0.54 -0.27,0.01 -2.12,0.16 -2.14,0.05 -0.05,-0.52 1.54,-0.54 1.16,-0.74 -0.04,-0.02 -0.92,0.27 -1.09,0.27 -0.58,0.02 -6.12,0.16 -6.25,0.42 -0.48,0.92 5.03,0.67 5.49,0.49 0.25,-0.1 4.68,-0.22 4.96,-0.13 0.71,0.22 -1.53,0.6 -1.64,0.63 -0.23,0.05 -5.06,0.89 -5.07,1.16 -0.03,1.27 2.15,0.57 3.14,0.89 0.04,0.01 0.59,0.04 0.26,0.53 -0.71,1.04 1.57,0.66 2.02,0.5 0.33,-0.12 3.42,-0.11 4.55,-0.41 0.4,-0.11 2.15,-0.46 2.19,-0.49 0.75,-0.47 2.49,-0.62 3.3,-1.16 0.17,-0.11 3.54,-1.85 1.38,-1.63 -0.03,0 -1.68,0.89 -2.01,1 -0.35,0.11 -0.71,0.37 -1.24,0.47 -0.61,0.13 -1.84,0.5 -2.77,0.42z"/>
   <path class="fil1" style="mask:url(#id10)" d="M80.22 173.72c-0.69,-0.25 -2.85,-1.03 -3.14,-1.76 -0.13,-0.34 -0.14,-0.64 0.06,-1 0.06,-0.11 0.36,-0.19 0.57,-0.49 0.01,-0.02 0.35,-0.32 0.14,-1.07 -0.02,-0.09 0.21,0.11 0.37,0.26 0.29,0.25 2.89,1.23 3.31,1.33 1.77,0.4 5.17,1.76 7.2,1.63 0.83,-0.05 -0.98,0.39 -1.98,0.28 -0.11,-0.01 -0.29,-0.07 1.29,0.5 1.7,0.62 4.76,1.23 2.84,-0.09 -0.05,-0.03 0.12,0 0.18,0 0.87,0.01 1.82,0.24 2.55,0.41 1.07,0.26 2.66,0.19 3.19,0.46 0.94,0.48 -1.61,0.17 -2.26,0.41 -2.75,1.02 -5.11,-0.44 -5.38,-0.29 -1.34,0.78 7.4,2.04 7.5,2.08 1.07,0.45 -2.75,0.95 -3.71,0.62 -0.73,-0.25 -3.74,-0.18 -0.28,0.53 3.05,0.63 -0.71,1.01 -2.03,0.72 -0.37,-0.07 -3.75,-0.36 -4.94,-0.66 -0.42,-0.11 -2.29,-0.48 -2.32,-0.5 -0.8,-0.48 -2.64,-0.64 -3.51,-1.18 -0.18,-0.11 -3.75,-1.87 -1.46,-1.64 0.04,0 1.78,0.9 2.14,1 0.37,0.12 0.77,0.31 1.31,0.49 3.73,1.22 -0.4,-1.59 -1.64,-2.04z"/>
   <path class="fil2" d="M102.94 177.33c2.29,-0.06 4.13,-0.01 4.13,0.12 0.01,0.14 -1.97,0.4 -4.26,0.45 -2.28,0.06 -4.31,-0.52 -4.31,-0.66 0,-0.13 2.15,0.14 4.44,0.09z"/>
   <path class="fil3" style="mask:url(#id12)" d="M103.81 172.69c-2.59,0.06 -2.95,0.17 -5.88,-0.12 -1.03,-0.11 -2.66,0.11 -4,-0.16 -1.19,-0.24 -3.96,-0.65 -4.91,-1.07 -0.12,-0.05 -3.21,-0.76 -3.49,-0.8 -0.72,-0.09 -4.67,-1.21 -5.03,-1.66 -0.24,-0.3 -0.88,-1.37 -1.8,-1.96 -1.47,-0.93 -2.96,-1.37 -1.66,-3.41 0.63,-0.99 2.37,1.14 2.84,1.47 0.03,0.02 1.22,1.36 1.61,1.39 0.66,0.05 0.75,0.63 0.43,-1.22 -0.13,-0.69 -0.51,-1.13 0.59,-1.06 0.47,0.03 0.35,-0.51 -0.01,-0.57 -0.45,-0.08 -0.94,-1.16 -0.09,-0.66 0.1,0.06 -0.13,-1.23 1.12,-0.01 0.39,0.38 0.56,0.65 0.87,1.04 0.18,0.24 0.32,1.68 -0.76,0.58 -0.2,-0.21 -0.89,0.49 0.08,1.24 0.88,0.68 -1.26,2.01 2.28,1.78 0.3,-0.02 0.97,1 2.43,0.96 0.02,0 4.71,0.93 4.78,0.96 2.6,1.17 3.92,0.25 6.08,0.81 0.32,0.08 2.64,-0.16 2.86,0.13 0.52,-0.08 1.5,0.07 1.62,0.64 0.12,0.55 0.02,1.17 0.04,1.7z"/>
   <path class="fil3" style="mask:url(#id14)" d="M109.98 170.11c0.02,-0.01 0.32,2.01 0.51,1.98 1.4,-0.18 6.86,-0.79 7.1,-0.82 0.72,-0.09 4.64,-1.19 5,-1.62 0.24,-0.3 0.88,-1.36 1.79,-1.94 1.46,-0.92 2.42,-1.37 1.89,-3.71 -0.51,-2.24 -4.33,2.49 -4.65,3.15 -0.28,0.59 -1.05,0.49 -0.54,-1.26 0.19,-0.67 0.63,-1.07 -0.46,-1 -0.46,0.03 -0.34,-0.51 0.02,-0.57 0.44,-0.08 0.93,-1.15 0.08,-0.66 -0.1,0.06 0.14,-1.21 -1.1,-0.01 -0.4,0.38 -0.57,0.64 -0.87,1.03 -0.19,0.24 -0.33,1.66 0.75,0.57 0.2,-0.2 0.88,0.49 -0.09,1.24 -0.87,0.67 1.3,2.15 -2.21,1.9 -0.21,-0.01 -7.1,1.67 -7.22,1.72z"/>
   <path class="fil1" style="mask:url(#id16)" d="M78.06 179.59c-0.21,-0.01 -0.58,-0.63 -0.67,-1.15 -0.01,-0.03 -0.04,-0.07 -0.02,-0.1 0.22,-0.37 0.18,-0.29 0.41,-0.65 0.02,-0.03 0.08,0 0.13,0 0.03,0 0.07,0.01 0.11,0.02 1.34,0.24 1.85,0.8 3.14,1.25 0.29,0.1 2.31,0.86 2.41,0.94 0.95,0.81 2.46,0.79 3.56,1.18 1.24,0.44 2.43,0.45 3.54,1.49 0.21,0.2 0.02,2.27 -0.61,2.55 -1.65,0.71 -1.25,0.1 -2.62,-0.12 -0.23,-0.04 -0.8,-0.33 -1.27,-0.3 -0.63,0.04 -2.23,-0.43 -2.86,-0.61 -0.94,-0.27 -1.66,-0.44 -2.53,-0.97 -1.05,-0.64 -1.47,-0.46 -1.47,-1.73 0,-0.19 0.86,-0.6 -0.64,-0.98 -0.34,-0.08 -0.03,-0.34 -0.61,-0.82z"/>
   <path class="fil4" style="mask:url(#id18)" d="M78.78 160.87c-1.07,-0.83 -1.05,-0.29 -1.82,-1.47 -0.52,-0.81 -1.03,-1.12 0.7,-0.37 0.44,0.18 0.89,0.55 1.65,0.76 1.4,0.37 2.64,1.15 4.24,1.48 0.77,0.16 2.95,0.82 3.58,0.82 0.61,0 1.39,0.47 2.06,0.43 0.02,0 0.61,0.13 0.75,0.12 0.97,-0.07 2.74,0.58 4.08,0.51 0.2,-0.01 2.31,0.38 2.97,0.39 0.36,0 0.57,0.14 1.23,0.12 0.85,-0.02 2.05,-0.02 2.86,0.11 0.2,0.03 2.38,0.04 2.38,0.14 0,0.28 -0.27,0.93 -0.54,0.93 -0.65,0.02 -1.53,-0.12 -2.26,-0.1 -0.51,0.01 -1.36,-0.03 -1.83,-0.13 -1.11,-0.25 -2.59,0.08 -3.79,-0.08 -0.73,-0.1 -1.45,-0.33 -2.2,-0.28 -0.02,0 -1.26,-0.15 -1.53,-0.16 -0.17,-0.01 -5.17,-0.94 -5.37,-1.01 -0.39,-0.14 -0.87,0.02 -1.82,-0.45 -0.02,-0.01 -1.16,-0.34 -1.33,-0.4 -0.58,-0.19 -3.92,-1.29 -4.01,-1.36z"/>
   <path class="fil4" style="mask:url(#id20)" d="M125.82 161.31c1.01,-0.42 3.49,-2.79 1.47,-2.04 -4.46,1.68 -6.6,3.25 -17.5,4.6 -0.67,0.08 -1.63,-0.06 -2.28,0.03 -0.15,0.02 -1.89,-0.02 -1.89,0.06 -0.02,0.22 0.19,0.74 0.41,0.75 0.51,0.03 1.22,-0.06 1.8,-0.03 0.4,0.02 1.8,-0.22 1.46,-0.07 -1.16,0.51 10.59,-1.2 16.53,-3.3z"/>
   <path class="fil1" style="mask:url(#id22)" d="M102.61 188.26c4.78,-0.11 8.63,-0.02 8.64,0.28 0.01,0.29 -4.12,0.84 -8.9,0.95 -4.78,0.12 -9.01,-1.12 -9.01,-1.41 -0.01,-0.29 4.49,0.29 9.27,0.18z"/>
   <path class="fil5" d="M79.51 166.61c-0.82,-0.01 -2.65,-1.73 -0.26,-1.62 0.66,0.03 1.46,1.63 0.26,1.62z"/>
   <path class="fil5" d="M124.61 164.44c-0.32,0.51 -0.94,0.68 -0.66,1.89 0.8,0.24 2.34,-1.08 1.25,-1.87 -0.09,-0.06 -0.46,-0.03 -0.59,-0.02z"/>
   <g>
    <g>
     <path class="fil6" d="M82.3 187.72c0.61,-0.99 10.83,1.68 10.97,2.22 0.33,1.3 -3.3,0.96 -3.64,0.95 -0.23,0 -8.39,-1.45 -7.33,-3.17z"/>
     <path class="fil7" d="M83.01 188.05c0.02,-0.4 1.53,-0.06 1.81,0.07 0.61,0.27 8.71,1.28 7.29,2.23 -1.32,0.89 -9.17,-0.91 -9.1,-2.3z"/>
     <path class="fil8" d="M86.91 189.1c0.4,-0.03 2.4,0.54 2.99,0.74 0.15,1.05 -4.73,-0.63 -2.99,-0.74z"/>
    </g>
    <g>
     <path class="fil6" d="M86.62 190.64c0.31,0.06 6.07,1.44 4.3,1.48 -0.4,0.01 -0.57,0.09 -1,0.1 -0.67,0.01 -6.74,-0.83 -6.22,-1.68 1.1,-0.12 1.81,-0.12 2.92,0.1z"/>
     <path class="fil7" d="M85.01 190.77c-0.38,0.51 3.49,1.24 3.81,1.15 0.14,-0.03 0.97,0.04 0.69,-0.21 -0.16,-0.14 -2.4,-0.65 -2.7,-0.81 -0.25,-0.13 -1.48,-0.28 -1.8,-0.13z"/>
     <path class="fil8" d="M86.91 191.14c-0.09,-0.01 -0.57,-0.15 -0.56,0.01 0.01,0.53 2.99,0.7 2.05,0.33 -0.84,-0.33 -0.88,-0.21 -1.49,-0.34z"/>
    </g>
    <g>
     <path class="fil6" d="M80.61 179.91c0.21,-1.23 12.29,2.91 12,3.42 -0.47,0.84 -3.99,0.01 -3.67,0.53 0.21,0.34 1.87,0.56 1.95,0.98 0.17,0.91 -9.42,-0.68 -9.24,-2.02 0.05,-0.38 2.4,0.28 2.59,-0.08 0.32,-0.63 -3.92,-1.21 -3.63,-2.83z"/>
     <path class="fil7" d="M82.59 183.2c-0.4,-0.31 4.12,0.74 4.08,0.16 -0.01,-0.13 -5.35,-2.7 -5.4,-2.98 -0.12,-0.67 10.36,2.22 10.27,2.88 -0.04,0.31 -3.08,0.3 -3.32,0.24 -0.33,-0.08 -0.43,0.45 0.57,0.55 0.33,0.04 1.54,0.33 1.38,0.81 -0.17,0.49 -6.67,-0.94 -7.58,-1.66z"/>
     <path class="fil8" d="M85.51 183.69c0.35,-0.16 0.93,0.23 1.38,-0.15 0.22,-0.18 0.03,-0.51 -0.24,-0.59 -0.37,-0.12 -1.31,-0.66 -1.28,-1.1 1.15,-0.26 4.48,0.69 4.6,1.11 -0.77,0.5 -2.75,-0.08 -2.5,0.71 0.08,0.23 0.99,0.44 1,0.62 0.01,0.39 -4.21,-0.01 -2.96,-0.6z"/>
    </g>
    <g>
     <path class="fil6" d="M80.05 175.68c-0.27,-0.93 12.49,0.51 10.67,1.88 -0.71,0.53 -10.31,-0.63 -10.67,-1.88z"/>
     <path class="fil7" d="M81.23 175.74c0.01,-0.18 8.77,0.6 8.85,1.32 0.11,1 -8.93,-0.49 -8.85,-1.32z"/>
     <path class="fil8" d="M83.65 176.29c-1.17,-0.62 2.57,0 2.98,0.2 1.1,0.52 -2.46,0.07 -2.98,-0.2z"/>
    </g>
    <g>
     <path class="fil6" d="M91.37 175.65c0.02,-0.54 -9.53,-3.39 -9.52,-2.71 0.05,2.2 9.47,4.56 9.52,2.71z"/>
     <path class="fil7" d="M82.2 173.16c0.52,-0.32 8,2.07 8.71,2.46 0.04,0.02 -0.01,0.1 -0.03,0.14 -0.56,1.09 -7.89,-0.97 -8.63,-2.42 -0.03,-0.06 -0.11,-0.15 -0.05,-0.18z"/>
     <path class="fil8" d="M84.48 174.15c0.33,-0.04 5.26,1.15 5.21,1.36 -0.2,0.76 -6.04,-1.27 -5.21,-1.36z"/>
    </g>
    <g>
     <path class="fil6" d="M123.99 175.8c0.19,-0.81 -10.61,1.05 -8.99,2.13 0.63,0.41 8.75,-1.05 8.99,-2.13z"/>
     <path class="fil7" d="M122.99 175.91c-0.02,-0.15 -7.44,0.94 -7.47,1.56 -0.05,0.86 7.58,-0.86 7.47,-1.56z"/>
     <path class="fil8" d="M120.96 176.49c0.97,-0.58 -2.19,0.14 -2.54,0.32 -0.91,0.5 2.1,-0.06 2.54,-0.32z"/>
    </g>
    <g>
     <path class="fil6" d="M113.06 175.91c0,-0.54 9.59,-3.25 9.56,-2.57 -0.08,2.2 -9.54,4.42 -9.56,2.57z"/>
     <path class="fil7" d="M122.28 173.55c-0.52,-0.32 -8.04,1.95 -8.75,2.33 -0.05,0.03 0.01,0.1 0.03,0.15 0.54,1.09 7.9,-0.85 8.66,-2.3 0.03,-0.06 0.11,-0.14 0.06,-0.18z"/>
     <path class="fil8" d="M119.98 174.51c-0.34,-0.05 -5.28,1.08 -5.23,1.28 0.19,0.77 6.05,-1.17 5.23,-1.28z"/>
    </g>
    <g>
     <path class="fil6" d="M125.02 180.7c-0.17,-1.23 -12.4,2.43 -12.13,2.96 0.44,0.86 3.99,0.17 3.65,0.67 -0.22,0.33 -1.9,0.49 -1.99,0.9 -0.21,0.9 9.44,-0.32 9.31,-1.66 -0.03,-0.38 -2.41,0.19 -2.58,-0.18 -0.3,-0.64 3.96,-1.06 3.74,-2.69z"/>
     <path class="fil7" d="M122.91 183.92c0.41,-0.3 -4.15,0.58 -4.08,-0.01 0.01,-0.12 5.45,-2.49 5.51,-2.76 0.14,-0.67 -10.44,1.82 -10.38,2.48 0.03,0.31 3.06,0.42 3.31,0.37 0.33,-0.07 0.41,0.47 -0.6,0.53 -0.32,0.02 -1.55,0.26 -1.4,0.75 0.15,0.5 6.7,-0.69 7.64,-1.36z"/>
     <path class="fil8" d="M119.97 184.3c-0.35,-0.18 -0.93,0.18 -1.37,-0.21 -0.22,-0.19 -0.02,-0.51 0.26,-0.59 0.37,-0.1 1.33,-0.6 1.32,-1.04 -1.14,-0.31 -4.5,0.51 -4.64,0.93 0.76,0.52 2.76,0.03 2.47,0.8 -0.08,0.24 -1.01,0.41 -1.02,0.59 -0.03,0.38 4.21,0.15 2.98,-0.48z"/>
    </g>
    <g>
     <path class="fil6" d="M123.29 188.33c-0.55,-0.99 -10.62,1.15 -10.78,1.66 -0.38,1.25 3.17,1.09 3.5,1.1 0.22,0.01 8.23,-1.04 7.28,-2.76z"/>
     <path class="fil7" d="M122.59 188.62c0,-0.39 -1.49,-0.13 -1.77,-0.02 -0.6,0.24 -8.54,0.86 -7.2,1.85 1.24,0.93 8.97,-0.47 8.97,-1.83z"/>
     <path class="fil8" d="M118.74 189.46c-0.39,-0.04 -2.36,0.42 -2.95,0.59 -0.19,1.02 4.63,-0.4 2.95,-0.59z"/>
    </g>
    <g>
     <path class="fil6" d="M118.89 191.16c-0.27,0.04 -5.23,1.11 -3.72,1.18 0.35,0.01 0.49,0.09 0.86,0.1 0.57,0.03 5.79,-0.56 5.36,-1.3 -0.94,-0.13 -1.55,-0.14 -2.5,0.02z"/>
     <path class="fil7" d="M120.27 191.31c0.31,0.44 -3.02,0.99 -3.29,0.9 -0.12,-0.03 -0.83,0.02 -0.59,-0.19 0.14,-0.12 2.07,-0.51 2.33,-0.64 0.21,-0.1 1.27,-0.21 1.55,-0.07z"/>
     <path class="fil8" d="M118.63 191.58c0.08,0 0.49,-0.12 0.48,0.02 -0.02,0.46 -2.58,0.54 -1.76,0.24 0.72,-0.26 0.76,-0.16 1.28,-0.26z"/>
    </g>
   </g>
  </g>
  <g id="лампочка">
   <path id="тень_x0020_колбы" class="fil9" d="M102.37 0.78c29.63,0 54.26,21.44 59.21,49.65 0.07,0.38 0.14,0.77 0.2,1.16l0.04 0.29c0.07,0.42 0.12,0.85 0.18,1.27l0.02 0.19c0.06,0.44 0.11,0.89 0.16,1.33l0.01 0.18c0.05,0.46 0.09,0.92 0.13,1.38l0 0.1c0.04,0.48 0.07,0.97 0.1,1.46l0 0.02 0 0 0 0.02c0.02,0.51 0.04,1.01 0.06,1.52l0 0 0 0 0 0.01c0.01,0.51 0.02,1.03 0.02,1.54 0,0.49 -0.01,0.97 -0.02,1.45l0 0c-0.34,14.47 -5.8,27.67 -14.62,37.87l0 0c-1.49,1.73 -3.08,3.36 -4.75,4.9 -8.14,9.21 -13.77,20.37 -13.5,31.65 -0.13,13.39 -0.07,6.69 -0.19,20.09 -15.5,8.84 -34.87,8.93 -53.42,0.8l-0.03 -21.64c0.11,-12.52 -5.64,-21.34 -14.59,-31.13 -9.49,-8.85 -16.12,-20.74 -18.33,-34.12l0 -0.01c-0.03,-0.2 -0.07,-0.4 -0.1,-0.6l-0.03 -0.21c-0.06,-0.43 -0.12,-0.86 -0.18,-1.28l-0.02 -0.19c-0.06,-0.45 -0.11,-0.9 -0.16,-1.35l-0.01 -0.16c-0.05,-0.46 -0.09,-0.92 -0.13,-1.39l0 -0.09c-0.04,-0.49 -0.07,-0.97 -0.1,-1.46l0 -0.03 0 -0.03c-0.02,-0.5 -0.04,-1 -0.06,-1.5l0 -0.01 0 0c-0.01,-0.52 -0.02,-1.04 -0.02,-1.56 0,-0.51 0.01,-1.03 0.02,-1.54l0 -0.01 0 -0.02c0.02,-0.5 0.04,-1 0.06,-1.49l0 -0.05c0.03,-0.5 0.06,-1 0.1,-1.49l0 -0.04c0.04,-0.48 0.08,-0.96 0.13,-1.43l0.01 -0.16c0.05,-0.44 0.1,-0.89 0.16,-1.33l0.02 -0.18c0.06,-0.44 0.12,-0.87 0.18,-1.3l0.04 -0.23c0.06,-0.41 0.13,-0.81 0.2,-1.21l0.05 -0.32 0.04 -0.18 0 0c5.16,-27.96 29.67,-49.14 59.12,-49.14z"/>
   <path id="колба" class="fil10" d="M101.26 4.83c26.79,0.02 55.39,19.7 57.21,51.77 0,0.35 0,0.69 0,1.04l0.35 0.35c0,0.34 0,0.69 0,1.03l0 0c0,0.35 0,0.7 0,1.39l0 0c0.35,0.34 0.35,0.69 0.35,1.04l0 0.34c0,0.35 0,0.7 0,1.04l0 0 0 0 0 0c0,0.35 0,1.04 0,1.39l0 0 0 0 0 0c0,0.34 0,0.86 0,1.38 0,0.52 0,0.69 0,1.04l0 0c-6.78,39.91 -22.02,29.24 -32.13,64.07 -0.35,11.42 -0.12,8.12 -0.12,19.54 -2,1.11 -2.64,2.48 -4.78,3.52 -2.11,1.02 -2.75,-0.76 -5.42,-2.69 -2.52,-1.82 -2.31,4.44 -5.33,5.13 -2.08,0.48 -3.07,-8.83 -5.18,-8.63 -3.5,0.32 -10.63,2.47 -13.77,-0.3 -1.79,-1.58 -10.59,4.05 -12.91,3.02l0.08 -18.51c-4.31,-25.96 -31.12,-32.92 -32.83,-61.54l0 0c0,-0.35 0,-0.35 0,-0.69l0 0c-0.35,-0.35 -0.35,-0.69 -0.35,-1.04l0 -0.35c0,-0.34 0,-0.69 0,-1.04l0 0c-0.34,-0.69 -0.34,-1.03 -0.34,-1.38l0 0c0,-0.35 0,-0.69 0,-1.38l0 0 0 0c0,-0.35 0,-0.7 0,-1.04l0 0 0 0c0,-0.7 0,-0.87 0,-1.39 0,-0.52 0,-1.04 0,-1.38l0 0 0 0c0,-0.35 0,-1.04 0,-1.39l0 0c0,-0.34 0,-0.69 0,-1.38l0 0c0,-0.35 0,-0.69 0.34,-1.04l0 0c0,-0.69 0,-1.04 0,-1.38l0 0c0,-0.35 0,-0.7 0.35,-1.04l0 -0.35c0,-0.35 0,-0.69 0,-1.04l0 -0.34 0 0 0 0c3.86,-29.46 27.69,-47.79 54.48,-47.77z"/>
   <circle class="fil11" cx="102.46" cy="61.82" r="57.24"/>
   <g>
    <path class="fil12" d="M102.52 6.32c30.96,0 56.07,25.1 56.07,56.07 0,30.96 -25.11,56.07 -56.07,56.07 -30.97,0 -56.07,-25.11 -56.07,-56.07 0,-30.97 25.1,-56.07 56.07,-56.07z"/>
    <path class="fil13" d="M102.57 8.06c30.32,0 54.89,24.58 54.89,54.89 0,30.32 -24.57,54.9 -54.89,54.9 -30.32,0 -54.9,-24.58 -54.9,-54.9 0,-30.31 24.58,-54.89 54.9,-54.89z"/>
    <path class="fil14" d="M102.62 9.8c29.67,0 53.72,24.05 53.72,53.72 0,29.67 -24.05,53.72 -53.72,53.72 -29.67,0 -53.72,-24.05 -53.72,-53.72 0,-29.67 24.05,-53.72 53.72,-53.72z"/>
    <path class="fil15" d="M102.67 11.54c29.02,0 52.55,23.52 52.55,52.54 0,29.02 -23.53,52.55 -52.55,52.55 -29.02,0 -52.54,-23.53 -52.54,-52.55 0,-29.02 23.52,-52.54 52.54,-52.54z"/>
    <path class="fil16" d="M102.73 13.28c28.37,0 51.36,23 51.36,51.37 0,28.37 -22.99,51.37 -51.36,51.37 -28.37,0 -51.37,-23 -51.37,-51.37 0,-28.37 23,-51.37 51.37,-51.37z"/>
    <path class="fil17" d="M102.78 15.02c27.72,0 50.19,22.47 50.19,50.19 0,27.73 -22.47,50.2 -50.19,50.2 -27.72,0 -50.2,-22.47 -50.2,-50.2 0,-27.72 22.48,-50.19 50.2,-50.19z"/>
    <path class="fil18" d="M102.83 16.76c27.07,0 49.02,21.95 49.02,49.02 0,27.07 -21.95,49.02 -49.02,49.02 -27.07,0 -49.02,-21.95 -49.02,-49.02 0,-27.07 21.95,-49.02 49.02,-49.02z"/>
    <path class="fil19" d="M102.88 18.5c26.42,0 47.84,21.42 47.84,47.84 0,26.43 -21.42,47.85 -47.84,47.85 -26.42,0 -47.84,-21.42 -47.84,-47.85 0,-26.42 21.42,-47.84 47.84,-47.84z"/>
    <path class="fil20" d="M102.93 20.24c25.78,0 46.67,20.9 46.67,46.67 0,25.77 -20.89,46.67 -46.67,46.67 -25.77,0 -46.66,-20.9 -46.66,-46.67 0,-25.77 20.89,-46.67 46.66,-46.67z"/>
    <path class="fil21" d="M102.99 21.98c25.12,0 45.49,20.37 45.49,45.49 0,25.13 -20.37,45.5 -45.49,45.5 -25.13,0 -45.5,-20.37 -45.5,-45.5 0,-25.12 20.37,-45.49 45.5,-45.49z"/>
    <path class="fil22" d="M103.04 23.72c24.47,0 44.32,19.84 44.32,44.32 0,24.48 -19.85,44.32 -44.32,44.32 -24.48,0 -44.32,-19.84 -44.32,-44.32 0,-24.48 19.84,-44.32 44.32,-44.32z"/>
    <path class="fil23" d="M103.09 25.46c23.83,0 43.14,19.32 43.14,43.14 0,23.83 -19.31,43.15 -43.14,43.15 -23.83,0 -43.14,-19.32 -43.14,-43.15 0,-23.82 19.31,-43.14 43.14,-43.14z"/>
    <path class="fil24" d="M103.14 27.2c23.18,0 41.97,18.79 41.97,41.97 0,23.18 -18.79,41.97 -41.97,41.97 -23.18,0 -41.97,-18.79 -41.97,-41.97 0,-23.18 18.79,-41.97 41.97,-41.97z"/>
    <path class="fil25" d="M103.19 28.94c22.53,0 40.8,18.27 40.8,40.8 0,22.52 -18.27,40.79 -40.8,40.79 -22.52,0 -40.79,-18.27 -40.79,-40.79 0,-22.53 18.27,-40.8 40.79,-40.8z"/>
    <path class="fil26" d="M103.25 30.68c21.88,0 39.61,17.74 39.61,39.62 0,21.88 -17.73,39.62 -39.61,39.62 -21.88,0 -39.62,-17.74 -39.62,-39.62 0,-21.88 17.74,-39.62 39.62,-39.62z"/>
    <path class="fil27" d="M103.3 32.42c21.23,0 38.44,17.22 38.44,38.45 0,21.23 -17.21,38.44 -38.44,38.44 -21.23,0 -38.44,-17.21 -38.44,-38.44 0,-21.23 17.21,-38.45 38.44,-38.45z"/>
    <path class="fil28" d="M103.35 34.16c20.58,0 37.27,16.69 37.27,37.27 0,20.58 -16.69,37.27 -37.27,37.27 -20.58,0 -37.27,-16.69 -37.27,-37.27 0,-20.58 16.69,-37.27 37.27,-37.27z"/>
    <path class="fil29" d="M103.4 35.9c19.94,0 36.09,16.16 36.09,36.1 0,19.93 -16.15,36.09 -36.09,36.09 -19.93,0 -36.09,-16.16 -36.09,-36.09 0,-19.94 16.16,-36.1 36.09,-36.1z"/>
    <path class="fil30" d="M103.45 37.65c19.29,0 34.92,15.63 34.92,34.91 0,19.29 -15.63,34.92 -34.92,34.92 -19.28,0 -34.91,-15.63 -34.91,-34.92 0,-19.28 15.63,-34.91 34.91,-34.91z"/>
    <path class="fil31" d="M103.51 39.39c18.63,0 33.74,15.1 33.74,33.74 0,18.63 -15.11,33.74 -33.74,33.74 -18.64,0 -33.74,-15.11 -33.74,-33.74 0,-18.64 15.1,-33.74 33.74,-33.74z"/>
    <path class="fil32" d="M103.56 41.13c17.98,0 32.56,14.58 32.56,32.56 0,17.99 -14.58,32.57 -32.56,32.57 -17.99,0 -32.57,-14.58 -32.57,-32.57 0,-17.98 14.58,-32.56 32.57,-32.56z"/>
    <path class="fil33" d="M103.61 42.87c17.34,0 31.39,14.05 31.39,31.39 0,17.33 -14.05,31.39 -31.39,31.39 -17.34,0 -31.39,-14.06 -31.39,-31.39 0,-17.34 14.05,-31.39 31.39,-31.39z"/>
    <path class="fil34" d="M103.66 44.61c16.69,0 30.22,13.52 30.22,30.21 0,16.69 -13.53,30.22 -30.22,30.22 -16.68,0 -30.21,-13.53 -30.21,-30.22 0,-16.69 13.53,-30.21 30.21,-30.21z"/>
    <path class="fil35" d="M103.71 46.35c16.04,0 29.05,13 29.05,29.04 0,16.04 -13.01,29.04 -29.05,29.04 -16.03,0 -29.04,-13 -29.04,-29.04 0,-16.04 13.01,-29.04 29.04,-29.04z"/>
    <path class="fil36" d="M103.77 48.09c15.39,0 27.86,12.47 27.86,27.86 0,15.39 -12.47,27.87 -27.86,27.87 -15.39,0 -27.87,-12.48 -27.87,-27.87 0,-15.39 12.48,-27.86 27.87,-27.86z"/>
    <path class="fil37" d="M103.82 49.83c14.74,0 26.69,11.95 26.69,26.69 0,14.74 -11.95,26.69 -26.69,26.69 -14.74,0 -26.69,-11.95 -26.69,-26.69 0,-14.74 11.95,-26.69 26.69,-26.69z"/>
    <path class="fil38" d="M103.87 51.57c14.09,0 25.52,11.42 25.52,25.51 0,14.09 -11.43,25.52 -25.52,25.52 -14.09,0 -25.51,-11.43 -25.51,-25.52 0,-14.09 11.42,-25.51 25.51,-25.51z"/>
    <path class="fil39" d="M103.92 53.31c13.45,0 24.34,10.9 24.34,24.34 0,13.44 -10.89,24.34 -24.34,24.34 -13.44,0 -24.34,-10.9 -24.34,-24.34 0,-13.44 10.9,-24.34 24.34,-24.34z"/>
    <path class="fil40" d="M103.98 55.05c12.79,0 23.16,10.37 23.16,23.16 0,12.8 -10.37,23.17 -23.16,23.17 -12.8,0 -23.17,-10.37 -23.17,-23.17 0,-12.79 10.37,-23.16 23.17,-23.16z"/>
    <path class="fil41" d="M104.03 56.79c12.14,0 21.99,9.84 21.99,21.99 0,12.14 -9.85,21.99 -21.99,21.99 -12.15,0 -21.99,-9.85 -21.99,-21.99 0,-12.15 9.84,-21.99 21.99,-21.99z"/>
   </g>
   <path class="fil42" d="M104.08 58.53c11.5,0 20.81,9.32 20.81,20.81 0,11.5 -9.31,20.82 -20.81,20.82 -11.5,0 -20.81,-9.32 -20.81,-20.82 0,-11.49 9.31,-20.81 20.81,-20.81z"/>
   <path class="fil43" style="mask:url(#id24)" d="M102.4 2.93c31.59,0 57.19,26.06 57.19,58.21 0,0.31 -0.01,0.61 -0.01,0.92 -0.49,-31.72 -25.9,-57.28 -57.18,-57.28 -31.28,0 -56.69,25.56 -57.18,57.28 -0.01,-0.31 -0.01,-0.61 -0.01,-0.92 0,-32.15 25.6,-58.21 57.19,-58.21z"/>
   <path class="fil44" style="mask:url(#id26)" d="M102.31 -0.35c33.07,0 59.89,26.06 59.89,58.21 0,0.31 -0.01,0.61 -0.02,0.92 -0.51,-31.72 -27.12,-57.28 -59.87,-57.28 -32.76,0 -59.37,25.56 -59.88,57.28 -0.01,-0.31 -0.01,-0.61 -0.01,-0.92 0,-32.15 26.81,-58.21 59.89,-58.21z"/>
   <path class="fil45" d="M102.44 151.26c14.7,0 30.21,4.01 26.39,6.54 -3.75,2.49 -10.31,5.56 -23.34,6.04 -0.89,0.04 -1.89,0 -2.87,-0.09 -14.45,-1.3 -26.7,-3.21 -26.78,-6.98 -0.08,-3.77 11.9,-5.51 26.6,-5.51z"/>
   <path class="fil46" style="mask:url(#id28)" d="M82.77 151.27c-3.81,0.09 -1.07,0.26 -2.49,2.39 -0.97,1.45 -2.46,-0.09 -2.46,1.45 0,3.87 -3.06,0.2 -1.18,-4.37 0.64,-1.54 -0.07,-18.93 -0.53,-21.19 -0.36,-1.77 -0.48,-4.45 -1.57,-5.99 -0.19,-0.27 -1.17,-4.34 -2.76,-6.02 0,-0.01 -3.16,-5.48 -1.26,-4.8 1.98,0.7 4.45,8.13 3.55,4.01 -0.59,-2.71 -2.29,-4.6 -4.51,-6.41 -1.39,-1.13 -5.38,-2.96 -0.81,-3.15 0.44,-0.02 1.42,0.67 1.52,0.97 3.6,1.1 9.53,12.47 9.72,16.76 0.22,4.61 -0.05,2.31 -0.52,6.13 -0.57,4.67 -2.25,-0.18 0.25,8.02 1.38,4.52 1.41,5.88 1.22,10.63 0,0.08 1.83,1.57 1.83,1.57z"/>
   <path class="fil46" style="mask:url(#id30)" d="M82.71 151.57c0.01,-0.02 3.25,0.75 3.77,0.58 4.22,-1.41 4.04,1.2 8,-1.31 0.97,-0.62 2.72,2.36 7.96,0.42 2.6,-0.96 1.31,-1.32 5.85,-0.75 1.55,0.19 1.48,-0.45 2.62,1.16 1.67,2.36 9.72,0.4 11.27,2.22 0.14,0.16 4.42,1.37 4.38,0.33 -0.05,-1.11 1.22,-0.97 -0.91,-2.19 -0.44,-0.25 -1.95,-1.63 -0.96,-2.58 1.18,-1.13 1.39,-0.03 2.05,-1.94 2.46,-7.1 0.38,-4.51 -0.73,-9.96 -0.71,-3.47 -0.43,-8.79 0.91,-11.99 3.25,-7.78 6.75,-12.32 10.51,-19.29 1.18,-2.18 2.37,-4.53 4.21,-6.21 0.01,-0.01 2.86,-3.84 2.86,-2.11 0,0.08 -2.77,4.63 -3.1,5.41 -0.65,1.5 -8.28,12.49 -7.05,10.69 0.03,-0.04 2.85,-2.43 2.05,-1.64 -0.13,0.14 -3.94,7.56 -4.67,8.58 -0.64,0.9 -2.39,6.9 -2.34,8.17 0.01,0.24 -0.57,5.42 -0.57,7.73 0,2.75 0.5,20.78 -1.39,21.05 -0.18,-0.3 -0.53,-0.16 -0.94,0.11 -3.07,1.95 -3.53,1.1 -5.68,2.08 -1.68,0.77 -8.85,1.6 -11.1,1.87 -1.76,0.22 -7.9,0.74 -9.25,0.21 -1.97,-0.76 -10.27,-0.43 -12.93,-1.13 -6.78,-1.78 -0.72,-4.24 -5,-4.97 -1.21,-0.2 -2.16,-1.17 0.26,-1.17 1.28,0 0.13,-3.11 -0.08,-3.37zm37.34 6.15c-0.66,-0.66 1.07,-1.74 0.67,0.39 -0.59,0 -0.54,-0.25 -0.67,-0.39z"/>
   <path class="fil47" style="mask:url(#id32)" d="M46.59 74.33c2.72,5.7 1.18,10.4 6.93,16.65 3.56,3.85 4.46,6.35 9.44,10.98 2.6,2.42 7.91,9.65 9.64,12.84 1.83,3.38 3.73,5.48 4.97,9.27 2.23,6.83 1.58,4.36 2.45,11.45 0.55,4.4 -1.41,15.86 5.07,15.86 2.48,0 7.86,1.03 9.36,-0.74 1.71,-2.01 8.19,3.25 7.36,-0.79 -0.41,-2.03 -7.27,-1.15 -9.25,-0.22 -2.95,1.4 -10.66,1.17 -11.02,-4.14 -0.35,-5.26 -0.08,-10.11 -0.71,-15.21 -0.71,-5.78 0.57,-5.65 -3.26,-11.76 -1.38,-2.19 -3.35,-6.89 -6.15,-8.54 -0.09,-0.05 -9.81,-12.37 -11.67,-14.17 -2.53,-2.44 -4.73,-5.14 -6.29,-8.19 -0.93,-1.8 -6.32,-14.02 -6.36,-14.07 -0.33,-0.37 -0.58,0.64 -0.51,0.78z"/>
   <path class="fil47" style="mask:url(#id34)" d="M146.41 98.2c-2.7,3.72 -7.21,5.22 -11.08,11.39 -2.38,3.79 -5.15,6.71 -5.52,11.31 -0.32,3.98 -3.78,9.05 -4.02,17.52 -0.11,3.81 0.16,7.86 -2.02,10.93 -0.12,0.16 0.96,4.97 -4.45,3.41 -1.81,-0.52 -1.05,-3.34 -4.13,-1.48 -6.13,3.7 -4.42,-3.74 -2.59,-1.14 0.97,1.38 3.5,-3.21 6.48,0.55 0.1,0.14 3.29,1.59 3.13,-1.07 -0.03,-0.49 2.6,-3.77 2.49,-6.38 -0.18,-4.13 1.41,-18.35 3.31,-21.47 0.97,-1.61 1.54,-7.54 4.38,-11.52 3.49,-4.88 6.17,-8.43 11.62,-11.57 0.78,-0.45 2.13,-0.12 2.4,-0.48z"/>
   <path class="fil48" style="mask:url(#id36)" d="M126.57 152.66c-0.62,0.2 0.66,2.97 -2.96,1.07 -1.89,-0.99 -4.62,-0.47 -6.06,-2 -0.79,-0.85 -1.3,-1.85 -2.76,-0.13 -1.11,1.31 -6.93,-1.47 -3.31,-1.61 1.14,-0.05 1.46,0.39 3.34,-0.39 2.53,-1.05 4.14,1.79 7,2.26 0.6,0.09 4.86,2.72 1.69,-0.45 -2.37,-2.37 1.34,-3.3 1.71,-4.06 1.03,-2.07 2.07,-4.34 0.94,-6.62 -2.7,-5.44 -1.2,-3.71 -1.53,-7.44 -0.38,-4.34 -0.07,-6.56 1.7,-10.71 2.25,-5.28 4.5,-5.55 7.54,-10.57 1.34,-2.2 13.06,-17.63 13.52,-16.36 0.98,2.74 -10.68,11.6 -12.41,16.03 -0.71,1.81 -6.04,8.81 -6.78,11 -1.88,5.61 -2.53,5.62 -2.52,11.04 0.01,4.37 -0.18,3.8 2.15,7.74 1.02,1.72 -0.44,7.75 -2.69,8.21 -0.04,0 -0.7,3.68 1.43,2.99z"/>
   <path class="fil48" style="mask:url(#id38)" d="M47.81 77.47c-0.62,2.58 2.53,7.81 3.61,10.3 2.46,5.67 6.14,10.45 10.72,14.68 3.14,2.91 4.74,4.15 8.61,5.64 3.35,1.29 3.51,4.25 5.18,7.32 4.53,8.29 3,9.12 2.46,18.6 -0.17,2.94 1.48,4.83 2.02,7.5 0.24,1.16 0.14,8.38 0.95,8.41 3.14,0.12 6.74,-4.58 13.99,-1.39 1.95,0.86 5.18,-4.29 -5.49,-2.45 -1.9,0.33 -6.62,3.56 -7.06,2.04 -0.45,-1.57 -1.08,-1.34 -0.96,-4.32 0.11,-2.48 -1.03,-6.54 -1.03,-10.2 0,-2.57 0.76,-13.77 -0.64,-15.34 -4.47,-5.03 -2.57,-11.44 -10.44,-12.98 -4.45,-0.87 -12.8,-11.32 -14.63,-15.28 -3.07,-6.59 -3.15,-5.54 -6.21,-11.72 -0.08,-0.16 -0.94,-1.41 -1.08,-0.81z"/>
   <path class="fil49" d="M131.93 123.33c0,0 2.36,-6.01 3.38,-7.34 1.02,-1.32 -5.32,2.52 -3.38,7.34z"/>
   <path class="fil49" d="M75.31 128.66c0,0 -2.15,-9.39 -6.75,-15.01 -4.72,-5.76 11,6.81 6.75,15.01z"/>
   <path class="fil49" d="M75.98 144.5c-0.25,0.52 0.02,11.49 0.02,12.01 0,1.45 1.12,-1.05 1.49,-0.77 0.95,0.72 1.31,2.82 2.7,2.82 0,-2.1 -0.78,-1.51 -1.53,-3.03 -0.19,-0.36 -0.97,-2.57 -0.25,-2.57 0.4,0 1.42,1.74 1.42,-0.59 0,-0.02 -2.83,-5.05 -3.22,-5.85 -0.13,-0.27 -0.62,-2.03 -0.63,-2.02z"/>
   <path class="fil50" d="M120.12 160.39c-0.41,-0.01 -3.38,1.45 -4.82,1.57 -2.94,0.23 -4.35,0.79 -7.98,0.79 -4.39,0 -12.61,-0.02 -16.65,-0.92 -1.55,-0.35 -2.01,0.83 -1.54,-3.03 0.28,-2.29 -4.58,0.34 -1.8,-2.34 0.81,-0.79 3.16,1.24 2.57,-1.6 -0.82,-0.17 -2.55,-2.5 1.68,-1.98 2.83,0.35 0.31,-1.97 5.37,-1.35 2.3,0.29 6.92,0.14 9.73,0.32 2.66,0.17 5.99,0.19 8.53,0.71 1.92,0.39 0.37,-0.47 3.17,0.69 2.5,1.03 3.87,-0.04 3.87,4.13 0,1.31 -0.98,3.05 -2.13,3.01z"/>
   <g>
    <path class="fil51" d="M119.96 160.41c-0.41,-0.01 -3.34,1.44 -4.77,1.55 -2.91,0.23 -4.3,0.79 -7.89,0.79 -4.34,0 -12.47,-0.02 -16.46,-0.92 -1.53,-0.35 -1.99,0.83 -1.52,-3 0.28,-2.26 -4.53,0.34 -1.79,-2.32 0.81,-0.78 3.13,1.24 2.55,-1.57 -0.81,-0.17 -2.53,-2.48 1.65,-1.97 2.81,0.35 0.31,-1.95 5.32,-1.33 2.28,0.28 6.84,0.14 9.61,0.32 2.64,0.16 5.93,0.19 8.44,0.7 1.89,0.39 0.37,-0.46 3.13,0.68 2.48,1.02 3.83,-0.04 3.83,4.09 0,1.29 -0.96,3.02 -2.1,2.98z"/>
    <path class="fil52" d="M119.79 160.43c-0.4,-0.02 -3.3,1.42 -4.71,1.53 -2.87,0.23 -4.25,0.78 -7.8,0.78 -4.29,0 -12.33,-0.02 -16.27,-0.91 -1.52,-0.34 -1.97,0.82 -1.5,-2.96 0.27,-2.25 -4.48,0.33 -1.77,-2.3 0.8,-0.77 3.09,1.22 2.52,-1.56 -0.81,-0.17 -2.5,-2.45 1.64,-1.94 2.76,0.34 0.3,-1.93 5.25,-1.32 2.25,0.28 6.76,0.14 9.5,0.31 2.61,0.17 5.86,0.19 8.34,0.7 1.87,0.38 0.36,-0.46 3.1,0.67 2.45,1.01 3.78,-0.04 3.78,4.05 0,1.28 -0.95,2.98 -2.08,2.95z"/>
    <path class="fil53" d="M119.63 160.44c-0.4,-0.01 -3.27,1.41 -4.66,1.52 -2.84,0.22 -4.2,0.77 -7.71,0.77 -4.23,0 -12.18,-0.02 -16.08,-0.9 -1.5,-0.34 -1.94,0.81 -1.49,-2.93 0.28,-2.22 -4.42,0.33 -1.74,-2.27 0.79,-0.76 3.05,1.21 2.49,-1.54 -0.8,-0.17 -2.47,-2.43 1.61,-1.93 2.74,0.34 0.31,-1.9 5.2,-1.3 2.22,0.28 6.68,0.13 9.39,0.31 2.58,0.16 5.79,0.18 8.24,0.69 1.85,0.38 0.36,-0.46 3.06,0.66 2.42,1 3.74,-0.04 3.74,4 0,1.27 -0.94,2.96 -2.05,2.92z"/>
    <path class="fil53" d="M119.46 160.46c-0.39,-0.01 -3.22,1.4 -4.6,1.5 -2.8,0.22 -4.16,0.77 -7.61,0.77 -4.19,0 -12.05,-0.02 -15.9,-0.89 -1.48,-0.34 -1.92,0.8 -1.47,-2.9 0.27,-2.2 -4.37,0.32 -1.72,-2.25 0.78,-0.76 3.02,1.2 2.46,-1.53 -0.79,-0.16 -2.44,-2.4 1.59,-1.9 2.71,0.33 0.3,-1.89 5.14,-1.29 2.19,0.27 6.6,0.13 9.28,0.3 2.54,0.17 5.72,0.19 8.14,0.69 1.83,0.37 0.36,-0.45 3.03,0.65 2.39,0.99 3.7,-0.04 3.7,3.96 0,1.26 -0.94,2.93 -2.04,2.89z"/>
    <path class="fil54" d="M119.3 160.48c-0.39,-0.01 -3.19,1.38 -4.55,1.48 -2.77,0.22 -4.11,0.76 -7.52,0.76 -4.14,0 -11.9,-0.02 -15.71,-0.88 -1.46,-0.33 -1.9,0.79 -1.45,-2.87 0.26,-2.17 -4.32,0.32 -1.7,-2.22 0.77,-0.75 2.98,1.18 2.43,-1.52 -0.78,-0.16 -2.42,-2.37 1.57,-1.88 2.68,0.33 0.3,-1.86 5.07,-1.27 2.18,0.27 6.53,0.13 9.18,0.3 2.51,0.16 5.65,0.18 8.04,0.67 1.81,0.37 0.35,-0.44 2.99,0.65 2.37,0.98 3.66,-0.04 3.66,3.92 0,1.25 -0.93,2.9 -2.01,2.86z"/>
    <path class="fil55" d="M119.13 160.5c-0.38,-0.02 -3.15,1.36 -4.49,1.47 -2.74,0.21 -4.06,0.75 -7.43,0.75 -4.09,0 -11.76,-0.03 -15.52,-0.88 -1.45,-0.32 -1.88,0.79 -1.43,-2.83 0.26,-2.15 -4.27,0.31 -1.69,-2.2 0.76,-0.74 2.95,1.17 2.4,-1.5 -0.76,-0.16 -2.38,-2.35 1.56,-1.86 2.64,0.33 0.29,-1.85 5.01,-1.26 2.15,0.26 6.45,0.13 9.06,0.29 2.49,0.16 5.59,0.19 7.95,0.67 1.79,0.37 0.35,-0.44 2.96,0.64 2.33,0.97 3.61,-0.03 3.61,3.88 0,1.23 -0.92,2.86 -1.99,2.83z"/>
    <path class="fil56" d="M118.97 160.51c-0.38,-0.01 -3.11,1.35 -4.44,1.46 -2.71,0.21 -4.01,0.74 -7.34,0.74 -4.04,0 -11.62,-0.02 -15.33,-0.86 -1.43,-0.33 -1.85,0.77 -1.42,-2.81 0.26,-2.13 -4.21,0.31 -1.66,-2.18 0.75,-0.73 2.91,1.16 2.37,-1.48 -0.76,-0.15 -2.35,-2.32 1.54,-1.84 2.61,0.33 0.29,-1.82 4.95,-1.24 2.12,0.26 6.37,0.12 8.95,0.29 2.46,0.16 5.52,0.18 7.86,0.66 1.76,0.36 0.34,-0.43 2.91,0.64 2.31,0.95 3.57,-0.04 3.57,3.83 0,1.22 -0.9,2.83 -1.96,2.79z"/>
    <path class="fil57" d="M118.8 160.53c-0.37,-0.01 -3.07,1.34 -4.38,1.44 -2.67,0.21 -3.96,0.73 -7.25,0.73 -3.99,0 -11.47,-0.02 -15.14,-0.85 -1.41,-0.32 -1.83,0.77 -1.4,-2.78 0.26,-2.1 -4.16,0.31 -1.64,-2.15 0.74,-0.72 2.87,1.15 2.34,-1.46 -0.75,-0.16 -2.32,-2.3 1.52,-1.82 2.58,0.32 0.29,-1.81 4.89,-1.23 2.09,0.26 6.29,0.12 8.84,0.29 2.42,0.15 5.45,0.17 7.76,0.65 1.74,0.36 0.33,-0.43 2.88,0.63 2.28,0.94 3.52,-0.04 3.52,3.79 0,1.2 -0.89,2.8 -1.94,2.76z"/>
    <path class="fil58" d="M118.64 160.55c-0.37,-0.01 -3.04,1.32 -4.33,1.42 -2.64,0.21 -3.91,0.73 -7.16,0.73 -3.94,0 -11.33,-0.02 -14.95,-0.85 -1.39,-0.32 -1.81,0.76 -1.38,-2.74 0.25,-2.08 -4.11,0.3 -1.62,-2.13 0.73,-0.72 2.84,1.13 2.31,-1.45 -0.74,-0.15 -2.29,-2.27 1.5,-1.8 2.55,0.32 0.28,-1.78 4.83,-1.21 2.06,0.25 6.21,0.12 8.73,0.28 2.39,0.15 5.38,0.18 7.66,0.65 1.72,0.35 0.33,-0.43 2.84,0.62 2.25,0.93 3.48,-0.04 3.48,3.75 0,1.19 -0.88,2.77 -1.91,2.73z"/>
    <path class="fil59" d="M118.47 160.57c-0.36,-0.01 -2.99,1.3 -4.27,1.4 -2.61,0.21 -3.86,0.72 -7.07,0.72 -3.89,0 -11.18,-0.02 -14.76,-0.83 -1.38,-0.32 -1.78,0.75 -1.36,-2.72 0.25,-2.05 -4.06,0.3 -1.6,-2.1 0.72,-0.71 2.8,1.12 2.28,-1.43 -0.73,-0.15 -2.27,-2.25 1.48,-1.78 2.51,0.31 0.28,-1.77 4.77,-1.21 2.04,0.26 6.13,0.13 8.62,0.29 2.36,0.15 5.31,0.17 7.56,0.64 1.7,0.35 0.33,-0.42 2.81,0.61 2.22,0.92 3.43,-0.04 3.43,3.71 0,1.17 -0.87,2.73 -1.89,2.7z"/>
    <path class="fil60" d="M118.31 160.59c-0.36,-0.02 -2.96,1.29 -4.22,1.38 -2.57,0.21 -3.81,0.71 -6.98,0.71 -3.84,0 -11.04,-0.02 -14.57,-0.82 -1.36,-0.31 -1.76,0.74 -1.35,-2.68 0.25,-2.04 -4,0.29 -1.58,-2.08 0.72,-0.7 2.77,1.1 2.26,-1.42 -0.72,-0.15 -2.24,-2.22 1.46,-1.76 2.48,0.31 0.27,-1.74 4.71,-1.19 2.01,0.25 6.05,0.12 8.5,0.28 2.34,0.15 5.25,0.17 7.47,0.63 1.67,0.35 0.32,-0.41 2.77,0.61 2.19,0.92 3.39,-0.04 3.39,3.66 0,1.17 -0.86,2.71 -1.86,2.68z"/>
    <path class="fil61" d="M118.14 160.6c-0.35,-0.01 -2.92,1.28 -4.16,1.38 -2.54,0.2 -3.76,0.7 -6.89,0.7 -3.79,0 -10.9,-0.02 -14.38,-0.82 -1.34,-0.31 -1.74,0.73 -1.33,-2.65 0.24,-2.01 -3.95,0.29 -1.56,-2.05 0.71,-0.7 2.73,1.09 2.23,-1.4 -0.72,-0.15 -2.21,-2.2 1.44,-1.74 2.45,0.3 0.27,-1.73 4.64,-1.18 1.99,0.25 5.98,0.12 8.4,0.28 2.3,0.15 5.18,0.17 7.37,0.62 1.65,0.34 0.32,-0.41 2.74,0.6 2.16,0.91 3.34,-0.03 3.34,3.62 0,1.15 -0.84,2.68 -1.84,2.64z"/>
    <path class="fil62" d="M117.98 160.62c-0.35,-0.01 -2.88,1.26 -4.11,1.36 -2.51,0.2 -3.71,0.69 -6.8,0.69 -3.74,0 -10.75,-0.02 -14.19,-0.81 -1.32,-0.3 -1.72,0.73 -1.31,-2.62 0.24,-1.98 -3.9,0.3 -1.54,-2.03 0.7,-0.68 2.69,1.08 2.19,-1.38 -0.7,-0.14 -2.17,-2.17 1.43,-1.72 2.42,0.31 0.27,-1.7 4.58,-1.16 1.96,0.25 5.9,0.12 8.29,0.27 2.27,0.15 5.11,0.17 7.27,0.62 1.63,0.34 0.32,-0.4 2.7,0.59 2.14,0.9 3.3,-0.03 3.3,3.58 0,1.14 -0.83,2.65 -1.81,2.61z"/>
    <path class="fil63" d="M117.81 160.64c-0.34,-0.01 -2.84,1.24 -4.05,1.34 -2.47,0.2 -3.66,0.68 -6.71,0.68 -3.69,0 -10.61,-0.02 -14,-0.79 -1.31,-0.3 -1.69,0.71 -1.3,-2.59 0.24,-1.96 -3.84,0.29 -1.51,-2.01 0.68,-0.67 2.66,1.07 2.16,-1.36 -0.69,-0.15 -2.15,-2.15 1.41,-1.7 2.38,0.3 0.26,-1.69 4.52,-1.15 1.94,0.24 5.82,0.12 8.18,0.27 2.24,0.14 5.04,0.17 7.17,0.61 1.61,0.33 0.31,-0.4 2.67,0.58 2.1,0.89 3.25,-0.03 3.25,3.54 0,1.12 -0.82,2.61 -1.79,2.58z"/>
    <path class="fil64" d="M117.65 160.66c-0.34,-0.01 -2.8,1.23 -4,1.32 -2.44,0.2 -3.61,0.68 -6.62,0.68 -3.64,0 -10.46,-0.02 -13.81,-0.79 -1.29,-0.3 -1.67,0.71 -1.28,-2.56 0.24,-1.94 -3.79,0.29 -1.49,-1.98 0.67,-0.67 2.62,1.06 2.13,-1.35 -0.68,-0.14 -2.12,-2.11 1.39,-1.68 2.35,0.3 0.26,-1.66 4.46,-1.13 1.91,0.24 5.74,0.11 8.07,0.27 2.21,0.14 4.97,0.16 7.07,0.6 1.59,0.33 0.31,-0.4 2.63,0.58 2.08,0.87 3.21,-0.04 3.21,3.49 0,1.11 -0.81,2.58 -1.76,2.55z"/>
   </g>
   <path class="fil65" d="M117.48 160.68c-0.33,-0.02 -2.76,1.21 -3.94,1.3 -2.41,0.2 -3.56,0.67 -6.53,0.67 -3.59,0 -10.32,-0.02 -13.62,-0.78 -1.27,-0.29 -1.65,0.7 -1.26,-2.52 0.23,-1.92 -3.74,0.28 -1.48,-1.96 0.67,-0.66 2.59,1.04 2.11,-1.33 -0.67,-0.15 -2.09,-2.09 1.37,-1.66 2.32,0.29 0.26,-1.64 4.4,-1.12 1.88,0.23 5.66,0.11 7.95,0.26 2.18,0.14 4.91,0.16 6.98,0.6 1.57,0.32 0.31,-0.39 2.6,0.57 2.05,0.86 3.16,-0.04 3.16,3.45 0,1.09 -0.8,2.55 -1.74,2.52z"/>
   <path class="fil66" style="mask:url(#id40)" d="M121.63 5.44c0.23,0.24 0.98,1.37 -1.01,0.62 -13.44,-5.09 -30.7,-4.77 -47.1,4.82 -32.08,18.75 -27.06,52.58 -30.47,59.89 -0.14,-0.25 0.09,3 -0.63,-5.28 -0.73,-8.29 -0.24,-38.12 30.42,-56.47 18.22,-10.91 44.5,-7.99 48.79,-3.58z"/>
   <path class="fil67" d="M139.01 20.81c4.58,1.3 7.79,4.94 8.17,9.01 -6.88,-4.88 -6.27,-4.06 -8.17,-9.01z"/>
   <path class="fil68" d="M116.99 158.72c-0.62,-0.58 0.71,-1.2 0.71,-0.38 0,0.73 -0.38,0.73 -0.61,0.39l-0.1 -0.01z"/>
   <path id="Стекляный_x0020_центр_x0020_лампочки" class="fil69" d="M105.76 80.88l0 39.13c1.96,-0.04 1.61,1.32 2.42,1.47 -3.12,11.69 -1.43,26.09 0,40.36l-11.64 0c1.53,-13.43 3.72,-26.86 -0.06,-40.29 1.28,-0.17 1,-1.56 2.59,-1.66l0 -38.83 -1.04 -1.56 -0.55 -0.61c2.24,-0.81 7.68,-0.68 10.03,-0.05l-0.59 0.6 -1.16 1.44zm-4.3 1.91c0.39,-0.35 0.77,-0.55 1.15,-0.55 0.37,0 0.74,0.17 1.11,0.55l0 32.42c-0.86,0.85 -1.61,0.85 -2.26,0l0 -32.42z"/>
   <path id="Стекляный_x0020_центр_x0020_лампочки_0" class="fil70" d="M105.76 80.88l0 39.13c1.96,-0.04 1.61,1.32 2.42,1.47 -3.12,11.69 -1.43,26.09 0,40.36l-3.96 -0.6c-0.86,-8.11 -1.96,-37 -5.15,-41.35l0 -38.83 -1.04 -1.56c-1.87,-2.08 8.45,-0.94 9.48,-0.66l-0.59 0.6 -1.16 1.44zm-4.3 1.91c0.39,-0.35 0.77,-0.55 1.15,-0.55 0.37,0 0.74,0.17 1.11,0.55l0 32.42c-0.86,0.85 -1.61,0.85 -2.26,0l0 -32.42z"/>
   <path class="fil71" style="mask:url(#id42)" d="M104.68 115.99c-1.78,0.76 -2.82,0.66 -4.22,-0.02l0.03 -33.97c1.76,-0.49 2.67,-0.6 4.1,-0.15l0.09 34.14zm-0.96 -0.78c-0.85,0.63 -1.59,0.55 -2.26,0l0 -32.4c0.84,-0.4 1.58,-0.36 2.26,0l0 32.4z"/>
   <path class="fil72" style="mask:url(#id44)" d="M96.48 121.55l0.22 0.8c-0.62,-0.46 0.48,-6.22 2.56,-6.22 2.68,0 0.96,2.4 2.03,3.9 0.13,0.18 -0.11,1.66 0.3,-1.71 0.38,-3.03 2.47,0.42 2.32,-3.87 0,-0.01 0.19,2.28 1.58,3.18 0.52,0.34 1.82,5.05 2.03,5.08 -0.17,-0.5 4.37,-16.03 4.62,-16.52 0.03,-0.07 3.45,-21.5 3.63,-15.05 0.03,0.81 -1.7,7.88 -1.92,10.93 -0.01,0.09 -2.24,10.27 -2.43,10.93 -0.9,3.12 -1.17,6.94 -2.83,10.09 3.96,1.39 1.87,6.26 1.78,4.01 -0.05,-1.09 -0.66,1.9 -0.66,-0.91 0,-4.27 -3.13,2.34 -2.33,-1.56 0.53,-2.61 -1.46,0.5 -1.66,-1.92 -0.21,-2.67 -2.03,1.39 -4.3,-0.23 -1.46,-1.03 -0.98,-3.42 -2.05,-0.31 -3.1,1.08 -1.33,1.58 -4.75,1.44 -0.28,-0.01 -1.2,1.65 0.77,1.8 0.35,0.02 -0.9,0.83 -0.9,3.49 0,3.77 1.43,5.1 0.29,7.87 -0.32,0.76 0.13,4.38 2.61,3.32 3.63,-1.55 3.6,0.23 7.95,-0.11 0.12,-0.01 6.27,-0.92 3.82,0.63 -1.49,0.94 -2.05,-1 -0.11,-0.2 0,1.65 -5.99,-1.13 -7.62,1.03 -0.02,0.03 -2.18,-0.93 -2.56,-0.93 -7.71,0 -3.83,0.92 -4.66,3.33 -2.05,0.71 -1.62,-2.45 -1.04,-3.85 1.99,-4.83 -0.49,-12.12 -0.49,-17.41 0,-1.87 1.25,-1.09 1.46,-2.32 0.16,-0.86 -0.2,-2.72 -1.88,-7.22 -0.22,-0.6 -3.32,-9.64 -3.32,-9.68 1.35,0 3.19,6.82 3.91,9.12 0.21,0.7 3.12,7.87 3.63,9.07z"/>
   <g>
    <path class="fil73" d="M110.19 127.46c-0.03,-0.09 -0.2,1.5 -0.02,1.53 0.33,0.06 0.3,0.79 -0.15,0.56 -0.13,-0.07 -0.21,0.92 -0.51,1.33 -0.23,0.33 0.16,0.54 -0.46,0.54 -1.04,0 -0.16,-2.66 -0.16,-3.46 0,-0.39 0.05,-0.92 -0.01,-1.24 -0.06,-0.39 0.3,-0.91 -0.71,-0.72 0.16,1.25 -1.33,-0.33 -0.46,1.17 0.34,0.57 0.64,-0.38 0.46,1.64 -0.07,0.71 -0.21,0.77 -0.21,1.74 0,0.18 0.06,1.07 -0.06,1.08 -0.54,0.02 0.72,0.29 0.03,0.45 -0.12,0.33 -0.15,-0.02 -0.15,0.68 0,0.67 0,0.92 0.15,1.55 0.06,0.3 -0.13,2.69 0.37,2.32 0.25,-0.19 0.06,-3.88 0.25,-3.87 0.41,0.03 0.54,1.06 0.72,1.39 0.44,0.85 -0.04,0.65 0.88,1.2 0.11,0.06 0.91,2.4 0.65,0.51 -0.06,-0.46 -0.16,-1.76 -0.35,-2.06 -0.1,-0.15 0.23,-1.06 -0.51,-1.11 -0.37,-0.73 -0.58,-0.46 0.16,-0.89 0.26,-0.16 0.02,-0.03 0.23,-0.51 0.36,-0.81 0.3,-2.84 0.24,-3.8 -0.01,-0.08 -0.33,-0.27 -0.45,-0.03l0.07 0zm-1.47 4.86l-0.06 -0.02c-0.13,-0.08 -0.06,-0.14 -0.02,-0.25 0.03,-0.07 0.03,-0.06 0.05,-0.13 0.02,-0.1 0.09,-0.21 0.17,-0.26 0.04,-0.02 0.1,0.02 0.11,0.06 0.01,0.03 0.02,0.04 0.03,0.08 0.04,0.15 0.09,0.11 0.12,0.19 0.01,0.05 0.01,0.27 0,0.32 -0.03,0.11 -0.08,0.23 -0.24,0.15 0,0 -0.13,-0.08 -0.13,-0.08 0,0 0.12,0.08 0.13,0.08l-0.16 -0.14z"/>
   </g>
   <path class="fil73" d="M111.73 143.75c-0.75,-1.38 -0.1,-3.49 -0.47,-3.79 0.25,-1.91 -1.19,-0.34 -0.2,-2.03 0.3,-0.52 -0.42,-1.97 0.55,-1.37 0.04,0.36 0.18,1.7 -0.22,1.68 -0.37,-0.01 0.44,0.97 0.44,1.76 0,1.2 0.73,0.71 0.71,2.15 -0.02,1.24 0.18,0.4 -0.65,1.34 -0.09,0.1 -0.14,0.29 -0.16,0.26z"/>
   <path class="fil73" d="M97.09 126.13c-0.78,-0.37 -0.65,-1.25 -0.16,-0.92 0.19,0.12 0.73,-0.09 0.27,0.58 -0.47,0.7 1.02,0.64 1.38,0.47 0.01,0 0.14,2.1 -0.08,1.82 -0.45,-0.56 -1.41,-0.55 -1.41,-1.47 0,-0.16 0.06,-0.45 0,-0.48z"/>
   <path class="fil74" d="M94.32 156.8c0.21,0.48 -0.77,8.22 -0.77,2.97 0,-2.31 -0.15,-4.63 0.24,-6.83 0.17,-0.93 -0.28,-6.57 0.03,-6.64 0.1,-0.45 0.19,0.43 0.24,-0.74 0.03,-0.66 0.88,-1.72 0.93,-3.18 0.01,-0.22 1.35,-2.73 0.84,0.33 -0.14,0.85 -0.3,1.63 -0.71,2.37 -0.22,0.39 0.32,1.34 0.52,1.38 0.15,0.45 1.03,0.99 0.62,1.18 -0.12,0.51 0.61,0.26 -0.28,0.69 -0.11,0.89 0.82,0.43 0.27,1.88 -0.16,0.41 1.28,0.89 1.13,-1.19 -0.01,-0.09 0.25,-2.57 0.4,-2.78 0.26,-0.39 0.12,-2.71 1.13,-1.06 0.04,0.07 -0.72,2.54 -0.75,3.09 -0.17,2.59 -0.31,2.53 -2.75,2.81 -0.91,0.11 0.18,1.68 -0.31,1.93 -0.69,0.36 0.31,4.6 0.3,4.66 0.3,0.21 0.47,4.4 0.21,4.39 -1.14,-0.04 -0.27,-1.9 -0.6,-2.85 -0.06,-0.18 -0.68,-2.4 -0.69,-2.41z"/>
   <path class="fil75" d="M108.04 138.05c0,1.84 0.21,3.84 0.42,5.62 0.33,2.86 0.49,6.67 -0.97,9.1 -0.51,0.85 -2.46,-3.58 -4.22,0.41 -1.16,2.64 -6.09,0.44 -7.95,-0.08 -1.45,-0.4 -1.24,3.04 -0.58,3.03 1.35,-0.03 6.11,1.78 6.11,3.13 0,5.1 -0.56,3.68 5.54,3.68 3.56,0 2.28,0.87 3.87,-2.45 0.3,-0.64 1.06,-5.84 1.06,-6.69 0,-3.98 -1.85,-0.98 -1.85,-3.82 0,-1.2 0.18,-2.58 0.18,-4.1 0,-1.12 -1.61,-11.72 -1.61,-7.83z"/>
   <path class="fil76" d="M109.22 151.53c-0.61,0.32 -0.8,-0.58 -0.72,1.22 0.04,0.92 -1.17,-0.15 -1.25,0.81 -0.09,0.99 -2.25,-1.28 -1.91,0.9 0,0.01 1.11,0.89 0.32,0.86 -0.02,0 -0.93,-0.78 -1.13,-0.88 -0.45,-0.24 -0.69,-1.38 -1.55,0.28 -0.34,0.66 1.17,3.06 -2.99,1.03 -2.52,-1.23 -1,1.19 0.13,1.42 2.05,0.42 0.35,1.93 2.71,1.81 0.71,-0.04 0.16,-1.67 2.78,-0.13 0.64,0.37 -0.23,1.44 1.08,1.38 0.49,-0.67 0.03,-1.39 1.07,-0.85 0.28,0.15 -0.27,2.87 0.94,2.09 0.2,-0.13 1.43,-3.75 0.23,-4.01 -0.22,-0.6 2.93,-4.27 1.11,-5.55 -0.26,-0.18 -0.51,-0.54 -0.82,-0.38z"/>
   <path class="fil77" d="M108.12 156.63c0,0 1.96,-1.17 1.28,-3.78 -0.67,-2.6 -0.82,3.06 -1.28,3.78z"/>
   <g>
    <path class="fil78" d="M100.18 143.85c2.3,-1.13 4.57,0.47 7.23,0.49 0.48,0.55 0.42,1.53 0.34,2.38 -2.7,0.73 -5,0.87 -7.36,0.18 -0.41,-1.03 -0.62,-1.99 -0.21,-3.05z"/>
    <path class="fil78" d="M105.71 141.74c0.13,0.07 1.5,0.91 1.47,0.29 -0.01,-0.17 -1.75,-1.46 -1.47,-0.29z"/>
    <path class="fil78" d="M104.55 124.22c-1.13,-0.48 -1.4,0.13 -2.08,0.61 -0.31,0.23 -0.63,0.69 -0.63,0.01 0,-0.75 -0.36,-1.38 -1.35,-0.76 -0.53,0.32 -2.22,-0.1 -1.44,0.91 0.41,0.52 0.93,0.34 0.42,1.18 -0.12,0.22 0.15,1.09 0.71,1.12 0.45,0.03 0.29,1.34 1.5,1.34 0.9,0 0.46,0.57 1.99,0 0.73,-0.28 0.41,-0.38 1.37,-0.44 0.42,-0.03 0.01,-1.4 0.31,-1.98 0.14,-0.27 0.12,-1.11 -0.07,-1.26 -0.01,-0.01 -0.78,-1.49 -0.73,-0.73z"/>
    <path class="fil78" d="M99.71 127.78c-0.94,-1.19 -1.75,0.25 0.06,1.25 1.98,1.1 1.82,0.79 3.09,1.32 0.18,0.08 2.45,-0.45 2.74,-0.66 0.92,-0.65 0.59,-0.73 1.06,-1.61 0.52,-0.94 -1.05,-3.2 -0.84,-1.25 0.16,1.58 -0.65,1.15 -1.53,2.07 -1.13,1.19 -0.55,0.02 -0.82,-0.09 -0.31,-0.12 -0.13,0.5 -0.85,0.42 -1.05,-0.12 -2.2,-1.02 -2.75,-1.31 -0.04,-0.03 -0.07,-0.09 -0.16,-0.14z"/>
   </g>
   <g>
    <path class="fil79" d="M112.11 145.26c-0.23,-0.02 -1.14,-1.05 -0.54,-1.12 0.52,-0.06 -0.45,-3.58 0.51,-2.57 0.42,0.44 -0.58,0.84 0.79,1.55 0.73,0.38 -0.3,0.58 -0.15,0.96 0.22,0.57 0.69,0.57 0.47,1.96 -0.04,0.24 -0.99,-0.06 -1.03,-0.88 -0.02,-0.25 -0.21,-0.09 -0.19,-0.35l0.14 0.45zm-7.71 -3.51c-0.8,-0.26 -0.96,1 -2.74,0.23 -0.01,-0.01 -2,-0.1 -2,0.21 0.01,0.27 0.07,1.34 0.52,0.67 0.28,-0.42 2.28,-0.52 2.48,-0.13 0.05,0.09 1.18,1.49 1.06,-0.27 -0.01,-0.12 0.3,-0.5 0.41,-0.62l0.27 -0.09zm-0.91 -1.75c-0.09,-0.78 0.04,-0.89 1.04,-1.24 0.31,-0.11 2.56,-0.36 1.41,0.88 -0.34,0.36 -2.45,0.34 -2.45,0.36zm-8.1 -14.59c-0.02,0.19 -2.07,-0.26 -1.13,-1.83 0.47,-0.79 1.35,-0.15 2.68,-0.4 1.98,-0.38 2.7,-2.51 3.11,-2.54 0.72,-0.06 0.65,2.15 2.04,2.03 1.85,-0.16 1.64,-0.05 2.51,-0.63 2.32,-1.55 0.21,1.53 2.7,1.48 0.77,-0.01 -0.35,3.23 -0.55,2.12 -0.09,-0.54 -0.1,-1.02 -0.95,-0.68 -1.19,0.47 0.18,-0.98 -2.26,-0.78 -0.79,0.07 -1.84,2.75 -1.93,0.1 -0.01,-0.33 -0.59,-0.64 -1.23,-0.2 -0.28,0.2 -0.68,0.76 -1.1,0.01 -0.26,-0.46 -0.12,-1.86 -1.04,-0.69 -0.47,0.6 0.94,1.29 -1.1,1.24 -0.67,-0.01 -0.43,0.69 -1.54,0.59 -0.18,-0.02 -0.19,-0.02 -0.21,0.18zm6.62 2.91c-1.26,-1.2 1.07,-1.14 1.62,-1.4 0.88,-0.4 1.91,0.72 -0.54,0.61 -0.44,-0.02 -1.12,0.75 -1.08,0.79z"/>
   </g>
   <path class="fil80" d="M98.31 127.89c-0.11,0.18 -0.03,1.45 -0.02,1.78 0.01,0.44 0.42,1.37 0.42,2.29 0,1.6 -0.1,2.27 0.3,3.79 0.06,0.23 0.31,3.01 0.23,3.18 -0.43,0.95 0.4,0.59 0.69,0.99 0.18,0.25 0.29,-0.46 0.96,-0.44 0.39,0 -0.75,-0.53 -0.78,-0.97 -0.01,-0.17 -0.38,-1 -0.36,-1.45 0.02,-0.45 -0.47,-1.94 -0.47,-3.03 0,-0.63 -0.02,-1.05 -0.15,-1.63 -0.06,-0.26 0.01,-1.1 -0.2,-1.56 0,-0.01 -0.04,-1.26 -0.16,-1.42 -0.26,-0.37 -0.02,-1.1 -0.37,-1.46 -0.05,-0.06 -0.07,-0.11 -0.09,-0.07z"/>
   <path class="fil80" d="M108.88 130.75c-0.03,0.03 0.71,0.4 0.66,-0.54 0,-0.02 0.22,-0.69 0.2,-1.38 0,0 0.33,-1.54 0.04,-1.35 -0.07,0.77 0.01,0.22 -0.14,-0.1 -0.29,0.11 0.21,1.41 -0.13,1.97 -0.01,0.03 -0.17,0.9 -0.31,1.07 -0.18,0.22 -0.46,0.1 -0.3,0.4l-0.02 -0.07z"/>
   <polygon class="fil81" points="97.16,79.18 98.55,81.19 99.17,115.89 99.78,115.93 99.12,81.04 97.53,78.87 "/>
   <g>
    <path class="fil82" d="M99.25 79.02c-0.07,0.09 -1.08,0.21 -1.12,0.06 -0.01,-0.05 0.11,-0.26 0.25,-0.25 0,0 0.16,-0.04 0.22,-0.04 0.16,0 0.2,-0.11 0.57,-0.11 0.34,0 0.93,-0.03 1.23,0 0.23,-0.11 0.34,0.11 -0.03,0.32 -0.17,0.09 -1.04,-0.02 -1.12,0.02z"/>
    <path class="fil82" d="M102.38 79.71c0.43,0 0.62,-0.04 1.12,0 0.72,0.06 1.97,0 2.46,-0.59 0,0 0.26,-0.15 0.06,-0.15 -0.05,-0.01 -0.45,0.21 -0.65,0.2 0,0 -0.36,0.08 -0.54,0.08 -0.62,0 -2.05,0.08 -2.57,-0.13 -0.11,-0.04 -0.04,-0.04 -0.08,0.2 -0.02,0.14 0.12,0.23 0.2,0.39z"/>
    <path class="fil82" d="M104.28 80.15c0.02,0 0.27,0.03 0.45,0.03 0.08,0 0.95,-0.11 0.95,-0.14 0.05,-0.23 -0.23,-0.07 -0.41,-0.08 -0.38,-0.01 -0.44,0.19 -0.99,0.12 0,0 -0.64,-0.01 -0.47,-0.01 0.16,0 0.36,0.01 0.49,0.09 0.01,0.01 -0.04,-0.01 -0.02,-0.01z"/>
    <path class="fil82" d="M105.71 81.54c0.04,-0.6 -0.35,0.74 -0.41,1.03 -0.04,0.21 -0.06,2.22 0.07,2.36 0,0 0.28,1.55 0.34,1.16 0.05,-0.33 -0.06,-1.79 -0.03,-2.12 0.08,-0.99 -0.02,-1.74 0.03,-2.43z"/>
   </g>
   <g>
    <path class="fil67" d="M101.55 79.3c0.01,-0.17 0.22,-0.41 -0.19,-0.44 -0.3,-0.03 -0.03,0.91 -0.8,0.91 -0.56,0 -0.56,0.22 -0.57,0.76 0,0.34 0.28,0.75 -0.44,0.77 -0.46,0.01 0.56,0.26 0.65,0.26 0.35,-0.01 0.15,-0.01 0.48,-0.19 0.29,-0.16 0.6,0 1.05,0 0.56,0 0.74,0.11 0.67,-0.58 -0.04,-0.52 -1.14,-0.58 -0.79,-1.2 0.01,-0.02 -0.06,-0.26 -0.06,-0.29z"/>
    <path class="fil67" d="M105.59 80.4c-0.64,0 -0.3,0.74 0.05,0.53 0.01,-0.01 0.05,-0.53 -0.05,-0.53z"/>
    <path class="fil67" d="M102.48 126.19c-0.27,-0.21 -0.18,-0.87 0.57,-0.69 0.89,0.21 2,-0.96 1.84,0.17 -0.03,0.22 -0.42,0.49 -0.76,0.49 -0.74,0 0.19,0.81 -1.01,0.62 -0.23,-0.04 -0.64,-0.59 -0.64,-0.59z"/>
    <path class="fil67" d="M101.65 127.14c-0.93,-1.96 -2.78,-2.81 -2.61,0.46 0.05,1.09 1.1,1.09 1.34,1.6 0.23,0.01 0.4,1.6 0.83,0.53 0.3,-0.75 -0.23,-1.94 0.44,-2.59z"/>
    <path class="fil67" d="M109.04 128.93c-0.4,1.25 0.54,0.86 0.3,-0.02 -0.03,-0.11 -0.26,-0.11 -0.3,0.02z"/>
    <path class="fil67" d="M110.57 123.84c-0.85,-0.12 -0.15,-1.71 0.47,-0.84 0.54,0.76 -0.11,0.89 -0.47,0.84z"/>
    <path class="fil67" d="M103.86 140.7c0.74,-0.25 2.31,0.69 0.59,0.61 -1.55,-0.08 -0.58,0.47 -1.63,0.27 -1.52,-0.29 0.88,-0.83 1.04,-0.88z"/>
    <path class="fil67" d="M99.33 140.98c-0.65,0.19 0.37,1.32 0.31,0.05 -0.01,-0.16 -0.22,-0.07 -0.31,-0.05z"/>
    <path class="fil67" d="M96.72 145.97c-0.28,0.17 -0.81,-0.02 -0.81,-0.66 0,-1.87 0.95,-1.01 0.95,-2.26 0.33,-0.17 1.57,-0.08 1.14,0.55 -0.65,0.97 0.05,1.59 -1.28,2.37z"/>
   </g>
   <path class="fil83" d="M82.71 84.21l1.91 0.09c1.94,4.73 12.75,36.42 9.95,35.64 -3.62,-9.83 -8.4,-24.67 -11.86,-35.73z"/>
   <path class="fil83" d="M107.54 122.41c2.3,-10.08 4.48,-18.96 5.63,-22.24 0.17,-0.1 0.52,-0.4 0.89,0.14 -0.83,6.66 -3.43,14.59 -5.53,22.84l-0.99 -0.74z"/>
   <path class="fil84" d="M76.92 68.47l17.11 49.98 0.54 1.49c0.62,0.1 0.45,-0.92 0.68,-1.39 -3.45,-17.44 -10.34,-34.77 -16.64,-50.83l-1.69 0.75z"/>
   <path class="fil84" d="M107.54 122.41c3.81,-18.36 10.13,-36.79 15.2,-55.19l1.73 0.19c-5.72,17.6 -10.78,36.15 -15.94,55.74 -0.42,-0.05 -0.68,-0.5 -0.99,-0.74z"/>
   <path class="fil67 str0" style="mask:url(#id46)" d="M122.68 63.8c-8.25,-3.91 -14.71,0.8 -21.31,-6.07 0.35,2.47 -4.82,4.28 -6.57,4.73 -3.3,0.85 -12.32,2.82 -15.75,2.82 -0.62,-2.08 -4.18,-0.62 -3.95,0.75 0.05,0.28 0.03,0.57 0.03,0.85 0.51,2.07 1.63,4.61 2.12,7.27 -0.56,0.15 -0.91,0.31 -0.9,0.45 0.13,2.94 0.58,1.23 1.57,1.85 1.04,0.67 3.63,7.33 4.05,9.01 0.39,1.56 1.93,6.9 2.82,9.11 0.95,2.35 1.57,4.23 2.25,5.67 -0.69,0.21 -3.88,1.25 -2.52,2.29 1.23,-2.16 2.49,5.16 -0.82,5.77 -1,2.26 3.5,2.17 4.04,1.66 1.28,-1.21 1.06,-0.87 1.72,-2.51 4.93,-0.52 3.95,-2.23 8.07,-3.96 2.15,-0.9 4.83,0.59 6.87,-0.06 1.85,-0.58 1.9,1.17 2.41,-1.25 0.01,-0.01 1.52,-1.63 1.63,-4.25 0.06,-1.16 0.75,-2.07 -1.8,-2.64 -1.45,-0.32 -5.84,0.34 -7.27,-0.59 -1.77,-1.17 -1.98,2.52 -1.88,3.36 0.15,1.23 -4.92,0.87 -7.43,1.39 -1.6,-6.35 -4.76,-17.25 -6.97,-23.42 2.01,-1.86 19.87,1.15 19.53,1.22 -0.83,0.15 12.73,-6.46 16.49,-2.37 0.33,0.37 -3.63,16.18 -5.67,18.09 -0.03,0.02 -2.39,6.58 -2.26,9.49 0.04,1.05 -1.73,2.26 2.48,1.89 0.37,-0.03 0.56,-4.28 1.45,-5.7 0.02,-0.04 2.93,-7.85 3.39,-9.23 1.83,-5.42 3.79,-7.98 4.74,-14.02 1.03,0.15 1.3,-0.15 1.3,-2.31 -0.28,0 -0.57,0.01 -0.85,0.01 0.88,-3.63 2.55,-10 1.87,-10.11 -0.21,-0.04 -1.91,-1.03 -2.14,-1.17 -0.1,0.41 -0.59,1.58 -0.74,1.98zm-3.05 9.36c-0.76,-3.83 -14.47,-1.7 -18.7,0.47 0.29,-1.21 1.25,-5.12 1.14,-4.94 0.49,-0.02 5.41,-2.05 6.78,-0.86 0,0.01 2.46,1.59 2.7,0.16 0.41,-2.33 -5.36,-1.56 -8.58,-1.26 0.32,-0.58 0.57,-1.49 0.72,-1.56l0.25 -0.02c2.01,-0.05 4.05,0.16 5.88,0.03 6.82,-0.47 13.16,-1.05 9.81,7.98zm-39.28 -4.24c2.71,-0.88 7.02,-0.03 9.61,-1.1 -0.03,0 -1.05,4.05 0.46,2.82 2,-1.64 7.38,-0.04 6.61,-2.41 -1.3,-0.43 -3.67,0.77 -4.9,0.9 -0.7,0.07 -0.36,-3.09 -1.12,-1.94 3.57,-3.12 3.35,-0.19 7.11,-1.31 1.23,-0.37 2.61,-0.56 4.05,-0.66 0.05,0.36 -1.46,5.88 -1.93,8.12 -2.93,-0.55 -14.47,-0.4 -18.28,0.02 -0.03,-0.09 -0.85,-2.34 -1.61,-4.44m23.59 -3.77l0 0"/>
  </g>
 </g>
</svg>
