<?xml version="1.0" encoding="utf-8"?>
<!-- Generator: Adobe Illustrator 26.0.1, SVG Export Plug-In . SVG Version: 6.00 Build 0)  -->
<svg version="1.1" baseProfile="basic" id="Слой_1"
	 xmlns="http://www.w3.org/2000/svg" xmlns:xlink="http://www.w3.org/1999/xlink" x="0px" y="0px" viewBox="0 0 570 512"
	 xml:space="preserve">
<style type="text/css">
	.st0{fill:none;stroke:#999999;stroke-width:11;stroke-miterlimit:10;}
</style>
<path class="st0" d="M274.9,9.4c-88.4,0-176.8,0-265.2,0c0,94.9,0,189.8,0,284.7c24.6,9.5,45.1,28.7,70.7,34.9
	c11.7,2.8,23.8,2.8,35.8,2.7c147.9-0.6,295.8-1.2,443.8-1.8c0.1-94.4,0.2-188.9,0.4-283.3c-7-3.6-14-7.2-21-10.8
	c-8.5-4.4-17-8.8-25.6-13.2c-0.1,0-0.2-0.1-0.3-0.1c-8-4.1-16.5-8-24.9-11.1c-8.5-3.1-18.2-1.8-27.2-1.8c-20.7,0-41.4,0-62.1,0
	C357.8,9.4,316.4,9.4,274.9,9.4z"/>
</svg>
