<?xml version="1.0" encoding="utf-8"?>
<!-- Generator: Adobe Illustrator 26.0.1, SVG Export Plug-In . SVG Version: 6.00 Build 0)  -->
<svg version="1.1" baseProfile="basic" id="Слой_1"
	 xmlns="http://www.w3.org/2000/svg" xmlns:xlink="http://www.w3.org/1999/xlink" x="0px" y="0px" viewBox="0 0 1913 1718"
	 xml:space="preserve">
<style type="text/css">
	.st0{fill:#1A1A1A;stroke:#999999;stroke-width:6;stroke-miterlimit:10;}
	.st1{display:none;fill:#1A1A1A;stroke:#999999;stroke-width:6;stroke-miterlimit:10;}
	.st2{fill:url(#SVGID_1_);stroke:#999999;stroke-width:6;stroke-miterlimit:10;}
	.st3{opacity:0.19;fill:url(#SVGID_00000144337785928396765860000006477095295097721231_);}
	.st4{fill:url(#SVGID_00000162329714792593048160000014396928658404585884_);stroke:#999999;stroke-width:6;stroke-miterlimit:10;}
	.st5{fill:url(#SVGID_00000158732792381573244820000010009309684755558313_);stroke:#999999;stroke-width:6;stroke-miterlimit:10;}
	.st6{opacity:0.92;}
	.st7{opacity:0.19;fill:url(#SVGID_00000047740694629411056690000009143592502807696316_);}
	.st8{fill:url(#SVGID_00000092444487071169753960000014466008114949510538_);stroke:#999999;stroke-width:6;stroke-miterlimit:10;}
	.st9{fill:url(#SVGID_00000111885663279153103110000017248383318492544916_);stroke:#999999;stroke-width:6;stroke-miterlimit:10;}
	.st10{opacity:0.19;fill:url(#SVGID_00000173139132012004926130000008016531613394716814_);}
	.st11{fill:url(#SVGID_00000009583888358781481800000003298973984444942214_);stroke:#999999;stroke-width:6;stroke-miterlimit:10;}
	.st12{opacity:0.19;fill:url(#SVGID_00000147922918650790481310000007151021207814886585_);}
	.st13{fill:url(#SVGID_00000117653717109703364230000011232354850465895598_);stroke:#999999;stroke-width:6;stroke-miterlimit:10;}
	.st14{opacity:0.19;fill:url(#SVGID_00000123421904451570737130000000767068643322125720_);}
	.st15{fill:url(#SVGID_00000038405909309719794250000017116665298993219494_);stroke:#999999;stroke-width:6;stroke-miterlimit:10;}
	.st16{opacity:0.19;fill:url(#SVGID_00000019636821062813224570000014128147454414564995_);}
	.st17{fill:none;stroke:#999999;stroke-width:6;stroke-miterlimit:10;}
	.st18{fill:url(#SVGID_00000166675016627474382970000015999198422422628496_);stroke:#999999;stroke-width:6;stroke-miterlimit:10;}
	.st19{display:none;}
</style>
<g id="Слой_1_00000021812825730087212270000016689371485131975321_">
	<path class="st0" d="M825.1,3.1C551.1,3.1,277,3,3,3c0,163,0,325.9,0,488.9c42.2,16.4,77.4,49.3,121.4,59.9
		c20,4.8,40.9,4.8,61.5,4.7c254-1,508.1-2.1,762.1-3.1c0.2-162.2,0.4-324.4,0.6-486.6c-12-6.2-24-12.4-36-18.6
		c-14.6-7.6-29.3-15.1-43.9-22.7c-0.1-0.1-0.3-0.2-0.4-0.2C853.8,18.1,839.5,10.5,825.1,3.1c-0.3-0.3,0-1.6,0-1.9"/>
	<path class="st1" d="M345,408"/>
	<g>
		
			<linearGradient id="SVGID_1_" gradientUnits="userSpaceOnUse" x1="378.838" y1="1301.6388" x2="511.6127" y2="1531.6112" gradientTransform="matrix(1 0 0 -1 0 1718)">
			<stop  offset="0" style="stop-color:#727272"/>
			<stop  offset="0.0268" style="stop-color:#989898"/>
			<stop  offset="0.0579" style="stop-color:#BDBDBD"/>
			<stop  offset="0.089" style="stop-color:#DADADA"/>
			<stop  offset="0.1199" style="stop-color:#EEEEEE"/>
			<stop  offset="0.1504" style="stop-color:#FBFBFB"/>
			<stop  offset="0.1799" style="stop-color:#FFFFFF"/>
			<stop  offset="0.1836" style="stop-color:#FAFAFA"/>
			<stop  offset="0.2223" style="stop-color:#CDCDCD"/>
			<stop  offset="0.2613" style="stop-color:#A8A8A8"/>
			<stop  offset="0.3" style="stop-color:#8B8B8B"/>
			<stop  offset="0.3383" style="stop-color:#777777"/>
			<stop  offset="0.3761" style="stop-color:#6A6A6A"/>
			<stop  offset="0.4127" style="stop-color:#666666"/>
			<stop  offset="0.6931" style="stop-color:#FFFFFF"/>
			<stop  offset="0.7494" style="stop-color:#CBCBCB"/>
			<stop  offset="0.8042" style="stop-color:#9F9F9F"/>
			<stop  offset="0.8532" style="stop-color:#808080"/>
			<stop  offset="0.8946" style="stop-color:#6D6D6D"/>
			<stop  offset="0.9233" style="stop-color:#666666"/>
		</linearGradient>
		<polygon class="st2" points="645,263.4 377,415.3 377,111.5 		"/>
	</g>
	<g>
		
			<linearGradient id="SVGID_00000044165541594303882390000002415611253305612686_" gradientUnits="userSpaceOnUse" x1="6" y1="1440" x2="946" y2="1440" gradientTransform="matrix(1 0 0 -1 0 1718)">
			<stop  offset="0" style="stop-color:#FFFFFF"/>
			<stop  offset="3.243044e-03" style="stop-color:#FAFAFA"/>
			<stop  offset="0.0371" style="stop-color:#CDCDCD"/>
			<stop  offset="0.0712" style="stop-color:#A8A8A8"/>
			<stop  offset="0.105" style="stop-color:#8B8B8B"/>
			<stop  offset="0.1386" style="stop-color:#777777"/>
			<stop  offset="0.1716" style="stop-color:#6A6A6A"/>
			<stop  offset="0.2037" style="stop-color:#666666"/>
			<stop  offset="0.418" style="stop-color:#FFFFFF"/>
			<stop  offset="0.4286" style="stop-color:#F4F4F4"/>
			<stop  offset="0.4936" style="stop-color:#B8B8B8"/>
			<stop  offset="0.5488" style="stop-color:#8B8B8B"/>
			<stop  offset="0.5914" style="stop-color:#707070"/>
			<stop  offset="0.6164" style="stop-color:#666666"/>
			<stop  offset="0.8466" style="stop-color:#FFFFFF"/>
			<stop  offset="0.8535" style="stop-color:#F4F4F4"/>
			<stop  offset="0.8959" style="stop-color:#B8B8B8"/>
			<stop  offset="0.932" style="stop-color:#8B8B8B"/>
			<stop  offset="0.9599" style="stop-color:#707070"/>
			<stop  offset="0.9762" style="stop-color:#666666"/>
		</linearGradient>
		<polyline style="opacity:0.19;fill:url(#SVGID_00000044165541594303882390000002415611253305612686_);" points="6,6 825,6 946,68 
			945,550 6,7.7 		"/>
	</g>
	<g>
		<g>
			<path class="st0" d="M1906.3,67.2l-0.6,489.4c0,0-762,2.8-818.7,3c-0.2,0-0.3,0-0.5,0c-0.2-0.1-0.4-0.2-0.6-0.3
				c-1.8-1-3.1-1.7-3.1-1.7c-15.8-8.4-118.6-63.1-118.6-63.1L965,3l810.6,0.2c2.6,0,5.2,0,7.8,0c0,0-0.1-0.1-0.2-0.1
				c1.9,1,3.7,1.9,5.6,2.9c3,1.5,5.9,3.1,8.8,4.6c3.9,2,7.9,4.1,11.8,6.1c4.6,2.4,9.2,4.8,13.8,7.2c5,2.6,10,5.2,15,7.8
				c5.1,2.7,10.3,5.4,15.4,8c5,2.6,9.9,5.2,14.9,7.8c4.5,2.3,9,4.7,13.5,7c3.8,2,7.5,3.9,11.3,5.9c2.7,1.4,5.5,2.9,8.2,4.3
				c1.4,0.7,2.9,1.5,4.3,2.2C1906,67,1906.2,67.1,1906.3,67.2z"/>
			<path class="st0" d="M1305.7,411.2"/>
			
				<linearGradient id="SVGID_00000033371390329259727440000003864002469704812681_" gradientUnits="userSpaceOnUse" x1="1263.8953" y1="1469.3647" x2="1608.1047" y2="1270.6353" gradientTransform="matrix(1 0 0 -1 0 1718)">
				<stop  offset="0" style="stop-color:#727272"/>
				<stop  offset="0.0268" style="stop-color:#989898"/>
				<stop  offset="0.0579" style="stop-color:#BDBDBD"/>
				<stop  offset="0.089" style="stop-color:#DADADA"/>
				<stop  offset="0.1199" style="stop-color:#EEEEEE"/>
				<stop  offset="0.1504" style="stop-color:#FBFBFB"/>
				<stop  offset="0.1799" style="stop-color:#FFFFFF"/>
				<stop  offset="0.1836" style="stop-color:#FAFAFA"/>
				<stop  offset="0.2223" style="stop-color:#CDCDCD"/>
				<stop  offset="0.2613" style="stop-color:#A8A8A8"/>
				<stop  offset="0.3" style="stop-color:#8B8B8B"/>
				<stop  offset="0.3383" style="stop-color:#777777"/>
				<stop  offset="0.3761" style="stop-color:#6A6A6A"/>
				<stop  offset="0.4127" style="stop-color:#666666"/>
				<stop  offset="0.6931" style="stop-color:#FFFFFF"/>
				<stop  offset="0.7494" style="stop-color:#CBCBCB"/>
				<stop  offset="0.8042" style="stop-color:#9F9F9F"/>
				<stop  offset="0.8532" style="stop-color:#808080"/>
				<stop  offset="0.8946" style="stop-color:#6D6D6D"/>
				<stop  offset="0.9233" style="stop-color:#666666"/>
			</linearGradient>
			
				<rect x="1222" y="321.2" style="fill:url(#SVGID_00000033371390329259727440000003864002469704812681_);stroke:#999999;stroke-width:6;stroke-miterlimit:10;" width="428" height="53.6"/>
			
				<linearGradient id="SVGID_00000108293890250250786450000001176392084463534524_" gradientUnits="userSpaceOnUse" x1="3097.6348" y1="1225.4353" x2="3230.4021" y2="1455.395" gradientTransform="matrix(5.669853e-03 -0.6187 -1.3662 -0.0125 3301.8735 2232.7334)">
				<stop  offset="0" style="stop-color:#727272"/>
				<stop  offset="0.0268" style="stop-color:#989898"/>
				<stop  offset="0.0579" style="stop-color:#BDBDBD"/>
				<stop  offset="0.089" style="stop-color:#DADADA"/>
				<stop  offset="0.1199" style="stop-color:#EEEEEE"/>
				<stop  offset="0.1504" style="stop-color:#FBFBFB"/>
				<stop  offset="0.1799" style="stop-color:#FFFFFF"/>
				<stop  offset="0.1836" style="stop-color:#FAFAFA"/>
				<stop  offset="0.2223" style="stop-color:#CDCDCD"/>
				<stop  offset="0.2613" style="stop-color:#A8A8A8"/>
				<stop  offset="0.3" style="stop-color:#8B8B8B"/>
				<stop  offset="0.3383" style="stop-color:#777777"/>
				<stop  offset="0.3761" style="stop-color:#6A6A6A"/>
				<stop  offset="0.4127" style="stop-color:#666666"/>
				<stop  offset="0.6931" style="stop-color:#FFFFFF"/>
				<stop  offset="0.7494" style="stop-color:#CBCBCB"/>
				<stop  offset="0.8042" style="stop-color:#9F9F9F"/>
				<stop  offset="0.8532" style="stop-color:#808080"/>
				<stop  offset="0.8946" style="stop-color:#6D6D6D"/>
				<stop  offset="0.9233" style="stop-color:#666666"/>
			</linearGradient>
			
				<polygon style="fill:url(#SVGID_00000108293890250250786450000001176392084463534524_);stroke:#999999;stroke-width:6;stroke-miterlimit:10;" points="
				1437.8,134.3 1643.8,302 1228.7,298.2 			"/>
		</g>
		<g class="st6">
			<g>
				
					<linearGradient id="SVGID_00000088848491888361405600000004652214014912428950_" gradientUnits="userSpaceOnUse" x1="968" y1="1438" x2="1903.7" y2="1438" gradientTransform="matrix(1 0 0 -1 0 1718)">
					<stop  offset="0" style="stop-color:#FFFFFF"/>
					<stop  offset="3.243044e-03" style="stop-color:#FAFAFA"/>
					<stop  offset="0.0371" style="stop-color:#CDCDCD"/>
					<stop  offset="0.0712" style="stop-color:#A8A8A8"/>
					<stop  offset="0.105" style="stop-color:#8B8B8B"/>
					<stop  offset="0.1386" style="stop-color:#777777"/>
					<stop  offset="0.1716" style="stop-color:#6A6A6A"/>
					<stop  offset="0.2037" style="stop-color:#666666"/>
					<stop  offset="0.418" style="stop-color:#FFFFFF"/>
					<stop  offset="0.4286" style="stop-color:#F4F4F4"/>
					<stop  offset="0.4936" style="stop-color:#B8B8B8"/>
					<stop  offset="0.5488" style="stop-color:#8B8B8B"/>
					<stop  offset="0.5914" style="stop-color:#707070"/>
					<stop  offset="0.6164" style="stop-color:#666666"/>
					<stop  offset="0.8466" style="stop-color:#FFFFFF"/>
					<stop  offset="0.8535" style="stop-color:#F4F4F4"/>
					<stop  offset="0.8959" style="stop-color:#B8B8B8"/>
					<stop  offset="0.932" style="stop-color:#8B8B8B"/>
					<stop  offset="0.9599" style="stop-color:#707070"/>
					<stop  offset="0.9762" style="stop-color:#666666"/>
				</linearGradient>
				<polyline style="opacity:0.19;fill:url(#SVGID_00000088848491888361405600000004652214014912428950_);" points="968,6 
					1782.7,6.2 1903.7,69.2 1903,554 969.7,7.8 				"/>
			</g>
		</g>
	</g>
	<g>
		<path class="st0" d="M945.3,636.2l-0.6,489.4c0,0-760,2.8-816.7,3c-0.2,0-0.3,0-0.5,0c-0.2-0.1-0.4-0.2-0.6-0.3
			c-1.8-0.9-3.1-1.7-3.1-1.7c-15.8-8.4-118.6-63.1-118.6-63.1L3,572l813.6,0.2c2.6,0,5.2,0,7.8,0c0,0-0.1-0.1-0.2-0.1
			c1.9,1,3.7,1.9,5.6,2.9c3,1.5,5.9,3.1,8.8,4.6c3.9,2,7.9,4.1,11.8,6.1c4.6,2.4,9.2,4.8,13.8,7.2c5,2.6,10,5.2,15,7.8
			c5.1,2.7,10.3,5.4,15.4,8c5,2.6,9.9,5.2,14.9,7.8c4.5,2.3,9,4.7,13.5,7c3.8,2,7.5,3.9,11.3,5.9c2.7,1.4,5.5,2.9,8.2,4.3
			c1.4,0.7,2.9,1.5,4.3,2.2C947,636,947.2,636.1,945.3,636.2z"/>
		<path class="st0" d="M346.7,980.2"/>
		
			<linearGradient id="SVGID_00000091736912810258211010000001828713381003717821_" gradientUnits="userSpaceOnUse" x1="671.5215" y1="-274.6115" x2="543.4785" y2="-496.3885" gradientTransform="matrix(1.000000e-15 1 1 -1.000000e-15 762.5 241.5)">
			<stop  offset="0" style="stop-color:#727272"/>
			<stop  offset="0.0268" style="stop-color:#989898"/>
			<stop  offset="0.0579" style="stop-color:#BDBDBD"/>
			<stop  offset="0.089" style="stop-color:#DADADA"/>
			<stop  offset="0.1199" style="stop-color:#EEEEEE"/>
			<stop  offset="0.1504" style="stop-color:#FBFBFB"/>
			<stop  offset="0.1799" style="stop-color:#FFFFFF"/>
			<stop  offset="0.1836" style="stop-color:#FAFAFA"/>
			<stop  offset="0.2223" style="stop-color:#CDCDCD"/>
			<stop  offset="0.2613" style="stop-color:#A8A8A8"/>
			<stop  offset="0.3" style="stop-color:#8B8B8B"/>
			<stop  offset="0.3383" style="stop-color:#777777"/>
			<stop  offset="0.3761" style="stop-color:#6A6A6A"/>
			<stop  offset="0.4127" style="stop-color:#666666"/>
			<stop  offset="0.6931" style="stop-color:#FFFFFF"/>
			<stop  offset="0.7494" style="stop-color:#CBCBCB"/>
			<stop  offset="0.8042" style="stop-color:#9F9F9F"/>
			<stop  offset="0.8532" style="stop-color:#808080"/>
			<stop  offset="0.8946" style="stop-color:#6D6D6D"/>
			<stop  offset="0.9233" style="stop-color:#666666"/>
		</linearGradient>
		
			<polygon style="fill:url(#SVGID_00000091736912810258211010000001828713381003717821_);stroke:#999999;stroke-width:6;stroke-miterlimit:10;" points="
			340,1041 340,657 414,657 414,1041 		"/>
		
			<linearGradient id="SVGID_00000074418622145835994050000005374889157033470123_" gradientUnits="userSpaceOnUse" x1="672.5215" y1="-119.6115" x2="544.4785" y2="-341.3885" gradientTransform="matrix(1.000000e-15 1 1 -1.000000e-15 762.5 241.5)">
			<stop  offset="0" style="stop-color:#727272"/>
			<stop  offset="0.0268" style="stop-color:#989898"/>
			<stop  offset="0.0579" style="stop-color:#BDBDBD"/>
			<stop  offset="0.089" style="stop-color:#DADADA"/>
			<stop  offset="0.1199" style="stop-color:#EEEEEE"/>
			<stop  offset="0.1504" style="stop-color:#FBFBFB"/>
			<stop  offset="0.1799" style="stop-color:#FFFFFF"/>
			<stop  offset="0.1836" style="stop-color:#FAFAFA"/>
			<stop  offset="0.2223" style="stop-color:#CDCDCD"/>
			<stop  offset="0.2613" style="stop-color:#A8A8A8"/>
			<stop  offset="0.3" style="stop-color:#8B8B8B"/>
			<stop  offset="0.3383" style="stop-color:#777777"/>
			<stop  offset="0.3761" style="stop-color:#6A6A6A"/>
			<stop  offset="0.4127" style="stop-color:#666666"/>
			<stop  offset="0.6931" style="stop-color:#FFFFFF"/>
			<stop  offset="0.7494" style="stop-color:#CBCBCB"/>
			<stop  offset="0.8042" style="stop-color:#9F9F9F"/>
			<stop  offset="0.8532" style="stop-color:#808080"/>
			<stop  offset="0.8946" style="stop-color:#6D6D6D"/>
			<stop  offset="0.9233" style="stop-color:#666666"/>
		</linearGradient>
		
			<polygon style="fill:url(#SVGID_00000074418622145835994050000005374889157033470123_);stroke:#999999;stroke-width:6;stroke-miterlimit:10;" points="
			495,1042 495,658 569,658 569,1042 		"/>
		<g class="st6">
			<g>
				
					<linearGradient id="SVGID_00000160156038457311106870000004591616364269802420_" gradientUnits="userSpaceOnUse" x1="6" y1="869.5" x2="944.7" y2="869.5" gradientTransform="matrix(1 0 0 -1 0 1718)">
					<stop  offset="0" style="stop-color:#FFFFFF"/>
					<stop  offset="3.243044e-03" style="stop-color:#FAFAFA"/>
					<stop  offset="0.0371" style="stop-color:#CDCDCD"/>
					<stop  offset="0.0712" style="stop-color:#A8A8A8"/>
					<stop  offset="0.105" style="stop-color:#8B8B8B"/>
					<stop  offset="0.1386" style="stop-color:#777777"/>
					<stop  offset="0.1716" style="stop-color:#6A6A6A"/>
					<stop  offset="0.2037" style="stop-color:#666666"/>
					<stop  offset="0.418" style="stop-color:#FFFFFF"/>
					<stop  offset="0.4286" style="stop-color:#F4F4F4"/>
					<stop  offset="0.4936" style="stop-color:#B8B8B8"/>
					<stop  offset="0.5488" style="stop-color:#8B8B8B"/>
					<stop  offset="0.5914" style="stop-color:#707070"/>
					<stop  offset="0.6164" style="stop-color:#666666"/>
					<stop  offset="0.8466" style="stop-color:#FFFFFF"/>
					<stop  offset="0.8535" style="stop-color:#F4F4F4"/>
					<stop  offset="0.8959" style="stop-color:#B8B8B8"/>
					<stop  offset="0.932" style="stop-color:#8B8B8B"/>
					<stop  offset="0.9599" style="stop-color:#707070"/>
					<stop  offset="0.9762" style="stop-color:#666666"/>
				</linearGradient>
				<polyline style="opacity:0.19;fill:url(#SVGID_00000160156038457311106870000004591616364269802420_);" points="6,575 
					823.7,575.2 944.7,638.2 944,1122 10.7,576.8 				"/>
			</g>
		</g>
	</g>
	<path class="st1" d="M1305.7,983.2"/>
	<g>
		<path class="st0" d="M1906.3,639.2l-0.6,489.4c0,0-762,2.8-818.7,3c-0.2,0-0.3,0-0.5,0c-0.2-0.1-0.4-0.2-0.6-0.3
			c-1.8-0.9-3.1-1.7-3.1-1.7c-15.8-8.4-118.6-63.1-118.6-63.1L965,575l810.6,0.2c2.6,0,5.2,0,7.8,0c0,0-0.1-0.1-0.2-0.1
			c1.9,1,3.7,1.9,5.6,2.9c3,1.5,5.9,3.1,8.8,4.6c3.9,2,7.9,4.1,11.8,6.1c4.6,2.4,9.2,4.8,13.8,7.2c5,2.6,10,5.2,15,7.8
			c5.1,2.7,10.3,5.4,15.4,8c5,2.6,9.9,5.2,14.9,7.8c4.5,2.3,9,4.7,13.5,7c3.8,2,7.5,3.9,11.3,5.9c2.7,1.4,5.5,2.9,8.2,4.3
			c1.4,0.7,2.9,1.5,4.3,2.2C1906,639,1906.2,639.1,1906.3,639.2z"/>
		<g>
			
				<linearGradient id="SVGID_00000157303634435510331600000016339838562367459743_" gradientUnits="userSpaceOnUse" x1="1227.3304" y1="805.4623" x2="1580.0204" y2="1009.0878" gradientTransform="matrix(1 0 0 -1 0 1718)">
				<stop  offset="0" style="stop-color:#727272"/>
				<stop  offset="0.0268" style="stop-color:#989898"/>
				<stop  offset="0.0579" style="stop-color:#BDBDBD"/>
				<stop  offset="0.089" style="stop-color:#DADADA"/>
				<stop  offset="0.1199" style="stop-color:#EEEEEE"/>
				<stop  offset="0.1504" style="stop-color:#FBFBFB"/>
				<stop  offset="0.1799" style="stop-color:#FFFFFF"/>
				<stop  offset="0.1836" style="stop-color:#FAFAFA"/>
				<stop  offset="0.2223" style="stop-color:#CDCDCD"/>
				<stop  offset="0.2613" style="stop-color:#A8A8A8"/>
				<stop  offset="0.3" style="stop-color:#8B8B8B"/>
				<stop  offset="0.3383" style="stop-color:#777777"/>
				<stop  offset="0.3761" style="stop-color:#6A6A6A"/>
				<stop  offset="0.4127" style="stop-color:#666666"/>
				<stop  offset="0.6931" style="stop-color:#FFFFFF"/>
				<stop  offset="0.7494" style="stop-color:#CBCBCB"/>
				<stop  offset="0.8042" style="stop-color:#9F9F9F"/>
				<stop  offset="0.8532" style="stop-color:#808080"/>
				<stop  offset="0.8946" style="stop-color:#6D6D6D"/>
				<stop  offset="0.9233" style="stop-color:#666666"/>
			</linearGradient>
			
				<polygon style="fill:url(#SVGID_00000157303634435510331600000016339838562367459743_);stroke:#999999;stroke-width:6;stroke-miterlimit:10;" points="
				1393,1000.9 1393,935.1 1278,1000.3 1278,696.5 1393,761.7 1393,697.1 1660.9,849 			"/>
		</g>
		<g>
			
				<linearGradient id="SVGID_00000152253864083181868600000004562730047746737589_" gradientUnits="userSpaceOnUse" x1="968" y1="866.5" x2="1903.7" y2="866.5" gradientTransform="matrix(1 0 0 -1 0 1718)">
				<stop  offset="0" style="stop-color:#FFFFFF"/>
				<stop  offset="3.243044e-03" style="stop-color:#FAFAFA"/>
				<stop  offset="0.0371" style="stop-color:#CDCDCD"/>
				<stop  offset="0.0712" style="stop-color:#A8A8A8"/>
				<stop  offset="0.105" style="stop-color:#8B8B8B"/>
				<stop  offset="0.1386" style="stop-color:#777777"/>
				<stop  offset="0.1716" style="stop-color:#6A6A6A"/>
				<stop  offset="0.2037" style="stop-color:#666666"/>
				<stop  offset="0.418" style="stop-color:#FFFFFF"/>
				<stop  offset="0.4286" style="stop-color:#F4F4F4"/>
				<stop  offset="0.4936" style="stop-color:#B8B8B8"/>
				<stop  offset="0.5488" style="stop-color:#8B8B8B"/>
				<stop  offset="0.5914" style="stop-color:#707070"/>
				<stop  offset="0.6164" style="stop-color:#666666"/>
				<stop  offset="0.8466" style="stop-color:#FFFFFF"/>
				<stop  offset="0.8535" style="stop-color:#F4F4F4"/>
				<stop  offset="0.8959" style="stop-color:#B8B8B8"/>
				<stop  offset="0.932" style="stop-color:#8B8B8B"/>
				<stop  offset="0.9599" style="stop-color:#707070"/>
				<stop  offset="0.9762" style="stop-color:#666666"/>
			</linearGradient>
			<polyline style="opacity:0.19;fill:url(#SVGID_00000152253864083181868600000004562730047746737589_);" points="968,578 
				1782.7,578.2 1903.7,641.2 1903,1125 969.7,579.8 			"/>
		</g>
	</g>
	<g>
		<path class="st0" d="M1906.1,1218.8l-0.6,489.4c0,0-762,2.8-818.7,3c-0.2,0-0.3,0-0.5,0c-0.2-0.1-0.4-0.2-0.6-0.3
			c-1.8-1-3.1-1.7-3.1-1.7c-15.8-8.4-118.6-63.1-118.6-63.1l0-491.1l811.3-0.3c2.6,0,5.2,0,7.8,0c0,0-0.1-0.1-0.2-0.1
			c1.9,1,3.7,1.9,5.6,2.9c3,1.5,5.9,3.1,8.8,4.6c3.9,2.1,7.9,4.1,11.8,6.1c4.6,2.4,9.2,4.8,13.8,7.2c5,2.6,10,5.2,15,7.8
			c5.1,2.7,10.3,5.4,15.4,8c5,2.6,9.9,5.2,14.9,7.8c4.5,2.3,9,4.7,13.5,7c3.8,2,7.5,3.9,11.3,5.9c2.7,1.4,5.5,2.9,8.2,4.3
			c1.4,0.7,2.9,1.5,4.3,2.2C1905.8,1218.6,1905.9,1218.7,1906.1,1218.8z"/>
		<g>
			
				<linearGradient id="SVGID_00000029016383802049156000000006125165076343158200_" gradientUnits="userSpaceOnUse" x1="2623.7417" y1="-966.1557" x2="2976.4316" y2="-762.5302" gradientTransform="matrix(-1 0 0 1 4286.4111 2330.6179)">
				<stop  offset="0" style="stop-color:#727272"/>
				<stop  offset="0.0268" style="stop-color:#989898"/>
				<stop  offset="0.0579" style="stop-color:#BDBDBD"/>
				<stop  offset="0.089" style="stop-color:#DADADA"/>
				<stop  offset="0.1199" style="stop-color:#EEEEEE"/>
				<stop  offset="0.1504" style="stop-color:#FBFBFB"/>
				<stop  offset="0.1799" style="stop-color:#FFFFFF"/>
				<stop  offset="0.1836" style="stop-color:#FAFAFA"/>
				<stop  offset="0.2223" style="stop-color:#CDCDCD"/>
				<stop  offset="0.2613" style="stop-color:#A8A8A8"/>
				<stop  offset="0.3" style="stop-color:#8B8B8B"/>
				<stop  offset="0.3383" style="stop-color:#777777"/>
				<stop  offset="0.3761" style="stop-color:#6A6A6A"/>
				<stop  offset="0.4127" style="stop-color:#666666"/>
				<stop  offset="0.6931" style="stop-color:#FFFFFF"/>
				<stop  offset="0.7494" style="stop-color:#CBCBCB"/>
				<stop  offset="0.8042" style="stop-color:#9F9F9F"/>
				<stop  offset="0.8532" style="stop-color:#808080"/>
				<stop  offset="0.8946" style="stop-color:#6D6D6D"/>
				<stop  offset="0.9233" style="stop-color:#666666"/>
			</linearGradient>
			
				<polygon style="fill:url(#SVGID_00000029016383802049156000000006125165076343158200_);stroke:#999999;stroke-width:6;stroke-miterlimit:10;" points="
				1497,1276.1 1497,1341.9 1612,1276.7 1612,1580.5 1497,1515.3 1497,1579.9 1229.1,1428 			"/>
		</g>
		<g>
			
				<linearGradient id="SVGID_00000151541923511078575730000013055419881269037198_" gradientUnits="userSpaceOnUse" x1="967" y1="286.65" x2="1903.4" y2="286.65" gradientTransform="matrix(1 0 0 -1 0 1718)">
				<stop  offset="0" style="stop-color:#FFFFFF"/>
				<stop  offset="3.243044e-03" style="stop-color:#FAFAFA"/>
				<stop  offset="0.0371" style="stop-color:#CDCDCD"/>
				<stop  offset="0.0712" style="stop-color:#A8A8A8"/>
				<stop  offset="0.105" style="stop-color:#8B8B8B"/>
				<stop  offset="0.1386" style="stop-color:#777777"/>
				<stop  offset="0.1716" style="stop-color:#6A6A6A"/>
				<stop  offset="0.2037" style="stop-color:#666666"/>
				<stop  offset="0.418" style="stop-color:#FFFFFF"/>
				<stop  offset="0.4286" style="stop-color:#F4F4F4"/>
				<stop  offset="0.4936" style="stop-color:#B8B8B8"/>
				<stop  offset="0.5488" style="stop-color:#8B8B8B"/>
				<stop  offset="0.5914" style="stop-color:#707070"/>
				<stop  offset="0.6164" style="stop-color:#666666"/>
				<stop  offset="0.8466" style="stop-color:#FFFFFF"/>
				<stop  offset="0.8535" style="stop-color:#F4F4F4"/>
				<stop  offset="0.8959" style="stop-color:#B8B8B8"/>
				<stop  offset="0.932" style="stop-color:#8B8B8B"/>
				<stop  offset="0.9599" style="stop-color:#707070"/>
				<stop  offset="0.9762" style="stop-color:#666666"/>
			</linearGradient>
			<polyline style="opacity:0.19;fill:url(#SVGID_00000151541923511078575730000013055419881269037198_);" points="967,1158 
				1782.4,1157.7 1903.4,1220.7 1902,1705 969.4,1159.4 			"/>
		</g>
	</g>
	<g>
		<path class="st0" d="M945.9,1215.2l-0.6,489.4c0,0-762,2.8-818.7,3c-0.2,0-0.3,0-0.5,0c-0.2-0.1-0.4-0.2-0.6-0.3
			c-1.8-0.9-3.1-1.7-3.1-1.7c-15.8-8.4-118.6-63.1-118.6-63.1L4,1151l811.1,0.2c2.6,0,5.2,0,7.8,0c0,0-0.1-0.1-0.2-0.1
			c1.9,1,3.7,1.9,5.6,2.9c3,1.5,5.9,3.1,8.8,4.6c3.9,2.1,7.9,4.1,11.8,6.1c4.6,2.4,9.2,4.8,13.8,7.2c5,2.6,10,5.2,15,7.8
			c5.1,2.7,10.3,5.3,15.4,8c5,2.6,9.9,5.2,14.9,7.8c4.5,2.3,9,4.7,13.5,7c3.8,2,7.5,3.9,11.3,5.9c2.7,1.4,5.5,2.9,8.2,4.3
			c1.4,0.7,2.9,1.5,4.3,2.2C945.6,1215.1,945.7,1215.2,945.9,1215.2z"/>
		<path class="st0" d="M345.3,1559.2"/>
		<g class="st6">
			
				<linearGradient id="SVGID_00000041255328538074360110000002999578779915453355_" gradientUnits="userSpaceOnUse" x1="654" y1="114" x2="296" y2="472" gradientTransform="matrix(1 0 0 -1 0 1718)">
				<stop  offset="0" style="stop-color:#727272"/>
				<stop  offset="0.0268" style="stop-color:#989898"/>
				<stop  offset="0.0579" style="stop-color:#BDBDBD"/>
				<stop  offset="0.089" style="stop-color:#DADADA"/>
				<stop  offset="0.1199" style="stop-color:#EEEEEE"/>
				<stop  offset="0.1504" style="stop-color:#FBFBFB"/>
				<stop  offset="0.1799" style="stop-color:#FFFFFF"/>
				<stop  offset="0.1836" style="stop-color:#FAFAFA"/>
				<stop  offset="0.2223" style="stop-color:#CDCDCD"/>
				<stop  offset="0.2613" style="stop-color:#A8A8A8"/>
				<stop  offset="0.3" style="stop-color:#8B8B8B"/>
				<stop  offset="0.3383" style="stop-color:#777777"/>
				<stop  offset="0.3761" style="stop-color:#6A6A6A"/>
				<stop  offset="0.4127" style="stop-color:#666666"/>
				<stop  offset="0.6931" style="stop-color:#FFFFFF"/>
				<stop  offset="0.7494" style="stop-color:#CBCBCB"/>
				<stop  offset="0.8042" style="stop-color:#9F9F9F"/>
				<stop  offset="0.8532" style="stop-color:#808080"/>
				<stop  offset="0.8946" style="stop-color:#6D6D6D"/>
				<stop  offset="0.9233" style="stop-color:#666666"/>
			</linearGradient>
			
				<rect x="296" y="1246" style="fill:url(#SVGID_00000041255328538074360110000002999578779915453355_);stroke:#999999;stroke-width:6;stroke-miterlimit:10;" width="358" height="358"/>
			<g>
				
					<linearGradient id="SVGID_00000037691464810227116640000011243936795854599597_" gradientUnits="userSpaceOnUse" x1="7" y1="290" x2="943.3" y2="290" gradientTransform="matrix(1 0 0 -1 0 1718)">
					<stop  offset="0" style="stop-color:#FFFFFF"/>
					<stop  offset="3.243044e-03" style="stop-color:#FAFAFA"/>
					<stop  offset="0.0371" style="stop-color:#CDCDCD"/>
					<stop  offset="0.0712" style="stop-color:#A8A8A8"/>
					<stop  offset="0.105" style="stop-color:#8B8B8B"/>
					<stop  offset="0.1386" style="stop-color:#777777"/>
					<stop  offset="0.1716" style="stop-color:#6A6A6A"/>
					<stop  offset="0.2037" style="stop-color:#666666"/>
					<stop  offset="0.418" style="stop-color:#FFFFFF"/>
					<stop  offset="0.4286" style="stop-color:#F4F4F4"/>
					<stop  offset="0.4936" style="stop-color:#B8B8B8"/>
					<stop  offset="0.5488" style="stop-color:#8B8B8B"/>
					<stop  offset="0.5914" style="stop-color:#707070"/>
					<stop  offset="0.6164" style="stop-color:#666666"/>
					<stop  offset="0.8466" style="stop-color:#FFFFFF"/>
					<stop  offset="0.8535" style="stop-color:#F4F4F4"/>
					<stop  offset="0.8959" style="stop-color:#B8B8B8"/>
					<stop  offset="0.932" style="stop-color:#8B8B8B"/>
					<stop  offset="0.9599" style="stop-color:#707070"/>
					<stop  offset="0.9762" style="stop-color:#666666"/>
				</linearGradient>
				<polyline style="opacity:0.19;fill:url(#SVGID_00000037691464810227116640000011243936795854599597_);" points="7,1154 
					822.3,1154.2 943.3,1217.2 942,1702 9.3,1155.9 				"/>
			</g>
		</g>
	</g>
	<path class="st17" d="M827.6,4.3c-1.2-0.5-2.4-1-3.6-1.4"/>
	<path class="st17" d="M1784.4,3.3c-0.4-0.1-0.7-0.2-1.1-0.2"/>
	<path class="st17" d="M1784.5,575.2c-0.4,0-0.8-0.1-1.2,0C1783.7,575.2,1784.1,575.2,1784.5,575.2z"/>
	<path class="st17" d="M1782.4,1154.9c0.5,0,1.1,0,1.6,0C1783.7,1154.8,1782.7,1154.9,1782.4,1154.9z"/>
	<path class="st17" d="M821.2,1151.2c1-0.1,2,0,3,0.3"/>
	
		<linearGradient id="SVGID_00000070817503482807140520000013713540419333107634_" gradientUnits="userSpaceOnUse" x1="822.7399" y1="1145.575" x2="825.1309" y2="1145.575" gradientTransform="matrix(1 0 0 -1 0 1718)">
		<stop  offset="0" style="stop-color:#FFFFFF"/>
		<stop  offset="3.243044e-03" style="stop-color:#FAFAFA"/>
		<stop  offset="0.0371" style="stop-color:#CDCDCD"/>
		<stop  offset="0.0712" style="stop-color:#A8A8A8"/>
		<stop  offset="0.105" style="stop-color:#8B8B8B"/>
		<stop  offset="0.1386" style="stop-color:#777777"/>
		<stop  offset="0.1716" style="stop-color:#6A6A6A"/>
		<stop  offset="0.2037" style="stop-color:#666666"/>
		<stop  offset="0.418" style="stop-color:#FFFFFF"/>
		<stop  offset="0.4286" style="stop-color:#F4F4F4"/>
		<stop  offset="0.4936" style="stop-color:#B8B8B8"/>
		<stop  offset="0.5488" style="stop-color:#8B8B8B"/>
		<stop  offset="0.5914" style="stop-color:#707070"/>
		<stop  offset="0.6164" style="stop-color:#666666"/>
		<stop  offset="0.8466" style="stop-color:#FFFFFF"/>
		<stop  offset="0.8535" style="stop-color:#F4F4F4"/>
		<stop  offset="0.8959" style="stop-color:#B8B8B8"/>
		<stop  offset="0.932" style="stop-color:#8B8B8B"/>
		<stop  offset="0.9599" style="stop-color:#707070"/>
		<stop  offset="0.9762" style="stop-color:#666666"/>
	</linearGradient>
	
		<path style="fill:url(#SVGID_00000070817503482807140520000013713540419333107634_);stroke:#999999;stroke-width:6;stroke-miterlimit:10;" d="
		M822.7,572.5c0.8-0.2,1.6-0.2,2.4,0"/>
</g>
<g id="Слой_2_00000106867965268892780290000002541540622747773598_" class="st19">
</g>
</svg>
