<?xml version="1.0" encoding="utf-8"?>
<!-- Generator: Adobe Illustrator 26.0.1, SVG Export Plug-In . SVG Version: 6.00 Build 0)  -->
<svg version="1.1" id="Слой_1" xmlns="http://www.w3.org/2000/svg" xmlns:xlink="http://www.w3.org/1999/xlink" x="0px" y="0px"
	 viewBox="0 0 1474.7 1084" enable-background="new 0 0 1474.7 1084" xml:space="preserve">
<g>
	<path display="none" fill="#FFFFFF" d="M-8.5,139.3c0,0,944.5-304.2,1364.7,67.9l-71.9,198c0,0-284-41.9-704.2,330.2
		c0,0,620.4-118.2,924.6,126.1c0,0,14.1,6.1,0,18.1c-14.1,11.9-136.2,32.2-136.2,32.2s78,153.9,49.9,149.9
		c-28.2-4-300.3-225.8-1176.5,0L75.7,901.7c0,0,252.2-364.2,740.3-626.2c0,0-430.3-19.9-776.5,104.1L-8.5,149.4V139.3z"/>
	<path fill="#1D1D1B" d="M18.6,158.1c0,0,879.5-282.2,1311.6,58.5l-61.4,163.7c0,0-300.3-37.6-767.1,393.1c0,0,598.7-129,960.4,91.4
		l-132.2,34.7l58.5,129c0,0-360.2-213.2-1143.6,7.6L109.7,903.9c0,0,354.1-465.4,801.4-642.4c0,0-244.6-67.6-852.4,87.1L18.6,158.1z
		"/>
	<path fill="#EA801D" d="M42.8,271.5c0,0,840.4-250.4,1252.7,37.9l-11.6,31.1c0,0-369.6-278.9-1232.1-26.7L42.8,271.5z"/>
	<path fill="#EA801D" d="M26.9,197.5c0,0,860.3-275.3,1291.7,49.9l-12.6,33.6c0,0-332.8-309.7-1271.1-47.7L26.9,197.5z"/>
	<path fill="#EA801D" d="M1066.1,292.9c0,0-52.4-16.6-73.7-18.1c-21-1.4-465.4,152.5-854.2,656.5l25.3,24.6
		C163.9,956.2,594.9,416.1,1066.1,292.9z"/>
	<path fill="#EA801D" d="M1204.1,350c0,0-7.6-16.6-69-31.4c-61.4-15.2-529.7,157.5-942.3,666.3l26.4,25.7
		C219.1,1010.4,739.1,378.5,1204.1,350z"/>
	<path fill="#EA801D" d="M452.2,824.4c0,0-54.2,49.5-52.4,55.6c1.4,6.1,578.5-150.7,955.3,13l54.6-14.1
		C1409.7,878.6,1147,689.2,452.2,824.4z"/>
	<path fill="#EA801D" d="M345.6,932.4c0,0,593.3-162.2,996.9-6.1l23.5,50.9c0,0-331.7-181.7-1065.5,9
		C300.8,986.2,293.2,974.3,345.6,932.4z"/>
	<path fill="#EA801D" d="M138.6,931.7"/>
</g>
</svg>
