<?xml version="1.0" encoding="utf-8"?>
<!-- Generator: Adobe Illustrator 26.0.1, SVG Export Plug-In . SVG Version: 6.00 Build 0)  -->
<svg version="1.1" id="Слой_1" xmlns="http://www.w3.org/2000/svg" xmlns:xlink="http://www.w3.org/1999/xlink" x="0px" y="0px"
	 viewBox="0 0 1474.7 1084" enable-background="new 0 0 1474.7 1084" xml:space="preserve">
<g id="Слой_1_00000030462137986222974240000017892421995866103971_">
	<g>
		<g>
			<path fill="#EA801D" stroke="#000000" stroke-width="5" stroke-miterlimit="10" d="M960.2,276l-8.9-2.3l-1.8-2.3
				c0.2-2.4,0.2-5.5,0.2-9.2l-0.2-18.6c16.2-10.5,29.9-18,41.2-22.8c11.3-4.6,23.5-7,36.6-7c23.2,0,41.7,6.1,55.1,18.2
				c13.4,12.1,20.3,28.7,20.3,49.5l-1.1,45.2v67c0,8.1,0.6,13.4,2,16c1.4,2.6,3.2,4.3,5.5,5.2c2.3,0.9,7.2,1.7,14.5,2.3l1.8,2v9
				l-1.8,1.8c-11.8-1.1-20.9-1.5-27.5-1.5c-6.3,0-16,0.5-29.3,1.5l-3.4-3.2l0.9-36.2l-28.9,22.4c-10.1,7.9-16.8,13.3-20.3,15.7
				c-8.2,3.5-17.3,5.2-27,5.2c-17.9,0-31.9-4.7-42.1-14.4c-10.2-9.5-15.4-22.4-15.4-38.8c0-16.9,4.4-30.8,13.3-41.5
				c8.9-10.7,22.3-19.1,40.2-25.2c17.9-6.1,44.7-11.6,80.3-16.5c0-9.3-0.6-17.3-2-23.8c-1.2-6.6-4.4-12.8-9.2-18.8
				c-4.9-6-11-10.4-18.5-13.4c-7.5-3.1-15.7-4.4-25-4.4c-4.9,0-9.8,0.5-14.4,1.2c-4.6,0.8-9,2.1-13.1,4s-6.6,3.1-7.5,3.8
				c-0.9,0.8-1.7,2.1-2.4,4.1c-0.5,0.9-2.1,4.4-4.9,10.8c-2.3,4.7-4.1,9.3-5.6,13.7L960.2,276z M1064.6,310.8
				c-34.7,5.5-59.1,12.4-73.1,20.6c-14,8.2-21.1,21.4-21.1,39.5c0,11.8,3.1,20.6,9.3,26.7c6.3,6.1,14.8,9.2,25.5,9.2
				c20,0,39.7-11.6,59.2-34.7v-61.4H1064.6z"/>
			<path fill="#EA801D" stroke="#000000" stroke-width="5" stroke-miterlimit="10" d="M96.1,673.2c27.6,0.6,46.7,0.9,57.3,0.9
				c12.2,0,31-0.3,56.5-0.9v-6.1c0-11.1-0.2-24-0.5-38.8c-0.3-14.7-1.2-23.5-2.7-26.4c-1.5-2.9-3.7-4.9-6.1-5.8s-9.3-2-20.3-2.7
				l-1.8-1.8V582l1.8-1.5c15,1.2,30.8,1.8,47.5,1.8c17.4,0,33.3-0.6,47.5-1.8l1.8,1.5v9.5l-1.8,1.8c-11.3,1.1-18.2,2.1-20.6,3.1
				c-2.4,0.9-4.4,2.9-6,5.8c-1.5,2.9-2.4,10.2-2.7,21.8c-0.3,11.6-0.5,26-0.5,43.1v38.3l0.5,39.4c0.3,14.5,1.2,23.2,2.7,26.1
				c1.5,2.9,3.7,4.7,6.3,5.6c2.6,0.9,9.3,1.8,20.3,2.9l1.8,1.5v9.5l-1.8,1.8c-15-1.2-30.8-1.8-47.5-1.8c-17.4,0-33.3,0.6-47.5,1.8
				l-1.8-1.8V781l1.8-1.5c11.3-1.1,18.2-2.1,20.6-3.1c2.4-0.9,4.4-2.9,6-5.8c1.5-2.9,2.4-9.8,2.7-20.8c0.3-11,0.5-25.8,0.5-44.4v-18
				c-16.6-0.5-35.6-0.6-56.5-0.6c-19.1,0-38.2,0.2-57.3,0.6v18c0,11.9,0.2,25,0.5,39.5c0.3,14.5,1.2,23.2,2.7,26
				c1.5,2.9,3.7,4.7,6.3,5.6c2.6,0.9,9.3,1.8,20.3,2.9l1.8,1.5v9.5l-1.8,1.8c-15-1.2-30.8-1.8-47.5-1.8c-17.6,0-33.4,0.6-47.5,1.8
				l-1.8-1.8V781l1.8-1.5c11.3-1.1,18-2.1,20.5-3.1c2.4-0.9,4.4-2.9,6-5.8c1.5-2.9,2.4-9.8,2.7-20.8c0.3-11,0.5-25.8,0.5-44.6v-38.3
				c0-11.8-0.2-24.7-0.5-39.2c-0.3-14.5-1.2-23.2-2.9-26c-1.7-2.9-3.7-4.7-6.3-5.8c-2.4-0.9-9.2-2-20.2-2.7l-1.8-1.8V582l1.8-1.5
				c14.8,1.2,30.7,1.8,47.5,1.8c17.4,0,33.3-0.6,47.5-1.8l1.8,1.5v9.5l-1.8,1.8c-11.3,1.1-18.2,2-20.6,2.9s-4.4,2.7-6,5.8
				c-1.5,2.9-2.4,9.8-2.7,20.8c-0.3,10.8-0.5,25.7-0.5,44.4L96.1,673.2L96.1,673.2z"/>
			<path fill="#EA801D" stroke="#000000" stroke-width="5" stroke-miterlimit="10" d="M335.2,637.9l-8.9-2.3l-1.8-2.3
				c0.2-2.4,0.2-5.5,0.2-9.2l-0.2-18.6c16.2-10.5,29.9-18,41.2-22.8c11.3-4.6,23.5-7,36.6-7c23.2,0,41.7,6.1,55.1,18.2
				c13.4,12.1,20.3,28.7,20.3,49.5l-1.1,45.2v67c0,8.1,0.6,13.4,2,16c1.4,2.6,3.2,4.3,5.5,5.2c2.3,0.9,7.2,1.7,14.5,2.3l1.8,2v9
				l-1.8,1.8c-11.8-1.1-20.9-1.5-27.5-1.5c-6.3,0-16,0.5-29.3,1.5l-3.4-3.2l0.9-36.2L410.7,775c-10.1,7.9-16.8,13.3-20.3,15.7
				c-8.2,3.5-17.3,5.2-27,5.2c-17.9,0-31.9-4.7-42.1-14.4c-10.2-9.5-15.4-22.4-15.4-38.8c0-16.9,4.4-30.8,13.3-41.5
				c8.9-10.7,22.3-19.1,40.2-25.2s44.7-11.6,80.3-16.5c0-9.3-0.6-17.3-2-23.8c-1.2-6.6-4.4-12.8-9.2-18.8c-4.9-6-11-10.4-18.5-13.4
				c-7.5-3.1-15.7-4.4-25-4.4c-4.9,0-9.8,0.5-14.4,1.2c-4.6,0.8-9,2.1-13.1,4s-6.6,3.1-7.5,3.8c-0.9,0.8-1.7,2.1-2.4,4.1
				c-0.5,0.9-2.1,4.4-4.9,10.8c-2.3,4.7-4.1,9.3-5.6,13.7L335.2,637.9z M439.7,672.7c-34.7,5.5-59.1,12.4-73.1,20.6
				c-14,8.2-21.1,21.4-21.1,39.5c0,11.8,3.1,20.6,9.3,26.7c6.3,6.1,14.8,9.2,25.5,9.2c20,0,39.7-11.6,59.2-34.7v-61.4H439.7z"/>
			<path fill="#EA801D" stroke="#000000" stroke-width="5" stroke-miterlimit="10" d="M535.7,790.6v-9.5l1.8-1.5
				c9-1.4,15.7-2.9,20-4.4c4.4-1.7,7.2-3.5,8.7-5.8c1.4-2.1,2.3-4.9,2.7-7.9c0.3-3.2,0.8-11.3,1.1-24.4c0.3-13.1,0.6-23.2,0.6-30.1
				V666c0-35.4-1.2-55.9-3.5-61.2s-12.2-9.2-29.6-11.5l-1.8-1.8V582l1.8-1.5c20.9,1.2,38.2,1.8,52.1,1.8c13.7,0,31.1-0.6,52.1-1.8
				l1.5,1.5v9.5l-1.5,1.8c-9.6,1.4-16.3,2.7-20.2,4.4c-3.8,1.5-6.6,3.2-7.9,4.9c-1.5,1.7-2.4,3.8-2.9,6.4
				c-0.5,2.6-0.9,10.7-1.5,24.4c-0.5,13.7-0.8,24.6-0.8,32.5v108.6l1.8,1.8h94.8l1.8-1.8V666c0-5-0.2-14.2-0.6-27.3
				c-0.3-13.1-0.8-21.7-1.1-25.7c-0.3-4-1.2-7-2.6-9.2c-1.4-2.1-4.3-4.1-8.7-6c-4.4-1.8-11.1-3.4-20.5-4.4l-1.5-1.8V582l1.5-1.5
				c21.1,1.2,38.3,1.8,52.1,1.8c13.9,0,31.3-0.6,52.1-1.8l1.8,1.5v9.5l-1.8,1.8c-17.6,2.3-27.5,6.3-29.8,11.8
				c-2.3,5.6-3.4,26-3.4,60.9v108.6l1.5,1.8h95l1.5-1.8V666c0-35.4-1.2-55.9-3.5-61.2s-12.2-9.2-29.6-11.5l-1.8-1.8V582l1.8-1.5
				c20.9,1.2,38.2,1.8,52.1,1.8s31.3-0.6,52.1-1.8l1.8,1.5v9.5l-1.8,1.8c-17.6,2.3-27.5,6.3-29.8,11.8c-2.3,5.6-3.5,26-3.5,60.9
				v40.8c0,9.2,0.3,20.2,0.8,33.1c0.5,13,1.1,20.8,1.5,23.5c0.5,2.7,1.5,5,3.1,6.7c1.5,1.7,4.3,3.4,8.1,4.9c4,1.5,10.5,3.1,19.8,4.4
				l1.8,1.5v9.5l-1.8,1.8c-48.4-1.2-109.3-1.8-183.1-1.8c-82,0-146.3,0.6-192.7,1.8L535.7,790.6z"/>
			<path fill="#EA801D" stroke="#000000" stroke-width="5" stroke-miterlimit="10" d="M950.6,790.6v-9.5l1.8-1.5
				c9-1.4,15.7-2.9,20-4.4c4.4-1.7,7.2-3.5,8.7-5.8c1.4-2.1,2.3-4.9,2.7-7.9c0.3-3.2,0.8-11.3,1.1-24.4c0.3-13.1,0.6-23.2,0.6-30.1
				V666c0-35.4-1.2-55.9-3.5-61.2s-12.2-9.2-29.6-11.5l-1.8-1.8V582l1.8-1.5c20.9,1.2,38.2,1.8,52.1,1.8c13.3,0,30.7-0.6,52.1-1.8
				l1.5,1.5v9.5l-1.5,1.8c-9.6,1.4-16.3,2.7-20.2,4.4c-3.8,1.5-6.6,3.2-7.9,4.9c-1.5,1.7-2.4,3.8-2.9,6.4
				c-0.5,2.6-0.9,10.7-1.5,24.4c-0.5,13.7-0.8,24.6-0.8,32.5v93l3.7,1.4c14.2-21.4,32.7-51.2,55.1-89.5
				c22.4-38.3,39.7-68.6,51.6-90.4c14,1.2,26,1.8,35.4,1.8c9.8,0,21.8-0.6,36-1.8l1.8,1.5v9.5l-1.8,1.8
				c-17.6,2.3-27.5,6.3-29.8,11.8c-2.3,5.6-3.4,26-3.4,60.9v40.8c0,35.3,1.2,55.6,3.5,61.1c2.3,5.3,12.2,9.3,29.6,11.8l1.8,1.5v9.5
				l-1.8,1.8c-20.9-1.2-38.2-1.8-52.1-1.8c-13.4,0-30.7,0.6-52.1,1.8l-1.8-1.8v-9.5l1.8-1.5c17.6-2.4,27.5-6.4,29.8-11.9
				c2.3-5.5,3.5-25.8,3.5-60.8v-91.6l-3.7-1.4c-11,16.2-28.6,45.2-52.5,86.9c-24.1,41.7-41.1,72.2-50.8,91.6
				c-14-1.2-25.7-1.8-34.7-1.8c-9.8,0-23.1,0.6-40,1.8L950.6,790.6z"/>
			<path fill="#EA801D" stroke="#000000" stroke-width="5" stroke-miterlimit="10" d="M1238.1,591.5V582l1.5-1.5
				c11.1,1.2,21.4,1.8,30.7,1.8c11.5,0,21.4-0.6,29.9-1.8c3.5,4.9,7,10.7,10.5,17.1l36,61.2h3.2c6.1-7.5,14.2-18,24-31.5
				c9.8-13.4,15.3-21.2,16-23.1c0.9-1.8,1.4-3.5,1.4-4.9c0-4-2.6-6-7.9-6.1l-1.8-1.8V582l1.8-1.5c10.2,1.2,20,1.8,29.3,1.8
				c8.2,0,17.6-0.6,27.9-1.8l1.5,1.5v9.5l-1.5,1.8c-7.6,1.4-13.4,2.9-17.4,4.9c-4,1.8-8.2,4.7-13,8.4c-4.7,3.8-13.3,13-25.8,27.6
				l-31,36.5l41.8,70.2c6.3,10.7,11.8,18.6,16.3,23.8c4.6,5.2,8.9,8.7,13.1,10.5c4.1,1.8,10.5,3.2,19.2,4.1l1.5,1.5v9.5l-1.5,1.8
				c-12.1-1.2-22.1-1.8-30.2-1.8c-4.4,0-10.7,0.2-18.5,0.5c-4.9,0.2-8.7,0.2-11,0.2c-3.5,0-5.8-0.8-7-2.1c-1.2-1.4-4.3-7.2-9.2-17.3
				l-20.3-38.8c-3.5-6.6-8.9-16.8-16.2-30.7h-3.2l-41.7,58.9c-3.7,4.7-5.3,8.9-5.3,12.2c0,3.7,2.3,5.5,7,5.6l1.8,1.5v9.6l-1.8,1.8
				c-8.9-1.2-18.6-1.8-29.5-1.8c-8.1,0-17.7,0.6-29,1.8l-1.8-1.8v-9.5l1.8-1.5c9.2-0.5,15.4-1.4,18.6-2.7c3.2-1.4,7.2-4.4,11.8-8.9
				c4.6-4.4,13.9-15.3,27.8-32.5l37-45.5c-11.5-20.5-22.1-38.9-32.2-55.4c-10.1-16.6-16.6-26.6-19.8-30.1c-3.2-3.5-6.6-6-10.4-7.5
				c-3.8-1.5-11.5-2.7-22.9-3.7L1238.1,591.5z"/>
		</g>
	</g>
</g>
</svg>
