<?xml version="1.0" encoding="utf-8"?>
<!-- Generator: Adobe Illustrator 26.0.1, SVG Export Plug-In . SVG Version: 6.00 Build 0)  -->
<svg version="1.1" baseProfile="basic" id="Слой_1"
	 xmlns="http://www.w3.org/2000/svg" xmlns:xlink="http://www.w3.org/1999/xlink" x="0px" y="0px" viewBox="0 0 432 225"
	 xml:space="preserve">
<style type="text/css">
	.st0{fill:#F48500;stroke:#000000;stroke-width:5;stroke-miterlimit:10;}
</style>
<g>
	<path class="st0" d="M254.24,20.35c-3.46,3.1-5.98,6.91-7.43,11.01c-2.4,1.66-4.53,3.57-6.33,5.65c-6.55-3.3-14.4-5.21-22.79-5.21
		c-7.52,0-14.56,1.64-20.51,4.49c-1.6-1.7-3.41-3.28-5.42-4.7c-1.56-4.52-4.41-8.75-8.35-12.13c6.36-9.51,19.39-15.95,34.28-15.95
		c10.54,0,20.23,3.01,27.55,8.01C248.89,14.01,251.95,17,254.24,20.35z"/>
	<path class="st0" d="M191.76,31.59c-3.34-2.37-7.22-4.3-11.47-5.63c-1.24-0.39-2.51-0.72-3.81-1.01c-3.3-0.71-6.58-1.05-9.77-1.05
		c-14.54,0-27.2,7.11-31.29,18.49L98.94,143.9c-0.74,2.06-1.24,4.14-1.52,6.23c-0.44-0.26-0.87-0.53-1.31-0.81l-2.73-1.78
		c-18.94-12.35-24.12-36.71-11.14-52.36l61.62-74.27c4.83-5.83,12.08-8.84,19.69-8.84c5.65,0,11.51,1.66,16.74,5.08
		c1.09,0.71,2.13,1.49,3.09,2.31C187.35,22.83,190.2,27.06,191.76,31.59z"/>
	<path class="st0" d="M197.17,36.28c-1.42,0.68-2.77,1.43-4.06,2.24c-7.63,4.81-12.79,11.83-13.7,19.84l-1.9,16.74l-10.29,90.59
		l-1.68,14.78c-0.6,5.26,0.26,10.34,2.29,15.03c-7.88,2.35-16.97,2.78-26.3,0.76l-4.07-0.88c-25.57-5.53-42.68-25.62-40.06-45.23
		c0.28-2.09,0.78-4.17,1.52-6.23l36.47-101.52C139.5,31,152.16,23.89,166.7,23.89c3.19,0,6.47,0.34,9.77,1.05
		c1.3,0.28,2.57,0.62,3.81,1.01c4.25,1.33,8.13,3.26,11.47,5.63C193.76,33,195.58,34.58,197.17,36.28z"/>
	<path class="st0" d="M344.51,148.18l-2.64,1.72c-1.04,0.68-2.1,1.3-3.18,1.85c-0.25-2.42-0.79-4.84-1.64-7.23L301,42.91
		c-4.07-11.46-16.53-18.66-30.77-18.66c-3.02,0-6.11,0.32-9.22,1c-1.27,0.27-2.51,0.61-3.72,0.99c-3.87,1.22-7.4,2.97-10.49,5.12
		c1.45-4.1,3.97-7.92,7.43-11.01c1.05-0.93,2.17-1.8,3.39-2.59c4.95-3.23,10.51-4.8,15.92-4.8c7.6,0,14.9,3.1,19.79,9.04
		l61.34,74.45C367.61,112.13,362.88,136.2,344.51,148.18z"/>
	<path class="st0" d="M299.95,195.68l-3.95,0.85c-8.93,1.93-17.65,1.49-25.25-0.83c3.3-6.1,4.73-12.89,3.76-19.96l-1.75-12.74
		l-12.19-88.89l-1.98-14.41c-1.08-7.88-5.98-14.81-13.23-19.8c-0.05-0.03-0.1-0.07-0.14-0.1c-1.49-1.02-3.08-1.95-4.76-2.79
		c1.8-2.08,3.94-3.99,6.33-5.65c3.09-2.15,6.63-3.9,10.49-5.12c1.21-0.38,2.45-0.71,3.72-0.99c3.11-0.67,6.2-1,9.22-1
		c14.23,0,26.7,7.2,30.77,18.66l36.05,101.62c0.85,2.39,1.39,4.81,1.64,7.23C340.68,171.03,324.33,190.41,299.95,195.68z"/>
	<path class="st0" d="M270.76,195.71c-8.13,15.02-27.64,25.78-50.75,25.78h-4.68c-22.3,0-40.96-11-47.48-25.99
		c-2.04-4.69-2.89-9.77-2.29-15.03l1.68-14.78l10.29-90.59l1.9-16.74c0.91-8.01,6.06-15.03,13.7-19.84
		c1.29-0.81,2.64-1.56,4.06-2.24c5.95-2.85,12.99-4.49,20.51-4.49c8.39,0,16.24,1.91,22.79,5.21c1.68,0.84,3.27,1.78,4.76,2.79
		c0.05,0.03,0.1,0.07,0.14,0.1c7.24,4.99,12.15,11.92,13.23,19.8l1.98,14.41l12.19,88.89l1.75,12.74
		C275.48,182.81,274.06,189.61,270.76,195.71z"/>
</g>
</svg>
