<?xml version="1.0" encoding="utf-8"?>
<!-- Generator: Adobe Illustrator 26.0.1, SVG Export Plug-In . SVG Version: 6.00 Build 0)  -->
<svg version="1.1" baseProfile="basic" id="Слой_1"
	 xmlns="http://www.w3.org/2000/svg" xmlns:xlink="http://www.w3.org/1999/xlink" x="0px" y="0px" viewBox="0 0 432 225"
	 xml:space="preserve">
<style type="text/css">
	.st0{fill:none;stroke:#FF931E;stroke-width:12;stroke-miterlimit:10;}
	.st1{fill:#E37300;}
	.st2{fill:#CE5F00;}
	.st3{fill:#F17F00;}
	.st4{fill:#FFA514;}
</style>
<g>
	<path class="st0" d="M343.07,147.48l-2.55,1.67c-1.01,0.66-2.03,1.25-3.07,1.79c1.92,18.62-13.87,37.34-37.43,42.44l-3.81,0.83
		c-8.63,1.87-17.05,1.44-24.39-0.8c-7.86,14.51-26.7,24.91-49.04,24.91h-4.52c-21.54,0-39.58-10.63-45.87-25.12
		c-7.61,2.28-16.4,2.69-25.41,0.74l-3.93-0.85c-24.71-5.35-41.24-24.76-38.7-43.7c-0.42-0.25-0.84-0.51-1.26-0.79l-2.63-1.72
		c-18.3-11.93-23.31-35.47-10.76-50.59l59.54-71.76c4.67-5.63,11.67-8.55,19.03-8.55c5.46,0,11.12,1.61,16.18,4.9
		c1.06,0.69,2.06,1.44,2.99,2.23c6.14-9.19,18.74-15.41,33.12-15.41c10.18,0,19.54,2.91,26.62,7.74c3.53,2.41,6.49,5.29,8.7,8.53
		c1.01-0.9,2.1-1.74,3.27-2.51c4.79-3.12,10.16-4.64,15.38-4.64c7.34,0,14.39,2.99,19.12,8.74l59.27,71.93
		C365.39,112.66,360.81,135.91,343.07,147.48z"/>
	<path class="st1" d="M255.81,24.27c-3.34,2.99-5.78,6.68-7.18,10.64c-2.32,1.61-4.38,3.45-6.12,5.46
		c-6.33-3.19-13.91-5.04-22.02-5.04c-7.26,0-14.07,1.58-19.82,4.33c-1.54-1.65-3.3-3.17-5.23-4.54c-1.51-4.37-4.26-8.46-8.07-11.72
		C193.51,14.22,206.1,8,220.49,8c10.18,0,19.54,2.91,26.62,7.74C250.63,18.15,253.59,21.03,255.81,24.27z"/>
	<path class="st2" d="M195.44,35.13c-3.23-2.29-6.97-4.16-11.09-5.44c-1.2-0.37-2.43-0.7-3.68-0.97c-3.19-0.69-6.36-1.02-9.44-1.02
		c-14.05,0-26.29,6.87-30.23,17.86l-35.24,98.09c-0.72,1.99-1.2,4-1.47,6.02c-0.42-0.25-0.84-0.51-1.26-0.79l-2.63-1.72
		c-18.3-11.93-23.31-35.47-10.76-50.59l59.54-71.76c4.67-5.63,11.67-8.55,19.03-8.55c5.46,0,11.12,1.61,16.18,4.9
		c1.06,0.69,2.06,1.44,2.99,2.23C191.18,26.67,193.93,30.76,195.44,35.13z"/>
	<path class="st3" d="M200.67,39.67c-1.37,0.66-2.68,1.38-3.92,2.16c-7.38,4.65-12.35,11.43-13.23,19.17l-1.84,16.17l-9.94,87.52
		l-1.62,14.28c-0.58,5.08,0.25,9.99,2.21,14.52c-7.61,2.28-16.4,2.69-25.41,0.74l-3.93-0.85c-24.71-5.35-41.24-24.76-38.7-43.7
		c0.27-2.02,0.75-4.03,1.47-6.02L141,45.56c3.95-10.99,16.18-17.86,30.23-17.86c3.08,0,6.25,0.33,9.44,1.02
		c1.26,0.27,2.49,0.6,3.68,0.97c4.11,1.29,7.85,3.15,11.09,5.44C197.37,36.5,199.13,38.02,200.67,39.67z"/>
	<path class="st2" d="M343.03,147.78l-2.55,1.67c-1.01,0.66-2.03,1.25-3.07,1.79c-0.24-2.34-0.76-4.68-1.58-6.99l-34.83-98.18
		c-3.93-11.07-15.98-18.03-29.73-18.03c-2.91,0-5.9,0.31-8.91,0.96c-1.23,0.26-2.42,0.59-3.59,0.95c-3.74,1.18-7.15,2.87-10.14,4.95
		c1.4-3.96,3.83-7.65,7.18-10.64c1.01-0.9,2.1-1.74,3.27-2.51c4.79-3.12,10.16-4.64,15.38-4.64c7.34,0,14.39,2.99,19.12,8.74
		l59.27,71.93C365.35,112.95,360.78,136.21,343.03,147.78z"/>
	<path class="st3" d="M299.97,193.68l-3.81,0.83c-8.63,1.87-17.05,1.44-24.39-0.8c3.19-5.89,4.57-12.46,3.63-19.28l-1.69-12.31
		l-11.78-85.89l-1.91-13.92c-1.04-7.61-5.78-14.31-12.78-19.13c-0.04-0.03-0.09-0.07-0.14-0.1c-1.44-0.98-2.98-1.89-4.6-2.7
		c1.74-2.01,3.8-3.86,6.12-5.46c2.99-2.08,6.4-3.77,10.14-4.95c1.17-0.37,2.36-0.69,3.59-0.95c3-0.65,5.99-0.96,8.91-0.96
		c13.75,0,25.8,6.95,29.73,18.03l34.83,98.18c0.82,2.31,1.34,4.65,1.58,6.99C339.32,169.86,323.53,188.58,299.97,193.68z"/>
	<path class="st4" d="M271.77,193.7c-7.86,14.51-26.7,24.91-49.04,24.91h-4.52c-21.54,0-39.58-10.63-45.87-25.12
		c-1.97-4.53-2.79-9.44-2.21-14.52l1.62-14.28l9.94-87.52L183.52,61c0.88-7.74,5.86-14.53,13.23-19.17
		c1.24-0.78,2.55-1.51,3.92-2.16c5.75-2.75,12.55-4.33,19.82-4.33c8.11,0,15.69,1.84,22.02,5.04c1.62,0.81,3.16,1.72,4.6,2.7
		c0.05,0.03,0.1,0.07,0.14,0.1c7,4.82,11.74,11.52,12.78,19.13l1.91,13.92l11.78,85.89l1.69,12.31
		C276.33,181.24,274.96,187.81,271.77,193.7z"/>
</g>
</svg>
