<?xml version="1.0" encoding="utf-8"?>
<!-- Generator: Adobe Illustrator 26.0.1, SVG Export Plug-In . SVG Version: 6.00 Build 0)  -->
<svg version="1.1" baseProfile="basic" id="Слой_1"
	 xmlns="http://www.w3.org/2000/svg" xmlns:xlink="http://www.w3.org/1999/xlink" x="0px" y="0px" viewBox="0 0 432 225"
	 xml:space="preserve">
<style type="text/css">
	.st0{fill:none;stroke:#009245;stroke-width:3;stroke-miterlimit:10;}
	.st1{fill:none;stroke:#FF931E;stroke-width:12;stroke-miterlimit:10;}
	.st2{fill:#E37300;}
	.st3{fill:#CE5F00;}
	.st4{fill:#F17F00;}
	.st5{fill:#603813;}
	.st6{fill:#A67C52;}
	.st7{fill:#FFA514;}
	.st8{fill:none;stroke:#009245;stroke-width:2;stroke-miterlimit:10;}
	.st9{fill:#8CC63F;stroke:#009245;stroke-width:2;stroke-miterlimit:10;}
</style>
<g>
	<path class="st0" d="M244.66,148.89c-19.45,41.63-158.04,65.73-200.77,34.8C13.24,161.5-5.19,126.9,10.83,92.62
		C24.02,64.4,57.59,52.21,85.81,65.4c23.24,10.86,33.28,38.5,22.42,61.75c-8.94,19.14-31.71,27.4-50.84,18.46
		c-12.8-5.98-19.7-19.48-17.88-32.78c0.31-1.21,0.73-2.48,0.96-3.46c3.14-4.63,6.85-9.77,12.57-10.06c1.11,0,2.13,0.14,3.09,0.4
		c0.96,0.26,1.88,0.72,2.69,1.12c1.64,4.76,0.5,9.9-0.07,14.63"/>
	<path class="st1" d="M403.93,150.62l-2.46,1.6c-0.97,0.63-1.95,1.21-2.96,1.72c1.85,17.92-13.35,35.93-36.01,40.83l-3.67,0.79
		c-8.3,1.8-16.4,1.38-23.47-0.77c-7.56,13.96-25.69,23.96-47.18,23.96h-4.35c-20.73,0-38.08-10.23-44.13-24.16
		c-7.32,2.19-15.78,2.59-24.45,0.71l-3.78-0.82c-23.77-5.14-39.67-23.82-37.24-42.05c-0.41-0.24-0.81-0.49-1.21-0.76l-2.53-1.65
		c-17.61-11.48-22.43-34.13-10.35-48.68l57.29-69.04c4.49-5.42,11.23-8.22,18.31-8.22c5.25,0,10.7,1.55,15.56,4.72
		c1.02,0.66,1.98,1.38,2.88,2.15c5.91-8.84,18.03-14.82,31.87-14.82c9.8,0,18.8,2.8,25.61,7.44c3.4,2.31,6.24,5.09,8.37,8.2
		c0.97-0.87,2.02-1.68,3.15-2.41c4.6-3,9.77-4.46,14.8-4.46c7.06,0,13.85,2.88,18.4,8.4l57.02,69.21
		C425.41,117.11,421.01,139.49,403.93,150.62z"/>
	<path class="st2" d="M319.98,32.07c-3.22,2.88-5.56,6.43-6.91,10.24c-2.23,1.55-4.21,3.32-5.89,5.26
		c-6.09-3.07-13.38-4.85-21.19-4.85c-6.99,0-13.53,1.52-19.06,4.17c-1.48-1.58-3.17-3.05-5.04-4.37c-1.45-4.2-4.1-8.14-7.76-11.27
		c5.91-8.84,18.03-14.82,31.87-14.82c9.8,0,18.8,2.8,25.61,7.44C315.01,26.19,317.85,28.96,319.98,32.07z"/>
	<path class="st3" d="M261.9,42.52c-3.11-2.21-6.71-4-10.67-5.24c-1.15-0.36-2.33-0.67-3.54-0.93c-3.07-0.66-6.12-0.98-9.08-0.98
		c-13.52,0-25.29,6.61-29.09,17.18l-33.9,94.38c-0.69,1.91-1.15,3.85-1.41,5.8c-0.41-0.24-0.81-0.49-1.21-0.76l-2.53-1.65
		c-17.61-11.48-22.43-34.13-10.35-48.68l57.29-69.04c4.49-5.42,11.23-8.22,18.31-8.22c5.25,0,10.7,1.55,15.56,4.72
		c1.02,0.66,1.98,1.38,2.88,2.15C257.81,34.39,260.45,38.32,261.9,42.52z"/>
	<path class="st4" d="M266.94,46.89c-1.32,0.63-2.58,1.33-3.77,2.08c-7.1,4.47-11.89,11-12.73,18.44l-1.77,15.56l-9.56,84.21
		l-1.56,13.73c-0.55,4.89,0.24,9.61,2.13,13.97c-7.32,2.19-15.78,2.59-24.45,0.71l-3.78-0.82c-23.77-5.14-39.67-23.82-37.24-42.05
		c0.26-1.94,0.73-3.88,1.41-5.8l33.9-94.38c3.8-10.58,15.57-17.18,29.09-17.18c2.96,0,6.01,0.32,9.08,0.98
		c1.21,0.26,2.39,0.57,3.54,0.93c3.96,1.24,7.56,3.03,10.67,5.24C263.76,43.84,265.45,45.31,266.94,46.89z"/>
	<path class="st3" d="M403.9,150.9l-2.46,1.6c-0.97,0.63-1.95,1.21-2.96,1.72c-0.23-2.25-0.73-4.5-1.52-6.72l-33.51-94.46
		c-3.78-10.65-15.37-17.34-28.6-17.34c-2.8,0-5.68,0.3-8.57,0.93c-1.18,0.25-2.33,0.56-3.46,0.92c-3.6,1.14-6.88,2.76-9.75,4.76
		c1.35-3.81,3.69-7.36,6.91-10.24c0.97-0.87,2.02-1.68,3.15-2.41c4.6-3,9.77-4.46,14.8-4.46c7.06,0,13.85,2.88,18.4,8.4l57.02,69.21
		C425.37,117.4,420.98,139.77,403.9,150.9z"/>
	<path class="st4" d="M362.48,195.06l-3.67,0.79c-8.3,1.8-16.4,1.38-23.47-0.77c3.07-5.67,4.4-11.99,3.5-18.55l-1.62-11.84
		l-11.33-82.64l-1.84-13.39c-1-7.32-5.56-13.77-12.29-18.4c-0.04-0.03-0.09-0.06-0.13-0.09c-1.39-0.95-2.87-1.81-4.42-2.6
		c1.68-1.94,3.66-3.71,5.89-5.26c2.87-2,6.16-3.63,9.75-4.76c1.12-0.35,2.27-0.66,3.46-0.92c2.89-0.63,5.76-0.93,8.57-0.93
		c13.23,0,24.82,6.69,28.6,17.34l33.51,94.46c0.79,2.22,1.29,4.47,1.52,6.72C400.33,172.15,385.14,190.16,362.48,195.06z"/>
	<g>
		<polygon class="st5" points="301.79,62.13 269.46,57.89 271.4,3.22 310.27,8.05 		"/>
		
			<ellipse transform="matrix(0.1341 -0.991 0.991 0.1341 245.8465 292.8289)" class="st6" cx="290.49" cy="5.73" rx="4.07" ry="19.42"/>
	</g>
	<path class="st7" d="M335.34,195.09c-7.56,13.96-25.69,23.96-47.18,23.96h-4.35c-20.73,0-38.08-10.23-44.13-24.16
		c-1.89-4.36-2.68-9.08-2.13-13.97l1.56-13.73l9.56-84.21l1.77-15.56c0.85-7.45,5.64-13.97,12.73-18.44
		c1.19-0.75,2.45-1.45,3.77-2.08c5.53-2.65,12.08-4.17,19.06-4.17c7.8,0,15.1,1.77,21.19,4.85c1.56,0.78,3.04,1.65,4.42,2.6
		c0.05,0.03,0.09,0.06,0.13,0.09c6.73,4.64,11.29,11.08,12.29,18.4l1.84,13.39l11.33,82.64l1.62,11.84
		C339.73,183.1,338.41,189.42,335.34,195.09z"/>
</g>
<g>
	<path class="st8" d="M329.17,43.62c1.77,0.49,10.71-0.57,11.2-2.34c0.76-2.75-4.08-3.83-6.83-4.59
		c-4.28-1.18-13.01-3.92-14.18,0.36c-1.83,6.66,4.5,19.02,11.16,20.85c10.35,2.84,17.59,1.1,20.44-9.24
		c4.42-16.08-5.03-32.71-21.12-37.13c-23.3-6.41-47.33,5.92-56.06,27.86c20.53,15.61,28.6,42.67,17.93,62.77
		c-7.04,13.25-24.65,16.57-39.34,7.41c-9.04-5.64-12.86-16.82-8.52-24.98c2.67-5.02,9.34-6.28,14.9-2.81
		c3.43,2.14,4.87,6.37,3.23,9.46c-1.01,1.9-3.54,2.38-5.65,1.06c-1.3-0.81-1.85-2.41-1.22-3.59c0.38-0.72,1.34-0.9,2.14-0.4
		c0.49,0.31,0.7,0.91,0.46,1.36"/>
</g>
<g>
	<path class="st9" d="M269.72,40.7c1.42,4.3-5.12,1.48-12.58-1.14c-0.34-0.12-0.93-0.18-1.49-0.23c-0.68,0.16-1.37,0.32-2.05,0.49
		c-0.78-0.03-1.62-0.11-2.33-0.22c-0.87-0.17-1.72-0.29-2.57-0.37c-0.85-0.08-2.2,0.13-2.53-0.08c-0.67,0.45-1.32,0.93-1.97,1.43
		c-3.22,2.46-6.19,5.28-9.82,6.71c-4.88,1.89-10.34-2.36-15.56-1.01c-1.05,0.38-2.11,0.8-2.91,1.2c-4.82,2.42-9.1,5.74-13.5,9.37
		c-0.57,0.15-1.04,0.25-1.32,0.2c-3.14-1.45-6.07-5.21-9.61-7.17c-0.52-0.26-1.08-0.65-1.69-0.88s-1.26-0.28-1.97,0.12
		c-0.59,0.34-1.15,0.81-1.71,1.36c-2.25,2.2-4.52,5.67-7.54,7.52c-0.9,0.28-1.76,0.46-2.63,0.53c-1.13-0.18-2.28-0.39-3.19-0.64
		c-1.81-0.51-3.62-1.1-5.44-1.77c-0.56-0.02-1.15-0.05-1.59-0.08c2.2-3.78,4.42-7.46,6.77-11.11c0.47-0.73,0.94-1.46,1.42-2.18
		c2.99-2.82,4.16-7.16,5.79-10.75c0.56-0.79,1.24-1.58,1.74-2.23c5.83-2.42,12.03-6.48,17.94-6.12c3.48,0.01,6.32,5.12,9.83,7.36
		c0.68,0.23,1.54,0.53,2.2,0.65c0.59-0.04,1.07-0.09,1.42-0.16c1.4-0.25,2.79-0.57,4.13-0.98c0.57-0.68,1.42-1.45,2.18-2.2
		c1.79-2.17,3.65-4.35,5.82-5.95c0.49-0.63,0.96-1.21,1.45-1.73c0.58-0.48,1.02-0.77,1.24-0.82c1.85-0.43,3.9,0.09,6.04,0.77
		c0.46,0.16,1.1,0.35,1.73,0.54c0.64,0.19,1.65,0.45,1.77,0.53c6.36,0.7,13.42-2.48,18.71,0.38c2.86,1.65,3.96,6.76,6.01,10.42
		c0.62,0.42,1.37,1.07,1.95,1.51C266.8,36.18,268.99,38.46,269.72,40.7z"/>
	<path class="st8" d="M268.66,42.01c0,0-18.58-14.29-33.44-10c0,0-4,6-17.43,10s-21.85-19.32-52.08,14.06"/>
</g>
<g>
	<path class="st9" d="M276.34,38.25c3.48,2.89-3.55,3.98-11.26,5.71c-0.35,0.08-0.88,0.34-1.39,0.59c-0.49,0.5-0.99,1-1.48,1.5
		c-0.67,0.38-1.43,0.77-2.09,1.05c-0.82,0.32-1.61,0.67-2.37,1.05c-0.76,0.38-1.8,1.28-2.19,1.28c-0.33,0.74-0.62,1.5-0.91,2.26
		c-1.42,3.79-2.44,7.76-4.76,10.9c-3.13,4.2-10.01,3.49-13.72,7.41c-0.69,0.88-1.36,1.79-1.83,2.56c-2.8,4.61-4.66,9.69-6.46,15.11
		c-0.4,0.43-0.75,0.76-1.01,0.87c-3.43,0.44-7.91-1.19-11.95-0.97c-0.58,0.06-1.26,0.02-1.9,0.16c-0.64,0.13-1.22,0.43-1.6,1.15
		c-0.32,0.6-0.54,1.3-0.73,2.06c-0.74,3.06-0.82,7.2-2.39,10.38c-0.61,0.72-1.24,1.33-1.95,1.84c-1.06,0.45-2.14,0.88-3.04,1.15
		c-1.8,0.53-3.66,0.99-5.55,1.39c-0.48,0.28-1,0.57-1.39,0.78c-0.15-4.37-0.22-8.67-0.17-13.01c0.01-0.87,0.03-1.73,0.05-2.61
		c1.03-3.98-0.28-8.27-0.81-12.19c0.05-0.96,0.21-2,0.29-2.81c3.65-5.15,6.75-11.88,11.95-14.72c2.95-1.84,8.07,0.98,12.23,1.01
		c0.69-0.17,1.59-0.37,2.21-0.62c0.48-0.34,0.86-0.65,1.12-0.89c1.05-0.96,2.06-1.96,2.98-3.03c0.12-0.88,0.44-1.98,0.68-3.03
		c0.37-2.79,0.78-5.63,1.77-8.13c0.09-0.79,0.18-1.53,0.31-2.24c0.23-0.71,0.45-1.2,0.62-1.36c1.34-1.35,3.35-2,5.52-2.56
		c0.48-0.11,1.11-0.29,1.76-0.47s1.64-0.49,1.78-0.49c5.76-2.78,10.05-9.23,16.06-9.61c3.3-0.12,6.95,3.62,10.63,5.64
		c0.75,0.02,1.73,0.18,2.46,0.24C271.46,35.97,274.52,36.75,276.34,38.25z"/>
	<path class="st8" d="M276.13,39.92c0,0-23.33-2.24-33.64,9.29c0,0-0.2,7.21-9.46,17.73c-9.25,10.52-28.77-4.76-36.65,39.58"/>
</g>
<g>
	<g>
		<path class="st9" d="M104.04,127.7c-2.1,1.51-1.67-1.98-1.5-5.85c0.01-0.18-0.06-0.45-0.12-0.71c-0.2-0.27-0.41-0.55-0.61-0.82
			c-0.11-0.35-0.21-0.75-0.27-1.08c-0.06-0.42-0.13-0.83-0.23-1.22c-0.1-0.39-0.44-0.96-0.39-1.15c-0.36-0.21-0.73-0.4-1.11-0.58
			c-1.88-0.93-3.91-1.68-5.3-3.01c-1.85-1.79-0.46-5.09-2.07-7.15c-0.39-0.39-0.79-0.78-1.14-1.05c-2.12-1.66-4.65-2.88-7.36-4.1
			c-0.18-0.22-0.31-0.41-0.33-0.55c0.26-1.7,1.8-3.78,2.27-5.76c0.05-0.29,0.17-0.62,0.19-0.93c0.02-0.32-0.06-0.62-0.4-0.85
			c-0.28-0.19-0.63-0.35-1.03-0.48c-1.58-0.55-3.84-0.85-5.35-1.82c-0.3-0.34-0.55-0.69-0.73-1.07c-0.09-0.54-0.17-1.1-0.19-1.55
			c-0.03-0.91-0.01-1.84,0.04-2.79c-0.08-0.25-0.16-0.52-0.23-0.73c2.42,0.2,4.8,0.44,7.17,0.74c0.47,0.06,0.95,0.12,1.42,0.19
			c2.03,0.75,4.59,0.39,6.81,0.38c0.52,0.09,1.07,0.23,1.5,0.32c2.3,2.11,5.54,4.04,6.35,6.75c0.58,1.55-1.71,3.87-2.33,5.89
			c-0.01,0.35-0.03,0.8,0.02,1.12c0.12,0.25,0.23,0.46,0.32,0.6c0.38,0.57,0.78,1.13,1.23,1.64c0.47,0.12,1.02,0.34,1.56,0.52
			c1.48,0.35,2.98,0.74,4.21,1.38c0.42,0.09,0.82,0.18,1.18,0.29c0.36,0.16,0.59,0.3,0.66,0.39c0.54,0.74,0.61,1.76,0.6,2.85
			c-0.01,0.24,0,0.56,0,0.88s0.03,0.83,0.01,0.9c0.69,2.98,3.61,5.48,2.95,8.43c-0.41,1.61-3,3.15-4.64,4.82
			c-0.12,0.36-0.35,0.83-0.49,1.18C106.01,125.47,105.13,126.91,104.04,127.7z"/>
		<path class="st8" d="M103.16,127.49c0,0,4.62-11.22-0.21-16.97c0,0-3.93-0.55-8.37-5.72c-4.44-5.17,6.79-13.71-16.41-20.35"/>
	</g>
	<g>
		<path class="st9" d="M106.49,130.14c-0.98,2.15-2.76-0.77-5-3.85c-0.1-0.14-0.33-0.32-0.56-0.5c-0.35-0.12-0.71-0.24-1.07-0.35
			c-0.32-0.22-0.66-0.48-0.92-0.72c-0.31-0.3-0.64-0.58-0.97-0.84c-0.33-0.26-1-0.54-1.06-0.71c-0.46,0.01-0.92,0.03-1.38,0.06
			c-2.3,0.14-4.62,0.5-6.72,0.11c-2.8-0.53-3.58-3.75-6.33-4.6c-0.6-0.13-1.2-0.24-1.7-0.29c-2.97-0.31-6.04-0.09-9.29,0.22
			c-0.3-0.09-0.54-0.18-0.64-0.27c-0.82-1.44-0.69-3.77-1.49-5.53c-0.13-0.25-0.23-0.56-0.41-0.81s-0.44-0.46-0.9-0.48
			c-0.38-0.02-0.8,0.02-1.24,0.1c-1.79,0.3-4.04,1.11-6.04,1.06c-0.49-0.13-0.93-0.28-1.33-0.49c-0.42-0.38-0.84-0.77-1.14-1.12
			c-0.59-0.69-1.15-1.43-1.69-2.19c-0.23-0.16-0.48-0.33-0.66-0.46c2.35-0.96,4.67-1.88,7.03-2.74c0.47-0.17,0.95-0.34,1.42-0.51
			c2.33-0.36,4.44-1.82,6.48-2.86c0.53-0.17,1.12-0.32,1.57-0.45c3.41,0.57,7.58,0.57,10,2.31c1.5,0.94,0.83,3.8,1.51,5.66
			c0.21,0.27,0.47,0.63,0.71,0.86c0.27,0.14,0.5,0.25,0.67,0.32c0.7,0.27,1.41,0.51,2.14,0.71c0.5-0.12,1.15-0.21,1.76-0.32
			c1.58-0.41,3.19-0.8,4.71-0.88c0.44-0.12,0.86-0.24,1.27-0.32c0.43-0.04,0.73-0.04,0.84,0c0.96,0.32,1.65,1.09,2.32,1.94
			c0.14,0.19,0.34,0.44,0.55,0.69c0.21,0.25,0.54,0.63,0.57,0.7c2.48,2,6.71,2.59,7.92,5.19c0.62,1.45-0.79,3.84-1.27,5.9
			c0.11,0.34,0.19,0.81,0.29,1.14C106.91,127.5,107,129.02,106.49,130.14z"/>
		<path class="st8" d="M105.55,130.39c0,0-2.72-10.87-10.71-13.1c0,0-3.95,1.39-11.22-0.58c-7.27-1.97-2.27-13.81-27.65-8.23"/>
	</g>
</g>
<g>
	<g>
		<path class="st9" d="M38.79,61.36c3.01,0.97,1.89-2.25,1.06-5.89c-0.04-0.17,0.01-0.44,0.05-0.71c0.22-0.3,0.45-0.61,0.68-0.91
			c0.09-0.36,0.16-0.76,0.19-1.09c0.01-0.41,0.05-0.82,0.11-1.21c0.07-0.4,0.43-1.01,0.33-1.17c0.44-0.28,0.9-0.54,1.37-0.8
			c2.33-1.3,4.9-2.46,6.53-4.03c2.16-2.11-0.2-4.94,1.61-7.25c0.45-0.46,0.92-0.91,1.34-1.25c2.55-2.04,5.69-3.77,9.09-5.53
			c0.2-0.25,0.35-0.46,0.35-0.59c-0.61-1.56-2.99-3.19-3.92-4.96c-0.12-0.26-0.32-0.55-0.4-0.85c-0.08-0.3-0.02-0.6,0.39-0.9
			c0.34-0.25,0.78-0.47,1.28-0.69c2-0.88,4.94-1.66,6.8-2.92c0.35-0.39,0.62-0.78,0.8-1.17c0.04-0.54,0.06-1.08,0-1.52
			c-0.1-0.87-0.28-1.75-0.5-2.64c0.07-0.26,0.13-0.53,0.18-0.74c-3.17,0.73-6.28,1.48-9.37,2.29c-0.62,0.16-1.24,0.33-1.86,0.49
			c-2.57,1.17-6.01,1.38-8.95,1.87c-0.68,0.2-1.38,0.46-1.94,0.64c-2.71,2.51-6.7,5.06-7.33,7.82c-0.52,1.6,2.88,3.3,4.03,5.08
			c0.07,0.33,0.16,0.75,0.16,1.06c-0.12,0.27-0.23,0.49-0.33,0.64c-0.41,0.63-0.85,1.24-1.36,1.83c-0.6,0.21-1.3,0.55-1.99,0.84
			c-1.9,0.66-3.82,1.36-5.35,2.24c-0.54,0.18-1.05,0.35-1.52,0.54c-0.45,0.23-0.74,0.41-0.81,0.51c-0.6,0.82-0.53,1.8-0.34,2.84
			c0.05,0.23,0.1,0.53,0.14,0.84c0.04,0.31,0.09,0.8,0.13,0.86c-0.44,2.99-3.91,6-2.56,8.66c0.8,1.44,4.47,2.33,6.91,3.55
			c0.22,0.32,0.59,0.71,0.83,1.01C35.83,59.67,37.22,60.85,38.79,61.36z"/>
		<path class="st8" d="M39.93,60.97c0,0-7.9-9.63-2.42-16.17c0,0,5.11-1.4,10.16-7.29S36.49,25.99,66.15,14.54"/>
	</g>
	<g>
		<path class="st9" d="M35.94,64.22c1.64,1.82,3.53-1.34,6-4.77c0.11-0.16,0.39-0.38,0.66-0.6c0.45-0.19,0.9-0.38,1.35-0.57
			c0.39-0.28,0.79-0.6,1.11-0.88c0.37-0.36,0.75-0.69,1.15-1.02c0.4-0.32,1.23-0.74,1.29-0.91c0.61-0.1,1.22-0.18,1.83-0.25
			c3.06-0.37,6.2-0.55,8.91-1.38c3.63-1.13,4.14-4.36,7.65-5.77c0.77-0.25,1.55-0.49,2.2-0.65c3.89-0.95,7.99-1.43,12.33-1.85
			c0.38-0.15,0.69-0.29,0.8-0.4c0.85-1.55,0.31-3.74,1.09-5.58c0.13-0.26,0.21-0.58,0.41-0.86c0.2-0.28,0.51-0.53,1.11-0.65
			c0.5-0.1,1.06-0.15,1.66-0.18c2.41-0.11,5.53,0.16,8.16-0.33c0.63-0.23,1.19-0.47,1.68-0.76c0.5-0.45,0.99-0.92,1.33-1.32
			c0.68-0.79,1.3-1.61,1.89-2.45c0.28-0.2,0.58-0.42,0.8-0.58c-3.26-0.39-6.48-0.75-9.74-1.05c-0.65-0.06-1.31-0.12-1.96-0.17
			c-3.14,0.18-6.17-0.75-9.02-1.28c-0.73-0.05-1.53-0.05-2.15-0.08c-4.42,1.3-9.95,2.23-12.87,4.41c-1.83,1.22-0.49,3.8-1.1,5.72
			c-0.23,0.31-0.52,0.7-0.8,0.97c-0.33,0.19-0.62,0.35-0.84,0.45c-0.88,0.41-1.79,0.8-2.72,1.15c-0.68-0.01-1.55,0.05-2.37,0.09
			c-2.15-0.04-4.34-0.06-6.38,0.21c-0.61-0.02-1.18-0.03-1.73-0.02c-0.57,0.05-0.97,0.12-1.11,0.18c-1.21,0.52-2.01,1.4-2.76,2.36
			c-0.16,0.21-0.38,0.49-0.62,0.77c-0.23,0.28-0.62,0.72-0.64,0.79c-2.97,2.45-8.46,3.95-9.66,6.69c-0.59,1.51,1.66,3.47,2.62,5.32
			c-0.1,0.35-0.13,0.81-0.2,1.15C34.97,61.8,35.09,63.27,35.94,64.22z"/>
		<path class="st8" d="M37.22,64.25c0,0,1.87-10.93,12.09-14.82c0,0,5.44,0.44,14.75-3.04s0.81-13.62,35.29-13.95"/>
	</g>
</g>
<g>
	<g>
		<path class="st9" d="M53.38,183.46c3.94,1.2,2.47-2.77,1.38-7.24c-0.05-0.2,0.01-0.54,0.07-0.87c0.29-0.37,0.59-0.75,0.89-1.12
			c0.12-0.44,0.21-0.93,0.25-1.34c0.01-0.51,0.06-1,0.15-1.49c0.09-0.49,0.56-1.24,0.43-1.44c0.58-0.34,1.18-0.66,1.79-0.98
			c3.05-1.6,6.4-3.03,8.53-4.96c2.83-2.59-0.26-6.08,2.1-8.92c0.58-0.56,1.2-1.12,1.75-1.54c3.33-2.51,7.43-4.63,11.87-6.8
			c0.26-0.31,0.45-0.57,0.46-0.73c-0.8-1.91-3.9-3.92-5.12-6.11c-0.15-0.32-0.42-0.67-0.52-1.04c-0.1-0.37-0.02-0.74,0.51-1.11
			c0.45-0.3,1.02-0.58,1.68-0.85c2.61-1.08,6.45-2.04,8.88-3.59c0.46-0.48,0.8-0.95,1.04-1.44c0.05-0.66,0.07-1.33,0.01-1.87
			c-0.14-1.07-0.36-2.16-0.65-3.25c0.09-0.32,0.18-0.66,0.24-0.91c-4.14,0.9-8.2,1.82-12.24,2.82c-0.81,0.2-1.62,0.4-2.42,0.61
			c-3.36,1.43-7.85,1.7-11.69,2.3c-0.88,0.24-1.8,0.56-2.53,0.78c-3.54,3.09-8.74,6.23-9.57,9.61c-0.68,1.97,3.76,4.05,5.26,6.25
			c0.09,0.4,0.21,0.92,0.2,1.31c-0.15,0.33-0.3,0.6-0.44,0.79c-0.53,0.77-1.11,1.53-1.78,2.25c-0.78,0.26-1.7,0.67-2.59,1.04
			c-2.49,0.82-4.99,1.67-6.99,2.75c-0.71,0.22-1.37,0.44-1.99,0.67c-0.58,0.28-0.96,0.51-1.05,0.63c-0.79,1.01-0.69,2.22-0.45,3.49
			c0.06,0.28,0.12,0.65,0.18,1.03c0.06,0.38,0.12,0.98,0.17,1.05c-0.57,3.67-5.1,7.38-3.34,10.65c1.05,1.77,5.84,2.87,9.03,4.36
			c0.29,0.39,0.78,0.87,1.09,1.25C49.52,181.39,51.33,182.84,53.38,183.46z"/>
		<path class="st8" d="M54.87,182.98c0,0-10.32-11.85-3.16-19.88c0,0,6.68-1.72,13.27-8.97c6.59-7.25-14.59-14.16,24.14-28.25"/>
	</g>
	<g>
		<path class="st9" d="M49.66,186.99c2.14,2.24,4.61-1.65,7.84-5.86c0.15-0.19,0.51-0.47,0.86-0.73c0.58-0.23,1.18-0.47,1.77-0.7
			c0.51-0.35,1.04-0.74,1.45-1.09c0.48-0.44,0.98-0.85,1.5-1.25c0.52-0.4,1.61-0.9,1.69-1.12c0.79-0.12,1.59-0.22,2.39-0.31
			c4-0.46,8.09-0.67,11.64-1.7c4.74-1.39,5.41-5.36,9.99-7.1c1-0.31,2.03-0.61,2.87-0.8c5.08-1.17,10.43-1.75,16.1-2.28
			c0.5-0.19,0.9-0.35,1.05-0.49c1.11-1.91,0.4-4.59,1.43-6.86c0.17-0.32,0.27-0.71,0.53-1.06c0.26-0.35,0.67-0.65,1.45-0.8
			c0.65-0.12,1.38-0.19,2.17-0.22c3.15-0.14,7.22,0.2,10.66-0.41c0.82-0.28,1.55-0.58,2.2-0.94c0.65-0.56,1.29-1.13,1.73-1.62
			c0.88-0.97,1.7-1.98,2.47-3.02c0.37-0.25,0.75-0.52,1.04-0.72c-4.26-0.49-8.46-0.92-12.72-1.29c-0.85-0.07-1.71-0.14-2.56-0.21
			c-4.1,0.22-8.06-0.92-11.79-1.58c-0.96-0.06-2-0.06-2.81-0.09c-5.78,1.6-12.99,2.74-16.8,5.43c-2.39,1.5-0.64,4.67-1.44,7.03
			c-0.3,0.38-0.68,0.87-1.04,1.2c-0.43,0.24-0.8,0.43-1.09,0.55c-1.15,0.51-2.33,0.99-3.56,1.41c-0.89-0.01-2.03,0.07-3.1,0.11
			c-2.81-0.05-5.67-0.07-8.33,0.26c-0.79-0.02-1.54-0.04-2.26-0.03c-0.75,0.07-1.26,0.15-1.46,0.23c-1.59,0.64-2.62,1.72-3.6,2.9
			c-0.2,0.26-0.5,0.61-0.81,0.95s-0.81,0.88-0.83,0.97c-3.87,3.01-11.05,4.85-12.62,8.22c-0.77,1.86,2.17,4.27,3.42,6.54
			c-0.12,0.43-0.17,1-0.26,1.41C48.39,184.01,48.55,185.82,49.66,186.99z"/>
		<path class="st8" d="M51.34,187.02c0,0,2.44-13.44,15.79-18.23c0,0,7.11,0.55,19.27-3.74c12.16-4.28,1.05-16.76,46.09-17.16"/>
	</g>
</g>
</svg>
