<?xml version="1.0" encoding="utf-8"?>
<!-- Generator: Adobe Illustrator 26.0.1, SVG Export Plug-In . SVG Version: 6.00 Build 0)  -->
<svg version="1.2" baseProfile="tiny" id="Слой_1"
	 xmlns="http://www.w3.org/2000/svg" xmlns:xlink="http://www.w3.org/1999/xlink" x="0px" y="0px" viewBox="0 0 87.2 85.9"
	 overflow="visible" xml:space="preserve">
<g display="none">
	<g display="inline">
	</g>
	<g display="inline">
		<polygon fill="#00F0FC" points="87.2,85.9 43.6,85.9 21.8,85.9 0,85.9 0,43 0,21.5 0,0 21.8,0 43.6,0 87.2,0 87.2,21.5 87.2,43 		
			"/>
		<path fill="#01EFFC" d="M43.6,0.1c0,0,43.4,0,43.4,0c0,0,0,21.4,0,21.4c0,0,0,21.4,0,21.4c0,0,0,42.8,0,42.8c0,0-43.4,0-43.4,0
			c0,0-21.7,0-21.7,0c0,0-21.7,0-21.7,0c0,0,0-42.8,0-42.8c0,0,0-21.4,0-21.4c0,0,0-21.4,0-21.4c0,0,21.7,0,21.7,0
			C21.9,0.1,43.6,0.1,43.6,0.1z"/>
		<path fill="#02EEFB" d="M43.6,0.3c0.1,0,43.2,0,43.3,0.1c0,0,0,21.3,0,21.3c0,0,0,21.3,0,21.3c0,0.1,0,42.6-0.1,42.6
			c0,0-43.2,0.1-43.3,0.1c0,0-21.6,0-21.6,0c0,0-21.6,0-21.6,0c0,0-0.1-42.6-0.1-42.6c0,0,0-21.3,0-21.3c0,0,0-21.3,0-21.3
			c0,0,21.6,0,21.6,0C22,0.3,43.6,0.3,43.6,0.3z"/>
		<path fill="#03EDFB" d="M43.6,0.4c0.1,0,43,0,43.1,0.1c0,0,0.1,21.2,0.1,21.2c0,0,0,21.2,0,21.2c0,0.1,0,42.4-0.1,42.5
			c-0.1,0.1-43,0.1-43.1,0.1c0,0-21.5,0-21.6,0c0,0-21.5,0-21.5-0.1C0.5,85.3,0.4,43,0.4,42.9c0,0,0-21.2,0-21.2
			c0,0,0-21.2,0.1-21.2c0,0,21.5-0.1,21.5-0.1C22.1,0.4,43.6,0.4,43.6,0.4z"/>
		<path fill="#03ECFB" d="M43.6,0.5c0.1,0,42.8,0.1,42.9,0.1c0,0,0.1,21.1,0.1,21.1c0,0.1,0,21.1,0,21.2c0,0.1-0.1,42.2-0.1,42.3
			c-0.1,0.1-42.8,0.1-42.9,0.1c-0.1,0-21.4,0-21.5,0c-0.1,0-21.4-0.1-21.4-0.1c-0.1-0.1-0.1-42.2-0.1-42.3c0-0.1,0-21.1,0-21.2
			c0-0.1,0.1-21.1,0.1-21.1c0,0,21.4-0.1,21.4-0.1C22.2,0.5,43.6,0.5,43.6,0.5z"/>
		<path fill="#04EBFA" d="M43.6,0.7c0.2,0,42.6,0.1,42.7,0.2c0.1,0.1,0.1,21,0.1,21c0,0.1,0,21,0,21.1c0,0.2-0.1,42-0.2,42.1
			c-0.1,0.1-42.6,0.2-42.7,0.2c-0.1,0-21.3,0-21.4,0c-0.1,0-21.3-0.1-21.4-0.1c-0.1-0.1-0.2-42-0.2-42.1c0-0.1,0-21,0-21.1
			c0-0.1,0.1-21,0.1-21c0.1-0.1,21.3-0.1,21.4-0.1C22.3,0.7,43.6,0.7,43.6,0.7z"/>
		<path fill="#05EAFA" d="M43.6,0.8c0.2,0,42.4,0.1,42.6,0.2c0.1,0.1,0.1,20.9,0.1,21c0,0.1,0.1,20.9,0.1,21
			c0,0.2-0.1,41.8-0.2,41.9c-0.1,0.1-42.4,0.2-42.6,0.2c-0.1,0-21.2,0-21.3-0.1c-0.1,0-21.2-0.1-21.3-0.1
			c-0.1-0.1-0.2-41.8-0.2-41.9c0-0.1,0-20.9,0.1-21C1,21.9,1,1,1.1,1c0.1-0.1,21.2-0.1,21.3-0.1C22.4,0.8,43.5,0.8,43.6,0.8z"/>
		<path fill="#06E9FA" d="M43.6,0.9C43.9,0.9,85.9,1,86,1.1c0.1,0.1,0.1,20.8,0.2,20.9c0,0.1,0.1,20.8,0.1,20.9
			c0,0.2-0.1,41.6-0.2,41.8s-42.2,0.2-42.4,0.2c-0.1,0-21.1,0-21.2-0.1c-0.1,0-21.1-0.1-21.2-0.2C1.1,84.5,1,43.1,1,42.9
			C1,42.8,1,22.1,1.1,22c0-0.1,0.1-20.8,0.2-20.9C1.3,1.1,22.3,1,22.4,1C22.5,0.9,43.5,0.9,43.6,0.9z"/>
		<path fill="#07E8FA" d="M43.6,1c0.2,0,42.1,0.1,42.2,0.3C85.9,1.4,86,22,86,22.1c0,0.1,0.1,20.7,0.1,20.8c0,0.2-0.1,41.4-0.3,41.6
			c-0.2,0.2-42,0.3-42.2,0.3c-0.1,0-21,0-21.1-0.1c-0.1,0-21-0.1-21.1-0.2c-0.2-0.2-0.3-41.4-0.3-41.6c0-0.1,0-20.7,0.1-20.8
			C1.3,22,1.3,1.4,1.4,1.3c0.1-0.1,21-0.2,21.1-0.2C22.6,1.1,43.5,1,43.6,1z"/>
		<path fill="#08E7F9" d="M43.6,1.2c0.3,0,41.9,0.1,42,0.3c0.1,0.1,0.2,20.6,0.2,20.7c0,0.1,0.1,20.6,0.1,20.7
			c0,0.3-0.1,41.3-0.3,41.4c-0.2,0.2-41.8,0.3-42,0.3c-0.1,0-20.9,0-21.1-0.1c-0.1-0.1-20.9-0.1-21-0.2c-0.2-0.2-0.3-41.2-0.3-41.4
			c0-0.1,0-20.6,0.1-20.7C1.4,22,1.5,1.6,1.6,1.5c0.1-0.1,20.9-0.2,21-0.2C22.7,1.2,43.5,1.2,43.6,1.2z"/>
		<path fill="#08E6F9" d="M43.6,1.3c0.3,0,41.7,0.1,41.9,0.3c0.1,0.1,0.2,20.5,0.2,20.6c0.1,0.1,0.1,20.5,0.1,20.7
			c0,0.3-0.1,41.1-0.3,41.3c-0.2,0.2-41.6,0.3-41.9,0.3c-0.2,0-20.8,0-21-0.1c-0.1-0.1-20.8-0.1-20.9-0.2c-0.2-0.2-0.3-41-0.3-41.3
			c0-0.2,0-20.5,0.1-20.7C1.6,22.1,1.7,1.7,1.8,1.6c0.1-0.1,20.8-0.2,20.9-0.2C22.8,1.3,43.5,1.3,43.6,1.3z"/>
		<path fill="#09E5F9" d="M43.6,1.4c0.3,0,41.5,0.1,41.7,0.4c0.1,0.1,0.2,20.4,0.3,20.5c0.1,0.1,0.1,20.4,0.1,20.6
			c0,0.3-0.1,40.9-0.4,41.1S44,84.3,43.6,84.3c-0.2,0-20.7,0-20.9-0.1C22.6,84.2,2.1,84.1,2,84c-0.2-0.2-0.4-40.7-0.4-41.1
			c0-0.2,0-20.4,0.1-20.6C1.8,22.2,1.8,1.9,2,1.8c0.1-0.1,20.7-0.2,20.8-0.3C22.9,1.5,43.5,1.4,43.6,1.4z"/>
		<path fill="#0AE4F8" d="M43.7,1.6C44,1.6,84.9,1.7,85.2,2c0.1,0.1,0.2,20.3,0.3,20.4c0.1,0.2,0.1,20.3,0.1,20.5
			c0,0.4-0.2,40.7-0.4,40.9C84.9,84,44,84.2,43.7,84.2c-0.2,0-20.6,0-20.8-0.1C22.7,84,2.3,83.9,2.1,83.8
			c-0.2-0.2-0.4-40.5-0.4-40.9c0-0.2,0-20.3,0.1-20.5C1.9,22.2,2,2.1,2.1,2c0.1-0.1,20.6-0.2,20.7-0.3C23,1.6,43.5,1.6,43.7,1.6z"/>
		<path fill="#0BE3F8" d="M43.7,1.7c0.4,0,41.1,0.2,41.3,0.4c0.1,0.1,0.2,20.2,0.3,20.3c0.1,0.2,0.1,20.2,0.1,20.4
			c0,0.4-0.2,40.5-0.4,40.8c-0.3,0.3-40.9,0.4-41.3,0.4c-0.2,0-20.5,0-20.7-0.1c-0.2-0.1-20.5-0.2-20.6-0.3
			C2,83.4,1.9,43.3,1.9,42.9c0-0.2,0-20.2,0.1-20.4C2.1,22.3,2.2,2.3,2.3,2.1C2.4,2,22.8,1.9,22.9,1.8C23.1,1.7,43.5,1.7,43.7,1.7z"
			/>
		<path fill="#0CE2F8" d="M43.7,1.8c0.4,0,40.9,0.2,41.2,0.5c0.1,0.1,0.3,20.1,0.3,20.2c0.1,0.2,0.1,20.1,0.1,20.3
			c0,0.4-0.2,40.3-0.5,40.6s-40.7,0.5-41.2,0.5c-0.2,0-20.4,0-20.6-0.1c-0.2-0.1-20.4-0.2-20.5-0.3C2.2,83.2,2,43.3,2,42.9
			c0-0.2,0-20.1,0.1-20.3C2.2,22.3,2.3,2.4,2.5,2.3C2.6,2.1,22.8,2,23,1.9C23.2,1.9,43.4,1.8,43.7,1.8z"/>
		<path fill="#0DE1F7" d="M43.7,2c0.5,0,40.7,0.2,41,0.5c0.2,0.2,0.3,20,0.4,20.2c0.1,0.2,0.1,20,0.1,20.3c0,0.5-0.2,40.1-0.5,40.4
			s-40.5,0.5-41,0.5c-0.2,0-20.4,0-20.6-0.1c-0.2-0.1-20.3-0.2-20.4-0.4C2.4,83,2.2,43.3,2.2,42.9c0-0.2,0-20.1,0.1-20.2
			c0.1-0.2,0.2-20,0.4-20.2c0.2-0.2,20.2-0.3,20.4-0.4C23.3,2,43.4,2,43.7,2z"/>
		<path fill="#0DE0F7" d="M43.7,2.1c0.5,0,40.5,0.2,40.8,0.5c0.2,0.2,0.3,19.8,0.4,20.1C85,22.9,85,42.6,85,42.9
			c0,0.5-0.2,39.9-0.5,40.2c-0.3,0.3-40.3,0.5-40.8,0.5c-0.2,0-20.3,0-20.5-0.1C23,83.4,3,83.2,2.8,83.1c-0.3-0.3-0.5-39.7-0.5-40.2
			c0-0.2,0-20,0.1-20.2C2.5,22.5,2.7,2.8,2.8,2.6C3,2.5,23,2.3,23.2,2.2C23.4,2.1,43.4,2.1,43.7,2.1z"/>
		<path fill="#0EDFF7" d="M43.7,2.2c0.5,0,40.3,0.2,40.6,0.6c0.2,0.2,0.3,19.7,0.4,20c0.1,0.2,0.1,19.8,0.1,20.1
			c0,0.5-0.2,39.7-0.6,40.1s-40.1,0.6-40.6,0.6c-0.3,0-20.2-0.1-20.4-0.1C23.1,83.2,3.2,83.1,3,82.9c-0.3-0.3-0.5-39.5-0.5-40.1
			c0-0.3,0.1-19.9,0.1-20.1C2.7,22.5,2.8,3,3,2.8c0.2-0.2,20-0.3,20.3-0.4C23.5,2.3,43.4,2.2,43.7,2.2z"/>
		<path fill="#0FDEF7" d="M43.7,2.4c0.6,0,40.1,0.2,40.5,0.6c0.2,0.2,0.3,19.6,0.4,19.9c0.1,0.2,0.2,19.7,0.2,20
			c0,0.6-0.2,39.5-0.6,39.9s-39.9,0.6-40.5,0.6c-0.3,0-20.1-0.1-20.3-0.2c-0.2-0.1-20-0.3-20.2-0.4c-0.4-0.4-0.6-39.3-0.6-39.9
			c0-0.3,0.1-19.8,0.2-20C2.9,22.6,3,3.1,3.2,2.9c0.2-0.2,19.9-0.3,20.2-0.4C23.6,2.4,43.4,2.4,43.7,2.4z"/>
		<path fill="#10DDF6" d="M43.7,2.5c0.6,0,39.9,0.2,40.3,0.6c0.2,0.2,0.4,19.5,0.5,19.8c0.1,0.3,0.2,19.6,0.2,19.9
			c0,0.6-0.2,39.3-0.6,39.7c-0.4,0.4-39.7,0.6-40.3,0.6c-0.3,0-20-0.1-20.2-0.2c-0.3-0.1-19.9-0.3-20.1-0.5
			C3,82.2,2.8,43.4,2.8,42.8c0-0.3,0.1-19.7,0.2-19.9C3,22.7,3.2,3.3,3.4,3.1c0.2-0.2,19.8-0.4,20.1-0.5C23.7,2.5,43.4,2.5,43.7,2.5
			z"/>
		<path fill="#11DCF6" d="M43.7,2.6c0.6,0,39.7,0.3,40.1,0.7C84,3.5,84.2,22.7,84.3,23c0.1,0.3,0.2,19.5,0.2,19.8
			c0,0.6-0.3,39.2-0.7,39.6C83.4,82.8,44.3,83,43.7,83c-0.3,0-19.9-0.1-20.1-0.2c-0.3-0.1-19.8-0.3-20-0.5C3.2,82,2.9,43.4,2.9,42.8
			C2.9,42.5,3,23.2,3.1,23C3.2,22.7,3.3,3.5,3.6,3.3c0.2-0.2,19.7-0.4,20-0.5C23.8,2.7,43.4,2.6,43.7,2.6z"/>
		<path fill="#12DBF6" d="M43.7,2.7c0.6,0,39.5,0.3,39.9,0.7c0.2,0.2,0.4,19.3,0.5,19.6c0.1,0.3,0.2,19.4,0.2,19.8
			c0,0.6-0.3,39-0.7,39.4s-39.3,0.7-39.9,0.7c-0.3,0-19.8-0.1-20-0.2c-0.3-0.1-19.7-0.3-19.9-0.5C3.3,81.8,3,43.5,3,42.8
			c0-0.3,0.1-19.5,0.2-19.8C3.3,22.8,3.5,3.7,3.7,3.4C3.9,3.2,23.3,3,23.6,2.9C23.9,2.8,43.4,2.7,43.7,2.7z"/>
		<path fill="#13DAF5" d="M43.7,2.9c0.7,0,39.3,0.3,39.8,0.7c0.2,0.2,0.4,19.2,0.5,19.5c0.1,0.3,0.2,19.3,0.2,19.7
			c0,0.7-0.3,38.8-0.7,39.2c-0.4,0.4-39.1,0.7-39.8,0.7c-0.3,0-19.7-0.1-20-0.2C23.4,82.4,4.1,82.2,3.9,82
			c-0.4-0.4-0.7-38.5-0.7-39.2c0-0.3,0.1-19.4,0.2-19.7C3.5,22.8,3.7,3.8,3.9,3.6c0.2-0.2,19.5-0.4,19.8-0.5
			C24,2.9,43.4,2.9,43.7,2.9z"/>
		<path fill="#13D9F5" d="M43.7,3c0.7,0,39.1,0.3,39.6,0.8c0.2,0.2,0.4,19.1,0.6,19.4C84,23.5,84,42.5,84,42.8
			c0,0.7-0.3,38.6-0.8,39c-0.5,0.5-38.9,0.8-39.6,0.8c-0.4,0-19.6-0.1-19.9-0.2c-0.3-0.1-19.5-0.3-19.7-0.6
			c-0.5-0.5-0.7-38.3-0.7-39c0-0.3,0.1-19.3,0.2-19.6C3.7,22.9,3.8,4,4.1,3.8c0.2-0.2,19.4-0.4,19.7-0.6C24.1,3.1,43.3,3,43.7,3z"/>
		<path fill="#14D8F5" d="M43.7,3.1c0.7,0,38.9,0.3,39.4,0.8c0.2,0.2,0.4,19,0.6,19.4c0.1,0.3,0.2,19.2,0.2,19.5
			c0,0.7-0.3,38.4-0.8,38.9c-0.5,0.5-38.7,0.8-39.4,0.8c-0.4,0-19.5-0.1-19.8-0.2c-0.3-0.1-19.4-0.3-19.6-0.6
			c-0.5-0.5-0.8-38.1-0.8-38.9c0-0.4,0.1-19.2,0.2-19.5C3.8,23,4,4.2,4.3,3.9c0.2-0.3,19.3-0.5,19.6-0.6C24.2,3.2,43.3,3.1,43.7,3.1
			z"/>
		<path fill="#15D7F4" d="M43.7,3.3c0.8,0,38.7,0.3,39.2,0.8c0.3,0.3,0.5,18.9,0.6,19.3c0.1,0.3,0.2,19.1,0.2,19.4
			c0,0.8-0.3,38.2-0.8,38.7c-0.5,0.5-38.5,0.8-39.2,0.8c-0.4,0-19.4-0.1-19.7-0.2c-0.3-0.1-19.3-0.4-19.5-0.6
			C3.9,81,3.6,43.6,3.6,42.8c0-0.4,0.1-19.1,0.2-19.4C4,23,4.2,4.4,4.4,4.1C4.7,3.8,23.6,3.6,24,3.5C24.3,3.3,43.3,3.3,43.7,3.3z"/>
		<path fill="#16D6F4" d="M43.7,3.4c0.8,0,38.5,0.3,39.1,0.9c0.3,0.3,0.5,18.8,0.6,19.2c0.1,0.3,0.2,19,0.2,19.4
			c0,0.8-0.3,38-0.9,38.5c-0.5,0.5-38.3,0.9-39.1,0.9c-0.4,0-19.3-0.1-19.6-0.2c-0.4-0.1-19.2-0.4-19.5-0.6
			c-0.5-0.5-0.8-37.7-0.8-38.5c0-0.4,0.1-19,0.2-19.3C4.1,23.1,4.4,4.5,4.6,4.3C4.9,4,23.7,3.8,24.1,3.6C24.4,3.5,43.3,3.4,43.7,3.4
			z"/>
		<path fill="#17D5F4" d="M43.7,3.5c0.8,0,38.4,0.3,38.9,0.9c0.3,0.3,0.5,18.7,0.7,19.1c0.1,0.4,0.2,18.9,0.2,19.3
			c0,0.8-0.3,37.8-0.9,38.4C82.1,81.7,44.5,82,43.7,82c-0.4,0-19.2-0.1-19.5-0.2c-0.4-0.2-19.1-0.4-19.4-0.7
			c-0.5-0.5-0.9-37.5-0.9-38.3c0-0.4,0.1-18.9,0.2-19.3C4.3,23.1,4.5,4.7,4.8,4.4c0.3-0.3,19-0.5,19.4-0.7
			C24.5,3.6,43.3,3.5,43.7,3.5z"/>
		<path fill="#18D4F4" d="M43.7,3.7c0.9,0,38.2,0.4,38.7,0.9c0.3,0.3,0.5,18.6,0.7,19c0.2,0.4,0.2,18.8,0.2,19.2
			c0,0.9-0.4,37.6-0.9,38.2s-37.9,0.9-38.7,0.9c-0.4,0-19.1-0.1-19.5-0.2c-0.4-0.2-19-0.4-19.3-0.7c-0.6-0.6-0.9-37.3-0.9-38.2
			c0-0.4,0.1-18.8,0.2-19.2C4.5,23.2,4.7,4.9,5,4.6c0.3-0.3,18.9-0.5,19.3-0.7C24.6,3.7,43.3,3.7,43.7,3.7z"/>
		<path fill="#18D3F3" d="M43.7,3.8c0.9,0,38,0.4,38.6,1C82.6,5,82.8,23.3,83,23.7c0.2,0.4,0.2,18.7,0.2,19.1c0,0.9-0.4,37.4-1,38
			s-37.7,1-38.6,1c-0.4,0-19-0.1-19.4-0.3c-0.4-0.2-18.9-0.4-19.2-0.7c-0.6-0.6-0.9-37.1-0.9-38c0-0.4,0.1-18.7,0.2-19.1
			C4.6,23.3,4.9,5,5.1,4.8C5.4,4.4,23.9,4.2,24.3,4C24.7,3.9,43.3,3.8,43.7,3.8z"/>
		<path fill="#19D2F3" d="M43.7,3.9c0.9,0,37.8,0.4,38.4,1c0.3,0.3,0.6,18.4,0.7,18.8c0.2,0.4,0.3,18.6,0.3,19
			c0,0.9-0.4,37.2-1,37.8c-0.6,0.6-37.5,1-38.4,1c-0.5,0-18.9-0.1-19.3-0.3C24,81.1,5.6,80.9,5.3,80.6c-0.6-0.6-1-36.9-1-37.8
			c0-0.5,0.1-18.6,0.3-19C4.8,23.3,5,5.2,5.3,4.9C5.6,4.6,24,4.3,24.4,4.2C24.8,4,43.3,3.9,43.7,3.9z"/>
		<path fill="#1AD1F3" d="M43.7,4c1,0,37.6,0.4,38.2,1c0.3,0.3,0.6,18.3,0.8,18.7c0.2,0.4,0.3,18.5,0.3,18.9c0,1-0.4,37-1,37.7
			s-37.2,1-38.2,1c-0.5,0-18.8-0.1-19.2-0.3c-0.4-0.2-18.7-0.4-19-0.8c-0.6-0.6-1-36.7-1-37.7c0-0.5,0.1-18.5,0.3-18.9
			C4.9,23.4,5.2,5.4,5.5,5.1c0.3-0.3,18.6-0.6,19-0.8C24.9,4.1,43.2,4,43.7,4z"/>
		<path fill="#1BD0F2" d="M43.7,4.2c1,0,37.4,0.4,38,1c0.3,0.3,0.6,18.2,0.8,18.6c0.2,0.4,0.3,18.4,0.3,18.9c0,1-0.4,36.9-1,37.5
			s-37,1-38,1c-0.5,0-18.7-0.1-19.1-0.3C24.2,80.8,6,80.6,5.7,80.2c-0.6-0.6-1-36.5-1-37.5c0-0.5,0.1-18.4,0.3-18.8
			C5.1,23.5,5.4,5.6,5.7,5.2C6,4.9,24.2,4.6,24.6,4.5C25,4.3,43.2,4.2,43.7,4.2z"/>
		<path fill="#1CCFF2" d="M43.7,4.3c1,0,37.2,0.4,37.9,1.1c0.3,0.3,0.6,18.1,0.8,18.6c0.2,0.4,0.3,18.3,0.3,18.8
			c0,1-0.4,36.7-1.1,37.3s-36.8,1.1-37.9,1.1c-0.5,0-18.6-0.1-19-0.3C24.2,80.7,6.2,80.4,5.9,80c-0.7-0.7-1.1-36.3-1.1-37.3
			c0-0.5,0.1-18.3,0.3-18.8C5.3,23.5,5.5,5.7,5.9,5.4c0.3-0.3,18.4-0.6,18.8-0.8C25.1,4.4,43.2,4.3,43.7,4.3z"/>
		<path fill="#1DCEF2" d="M43.7,4.4c1.1,0,37,0.4,37.7,1.1c0.4,0.4,0.6,18,0.8,18.5c0.2,0.4,0.3,18.2,0.3,18.7
			c0,1.1-0.4,36.5-1.1,37.2S44.8,81,43.7,81c-0.5,0-18.5-0.1-19-0.3C24.3,80.5,6.4,80.2,6,79.9c-0.7-0.7-1.1-36.1-1.1-37.1
			C4.9,42.2,5,24.5,5.2,24C5.4,23.6,5.7,5.9,6,5.6c0.4-0.4,18.3-0.6,18.7-0.8C25.2,4.5,43.2,4.4,43.7,4.4z"/>
		<path fill="#1ECDF1" d="M43.7,4.6c1.1,0,36.8,0.4,37.5,1.1c0.4,0.4,0.7,17.9,0.8,18.4c0.2,0.5,0.3,18.1,0.3,18.6
			c0,1.1-0.4,36.3-1.1,37s-36.4,1.1-37.5,1.1c-0.5,0-18.4-0.1-18.9-0.3c-0.5-0.2-18.3-0.5-18.6-0.9c-0.7-0.7-1.1-35.9-1.1-37
			c0-0.5,0.1-18.1,0.3-18.6c0.2-0.5,0.5-18,0.8-18.4c0.4-0.4,18.2-0.7,18.6-0.9C25.3,4.7,43.2,4.6,43.7,4.6z"/>
		<path fill="#1ECCF1" d="M43.7,4.7c1.1,0,36.6,0.5,37.3,1.2c0.4,0.4,0.7,17.8,0.9,18.3c0.2,0.5,0.3,18,0.3,18.5
			c0,1.1-0.5,36.1-1.2,36.8s-36.2,1.2-37.3,1.2c-0.6,0-18.3-0.1-18.8-0.3c-0.5-0.2-18.2-0.5-18.6-0.9c-0.7-0.7-1.2-35.7-1.2-36.8
			c0-0.5,0.1-18,0.3-18.5C5.7,23.7,6,6.3,6.4,5.9C6.8,5.5,24.4,5.2,24.9,5C25.4,4.8,43.2,4.7,43.7,4.7z"/>
		<path fill="#1FCBF1" d="M43.7,4.8c1.1,0,36.4,0.5,37.2,1.2c0.4,0.4,0.7,17.7,0.9,18.2c0.2,0.5,0.3,17.9,0.3,18.4
			c0,1.1-0.5,35.9-1.2,36.7c-0.7,0.7-36,1.2-37.2,1.2c-0.6,0-18.2-0.1-18.7-0.3C24.5,80,7,79.7,6.6,79.3c-0.7-0.7-1.2-35.5-1.2-36.6
			c0-0.6,0.1-18,0.3-18.4C5.9,23.8,6.2,6.4,6.6,6.1C7,5.7,24.5,5.4,25,5.2C25.5,4.9,43.2,4.8,43.7,4.8z"/>
		<path fill="#20CAF1" d="M43.7,5c1.2,0,36.2,0.5,37,1.2c0.4,0.4,0.7,17.6,0.9,18.1c0.2,0.5,0.3,17.8,0.3,18.4
			c0,1.2-0.5,35.7-1.2,36.5c-0.8,0.8-35.8,1.2-37,1.2c-0.6,0-18.1-0.1-18.6-0.3c-0.5-0.2-18-0.5-18.4-0.9C6,78.4,5.5,43.9,5.5,42.7
			c0-0.6,0.1-17.9,0.3-18.4C6,23.8,6.4,6.6,6.7,6.2c0.4-0.4,17.8-0.7,18.4-0.9C25.6,5.1,43.2,5,43.7,5z"/>
		<path fill="#21C9F0" d="M43.7,5.1c1.2,0,36,0.5,36.8,1.3c0.4,0.4,0.7,17.5,0.9,18c0.2,0.5,0.3,17.7,0.3,18.3
			c0,1.2-0.5,35.5-1.3,36.3S45,80.3,43.7,80.3c-0.6,0-18-0.1-18.5-0.3c-0.5-0.2-17.9-0.6-18.3-1c-0.8-0.8-1.3-35.1-1.3-36.3
			c0-0.6,0.1-17.8,0.3-18.3c0.2-0.5,0.5-17.6,0.9-18c0.4-0.4,17.7-0.7,18.3-1C25.7,5.2,43.2,5.1,43.7,5.1z"/>
		<path fill="#22C8F0" d="M43.8,5.2c1.2,0,35.8,0.5,36.6,1.3c0.4,0.4,0.7,17.4,1,17.9c0.2,0.5,0.3,17.6,0.3,18.2
			c0,1.2-0.5,35.3-1.3,36.1c-0.8,0.8-35.4,1.3-36.6,1.3c-0.6,0-17.9-0.1-18.5-0.3c-0.6-0.2-17.8-0.6-18.2-1
			C6.3,78,5.8,43.9,5.8,42.7c0-0.6,0.1-17.7,0.3-18.2C6.4,23.9,6.7,7,7.1,6.6c0.4-0.4,17.6-0.8,18.2-1C25.8,5.3,43.1,5.2,43.8,5.2z"
			/>
		<path fill="#23C7F0" d="M43.8,5.4c1.3,0,35.6,0.5,36.5,1.3c0.4,0.4,0.8,17.3,1,17.9c0.2,0.5,0.3,17.5,0.3,18.1
			c0,1.3-0.5,35.1-1.3,36C79.4,79.5,45,80,43.8,80c-0.6,0-17.8-0.1-18.4-0.4c-0.6-0.2-17.7-0.6-18.1-1C6.5,77.8,6,43.9,6,42.7
			c0-0.6,0.1-17.6,0.3-18.1C6.5,24,6.9,7.1,7.3,6.7c0.4-0.4,17.5-0.8,18.1-1C25.9,5.5,43.1,5.4,43.8,5.4z"/>
		<path fill="#23C6EF" d="M43.8,5.5C45.1,5.5,79.2,6,80,6.9c0.4,0.4,0.8,17.2,1,17.8c0.2,0.6,0.4,17.4,0.4,18
			c0,1.3-0.5,34.9-1.4,35.8c-0.9,0.9-35,1.4-36.3,1.4c-0.6,0-17.7-0.1-18.3-0.4c-0.6-0.2-17.6-0.6-18-1c-0.8-0.8-1.4-34.5-1.4-35.8
			c0-0.6,0.1-17.5,0.4-18C6.7,24.1,7,7.3,7.5,6.9c0.4-0.4,17.4-0.8,18-1C26,5.6,43.1,5.5,43.8,5.5z"/>
		<path fill="#24C5EF" d="M43.8,5.6C45.1,5.6,79,6.2,79.9,7c0.4,0.4,0.8,17.1,1,17.7c0.2,0.6,0.4,17.3,0.4,18
			c0,1.3-0.5,34.8-1.4,35.6c-0.9,0.9-34.8,1.4-36.1,1.4c-0.7,0-17.6-0.1-18.2-0.4C25,79.1,8.1,78.7,7.6,78.3
			C6.8,77.4,6.2,44,6.2,42.7c0-0.6,0.1-17.4,0.4-17.9C6.8,24.1,7.2,7.5,7.6,7C8.1,6.6,25,6.2,25.6,6C26.1,5.7,43.1,5.6,43.8,5.6z"/>
		<path fill="#25C4EF" d="M43.8,5.7c1.4,0,35,0.6,35.9,1.4c0.5,0.5,0.8,17,1.1,17.6c0.2,0.6,0.4,17.2,0.4,17.9
			c0,1.4-0.6,34.6-1.4,35.5c-0.9,0.9-34.6,1.4-35.9,1.4c-0.7,0-17.5-0.1-18.1-0.4C25,78.9,8.3,78.5,7.8,78.1
			C6.9,77.2,6.4,44,6.4,42.6c0-0.7,0.1-17.3,0.4-17.9C7,24.2,7.4,7.7,7.8,7.2C8.3,6.7,25,6.4,25.6,6.1C26.2,5.9,43.1,5.7,43.8,5.7z"
			/>
		<path fill="#26C3EE" d="M43.8,5.9c1.4,0,34.8,0.6,35.8,1.5c0.5,0.5,0.8,16.9,1.1,17.5C80.9,25.4,81,42,81,42.6
			c0,1.4-0.6,34.4-1.5,35.3c-0.9,0.9-34.4,1.5-35.8,1.5c-0.7,0-17.4-0.1-18-0.4C25.1,78.8,8.5,78.4,8,77.9C7.1,77,6.5,44,6.5,42.6
			c0-0.7,0.1-17.2,0.4-17.8C7.2,24.2,7.5,7.8,8,7.4c0.5-0.5,17.1-0.8,17.7-1.1C26.3,6,43.1,5.9,43.8,5.9z"/>
		<path fill="#27C2EE" d="M43.8,6c1.4,0,34.7,0.6,35.6,1.5c0.5,0.5,0.9,16.8,1.1,17.4c0.3,0.6,0.4,17,0.4,17.7
			c0,1.4-0.6,34.2-1.5,35.1s-34.2,1.5-35.6,1.5c-0.7,0-17.3-0.1-18-0.4c-0.6-0.3-17.2-0.7-17.6-1.1C7.2,76.8,6.7,44,6.7,42.6
			c0-0.7,0.1-17.1,0.4-17.7C7.3,24.3,7.7,8,8.2,7.5c0.5-0.5,17-0.9,17.6-1.1C26.4,6.1,43.1,6,43.8,6z"/>
		<path fill="#28C1EE" d="M43.8,6.1c1.5,0,34.5,0.6,35.4,1.5c0.5,0.5,0.9,16.7,1.1,17.3c0.3,0.6,0.4,16.9,0.4,17.6
			c0,1.5-0.6,34-1.5,34.9c-1,1-34,1.5-35.4,1.5c-0.7,0-17.3-0.1-17.9-0.4C25.3,78.4,8.8,78,8.3,77.5c-0.9-1-1.5-33.5-1.5-34.9
			c0-0.7,0.1-17,0.4-17.6C7.5,24.4,7.9,8.2,8.3,7.7c0.5-0.5,16.9-0.9,17.6-1.2C26.5,6.3,43.1,6.1,43.8,6.1z"/>
		<path fill="#28C0ED" d="M43.8,6.3C45.3,6.3,78,6.9,79,7.8c0.5,0.5,0.9,16.6,1.2,17.2c0.3,0.6,0.4,16.8,0.4,17.5
			c0,1.5-0.6,33.8-1.6,34.8c-1,1-33.8,1.6-35.2,1.6C43,79,26.6,78.8,26,78.6c-0.7-0.3-17-0.7-17.5-1.2c-1-1-1.6-33.3-1.6-34.8
			c0-0.7,0.1-16.9,0.4-17.5C7.6,24.4,8,8.4,8.5,7.9C9,7.4,25.3,7,26,6.7C26.6,6.4,43,6.3,43.8,6.3z"/>
		<path fill="#29BFED" d="M43.8,6.4C45.3,6.4,77.9,7,78.8,8c0.5,0.5,0.9,16.5,1.2,17.1c0.3,0.6,0.4,16.7,0.4,17.5
			c0,1.5-0.6,33.6-1.6,34.6s-33.5,1.6-35.1,1.6c-0.7,0-17.1-0.2-17.7-0.4c-0.7-0.3-16.9-0.7-17.4-1.2c-1-1-1.6-33.1-1.6-34.6
			c0-0.7,0.1-16.8,0.4-17.4C7.8,24.5,8.2,8.5,8.7,8c0.5-0.5,16.7-0.9,17.4-1.2C26.7,6.5,43,6.4,43.8,6.4z"/>
		<path fill="#2ABEED" d="M43.8,6.5c1.5,0,33.9,0.6,34.9,1.6c0.5,0.5,0.9,16.4,1.2,17.1c0.3,0.7,0.4,16.6,0.4,17.4
			c0,1.5-0.6,33.4-1.6,34.4s-33.3,1.6-34.9,1.6c-0.8,0-17-0.2-17.6-0.4C25.5,78,9.4,77.5,8.9,77c-1-1-1.6-32.9-1.6-34.4
			c0-0.8,0.1-16.7,0.4-17.4C8,24.6,8.4,8.7,8.9,8.2C9.4,7.7,25.5,7.2,26.2,7C26.8,6.7,43,6.5,43.8,6.5z"/>
		<path fill="#2BBDED" d="M43.8,6.7c1.6,0,33.7,0.6,34.7,1.7c0.5,0.5,0.9,16.3,1.2,17c0.3,0.7,0.4,16.5,0.4,17.3
			c0,1.6-0.6,33.2-1.7,34.3c-1,1-33.1,1.7-34.7,1.7c-0.8,0-16.9-0.2-17.5-0.4c-0.7-0.3-16.7-0.7-17.2-1.3c-1-1-1.6-32.7-1.6-34.2
			c0-0.8,0.2-16.6,0.4-17.3c0.3-0.7,0.7-16.4,1.2-17c0.5-0.5,16.5-1,17.2-1.3C26.9,6.8,43,6.7,43.8,6.7z"/>
		<path fill="#2CBCEC" d="M43.8,6.8c1.6,0,33.5,0.7,34.5,1.7c0.5,0.5,1,16.2,1.3,16.9c0.3,0.7,0.4,16.4,0.4,17.2
			c0,1.6-0.7,33-1.7,34.1s-32.9,1.7-34.5,1.7c-0.8,0-16.8-0.2-17.5-0.4c-0.7-0.3-16.6-0.7-17.1-1.3c-1-1.1-1.7-32.5-1.7-34.1
			c0-0.8,0.2-16.5,0.4-17.2C8.3,24.7,8.7,9.1,9.2,8.5c0.5-0.5,16.4-1,17.1-1.3C27,6.9,43,6.8,43.8,6.8z"/>
		<path fill="#2DBBEC" d="M43.8,6.9c1.6,0,33.3,0.7,34.4,1.7c0.5,0.5,1,16.1,1.3,16.8c0.3,0.7,0.5,16.3,0.5,17.1
			c0,1.6-0.7,32.8-1.7,33.9s-32.7,1.7-34.4,1.7c-0.8,0-16.7-0.2-17.4-0.5c-0.7-0.3-16.5-0.8-17-1.3c-1.1-1.1-1.7-32.3-1.7-33.9
			c0-0.8,0.2-16.4,0.4-17.1C8.4,24.7,8.9,9.2,9.4,8.7c0.5-0.6,16.3-1,17-1.3C27.1,7.1,43,6.9,43.8,6.9z"/>
		<path fill="#2EBAEC" d="M43.8,7.1c1.7,0,33.1,0.7,34.2,1.8c0.6,0.6,1,16,1.3,16.7c0.3,0.7,0.5,16.2,0.5,17.1
			c0,1.7-0.7,32.7-1.8,33.8c-1.1,1.1-32.5,1.8-34.2,1.8c-0.8,0-16.6-0.2-17.3-0.5c-0.7-0.3-16.4-0.8-16.9-1.3
			c-1.1-1.1-1.7-32.1-1.7-33.7c0-0.8,0.2-16.3,0.5-17C8.6,24.8,9,9.4,9.6,8.8c0.6-0.6,16.2-1,16.9-1.3C27.2,7.2,43,7.1,43.8,7.1z"/>
		<path fill="#2EB9EB" d="M43.8,7.2c1.7,0,32.9,0.7,34,1.8c0.6,0.6,1,15.9,1.3,16.6c0.3,0.7,0.5,16.1,0.5,17
			c0,1.7-0.7,32.5-1.8,33.6c-1.1,1.1-32.3,1.8-34,1.8c-0.8,0-16.5-0.2-17.2-0.5c-0.8-0.3-16.3-0.8-16.8-1.4C8.7,75,8,44.3,8,42.6
			c0-0.8,0.2-16.2,0.5-17C8.8,24.9,9.2,9.6,9.8,9c0.6-0.6,16.1-1,16.8-1.4C27.3,7.4,43,7.2,43.8,7.2z"/>
		<path fill="#2FB8EB" d="M43.8,7.3c1.7,0,32.7,0.7,33.8,1.8c0.6,0.6,1,15.8,1.4,16.5c0.3,0.7,0.5,16,0.5,16.9
			c0,1.7-0.7,32.3-1.8,33.4s-32.1,1.8-33.8,1.8c-0.9,0-16.4-0.2-17.1-0.5c-0.8-0.3-16.2-0.8-16.7-1.4c-1.1-1.1-1.8-31.7-1.8-33.4
			c0-0.8,0.2-16.1,0.5-16.9C8.9,24.9,9.4,9.7,9.9,9.2c0.6-0.6,16-1.1,16.7-1.4C27.4,7.5,43,7.3,43.8,7.3z"/>
		<path fill="#30B7EB" d="M43.8,7.4c1.8,0,32.5,0.7,33.7,1.9c0.6,0.6,1.1,15.7,1.4,16.4c0.3,0.8,0.5,15.9,0.5,16.8
			c0,1.8-0.7,32.1-1.9,33.2c-1.2,1.2-31.9,1.9-33.7,1.9c-0.9,0-16.3-0.2-17-0.5c-0.8-0.3-16.1-0.8-16.7-1.4
			C9,74.6,8.3,44.3,8.3,42.6c0-0.9,0.2-16,0.5-16.8C9.1,25,9.5,9.9,10.1,9.3C10.7,8.7,26,8.3,26.8,7.9C27.5,7.6,42.9,7.4,43.8,7.4z"
			/>
		<path fill="#31B6EA" d="M43.8,7.6c1.8,0,32.3,0.7,33.5,1.9c0.6,0.6,1.1,15.6,1.4,16.3c0.3,0.8,0.5,15.8,0.5,16.7
			c0,1.8-0.7,31.9-1.9,33.1c-1.2,1.2-31.7,1.9-33.5,1.9c-0.9,0-16.2-0.2-17-0.5c-0.8-0.3-16-0.8-16.6-1.4c-1.2-1.2-1.9-31.3-1.9-33
			c0-0.9,0.2-15.9,0.5-16.7C9.2,25,9.7,10.1,10.3,9.5c0.6-0.6,15.8-1.1,16.6-1.4C27.6,7.8,42.9,7.6,43.8,7.6z"/>
		<path fill="#32B5EA" d="M43.8,7.7c1.8,0,32.1,0.7,33.3,1.9c0.6,0.6,1.1,15.4,1.4,16.3c0.3,0.8,0.5,15.7,0.5,16.6
			c0,1.8-0.7,31.7-1.9,32.9c-1.2,1.2-31.5,1.9-33.3,1.9c-0.9,0-16.1-0.2-16.9-0.5c-0.8-0.3-15.9-0.8-16.5-1.5
			c-1.2-1.2-1.9-31.1-1.9-32.9c0-0.9,0.2-15.9,0.5-16.6c0.3-0.8,0.8-15.6,1.4-16.2C11.1,9,26.1,8.6,27,8.2
			C27.7,7.9,42.9,7.7,43.8,7.7z"/>
		<path fill="#33B4EA" d="M43.8,7.8c1.9,0,31.9,0.8,33.1,2c0.6,0.6,1.1,15.3,1.5,16.2c0.3,0.8,0.5,15.7,0.5,16.6
			c0,1.9-0.8,31.5-2,32.7s-31.3,2-33.1,2c-0.9,0-16-0.2-16.8-0.5c-0.8-0.3-15.8-0.9-16.4-1.5C9.5,74,8.7,44.4,8.7,42.5
			c0-0.9,0.2-15.8,0.5-16.5c0.3-0.8,0.8-15.5,1.4-16.2C11.3,9.2,26.2,8.7,27,8.4C27.8,8,42.9,7.8,43.8,7.8z"/>
		<path fill="#33B3EA" d="M43.8,8c1.9,0,31.7,0.8,33,2c0.6,0.6,1.1,15.2,1.5,16.1c0.3,0.8,0.5,15.6,0.5,16.5c0,1.9-0.8,31.3-2,32.6
			c-1.2,1.2-31.1,2-33,2c-0.9,0-15.9-0.2-16.7-0.5c-0.8-0.4-15.7-0.9-16.3-1.5c-1.2-1.2-2-30.7-2-32.5c0-0.9,0.2-15.7,0.5-16.5
			c0.3-0.8,0.8-15.4,1.5-16.1c0.6-0.6,15.5-1.2,16.3-1.5C27.9,8.2,42.9,8,43.8,8z"/>
		<path fill="#34B2E9" d="M43.8,8.1c1.9,0,31.5,0.8,32.8,2c0.6,0.6,1.2,15.1,1.5,16c0.3,0.8,0.5,15.5,0.5,16.4
			c0,1.9-0.8,31.1-2,32.4c-1.3,1.3-30.9,2-32.8,2c-0.9,0-15.8-0.2-16.6-0.5C26.4,76,11.6,75.5,11,74.9c-1.2-1.3-2-30.5-2-32.4
			c0-0.9,0.2-15.6,0.5-16.4c0.3-0.8,0.9-15.3,1.5-16C11.6,9.5,26.4,9,27.2,8.6C28,8.3,42.9,8.1,43.8,8.1z"/>
		<path fill="#35B1E9" d="M43.8,8.2c1.9,0,31.3,0.8,32.6,2.1c0.6,0.6,1.2,15,1.5,15.9c0.3,0.8,0.5,15.4,0.5,16.3
			c0,1.9-0.8,30.9-2.1,32.2c-1.3,1.3-30.7,2.1-32.6,2.1c-1,0-15.7-0.2-16.5-0.5c-0.9-0.4-15.5-0.9-16.1-1.6c-1.3-1.3-2-30.3-2-32.2
			c0-0.9,0.2-15.5,0.5-16.3c0.4-0.9,0.9-15.2,1.5-15.9c0.7-0.7,15.2-1.2,16.1-1.6C28.1,8.4,42.9,8.2,43.8,8.2z"/>
		<path fill="#36B0E9" d="M43.8,8.4c2,0,31.2,0.8,32.4,2.1c0.7,0.7,1.2,14.9,1.6,15.8c0.4,0.8,0.5,15.3,0.5,16.2
			c0,2-0.8,30.7-2.1,32c-1.3,1.3-30.5,2.1-32.4,2.1c-1,0-15.6-0.2-16.5-0.6c-0.9-0.4-15.4-0.9-16-1.6c-1.3-1.3-2.1-30.1-2.1-32
			c0-1,0.2-15.4,0.5-16.2c0.4-0.9,0.9-15.1,1.5-15.8c0.7-0.7,15.1-1.2,16-1.6C28.2,8.6,42.9,8.4,43.8,8.4z"/>
		<path fill="#37AFE8" d="M43.8,8.5c2,0,31,0.8,32.3,2.1c0.7,0.7,1.2,14.8,1.6,15.7c0.4,0.9,0.6,15.2,0.6,16.2
			c0,2-0.8,30.6-2.1,31.9c-1.3,1.3-30.3,2.1-32.3,2.1c-1,0-15.5-0.2-16.4-0.6c-0.9-0.4-15.3-0.9-15.9-1.6C10.2,73,9.4,44.5,9.4,42.5
			c0-1,0.2-15.3,0.5-16.1c0.4-0.9,0.9-15,1.6-15.7c0.7-0.7,15-1.2,15.9-1.6C28.3,8.7,42.8,8.5,43.8,8.5z"/>
		<path fill="#38AEE8" d="M43.8,8.6c2,0,30.8,0.8,32.1,2.2c0.7,0.7,1.2,14.7,1.6,15.6c0.4,0.9,0.6,15.1,0.6,16.1
			c0,2-0.8,30.4-2.2,31.7c-1.3,1.3-30.1,2.2-32.1,2.2c-1,0-15.4-0.2-16.3-0.6c-0.9-0.4-15.2-0.9-15.8-1.6
			c-1.3-1.3-2.1-29.6-2.1-31.7c0-1,0.2-15.2,0.6-16c0.4-0.9,0.9-14.9,1.6-15.6c0.7-0.7,14.9-1.2,15.8-1.6
			C28.4,8.8,42.8,8.6,43.8,8.6z"/>
		<path fill="#38ADE8" d="M43.9,8.7c2.1,0,30.6,0.8,31.9,2.2c0.7,0.7,1.2,14.6,1.6,15.5c0.4,0.9,0.6,15,0.6,16
			c0,2.1-0.8,30.2-2.2,31.5s-29.9,2.2-31.9,2.2c-1,0-15.3-0.2-16.2-0.6c-0.9-0.4-15.1-0.9-15.8-1.6c-1.3-1.4-2.2-29.4-2.2-31.5
			c0-1,0.2-15.1,0.6-16c0.4-0.9,0.9-14.8,1.6-15.5c0.7-0.7,14.8-1.3,15.8-1.6C28.5,9,42.8,8.7,43.9,8.7z"/>
		<path fill="#39ACE7" d="M43.9,8.9c2.1,0,30.4,0.9,31.7,2.2c0.7,0.7,1.3,14.5,1.7,15.5c0.4,0.9,0.6,14.9,0.6,15.9
			c0,2.1-0.9,30-2.2,31.4S46,76.1,43.9,76.1c-1,0-15.2-0.2-16.1-0.6c-0.9-0.4-15-1-15.7-1.7c-1.4-1.4-2.2-29.2-2.2-31.3
			c0-1,0.2-15,0.6-15.9c0.4-0.9,0.9-14.7,1.6-15.4c0.7-0.7,14.7-1.3,15.7-1.7C28.6,9.1,42.8,8.9,43.9,8.9z"/>
		<path fill="#3AABE7" d="M43.9,9C46,9,74,9.9,75.4,11.3c0.7,0.7,1.3,14.4,1.7,15.4c0.4,0.9,0.6,14.8,0.6,15.8
			c0,2.1-0.9,29.8-2.3,31.2C74,75.1,46,75.9,43.9,75.9c-1.1,0-15.1-0.2-16-0.6c-0.9-0.4-14.9-1-15.6-1.7c-1.4-1.4-2.2-29-2.2-31.2
			c0-1,0.2-14.9,0.6-15.8c0.4-0.9,1-14.6,1.7-15.4C13,10.6,26.9,10,27.8,9.6C28.7,9.2,42.8,9,43.9,9z"/>
		<path fill="#3BAAE7" d="M43.9,9.1c2.2,0,30,0.9,31.4,2.3c0.7,0.7,1.3,14.3,1.7,15.3c0.4,0.9,0.6,14.7,0.6,15.7
			c0,2.2-0.9,29.6-2.3,31S46,75.8,43.9,75.8c-1.1,0-15-0.2-16-0.6c-1-0.4-14.8-1-15.5-1.7c-1.4-1.4-2.3-28.8-2.3-31
			c0-1.1,0.2-14.8,0.6-15.7c0.4-1,1-14.5,1.7-15.3c0.7-0.7,14.5-1.3,15.5-1.7C28.8,9.4,42.8,9.1,43.9,9.1z"/>
		<path fill="#3CA9E7" d="M43.9,9.3c2.2,0,29.8,0.9,31.2,2.3c0.7,0.7,1.3,14.2,1.7,15.2c0.4,0.9,0.6,14.6,0.6,15.7
			c0,2.2-0.9,29.4-2.3,30.9s-29,2.3-31.2,2.3c-1.1,0-14.9-0.2-15.9-0.6c-1-0.4-14.7-1-15.4-1.7c-1.4-1.4-2.3-28.6-2.3-30.8
			c0-1.1,0.2-14.7,0.6-15.6c0.4-1,1-14.5,1.7-15.2C13.3,10.9,27,10.3,28,9.9C28.9,9.5,42.8,9.3,43.9,9.3z"/>
		<path fill="#3DA8E6" d="M43.9,9.4c2.2,0,29.6,0.9,31.1,2.4c0.7,0.7,1.3,14.1,1.7,15.1c0.4,1,0.6,14.5,0.6,15.6
			c0,2.2-0.9,29.2-2.4,30.7c-1.5,1.5-28.8,2.4-31.1,2.4c-1.1,0-14.8-0.2-15.8-0.6c-1-0.4-14.6-1-15.3-1.8
			c-1.4-1.5-2.3-28.4-2.3-30.6c0-1.1,0.2-14.6,0.6-15.6c0.4-1,1-14.4,1.7-15.1c0.7-0.8,14.3-1.4,15.3-1.8C29,9.6,42.8,9.4,43.9,9.4z
			"/>
		<path fill="#3EA7E6" d="M43.9,9.5c2.3,0,29.4,0.9,30.9,2.4c0.8,0.8,1.4,14,1.8,15c0.4,1,0.6,14.4,0.6,15.5c0,2.3-0.9,29-2.4,30.5
			c-1.5,1.5-28.6,2.4-30.9,2.4c-1.1,0-14.7-0.2-15.7-0.6c-1-0.4-14.5-1-15.2-1.8c-1.5-1.5-2.4-28.2-2.4-30.5
			c0-1.1,0.2-14.5,0.6-15.5c0.4-1,1-14.3,1.7-15c0.8-0.8,14.2-1.4,15.2-1.8C29.1,9.8,42.8,9.5,43.9,9.5z"/>
		<path fill="#3EA6E6" d="M43.9,9.7c2.3,0,29.2,0.9,30.7,2.4C75.3,12.9,76,26,76.4,27c0.4,1,0.6,14.3,0.6,15.4
			c0,2.3-0.9,28.8-2.4,30.3s-28.4,2.4-30.7,2.4c-1.1,0-14.6-0.2-15.6-0.6c-1-0.4-14.4-1-15.1-1.8c-1.5-1.5-2.4-28-2.4-30.3
			c0-1.1,0.2-14.4,0.6-15.4c0.4-1,1-14.2,1.8-14.9c0.8-0.8,14.1-1.4,15.1-1.8C29.2,9.9,42.7,9.7,43.9,9.7z"/>
		<path fill="#3FA5E5" d="M43.9,9.8c2.3,0,29,0.9,30.5,2.5c0.8,0.8,1.4,13.8,1.8,14.8c0.4,1,0.6,14.2,0.6,15.3
			c0,2.3-0.9,28.6-2.5,30.2C72.9,74.1,46.2,75,43.9,75c-1.1,0-14.5-0.2-15.5-0.6c-1-0.4-14.3-1.1-15-1.8c-1.5-1.5-2.4-27.8-2.4-30.1
			c0-1.1,0.2-14.3,0.6-15.3c0.4-1,1-14.1,1.8-14.8c0.8-0.8,14-1.4,15-1.8C29.3,10,42.7,9.8,43.9,9.8z"/>
		<path fill="#40A4E5" d="M43.9,9.9c2.3,0,28.8,1,30.4,2.5c0.8,0.8,1.4,13.7,1.8,14.7c0.4,1,0.6,14.1,0.6,15.2c0,2.3-1,28.5-2.5,30
			c-1.5,1.5-28,2.5-30.4,2.5c-1.2,0-14.4-0.2-15.4-0.7c-1-0.4-14.2-1.1-14.9-1.9C12,70.8,11,44.7,11,42.4c0-1.1,0.2-14.2,0.6-15.2
			c0.4-1,1-14,1.8-14.7c0.8-0.8,13.9-1.4,14.9-1.9C29.4,10.2,42.7,9.9,43.9,9.9z"/>
		<path fill="#41A3E5" d="M43.9,10.1c2.4,0,28.6,1,30.2,2.5c0.8,0.8,1.4,13.6,1.9,14.7c0.4,1,0.7,14,0.7,15.2c0,2.4-1,28.3-2.5,29.8
			c-1.6,1.6-27.8,2.5-30.2,2.5c-1.2,0-14.3-0.2-15.4-0.7c-1.1-0.4-14.1-1.1-14.8-1.9c-1.5-1.6-2.5-27.4-2.5-29.8
			c0-1.2,0.2-14.1,0.6-15.1c0.4-1,1.1-13.9,1.8-14.6c0.8-0.8,13.8-1.5,14.8-1.9C29.5,10.3,42.7,10.1,43.9,10.1z"/>
		<path fill="#42A2E4" d="M43.9,10.2c2.4,0,28.4,1,30,2.6c0.8,0.8,1.5,13.5,1.9,14.6c0.4,1,0.7,13.9,0.7,15.1c0,2.4-1,28.1-2.6,29.7
			c-1.6,1.6-27.6,2.6-30,2.6c-1.2,0-14.2-0.2-15.3-0.7c-1.1-0.4-14-1.1-14.8-1.9c-1.6-1.6-2.5-27.2-2.5-29.6c0-1.2,0.2-14,0.7-15.1
			c0.4-1.1,1.1-13.8,1.9-14.6c0.8-0.8,13.7-1.5,14.8-1.9C29.6,10.4,42.7,10.2,43.9,10.2z"/>
		<path fill="#43A1E4" d="M43.9,10.3c2.4,0,28.2,1,29.8,2.6c0.8,0.8,1.5,13.4,1.9,14.5c0.4,1,0.7,13.8,0.7,15c0,2.4-1,27.9-2.6,29.5
			c-1.6,1.6-27.4,2.6-29.8,2.6c-1.2,0-14.1-0.2-15.2-0.7c-1.1-0.5-13.9-1.1-14.7-1.9c-1.6-1.6-2.6-27-2.6-29.4
			c0-1.2,0.2-13.9,0.7-15c0.4-1.1,1.1-13.7,1.9-14.5c0.8-0.8,13.6-1.5,14.7-1.9C29.7,10.6,42.7,10.3,43.9,10.3z"/>
		<path fill="#43A0E4" d="M43.9,10.4c2.5,0,28,1,29.7,2.6c0.8,0.8,1.5,13.3,1.9,14.4c0.4,1.1,0.7,13.7,0.7,14.9
			c0,2.5-1,27.7-2.6,29.3c-1.6,1.6-27.2,2.6-29.7,2.6c-1.2,0-14.1-0.2-15.1-0.7c-1.1-0.5-13.8-1.1-14.6-2
			c-1.6-1.6-2.6-26.8-2.6-29.3c0-1.2,0.2-13.8,0.7-14.9c0.4-1.1,1.1-13.6,1.9-14.4c0.8-0.8,13.5-1.5,14.6-2
			C29.8,10.7,42.7,10.4,43.9,10.4z"/>
		<path fill="#449FE4" d="M43.9,10.6c2.5,0,27.8,1,29.5,2.7c0.8,0.8,1.5,13.2,2,14.3c0.4,1.1,0.7,13.6,0.7,14.8
			c0,2.5-1,27.5-2.7,29.1s-27,2.7-29.5,2.7c-1.2,0-14-0.2-15-0.7c-1.1-0.5-13.7-1.1-14.5-2c-1.6-1.6-2.6-26.6-2.6-29.1
			c0-1.2,0.2-13.8,0.7-14.8c0.5-1.1,1.1-13.5,1.9-14.3c0.8-0.8,13.4-1.5,14.5-2C29.9,10.8,42.7,10.6,43.9,10.6z"/>
		<path fill="#459EE3" d="M43.9,10.7c2.5,0,27.6,1,29.3,2.7c0.8,0.8,1.5,13.1,2,14.2c0.4,1.1,0.7,13.5,0.7,14.8c0,2.5-1,27.3-2.7,29
			C71.6,73,46.4,74,43.9,74C42.6,74,30,73.8,29,73.3c-1.1-0.5-13.6-1.2-14.4-2c-1.6-1.7-2.6-26.4-2.6-28.9c0-1.2,0.2-13.7,0.7-14.7
			c0.5-1.1,1.1-13.4,2-14.2c0.8-0.9,13.3-1.5,14.4-2C30,11,42.6,10.7,43.9,10.7z"/>
		<path fill="#469DE3" d="M43.9,10.8c2.6,0,27.5,1,29.1,2.7c0.9,0.9,1.5,13,2,14.1c0.5,1.1,0.7,13.4,0.7,14.7c0,2.6-1,27.1-2.7,28.8
			c-1.7,1.7-26.6,2.7-29.1,2.7c-1.3,0-13.8-0.3-14.9-0.7c-1.1-0.5-13.5-1.2-14.3-2c-1.7-1.7-2.7-26.2-2.7-28.8
			c0-1.3,0.2-13.6,0.7-14.6c0.5-1.1,1.1-13.3,2-14.1c0.9-0.9,13.2-1.6,14.3-2C30.1,11.1,42.6,10.8,43.9,10.8z"/>
		<path fill="#479CE3" d="M43.9,11c2.6,0,27.3,1.1,29,2.8c0.9,0.9,1.6,12.9,2,14c0.5,1.1,0.7,13.3,0.7,14.6c0,2.6-1.1,26.9-2.8,28.6
			s-26.4,2.8-29,2.8c-1.3,0-13.7-0.3-14.8-0.7c-1.2-0.5-13.3-1.2-14.2-2.1c-1.7-1.7-2.7-26-2.7-28.6c0-1.3,0.3-13.5,0.7-14.6
			c0.5-1.1,1.2-13.2,2-14c0.9-0.9,13.1-1.6,14.2-2.1C30.2,11.2,42.6,11,43.9,11z"/>
		<path fill="#489BE2" d="M43.9,11.1c2.6,0,27.1,1.1,28.8,2.8c0.9,0.9,1.6,12.8,2.1,14c0.5,1.1,0.7,13.2,0.7,14.5
			c0,2.6-1.1,26.7-2.8,28.5s-26.2,2.8-28.8,2.8c-1.3,0-13.6-0.3-14.7-0.7C28,72.4,16,71.7,15.1,70.8C13.4,69,12.3,45,12.3,42.3
			c0-1.3,0.3-13.4,0.7-14.5c0.5-1.2,1.2-13.1,2-13.9c0.9-0.9,13-1.6,14.1-2.1C30.3,11.4,42.6,11.1,43.9,11.1z"/>
		<path fill="#499AE2" d="M43.9,11.2c2.7,0,26.9,1.1,28.6,2.8c0.9,0.9,1.6,12.7,2.1,13.9c0.5,1.1,0.7,13.1,0.7,14.4
			c0,2.7-1.1,26.5-2.8,28.3c-1.7,1.7-26,2.8-28.6,2.8c-1.3,0-13.5-0.3-14.6-0.7c-1.2-0.5-13.1-1.2-14-2.1
			c-1.7-1.7-2.8-25.6-2.8-28.2c0-1.3,0.3-13.3,0.7-14.4c0.5-1.2,1.2-13,2.1-13.8c0.9-0.9,12.9-1.6,14-2.1
			C30.4,11.5,42.6,11.2,43.9,11.2z"/>
		<path fill="#4999E2" d="M43.9,11.4c2.7,0,26.7,1.1,28.4,2.9c0.9,0.9,1.6,12.6,2.1,13.8c0.5,1.1,0.7,13,0.7,14.3
			c0,2.7-1.1,26.4-2.9,28.1c-1.8,1.8-25.7,2.9-28.4,2.9c-1.3,0-13.4-0.3-14.5-0.8c-1.2-0.5-13-1.2-13.9-2.1
			c-1.7-1.8-2.8-25.4-2.8-28.1c0-1.3,0.3-13.2,0.7-14.3c0.5-1.2,1.2-12.9,2.1-13.8c0.9-0.9,12.7-1.6,13.9-2.1
			C30.5,11.6,42.6,11.4,43.9,11.4z"/>
		<path fill="#4A98E1" d="M43.9,11.5c2.7,0,26.5,1.1,28.3,2.9c0.9,0.9,1.6,12.5,2.1,13.7c0.5,1.2,0.7,12.9,0.7,14.3
			c0,2.7-1.1,26.2-2.9,27.9s-25.5,2.9-28.3,2.9c-1.3,0-13.3-0.3-14.4-0.8c-1.2-0.5-12.9-1.2-13.9-2.2c-1.8-1.8-2.8-25.2-2.8-27.9
			c0-1.3,0.3-13.1,0.7-14.2c0.5-1.2,1.2-12.8,2.1-13.7c0.9-0.9,12.6-1.7,13.9-2.2C30.6,11.8,42.6,11.5,43.9,11.5z"/>
		<path fill="#4B97E1" d="M43.9,11.6c2.8,0,26.3,1.1,28.1,2.9c0.9,0.9,1.7,12.4,2.2,13.6c0.5,1.2,0.8,12.8,0.8,14.2
			c0,2.8-1.1,26-2.9,27.8C70.2,71.9,46.7,73,43.9,73c-1.4,0-13.2-0.3-14.4-0.8c-1.2-0.5-12.8-1.3-13.8-2.2c-1.8-1.8-2.9-25-2.9-27.7
			c0-1.3,0.3-13,0.7-14.2c0.5-1.2,1.2-12.7,2.1-13.6c0.9-0.9,12.5-1.7,13.8-2.2C30.7,11.9,42.6,11.6,43.9,11.6z"/>
		<path fill="#4C96E1" d="M43.9,11.8c2.8,0,26.1,1.1,27.9,2.9c0.9,0.9,1.7,12.3,2.2,13.5c0.5,1.2,0.8,12.7,0.8,14.1
			c0,2.8-1.1,25.8-2.9,27.6c-1.8,1.8-25.1,2.9-27.9,2.9c-1.4,0-13.1-0.3-14.3-0.8c-1.2-0.5-12.7-1.3-13.7-2.2
			c-1.8-1.8-2.9-24.8-2.9-27.6c0-1.4,0.3-12.9,0.8-14.1c0.5-1.2,1.2-12.6,2.2-13.5c0.9-0.9,12.4-1.7,13.7-2.2
			C30.8,12,42.6,11.8,43.9,11.8z"/>
		<path fill="#4D95E0" d="M43.9,11.9c2.8,0,25.9,1.1,27.7,3c0.9,0.9,1.7,12.2,2.2,13.4c0.5,1.2,0.8,12.6,0.8,14
			c0,2.8-1.1,25.6-3,27.4c-1.8,1.8-24.9,3-27.7,3c-1.4,0-13-0.3-14.2-0.8c-1.3-0.5-12.6-1.3-13.6-2.2c-1.8-1.8-2.9-24.6-2.9-27.4
			c0-1.4,0.3-12.8,0.8-14c0.5-1.2,1.3-12.5,2.2-13.4c0.9-1,12.3-1.7,13.6-2.2C30.9,12.2,42.5,11.9,43.9,11.9z"/>
		<path fill="#4E94E0" d="M43.9,12c2.8,0,25.7,1.2,27.6,3c0.9,0.9,1.7,12.1,2.2,13.3c0.5,1.2,0.8,12.5,0.8,13.9
			c0,2.8-1.2,25.4-3,27.3c-1.9,1.9-24.7,3-27.6,3c-1.4,0-12.9-0.3-14.1-0.8c-1.3-0.5-12.5-1.3-13.5-2.3c-1.8-1.9-3-24.4-3-27.2
			c0-1.4,0.3-12.7,0.8-13.9c0.5-1.3,1.3-12.4,2.2-13.3c0.9-1,12.2-1.7,13.5-2.3C31,12.3,42.5,12,43.9,12z"/>
		<path fill="#4E93E0" d="M43.9,12.1c2.9,0,25.5,1.2,27.4,3c1,1,1.7,12,2.3,13.2c0.5,1.2,0.8,12.4,0.8,13.9c0,2.9-1.2,25.2-3,27.1
			c-1.9,1.9-24.5,3-27.4,3c-1.4,0-12.8-0.3-14-0.8c-1.3-0.5-12.4-1.3-13.4-2.3c-1.9-1.9-3-24.2-3-27.1c0-1.4,0.3-12.6,0.8-13.8
			c0.5-1.3,1.3-12.3,2.2-13.2c1-1,12.1-1.8,13.4-2.3C31.2,12.4,42.5,12.1,43.9,12.1z"/>
		<path fill="#4F92E0" d="M43.9,12.3c2.9,0,25.3,1.2,27.2,3.1c1,1,1.7,11.9,2.3,13.2c0.5,1.2,0.8,12.3,0.8,13.8
			c0,2.9-1.2,25-3.1,26.9c-1.9,1.9-24.3,3.1-27.2,3.1c-1.4,0-12.7-0.3-13.9-0.8c-1.3-0.5-12.3-1.3-13.3-2.3c-1.9-1.9-3-24-3-26.9
			c0-1.4,0.3-12.5,0.8-13.7c0.5-1.3,1.3-12.2,2.3-13.1c1-1,12-1.8,13.3-2.3C31.3,12.6,42.5,12.3,43.9,12.3z"/>
		<path fill="#5091DF" d="M44,12.4c2.9,0,25.1,1.2,27,3.1c1,1,1.8,11.8,2.3,13.1c0.5,1.3,0.8,12.2,0.8,13.7c0,2.9-1.2,24.8-3.1,26.8
			s-24.1,3.1-27,3.1c-1.5,0-12.6-0.3-13.9-0.8C28.8,70.8,17.8,70,16.9,69c-1.9-1.9-3.1-23.8-3.1-26.7c0-1.4,0.3-12.4,0.8-13.7
			c0.5-1.3,1.3-12.1,2.3-13c1-1,11.9-1.8,13.2-2.3C31.4,12.7,42.5,12.4,44,12.4z"/>
		<path fill="#5190DF" d="M44,12.5c3,0,24.9,1.2,26.9,3.1c1,1,1.8,11.7,2.3,13c0.5,1.3,0.8,12.1,0.8,13.6c0,3-1.2,24.6-3.1,26.6
			C68.9,70.8,46.9,72,44,72c-1.5,0-12.5-0.3-13.8-0.8C28.9,70.6,18,69.8,17,68.8c-1.9-1.9-3.1-23.6-3.1-26.5
			c0-1.4,0.3-12.3,0.8-13.6c0.5-1.3,1.3-12,2.3-13c1-1,11.8-1.8,13.1-2.4C31.5,12.8,42.5,12.5,44,12.5z"/>
		<path fill="#528FDF" d="M44,12.7c3,0,24.7,1.2,26.7,3.2c1,1,1.8,11.6,2.4,12.9c0.5,1.3,0.8,12.1,0.8,13.5c0,3-1.2,24.4-3.2,26.4
			c-2,2-23.7,3.2-26.7,3.2c-1.5,0-12.4-0.3-13.7-0.8c-1.3-0.6-12-1.4-13-2.4c-1.9-2-3.1-23.4-3.1-26.4c0-1.5,0.3-12.2,0.8-13.5
			c0.5-1.3,1.3-11.9,2.3-12.9c1-1,11.7-1.8,13-2.4C31.6,13,42.5,12.7,44,12.7z"/>
		<path fill="#538EDE" d="M44,12.8c3,0,24.5,1.2,26.5,3.2c1,1,1.8,11.5,2.4,12.8c0.5,1.3,0.8,12,0.8,13.4c0,3-1.2,24.3-3.2,26.2
			c-2,2-23.5,3.2-26.5,3.2c-1.5,0-12.3-0.3-13.6-0.8c-1.3-0.6-11.9-1.4-13-2.4c-2-2-3.2-23.2-3.2-26.2c0-1.5,0.3-12.1,0.8-13.4
			c0.5-1.3,1.4-11.8,2.3-12.8c1-1,11.6-1.8,13-2.4C31.7,13.1,42.5,12.8,44,12.8z"/>
		<path fill="#538DDE" d="M44,12.9c3.1,0,24.3,1.2,26.3,3.2c1,1,1.8,11.4,2.4,12.7c0.5,1.3,0.8,11.9,0.8,13.4
			c0,3.1-1.2,24.1-3.2,26.1c-2,2-23.3,3.2-26.3,3.2c-1.5,0-12.2-0.3-13.5-0.9c-1.4-0.6-11.8-1.4-12.9-2.4c-2-2-3.2-23-3.2-26
			c0-1.5,0.3-12,0.8-13.3c0.6-1.3,1.4-11.7,2.4-12.7c1-1,11.5-1.9,12.9-2.4C31.8,13.2,42.5,12.9,44,12.9z"/>
		<path fill="#548CDE" d="M44,13.1c3.1,0,24.1,1.3,26.2,3.3c1,1,1.9,11.3,2.4,12.6c0.5,1.3,0.8,11.8,0.8,13.3
			c0,3.1-1.3,23.9-3.3,25.9c-2,2-23.1,3.3-26.2,3.3c-1.5,0-12.1-0.3-13.4-0.9c-1.4-0.6-11.7-1.4-12.8-2.5c-2-2-3.2-22.8-3.2-25.9
			c0-1.5,0.3-11.9,0.8-13.2c0.6-1.4,1.4-11.6,2.4-12.6c1-1,11.4-1.9,12.8-2.5C31.9,13.4,42.4,13.1,44,13.1z"/>
		<path fill="#558BDD" d="M44,13.2c3.1,0,23.9,1.3,26,3.3c1,1,1.9,11.2,2.5,12.5c0.6,1.3,0.9,11.7,0.9,13.2c0,3.1-1.3,23.7-3.3,25.7
			c-2,2-22.9,3.3-26,3.3c-1.5,0-12-0.3-13.4-0.9C29.2,69.8,19,69,17.9,67.9c-2-2-3.3-22.6-3.3-25.7c0-1.5,0.3-11.8,0.8-13.2
			c0.6-1.4,1.4-11.5,2.4-12.5c1-1.1,11.3-1.9,12.7-2.5C32,13.5,42.4,13.2,44,13.2z"/>
		<path fill="#568ADD" d="M44,13.3c3.2,0,23.8,1.3,25.8,3.3c1.1,1.1,1.9,11,2.5,12.4c0.6,1.3,0.9,11.6,0.9,13.1
			c0,3.2-1.3,23.5-3.3,25.6S47.1,71.1,44,71.1c-1.6,0-11.9-0.3-13.3-0.9c-1.4-0.6-11.5-1.4-12.6-2.5c-2-2.1-3.3-22.4-3.3-25.5
			c0-1.5,0.3-11.7,0.9-13.1c0.6-1.4,1.4-11.4,2.4-12.4c1.1-1.1,11.2-1.9,12.6-2.5C32.1,13.6,42.4,13.3,44,13.3z"/>
		<path fill="#5789DD" d="M44,13.4c3.2,0,23.6,1.3,25.6,3.4c1.1,1.1,1.9,10.9,2.5,12.4c0.6,1.4,0.9,11.5,0.9,13
			c0,3.2-1.3,23.3-3.4,25.4C67.5,69.7,47.2,71,44,71c-1.6,0-11.8-0.3-13.2-0.9c-1.4-0.6-11.4-1.5-12.5-2.5
			C16.2,65.5,15,45.4,15,42.2c0-1.6,0.3-11.7,0.9-13c0.6-1.4,1.4-11.3,2.5-12.3c1.1-1.1,11.1-1.9,12.5-2.5
			C32.2,13.8,42.4,13.4,44,13.4z"/>
		<path fill="#5888DD" d="M44,13.6c3.2,0,23.4,1.3,25.5,3.4c1.1,1.1,1.9,10.8,2.5,12.3c0.6,1.4,0.9,11.4,0.9,13
			c0,3.2-1.3,23.1-3.4,25.2c-2.1,2.1-22.3,3.4-25.5,3.4c-1.6,0-11.7-0.3-13.1-0.9c-1.4-0.6-11.3-1.5-12.4-2.6
			c-2.1-2.1-3.4-22-3.4-25.2c0-1.6,0.3-11.6,0.9-12.9c0.6-1.4,1.4-11.2,2.5-12.3c1.1-1.1,11-2,12.4-2.6C32.3,13.9,42.4,13.6,44,13.6
			z"/>
		<path fill="#5987DC" d="M44,13.7c3.2,0,23.2,1.3,25.3,3.4c1.1,1.1,2,10.7,2.5,12.2c0.6,1.4,0.9,11.3,0.9,12.9
			c0,3.2-1.3,22.9-3.4,25S47.2,70.7,44,70.7c-1.6,0-11.6-0.3-13-0.9c-1.4-0.6-11.2-1.5-12.3-2.6c-2.1-2.1-3.4-21.8-3.4-25
			c0-1.6,0.3-11.5,0.9-12.8c0.6-1.4,1.4-11.1,2.5-12.2c1.1-1.1,10.9-2,12.3-2.6C32.4,14,42.4,13.7,44,13.7z"/>
		<path fill="#5986DC" d="M44,13.8c3.3,0,23,1.3,25.1,3.5c1.1,1.1,2,10.6,2.6,12.1c0.6,1.4,0.9,11.2,0.9,12.8
			c0,3.3-1.3,22.7-3.5,24.9S47.3,70.5,44,70.5c-1.6,0-11.5-0.3-12.9-0.9C29.6,69,19.9,68.1,18.8,67c-2.1-2.1-3.4-21.6-3.4-24.8
			c0-1.6,0.3-11.4,0.9-12.8c0.6-1.4,1.5-11,2.5-12.1c1.1-1.1,10.8-2,12.2-2.6C32.5,14.2,42.4,13.8,44,13.8z"/>
		<path fill="#5A85DC" d="M44,14c3.3,0,22.8,1.3,24.9,3.5c1.1,1.1,2,10.5,2.6,12c0.6,1.4,0.9,11.1,0.9,12.7c0,3.3-1.3,22.5-3.5,24.7
			c-2.2,2.2-21.6,3.5-24.9,3.5c-1.6,0-11.4-0.3-12.9-0.9c-1.5-0.6-11-1.5-12.1-2.6c-2.1-2.2-3.5-21.4-3.5-24.7
			c0-1.6,0.3-11.3,0.9-12.7c0.6-1.5,1.5-10.9,2.6-12c1.1-1.1,10.7-2,12.1-2.6C32.6,14.3,42.4,14,44,14z"/>
		<path fill="#5B84DB" d="M44,14.1c3.3,0,22.6,1.4,24.8,3.5c1.1,1.1,2,10.4,2.6,11.9c0.6,1.4,0.9,11,0.9,12.6
			c0,3.3-1.4,22.3-3.5,24.5c-2.2,2.2-21.4,3.5-24.8,3.5c-1.7,0-11.3-0.3-12.8-0.9c-1.5-0.6-10.9-1.5-12-2.7
			c-2.2-2.2-3.5-21.2-3.5-24.5c0-1.6,0.3-11.2,0.9-12.6c0.6-1.5,1.5-10.8,2.6-11.9c1.1-1.1,10.6-2,12-2.7
			C32.7,14.4,42.3,14.1,44,14.1z"/>
		<path fill="#5C83DB" d="M44,14.2c3.4,0,22.4,1.4,24.6,3.6c1.1,1.1,2,10.3,2.6,11.8c0.6,1.4,0.9,10.9,0.9,12.5
			c0,3.4-1.4,22.2-3.6,24.4c-2.2,2.2-21.2,3.6-24.6,3.6c-1.7,0-11.2-0.3-12.7-0.9c-1.5-0.6-10.8-1.5-12-2.7
			c-2.2-2.2-3.5-21-3.5-24.3c0-1.6,0.3-11.1,0.9-12.5c0.6-1.5,1.5-10.7,2.6-11.8c1.1-1.1,10.5-2.1,12-2.7
			C32.8,14.6,42.3,14.2,44,14.2z"/>
		<path fill="#5D82DB" d="M44,14.4c3.4,0,22.2,1.4,24.4,3.6c1.1,1.1,2,10.2,2.7,11.7c0.6,1.5,0.9,10.8,0.9,12.5
			c0,3.4-1.4,22-3.6,24.2C66.2,68.6,47.4,70,44,70c-1.7,0-11.1-0.3-12.6-0.9c-1.5-0.6-10.7-1.6-11.9-2.7C17.3,64.1,16,45.5,16,42.2
			c0-1.7,0.3-11,0.9-12.4c0.6-1.5,1.5-10.6,2.6-11.7c1.1-1.1,10.4-2.1,11.9-2.7C32.9,14.7,42.3,14.4,44,14.4z"/>
		<path fill="#5E81DA" d="M44,14.5c3.4,0,22,1.4,24.2,3.6c1.1,1.1,2.1,10.1,2.7,11.6c0.6,1.5,0.9,10.7,0.9,12.4
			c0,3.4-1.4,21.8-3.6,24C66,68.4,47.4,69.8,44,69.8c-1.7,0-11-0.3-12.5-1c-1.5-0.6-10.6-1.6-11.8-2.7c-2.2-2.2-3.6-20.6-3.6-24
			c0-1.7,0.3-10.9,0.9-12.3c0.6-1.5,1.5-10.5,2.7-11.6c1.1-1.2,10.3-2.1,11.8-2.7C33,14.8,42.3,14.5,44,14.5z"/>
		<path fill="#5E80DA" d="M44,14.6c3.5,0,21.8,1.4,24.1,3.7c1.2,1.2,2.1,10,2.7,11.6c0.6,1.5,1,10.6,1,12.3c0,3.5-1.4,21.6-3.7,23.9
			c-2.3,2.3-20.6,3.7-24.1,3.7c-1.7,0-11-0.3-12.4-1C30,68.1,21,67.1,19.9,65.9c-2.2-2.3-3.6-20.4-3.6-23.8c0-1.7,0.3-10.8,0.9-12.3
			c0.6-1.5,1.5-10.4,2.7-11.5c1.2-1.2,10.1-2.1,11.7-2.8C33.1,15,42.3,14.6,44,14.6z"/>
		<path fill="#5F7FDA" d="M44,14.8c3.5,0,21.6,1.4,23.9,3.7c1.2,1.2,2.1,9.9,2.7,11.5c0.6,1.5,1,10.5,1,12.2
			c0,3.5-1.4,21.4-3.7,23.7c-2.3,2.3-20.4,3.7-23.9,3.7c-1.7,0-10.9-0.3-12.4-1c-1.6-0.7-10.4-1.6-11.6-2.8
			c-2.3-2.3-3.7-20.2-3.7-23.6c0-1.7,0.3-10.7,0.9-12.2c0.6-1.5,1.6-10.3,2.7-11.5c1.2-1.2,10-2.1,11.6-2.8
			C33.2,15.1,42.3,14.8,44,14.8z"/>
		<path fill="#607EDA" d="M44,14.9c3.5,0,21.4,1.4,23.7,3.7c1.2,1.2,2.1,9.8,2.8,11.4c0.6,1.5,1,10.4,1,12.1
			c0,3.5-1.4,21.2-3.7,23.5C65.4,68,47.5,69.4,44,69.4c-1.7,0-10.8-0.3-12.3-1c-1.6-0.7-10.3-1.6-11.5-2.8c-2.3-2.3-3.7-20-3.7-23.5
			c0-1.7,0.3-10.6,1-12.1c0.6-1.5,1.6-10.2,2.7-11.4c1.2-1.2,9.9-2.2,11.5-2.8C33.3,15.2,42.3,14.9,44,14.9z"/>
		<path fill="#617DD9" d="M44,15c3.6,0,21.2,1.4,23.6,3.8c1.2,1.2,2.1,9.7,2.8,11.3c0.6,1.5,1,10.3,1,12c0,3.6-1.4,21-3.8,23.3
			c-2.3,2.3-20,3.8-23.6,3.8c-1.8,0-10.7-0.4-12.2-1c-1.6-0.7-10.2-1.6-11.4-2.8c-2.3-2.3-3.7-19.8-3.7-23.3c0-1.7,0.3-10.5,1-12
			c0.6-1.6,1.6-10.1,2.8-11.3c1.2-1.2,9.8-2.2,11.4-2.8C33.4,15.4,42.3,15,44,15z"/>
		<path fill="#627CD9" d="M44,15.1c3.6,0,21,1.5,23.4,3.8c1.2,1.2,2.2,9.6,2.8,11.2c0.6,1.5,1,10.2,1,12c0,3.6-1.5,20.8-3.8,23.2
			S47.6,69.1,44,69.1c-1.8,0-10.6-0.4-12.1-1c-1.6-0.7-10.1-1.6-11.3-2.9c-2.3-2.3-3.7-19.6-3.7-23.1c0-1.7,0.3-10.4,1-11.9
			c0.6-1.6,1.6-10,2.8-11.2c1.2-1.2,9.7-2.2,11.3-2.9C33.5,15.5,42.3,15.1,44,15.1z"/>
		<path fill="#637BD9" d="M44,15.3c3.6,0,20.8,1.5,23.2,3.8c1.2,1.2,2.2,9.5,2.8,11.1c0.6,1.5,1,10.1,1,11.9c0,3.6-1.5,20.6-3.8,23
			c-2.4,2.4-19.6,3.8-23.2,3.8c-1.8,0-10.5-0.4-12-1c-1.6-0.7-10-1.7-11.2-2.9C18.4,62.7,17,45.7,17,42.1c0-1.8,0.3-10.3,1-11.8
			c0.7-1.6,1.6-9.9,2.8-11.1C22,17.9,30.4,17,32,16.3C33.6,15.6,42.2,15.3,44,15.3z"/>
		<path fill="#637AD8" d="M44,15.4c3.6,0,20.6,1.5,23,3.9c1.2,1.2,2.2,9.4,2.9,11c0.6,1.6,1,10,1,11.8c0,3.6-1.5,20.4-3.9,22.8
			c-2.4,2.4-19.4,3.9-23,3.9c-1.8,0-10.4-0.4-11.9-1c-1.6-0.7-9.9-1.7-11.1-2.9c-2.4-2.4-3.8-19.2-3.8-22.8c0-1.8,0.4-10.2,1-11.8
			c0.7-1.6,1.6-9.8,2.8-11c1.2-1.2,9.5-2.2,11.1-2.9C33.7,15.8,42.2,15.4,44,15.4z"/>
		<path fill="#6479D8" d="M44,15.5c3.7,0,20.4,1.5,22.9,3.9c1.2,1.2,2.2,9.3,2.9,10.9c0.7,1.6,1,9.9,1,11.7c0,3.7-1.5,20.2-3.9,22.7
			c-2.4,2.4-19.2,3.9-22.9,3.9c-1.8,0-10.3-0.4-11.9-1c-1.6-0.7-9.8-1.7-11.1-2.9c-2.4-2.4-3.8-19-3.8-22.6c0-1.8,0.4-10.1,1-11.7
			c0.7-1.6,1.6-9.7,2.8-10.9c1.2-1.2,9.4-2.2,11.1-2.9C33.8,15.9,42.2,15.5,44,15.5z"/>
		<path fill="#6578D8" d="M44,15.7c3.7,0,20.2,1.5,22.7,3.9c1.2,1.2,2.2,9.2,2.9,10.8c0.7,1.6,1,9.8,1,11.6c0,3.7-1.5,20.1-3.9,22.5
			s-19,3.9-22.7,3.9c-1.8,0-10.2-0.4-11.8-1c-1.7-0.7-9.7-1.7-11-3c-2.4-2.4-3.9-18.8-3.9-22.4c0-1.8,0.4-10,1-11.6
			c0.7-1.6,1.7-9.6,2.9-10.8c1.2-1.3,9.3-2.3,11-3C33.9,16,42.2,15.7,44,15.7z"/>
		<path fill="#6677D7" d="M44,15.8c3.7,0,20.1,1.5,22.5,4c1.2,1.2,2.3,9.1,2.9,10.8c0.7,1.6,1,9.7,1,11.6c0,3.7-1.5,19.9-4,22.3
			c-2.5,2.5-18.8,4-22.5,4c-1.9,0-10.1-0.4-11.7-1c-1.7-0.7-9.6-1.7-10.9-3c-2.4-2.4-3.9-18.5-3.9-22.3c0-1.8,0.4-9.9,1-11.5
			c0.7-1.6,1.7-9.5,2.9-10.7c1.2-1.3,9.2-2.3,10.9-3C34,16.2,42.2,15.8,44,15.8z"/>
		<path fill="#6776D7" d="M44,15.9c3.8,0,19.9,1.5,22.3,4c1.3,1.3,2.3,9,3,10.7c0.7,1.6,1,9.6,1,11.5c0,3.8-1.5,19.7-4,22.1
			c-2.5,2.5-18.6,4-22.3,4c-1.9,0-10-0.4-11.6-1.1c-1.7-0.7-9.5-1.7-10.8-3c-2.4-2.5-3.9-18.3-3.9-22.1c0-1.8,0.4-9.8,1-11.4
			c0.7-1.7,1.7-9.4,2.9-10.7c1.3-1.3,9.1-2.3,10.8-3C34.1,16.3,42.2,15.9,44,15.9z"/>
		<path fill="#6875D7" d="M44.1,16.1c3.8,0,19.7,1.5,22.2,4c1.3,1.3,2.3,8.9,3,10.6c0.7,1.6,1,9.5,1,11.4c0,3.8-1.5,19.5-4,22
			c-2.5,2.5-18.4,4-22.2,4c-1.9,0-9.9-0.4-11.5-1.1c-1.7-0.7-9.4-1.7-10.7-3c-2.5-2.5-4-18.1-4-21.9c0-1.9,0.4-9.7,1-11.4
			c0.7-1.7,1.7-9.3,2.9-10.6c1.3-1.3,9-2.3,10.7-3C34.2,16.4,42.2,16.1,44.1,16.1z"/>
		<path fill="#6974D7" d="M44.1,16.2c3.8,0,19.5,1.6,22,4.1c1.3,1.3,2.3,8.8,3,10.5c0.7,1.6,1.1,9.4,1.1,11.3
			c0,3.8-1.6,19.3-4.1,21.8c-2.5,2.5-18.2,4.1-22,4.1c-1.9,0-9.8-0.4-11.4-1.1c-1.7-0.7-9.3-1.8-10.6-3.1c-2.5-2.5-4-17.9-4-21.7
			c0-1.9,0.4-9.6,1-11.3c0.7-1.7,1.7-9.2,3-10.5c1.3-1.3,8.9-2.3,10.6-3.1C34.3,16.6,42.2,16.2,44.1,16.2z"/>
		<path fill="#6973D6" d="M44.1,16.3c3.9,0,19.3,1.6,21.8,4.1c1.3,1.3,2.3,8.7,3,10.4c0.7,1.6,1.1,9.3,1.1,11.2
			c0,3.9-1.6,19.1-4.1,21.6c-2.5,2.5-17.9,4.1-21.8,4.1c-1.9,0-9.7-0.4-11.4-1.1c-1.7-0.7-9.2-1.8-10.5-3.1c-2.5-2.5-4-17.7-4-21.6
			c0-1.9,0.4-9.5,1-11.2c0.7-1.7,1.7-9.1,3-10.4c1.3-1.3,8.8-2.4,10.5-3.1C34.4,16.7,42.1,16.3,44.1,16.3z"/>
		<path fill="#6A72D6" d="M44.1,16.5c3.9,0,19.1,1.6,21.6,4.1c1.3,1.3,2.3,8.6,3.1,10.3c0.7,1.7,1.1,9.2,1.1,11.1
			c0,3.9-1.6,18.9-4.1,21.5S48,67.6,44.1,67.6c-1.9,0-9.6-0.4-11.3-1.1c-1.7-0.7-9.1-1.8-10.4-3.1c-2.5-2.5-4.1-17.5-4.1-21.4
			c0-1.9,0.4-9.5,1.1-11.1c0.7-1.7,1.7-9,3-10.3c1.3-1.3,8.7-2.4,10.4-3.1C34.5,16.8,42.1,16.5,44.1,16.5z"/>
		<path fill="#6B71D6" d="M44.1,16.6c3.9,0,18.9,1.6,21.5,4.2c1.3,1.3,2.4,8.5,3.1,10.2c0.7,1.7,1.1,9.1,1.1,11.1
			c0,3.9-1.6,18.7-4.2,21.3C63,65.9,48,67.5,44.1,67.5c-1.9,0-9.5-0.4-11.2-1.1c-1.7-0.7-9-1.8-10.3-3.1C20,60.7,18.4,45.9,18.4,42
			c0-1.9,0.4-9.4,1.1-11c0.7-1.7,1.7-8.9,3-10.2c1.3-1.3,8.6-2.4,10.3-3.1C34.6,17,42.1,16.6,44.1,16.6z"/>
		<path fill="#6C70D5" d="M44.1,16.7c4,0,18.7,1.6,21.3,4.2c1.3,1.3,2.4,8.4,3.1,10.1c0.7,1.7,1.1,9,1.1,11c0,4-1.6,18.5-4.2,21.1
			c-2.6,2.6-17.3,4.2-21.3,4.2c-2,0-9.4-0.4-11.1-1.1c-1.8-0.7-8.9-1.8-10.2-3.2C20.2,60.5,18.6,46,18.6,42c0-1.9,0.4-9.3,1.1-10.9
			c0.7-1.7,1.8-8.8,3.1-10.1c1.3-1.3,8.5-2.4,10.2-3.2C34.7,17.1,42.1,16.7,44.1,16.7z"/>
		<path fill="#6D6FD5" d="M44.1,16.8c4,0,18.5,1.6,21.1,4.2c1.3,1.3,2.4,8.3,3.1,10.1c0.7,1.7,1.1,8.9,1.1,10.9
			c0,4-1.6,18.3-4.2,20.9c-2.6,2.6-17.1,4.2-21.1,4.2c-2,0-9.3-0.4-11-1.1c-1.8-0.7-8.8-1.8-10.2-3.2C20.3,60.3,18.7,46,18.7,42
			c0-1.9,0.4-9.2,1.1-10.9c0.7-1.8,1.8-8.7,3.1-10c1.3-1.3,8.4-2.4,10.2-3.2C34.8,17.2,42.1,16.8,44.1,16.8z"/>
		<path fill="#6E6ED5" d="M44.1,17c4,0,18.3,1.6,20.9,4.3c1.3,1.3,2.4,8.2,3.2,10c0.7,1.7,1.1,8.8,1.1,10.8c0,4-1.6,18.1-4.3,20.8
			s-16.9,4.3-20.9,4.3c-2,0-9.2-0.4-10.9-1.1c-1.8-0.7-8.7-1.8-10.1-3.2C20.5,60.1,18.9,46,18.9,42c0-2,0.4-9.1,1.1-10.8
			c0.7-1.8,1.8-8.6,3.1-9.9c1.3-1.4,8.3-2.5,10.1-3.2C34.9,17.4,42.1,17,44.1,17z"/>
		<path fill="#6E6DD4" d="M44.1,17.1c4,0,18.1,1.6,20.8,4.3c1.3,1.3,2.4,8.1,3.2,9.9C68.7,33,69.1,40,69.1,42c0,4-1.6,18-4.3,20.6
			c-2.7,2.7-16.7,4.3-20.8,4.3c-2,0-9.1-0.4-10.9-1.1c-1.8-0.8-8.6-1.9-10-3.2C20.6,59.9,19,46,19,42c0-2,0.4-9,1.1-10.7
			c0.7-1.8,1.8-8.5,3.1-9.9c1.4-1.4,8.2-2.5,10-3.2C35,17.5,42.1,17.1,44.1,17.1z"/>
		<path fill="#6F6CD4" d="M44.1,17.2c4.1,0,17.9,1.7,20.6,4.3c1.4,1.4,2.5,8,3.2,9.8C68.6,33.1,69,40,69,42c0,4.1-1.7,17.8-4.3,20.4
			c-2.7,2.7-16.5,4.3-20.6,4.3c-2,0-9-0.4-10.8-1.1c-1.8-0.8-8.5-1.9-9.9-3.2C20.8,59.7,19.2,46,19.2,42c0-2,0.4-8.9,1.1-10.6
			c0.7-1.8,1.8-8.4,3.2-9.8c1.4-1.4,8.1-2.5,9.9-3.2C35.1,17.6,42.1,17.2,44.1,17.2z"/>
		<path fill="#706BD4" d="M44.1,17.4c4.1,0,17.7,1.7,20.4,4.4c1.4,1.4,2.5,7.9,3.2,9.7c0.7,1.8,1.1,8.6,1.1,10.6
			c0,4.1-1.7,17.6-4.4,20.3c-2.7,2.7-16.3,4.4-20.4,4.4c-2,0-8.9-0.4-10.7-1.1c-1.8-0.8-8.4-1.9-9.8-3.3C21,59.5,19.3,46.1,19.3,42
			c0-2,0.4-8.8,1.1-10.5c0.7-1.8,1.8-8.3,3.2-9.7c1.4-1.4,8-2.5,9.8-3.3C35.2,17.8,42.1,17.4,44.1,17.4z"/>
		<path fill="#716AD3" d="M44.1,17.5c4.1,0,17.5,1.7,20.2,4.4c1.4,1.4,2.5,7.8,3.3,9.6c0.7,1.8,1.1,8.5,1.1,10.5
			c0,4.1-1.7,17.4-4.4,20.1c-2.7,2.7-16.1,4.4-20.2,4.4c-2,0-8.8-0.4-10.6-1.2c-1.8-0.8-8.3-1.9-9.7-3.3c-2.7-2.7-4.3-15.9-4.3-20
			c0-2,0.4-8.7,1.1-10.4c0.7-1.8,1.8-8.2,3.2-9.6c1.4-1.4,7.9-2.5,9.7-3.3C35.3,17.9,42,17.5,44.1,17.5z"/>
		<path fill="#7269D3" d="M44.1,17.6c4.2,0,17.3,1.7,20.1,4.4c1.4,1.4,2.5,7.7,3.3,9.5c0.7,1.8,1.1,8.4,1.1,10.4
			c0,4.2-1.7,17.2-4.4,19.9c-2.7,2.7-15.9,4.4-20.1,4.4c-2.1,0-8.7-0.4-10.5-1.2c-1.9-0.8-8.2-1.9-9.6-3.3
			c-2.7-2.7-4.4-15.7-4.4-19.9c0-2,0.4-8.6,1.1-10.4c0.8-1.8,1.9-8.1,3.2-9.5c1.4-1.4,7.8-2.5,9.6-3.3C35.4,18,42,17.6,44.1,17.6z"
			/>
		<path fill="#7368D3" d="M44.1,17.8c4.2,0,17.1,1.7,19.9,4.5c1.4,1.4,2.5,7.6,3.3,9.4c0.7,1.8,1.2,8.3,1.2,10.3
			c0,4.2-1.7,17-4.5,19.8c-2.8,2.8-15.7,4.5-19.9,4.5c-2.1,0-8.6-0.4-10.4-1.2c-1.9-0.8-8.1-1.9-9.5-3.3c-2.7-2.7-4.4-15.5-4.4-19.7
			c0-2,0.4-8.5,1.1-10.3c0.8-1.8,1.9-8,3.3-9.4c1.4-1.4,7.6-2.6,9.5-3.3C35.5,18.2,42,17.8,44.1,17.8z"/>
		<path fill="#7367D3" d="M44.1,17.9c4.2,0,16.9,1.7,19.7,4.5c1.4,1.4,2.5,7.5,3.3,9.3c0.8,1.8,1.2,8.2,1.2,10.2
			c0,4.2-1.7,16.8-4.5,19.6C61,64.3,48.3,66,44.1,66c-2.1,0-8.5-0.4-10.3-1.2c-1.9-0.8-8-1.9-9.4-3.4c-2.7-2.8-4.4-15.3-4.4-19.5
			c0-2.1,0.4-8.4,1.1-10.2c0.8-1.9,1.9-7.9,3.3-9.3c1.4-1.4,7.5-2.6,9.4-3.4C35.6,18.3,42,17.9,44.1,17.9z"/>
		<path fill="#7466D2" d="M44.1,18c4.3,0,16.7,1.7,19.5,4.5c1.4,1.4,2.6,7.4,3.4,9.3c0.8,1.8,1.2,8.1,1.2,10.2
			c0,4.3-1.7,16.6-4.5,19.4c-2.8,2.8-15.3,4.5-19.5,4.5c-2.1,0-8.4-0.4-10.3-1.2c-1.9-0.8-7.9-2-9.3-3.4C21.7,58.5,20,46.2,20,42
			c0-2.1,0.4-8.3,1.2-10.1c0.8-1.9,1.9-7.8,3.3-9.2c1.4-1.4,7.4-2.6,9.3-3.4C35.7,18.4,42,18,44.1,18z"/>
		<path fill="#7565D2" d="M44.1,18.1c4.3,0,16.6,1.7,19.4,4.6c1.4,1.4,2.6,7.3,3.4,9.2c0.8,1.8,1.2,8,1.2,10.1
			c0,4.3-1.7,16.4-4.6,19.2s-15.1,4.6-19.4,4.6c-2.1,0-8.3-0.4-10.2-1.2c-1.9-0.8-7.8-2-9.2-3.4c-2.8-2.8-4.5-14.9-4.5-19.2
			c0-2.1,0.4-8.2,1.2-10c0.8-1.9,1.9-7.7,3.3-9.1c1.4-1.5,7.3-2.6,9.2-3.4C35.8,18.6,42,18.1,44.1,18.1z"/>
		<path fill="#7664D2" d="M44.1,18.3c4.3,0,16.4,1.8,19.2,4.6c1.4,1.4,2.6,7.2,3.4,9.1c0.8,1.8,1.2,7.9,1.2,10
			c0,4.3-1.8,16.2-4.6,19.1c-2.8,2.8-14.9,4.6-19.2,4.6c-2.1,0-8.2-0.4-10.1-1.2c-1.9-0.8-7.7-2-9.2-3.4c-2.8-2.8-4.5-14.7-4.5-19
			c0-2.1,0.4-8.1,1.2-10c0.8-1.9,1.9-7.6,3.4-9.1c1.4-1.5,7.2-2.6,9.2-3.4C35.9,18.7,42,18.3,44.1,18.3z"/>
		<path fill="#7763D1" d="M44.1,18.4c4.4,0,16.2,1.8,19,4.6c1.5,1.5,2.6,7.1,3.4,9c0.8,1.9,1.2,7.8,1.2,9.9c0,4.4-1.8,16-4.6,18.9
			c-2.9,2.9-14.7,4.6-19,4.6c-2.2,0-8.1-0.4-10-1.2c-1.9-0.8-7.6-2-9.1-3.5c-2.8-2.9-4.6-14.5-4.6-18.8c0-2.1,0.4-8,1.2-9.9
			c0.8-1.9,1.9-7.5,3.4-9c1.5-1.5,7.1-2.7,9.1-3.5C36,18.8,42,18.4,44.1,18.4z"/>
		<path fill="#7862D1" d="M44.1,18.5c4.4,0,16,1.8,18.8,4.7c1.5,1.5,2.6,7,3.4,8.9c0.8,1.9,1.2,7.7,1.2,9.8c0,4.4-1.8,15.9-4.7,18.7
			c-2.9,2.9-14.5,4.7-18.8,4.7c-2.2,0-8-0.4-9.9-1.2c-2-0.8-7.5-2-9-3.5c-2.8-2.9-4.6-14.3-4.6-18.7c0-2.1,0.4-7.9,1.2-9.8
			c0.8-1.9,2-7.4,3.4-8.9c1.5-1.5,7-2.7,9-3.5C36.1,19,41.9,18.5,44.1,18.5z"/>
		<path fill="#7961D1" d="M44.1,18.7c4.4,0,15.8,1.8,18.7,4.7c1.5,1.5,2.7,6.9,3.5,8.8c0.8,1.9,1.2,7.6,1.2,9.8
			c0,4.4-1.8,15.7-4.7,18.6c-2.9,2.9-14.2,4.7-18.7,4.7c-2.2,0-7.9-0.4-9.8-1.2c-2-0.8-7.4-2-8.9-3.5c-2.9-2.9-4.6-14.1-4.6-18.5
			c0-2.2,0.4-7.8,1.2-9.7c0.8-1.9,2-7.3,3.4-8.8c1.5-1.5,6.9-2.7,8.9-3.5C36.2,19.1,41.9,18.7,44.1,18.7z"/>
		<path fill="#7960D0" d="M44.1,18.8c4.4,0,15.6,1.8,18.5,4.7c1.5,1.5,2.7,6.8,3.5,8.7c0.8,1.9,1.2,7.5,1.2,9.7
			c0,4.4-1.8,15.5-4.7,18.4S48.6,65,44.1,65c-2.2,0-7.9-0.4-9.8-1.2c-2-0.8-7.3-2-8.8-3.5c-2.9-2.9-4.7-13.9-4.7-18.3
			c0-2.2,0.4-7.7,1.2-9.6c0.8-2,2-7.2,3.4-8.7c1.5-1.5,6.8-2.7,8.8-3.5C36.3,19.2,41.9,18.8,44.1,18.8z"/>
		<path fill="#7A5FD0" d="M44.1,18.9c4.5,0,15.4,1.8,18.3,4.8c1.5,1.5,2.7,6.7,3.5,8.6c0.8,1.9,1.2,7.4,1.2,9.6
			c0,4.5-1.8,15.3-4.8,18.2c-2.9,2.9-13.8,4.8-18.3,4.8c-2.2,0-7.8-0.4-9.7-1.3c-2-0.8-7.2-2.1-8.7-3.6c-2.9-2.9-4.7-13.7-4.7-18.2
			c0-2.2,0.4-7.6,1.2-9.5c0.8-2,2-7.1,3.5-8.6c1.5-1.5,6.7-2.7,8.7-3.6C36.4,19.4,41.9,18.9,44.1,18.9z"/>
		<path fill="#7B5ED0" d="M44.1,19.1c4.5,0,15.2,1.8,18.1,4.8c1.5,1.5,2.7,6.5,3.5,8.5c0.8,1.9,1.2,7.3,1.2,9.5
			c0,4.5-1.8,15.1-4.8,18c-3,3-13.6,4.8-18.1,4.8c-2.2,0-7.7-0.4-9.6-1.3c-2-0.8-7.1-2.1-8.6-3.6c-2.9-3-4.7-13.5-4.7-18
			c0-2.2,0.4-7.5,1.2-9.5c0.8-2,2-7,3.5-8.5c1.5-1.5,6.6-2.8,8.6-3.6C36.5,19.5,41.9,19.1,44.1,19.1z"/>
		<path fill="#7C5DD0" d="M44.1,19.2c4.5,0,15,1.8,18,4.8c1.5,1.5,2.7,6.4,3.6,8.5c0.8,1.9,1.2,7.2,1.2,9.4c0,4.5-1.8,14.9-4.8,17.9
			c-3,3-13.4,4.8-18,4.8c-2.2,0-7.6-0.5-9.5-1.3c-2-0.8-7-2.1-8.5-3.6c-2.9-3-4.8-13.3-4.8-17.8c0-2.2,0.4-7.4,1.2-9.4
			c0.8-2,2-6.9,3.5-8.4c1.5-1.5,6.5-2.8,8.5-3.6C36.6,19.6,41.9,19.2,44.1,19.2z"/>
		<path fill="#7D5CCF" d="M44.1,19.3c4.6,0,14.8,1.9,17.8,4.9c1.5,1.5,2.8,6.3,3.6,8.4c0.8,2,1.3,7.1,1.3,9.3
			c0,4.6-1.9,14.7-4.9,17.7s-13.2,4.9-17.8,4.9c-2.3,0-7.5-0.5-9.4-1.3c-2-0.9-6.9-2.1-8.4-3.6c-3-3-4.8-13.1-4.8-17.6
			c0-2.2,0.4-7.4,1.2-9.3c0.8-2,2-6.8,3.5-8.3c1.5-1.5,6.4-2.8,8.4-3.6C36.7,19.8,41.9,19.3,44.1,19.3z"/>
		<path fill="#7E5BCF" d="M44.1,19.5c4.6,0,14.6,1.9,17.6,4.9c1.5,1.5,2.8,6.2,3.6,8.3c0.8,2,1.3,7,1.3,9.3c0,4.6-1.9,14.5-4.9,17.5
			c-3,3-13,4.9-17.6,4.9c-2.3,0-7.4-0.5-9.3-1.3c-2-0.9-6.8-2.1-8.3-3.7c-3-3-4.8-12.9-4.8-17.5c0-2.2,0.4-7.3,1.2-9.2
			c0.8-2,2.1-6.7,3.6-8.3c1.5-1.6,6.3-2.8,8.3-3.7C36.8,19.9,41.9,19.5,44.1,19.5z"/>
		<path fill="#7E5ACF" d="M44.1,19.6c4.6,0,14.4,1.9,17.4,4.9c1.5,1.5,2.8,6.1,3.6,8.2c0.8,2,1.3,6.9,1.3,9.2
			c0,4.6-1.9,14.3-4.9,17.4c-3,3-12.8,4.9-17.4,4.9c-2.3,0-7.3-0.5-9.3-1.3c-2.1-0.9-6.7-2.1-8.3-3.7c-3-3-4.8-12.7-4.8-17.3
			c0-2.3,0.4-7.2,1.3-9.1c0.8-2,2.1-6.6,3.6-8.2c1.5-1.6,6.2-2.8,8.3-3.7C36.9,20,41.9,19.6,44.1,19.6z"/>
		<path fill="#7F59CE" d="M44.2,19.7c4.7,0,14.2,1.9,17.3,4.9c1.6,1.6,2.8,6,3.7,8.1c0.8,2,1.3,6.8,1.3,9.1c0,4.7-1.9,14.1-4.9,17.2
			C58.4,62.1,48.8,64,44.2,64c-2.3,0-7.2-0.5-9.2-1.3c-2.1-0.9-6.6-2.1-8.2-3.7c-3-3.1-4.9-12.5-4.9-17.1c0-2.3,0.4-7.1,1.3-9
			c0.8-2.1,2.1-6.5,3.6-8.1c1.6-1.6,6.1-2.8,8.2-3.7C37,20.2,41.8,19.7,44.2,19.7z"/>
		<path fill="#8058CE" d="M44.2,19.8c4.7,0,14,1.9,17.1,5c1.6,1.6,2.8,5.9,3.7,8c0.8,2,1.3,6.7,1.3,9c0,4.7-1.9,13.9-5,17
			c-3.1,3.1-12.4,5-17.1,5c-2.3,0-7.1-0.5-9.1-1.3c-2.1-0.9-6.5-2.2-8.1-3.7c-3-3.1-4.9-12.3-4.9-17c0-2.3,0.5-7,1.3-9
			c0.8-2.1,2.1-6.4,3.6-8c1.6-1.6,6-2.9,8.1-3.7C37.1,20.3,41.8,19.8,44.2,19.8z"/>
		<path fill="#8157CE" d="M44.2,20c4.7,0,13.8,1.9,16.9,5c1.6,1.6,2.8,5.8,3.7,7.9c0.8,2,1.3,6.6,1.3,8.9c0,4.7-1.9,13.8-5,16.9
			s-12.2,5-16.9,5c-2.3,0-7-0.5-9-1.3c-2.1-0.9-6.4-2.2-8-3.8c-3.1-3.1-4.9-12.1-4.9-16.8c0-2.3,0.5-6.9,1.3-8.9
			c0.9-2.1,2.1-6.3,3.7-7.9c1.6-1.6,5.9-2.9,8-3.8C37.2,20.4,41.8,20,44.2,20z"/>
		<path fill="#8256CD" d="M44.2,20.1c4.8,0,13.6,1.9,16.7,5c1.6,1.6,2.9,5.7,3.7,7.8c0.8,2,1.3,6.5,1.3,8.8c0,4.8-1.9,13.6-5,16.7
			c-3.1,3.1-12,5-16.7,5c-2.4,0-6.9-0.5-8.9-1.3c-2.1-0.9-6.3-2.2-7.9-3.8c-3.1-3.1-5-11.9-5-16.6c0-2.3,0.5-6.8,1.3-8.8
			c0.9-2.1,2.1-6.2,3.7-7.8c1.6-1.6,5.8-2.9,7.9-3.8C37.3,20.6,41.8,20.1,44.2,20.1z"/>
		<path fill="#8355CD" d="M44.2,20.2c4.8,0,13.4,1.9,16.6,5.1c1.6,1.6,2.9,5.6,3.8,7.7c0.8,2,1.3,6.4,1.3,8.8
			c0,4.8-1.9,13.4-5.1,16.5S49,63.4,44.2,63.4c-2.4,0-6.8-0.5-8.8-1.3c-2.1-0.9-6.2-2.2-7.8-3.8c-3.1-3.1-5-11.7-5-16.4
			c0-2.3,0.5-6.7,1.3-8.7c0.9-2.1,2.1-6.1,3.7-7.7c1.6-1.6,5.7-2.9,7.8-3.8C37.4,20.7,41.8,20.2,44.2,20.2z"/>
		<path fill="#8454CD" d="M44.2,20.4c4.8,0,13.2,2,16.4,5.1c1.6,1.6,2.9,5.5,3.8,7.7c0.9,2.1,1.3,6.3,1.3,8.7c0,4.8-2,13.2-5.1,16.3
			c-3.2,3.2-11.6,5.1-16.4,5.1c-2.4,0-6.7-0.5-8.8-1.3c-2.1-0.9-6.1-2.2-7.7-3.8c-3.1-3.2-5-11.5-5-16.3c0-2.4,0.5-6.6,1.3-8.6
			c0.9-2.1,2.1-6,3.7-7.6c1.6-1.6,5.6-2.9,7.7-3.8C37.5,20.8,41.8,20.4,44.2,20.4z"/>
		<path fill="#8453CD" d="M44.2,20.5c4.9,0,13,2,16.2,5.1c1.6,1.6,2.9,5.4,3.8,7.6c0.9,2.1,1.3,6.2,1.3,8.6c0,4.9-2,13-5.1,16.2
			S49,63.1,44.2,63.1c-2.4,0-6.6-0.5-8.7-1.4c-2.2-0.9-6-2.2-7.6-3.9c-3.1-3.2-5.1-11.3-5.1-16.1c0-2.4,0.5-6.5,1.3-8.6
			c0.9-2.1,2.2-5.9,3.8-7.5c1.6-1.6,5.5-3,7.6-3.9C37.6,21,41.8,20.5,44.2,20.5z"/>
		<path fill="#8552CC" d="M44.2,20.6c4.9,0,12.9,2,16.1,5.2c1.6,1.6,2.9,5.3,3.8,7.5c0.9,2.1,1.3,6.1,1.3,8.5c0,4.9-2,12.8-5.2,16
			S49.1,63,44.2,63c-2.4,0-6.5-0.5-8.6-1.4c-2.2-0.9-5.9-2.2-7.5-3.9c-3.2-3.2-5.1-11.1-5.1-15.9c0-2.4,0.5-6.4,1.3-8.5
			c0.9-2.1,2.2-5.8,3.8-7.5c1.6-1.6,5.4-3,7.5-3.9C37.7,21.1,41.8,20.6,44.2,20.6z"/>
		<path fill="#8651CC" d="M44.2,20.8c4.9,0,12.7,2,15.9,5.2c1.6,1.6,3,5.2,3.9,7.4c0.9,2.1,1.4,6,1.4,8.4c0,4.9-2,12.6-5.2,15.8
			c-3.2,3.2-11,5.2-15.9,5.2c-2.4,0-6.4-0.5-8.5-1.4c-2.2-0.9-5.8-2.3-7.4-3.9c-3.2-3.2-5.1-10.9-5.1-15.8c0-2.4,0.5-6.3,1.3-8.4
			c0.9-2.2,2.2-5.7,3.8-7.4c1.6-1.7,5.3-3,7.4-3.9C37.8,21.2,41.7,20.8,44.2,20.8z"/>
		<path fill="#8750CC" d="M44.2,20.9c4.9,0,12.5,2,15.7,5.2c1.6,1.6,3,5.1,3.9,7.3c0.9,2.1,1.4,5.9,1.4,8.4c0,4.9-2,12.4-5.2,15.7
			s-10.8,5.2-15.7,5.2c-2.4,0-6.3-0.5-8.4-1.4c-2.2-0.9-5.7-2.3-7.4-3.9c-3.2-3.2-5.2-10.7-5.2-15.6c0-2.4,0.5-6.2,1.3-8.3
			c0.9-2.2,2.2-5.6,3.8-7.3c1.7-1.7,5.2-3,7.4-3.9C37.9,21.4,41.7,20.9,44.2,20.9z"/>
		<path fill="#884FCB" d="M44.2,21c5,0,12.3,2,15.5,5.3c1.7,1.7,3,5,3.9,7.2c0.9,2.1,1.4,5.8,1.4,8.3c0,5-2,12.2-5.3,15.5
			c-3.3,3.3-10.6,5.3-15.5,5.3c-2.5,0-6.2-0.5-8.3-1.4c-2.2-0.9-5.6-2.3-7.3-4c-3.2-3.3-5.2-10.5-5.2-15.4c0-2.4,0.5-6.1,1.3-8.2
			c0.9-2.2,2.2-5.5,3.9-7.2c1.7-1.7,5-3,7.3-4C38,21.5,41.7,21,44.2,21z"/>
		<path fill="#894ECB" d="M44.2,21.2c5,0,12.1,2,15.4,5.3c1.7,1.7,3,4.9,3.9,7.1c0.9,2.1,1.4,5.7,1.4,8.2c0,5-2,12-5.3,15.3
			s-10.3,5.3-15.4,5.3c-2.5,0-6.1-0.5-8.3-1.4c-2.2-0.9-5.5-2.3-7.2-4c-3.2-3.3-5.2-10.3-5.2-15.2c0-2.4,0.5-6,1.4-8.1
			c0.9-2.2,2.2-5.4,3.9-7.1c1.7-1.7,4.9-3.1,7.2-4C38.1,21.6,41.7,21.2,44.2,21.2z"/>
		<path fill="#894DCB" d="M44.2,21.3c5,0,11.9,2,15.2,5.3c1.7,1.7,3,4.8,4,7c0.9,2.2,1.4,5.6,1.4,8.1c0,5-2,11.8-5.3,15.1
			c-3.3,3.3-10.1,5.3-15.2,5.3c-2.5,0-6-0.5-8.2-1.4c-2.2-0.9-5.4-2.3-7.1-4c-3.3-3.3-5.3-10.1-5.3-15.1c0-2.5,0.5-5.9,1.4-8.1
			c0.9-2.2,2.2-5.3,3.9-7c1.7-1.7,4.8-3.1,7.1-4C38.2,21.8,41.7,21.3,44.2,21.3z"/>
		<path fill="#8A4CCA" d="M44.2,21.4c5.1,0,11.7,2.1,15,5.4c1.7,1.7,3.1,4.7,4,6.9c0.9,2.2,1.4,5.5,1.4,8c0,5.1-2.1,11.7-5.4,15
			c-3.3,3.3-9.9,5.4-15,5.4c-2.5,0-5.9-0.5-8.1-1.4c-2.3-0.9-5.3-2.3-7-4c-3.3-3.3-5.3-9.9-5.3-14.9c0-2.5,0.5-5.8,1.4-8
			c0.9-2.2,2.3-5.2,3.9-6.9c1.7-1.7,4.7-3.1,7-4C38.3,21.9,41.7,21.4,44.2,21.4z"/>
		<path fill="#8B4BCA" d="M44.2,21.5c5.1,0,11.5,2.1,14.8,5.4c1.7,1.7,3.1,4.6,4,6.9c0.9,2.2,1.4,5.4,1.4,7.9
			c0,5.1-2.1,11.5-5.4,14.8c-3.3,3.3-9.7,5.4-14.8,5.4c-2.5,0-5.8-0.5-8-1.4c-2.3-0.9-5.2-2.3-6.9-4.1C26,53.2,24,46.8,24,41.8
			c0-2.5,0.5-5.7,1.4-7.9c0.9-2.2,2.3-5.1,4-6.8c1.7-1.7,4.6-3.1,6.9-4.1C38.4,22.1,41.7,21.5,44.2,21.5z"/>
		<path fill="#8C4ACA" d="M44.2,21.7c5.1,0,11.3,2.1,14.7,5.4c1.7,1.7,3.1,4.5,4,6.8c0.9,2.2,1.4,5.3,1.4,7.9
			c0,5.1-2.1,11.3-5.4,14.6s-9.5,5.4-14.7,5.4c-2.5,0-5.7-0.5-7.9-1.4c-2.3-1-5.1-2.4-6.8-4.1c-3.3-3.4-5.4-9.5-5.4-14.6
			c0-2.5,0.5-5.6,1.4-7.8c0.9-2.3,2.3-5,4-6.7c1.7-1.7,4.5-3.1,6.8-4.1C38.5,22.2,41.7,21.7,44.2,21.7z"/>
		<path fill="#8D49CA" d="M44.2,21.8c5.2,0,11.1,2.1,14.5,5.5c1.7,1.7,3.1,4.4,4.1,6.7c0.9,2.2,1.4,5.2,1.4,7.8
			c0,5.2-2.1,11.1-5.5,14.5s-9.3,5.5-14.5,5.5c-2.6,0-5.6-0.5-7.8-1.4c-2.3-1-5-2.4-6.7-4.1c-3.3-3.4-5.4-9.3-5.4-14.4
			c0-2.5,0.5-5.5,1.4-7.7c0.9-2.3,2.3-4.9,4-6.7c1.7-1.7,4.4-3.1,6.7-4.1C38.6,22.3,41.7,21.8,44.2,21.8z"/>
		<path fill="#8E48C9" d="M44.2,21.9c5.2,0,10.9,2.1,14.3,5.5c1.7,1.7,3.1,4.3,4.1,6.6c0.9,2.2,1.4,5.1,1.4,7.7
			c0,5.2-2.1,10.9-5.5,14.3c-3.4,3.4-9.1,5.5-14.3,5.5c-2.6,0-5.5-0.5-7.8-1.4c-2.3-1-4.9-2.4-6.6-4.1c-3.4-3.4-5.4-9.1-5.4-14.2
			c0-2.5,0.5-5.4,1.4-7.6c0.9-2.3,2.3-4.8,4-6.6c1.7-1.8,4.3-3.2,6.6-4.1C38.7,22.5,41.6,21.9,44.2,21.9z"/>
		<path fill="#8E47C9" d="M44.2,22.1c5.2,0,10.7,2.1,14.1,5.5c1.7,1.7,3.1,4.2,4.1,6.5c0.9,2.2,1.4,5.1,1.4,7.6
			c0,5.2-2.1,10.7-5.5,14.1s-8.9,5.5-14.1,5.5c-2.6,0-5.4-0.5-7.7-1.5c-2.3-1-4.8-2.4-6.5-4.2c-3.4-3.4-5.5-8.9-5.5-14
			c0-2.5,0.5-5.3,1.4-7.6c0.9-2.3,2.3-4.7,4-6.5c1.7-1.8,4.2-3.2,6.5-4.2C38.8,22.6,41.6,22.1,44.2,22.1z"/>
		<path fill="#8F46C9" d="M44.2,22.2c5.3,0,10.5,2.1,14,5.6c1.8,1.8,3.2,4.1,4.1,6.4c0.9,2.2,1.4,5,1.4,7.5c0,5.3-2.1,10.5-5.6,14
			c-3.4,3.4-8.7,5.6-14,5.6c-2.6,0-5.3-0.5-7.6-1.5c-2.3-1-4.7-2.4-6.4-4.2c-3.4-3.4-5.5-8.7-5.5-13.9c0-2.6,0.5-5.3,1.4-7.5
			c1-2.3,2.3-4.6,4.1-6.4c1.8-1.8,4.1-3.2,6.4-4.2C38.9,22.7,41.6,22.2,44.2,22.2z"/>
		<path fill="#9045C8" d="M44.2,22.3c5.3,0,10.3,2.1,13.8,5.6c1.8,1.8,3.2,4,4.2,6.3c0.9,2.3,1.5,4.9,1.5,7.5
			c0,5.3-2.1,10.3-5.6,13.8c-3.5,3.5-8.5,5.6-13.8,5.6c-2.6,0-5.2-0.5-7.5-1.5c-2.4-1-4.6-2.4-6.4-4.2c-3.4-3.5-5.5-8.5-5.5-13.7
			c0-2.6,0.5-5.2,1.4-7.4c1-2.3,2.4-4.5,4.1-6.3c1.8-1.8,4-3.2,6.4-4.2C39,22.9,41.6,22.3,44.2,22.3z"/>
		<path fill="#9144C8" d="M63.5,41.7c0,5.3-2.2,10.1-5.6,13.6c-3.5,3.5-8.3,5.6-13.6,5.6C33.6,61,25,52.3,25,41.7
			s8.6-19.2,19.2-19.2c5.3,0,10.1,2.2,13.6,5.6C61.3,31.6,63.5,36.4,63.5,41.7z"/>
	</g>
</g>
<g>
	<path d="M17.1,84.3c-0.9,0-1.8-0.2-2.8-0.5c-1-0.3-1.9-0.8-2.8-1.3c-0.8-0.5-1.5-1.1-2.1-1.7c-1.1-1.2-1.8-2.6-2-4.1L5.8,56.2
		C5.5,55.6,5.2,55,5,54.6c-0.5-1.1-0.7-2.3-0.7-3.7c0-1.1,0.2-2.1,0.5-3.1c0,0,0-0.1,0-0.4c0-1.4,0-2.8-0.1-4
		c-0.1-0.6-0.1-1.3-0.2-2c-1-0.5-1.9-1.3-2.7-2.3c-1-1.3-1.5-2.9-1.5-4.9c0-1.7,0.4-3.2,1.3-4.5c0.5-0.8,1-1.4,1.5-2.1
		c0.3-0.4,0.6-0.8,0.9-1.2c0-0.4,0-0.9-0.1-1.7c-0.1-1-0.1-2.1-0.2-3.2c0-0.6-0.1-3-0.1-3c0-1-0.1-1.7-0.1-2.1v-0.4l0.4-1.8
		C4,13.7,4.2,13.3,4.4,13l0.2-0.4c0.3-0.8,0.8-1.6,1.4-2.2l0.2-0.2C6.8,9.6,7.7,9,8.7,8.7c0.8-0.2,1.6-0.4,2.7-0.4
		c2.5,0,4.5,0.6,6,1.8c0.5,0.4,1,0.9,1.4,1.4L22,8.7l0.9-0.3l0,0c2.8-1.8,5.8-3.3,8.9-4.3c3.2-1,6.6-1.5,10.1-1.5
		c1.2,0,2.5,0.1,4.1,0.4c1.7,0.3,3.3,0.7,4.8,1.4c1.7,0.8,3.1,1.8,4.3,3c1.6,1.7,2.4,3.8,2.4,6.2c0,1.7-0.2,3.5-0.6,5.4
		c-0.4,1.7-1,3.4-1.7,5.1c-0.7,1.7-1.5,3.3-2.5,4.8c-0.8,1.4-1.8,2.6-2.8,3.7c-0.8,1.1-2.5,2.8-7.7,6.8c-2.4,1.9-5.6,4.2-9.4,7.2
		L72.3,49l0.2,0c0.4,0,1.2,0.1,2.6,0.1c1.5,0,2.9,0.2,4.3,0.4c1.8,0.3,3.4,1,4.8,1.9c2,1.5,3.1,3.7,3.1,6.3c0,1.3-0.2,2.4-0.6,3.3
		c-0.4,1-0.9,1.7-1.5,2.3c-0.5,0.5-1,0.9-1.5,1.3l0,0l-3.3,1.6h-3.6l-0.4,0c-1.5-0.1-3-0.3-4.6-0.5c-1.6-0.2-3.3-0.5-5.3-0.8
		c-1.9-0.3-4.3-0.6-6.9-0.8c-2.7-0.3-5.9-0.5-9.5-0.7c-3.6-0.2-7.9-0.4-13-0.5c-4-0.1-8.4-0.2-13.2-0.2c0.1,1.2,0.3,2.4,0.5,3.6
		c0.5,2.8,0.8,5.7,0.8,8.5c0,0.7-0.1,1.5-0.2,2.3c-0.2,1.1-0.5,2.1-1,3c-0.5,1-1.2,1.9-2.1,2.6C20.2,83.7,18.7,84.3,17.1,84.3z
		 M21.6,31.8c0,0.9,0,1.7,0,2.5c0.5-0.4,1.1-0.8,1.8-1.2l9.9-6.8l0.2-0.2c0.1-0.1,0.7-0.5,1.6-1.6c0.9-1,1.7-2.2,2.4-3.4
		c0.3-0.5,0.6-1,0.9-1.6c-0.7,0.2-1.8,0.7-3.2,1.5c-1.7,1-3.8,2.4-6.2,4.2C26.8,27,24.4,29.1,21.6,31.8z"/>
	<path fill="#9144C8" d="M81.6,55.1c-0.9-0.6-1.9-1-3-1.2c-1.2-0.2-2.4-0.3-3.6-0.4c-1.2,0-2.2-0.1-2.9-0.2l-51.1-3.2
		c8.3-6.3,14.5-11.1,18.7-14.3c4.2-3.2,6.5-5.2,6.8-6c0.9-0.9,1.8-2,2.6-3.4c0.8-1.3,1.5-2.7,2.1-4.2c0.6-1.4,1.1-2.9,1.4-4.4
		c0.3-1.5,0.5-2.9,0.5-4.4c0-1.3-0.4-2.3-1.2-3.2c-0.8-0.9-1.8-1.5-3-2.1c-1.2-0.5-2.4-0.9-3.7-1.1c-1.3-0.2-2.4-0.3-3.4-0.3
		c-3.1,0-6,0.4-8.7,1.3c-2.8,0.9-5.4,2.1-7.9,3.8h-0.4l-7.7,6.7c-0.3-0.1-0.5-0.4-0.5-1.1c-0.1-0.6-0.3-1.3-0.5-2.1
		c-0.3-0.7-0.8-1.4-1.5-2c-0.7-0.6-1.8-0.9-3.3-0.9c-0.6,0-1,0.1-1.4,0.2c-0.4,0.1-0.6,0.3-0.9,0.5c-0.2,0.2-0.4,0.5-0.6,1
		c-0.2,0.4-0.4,1-0.7,1.6v0.4c0,0.3,0,1,0.1,2c0,1,0.1,2,0.1,3c0,1.1,0.1,2.1,0.2,3c0.1,1,0.1,1.6,0.1,2c0,0.9-0.2,1.6-0.6,2.2
		c-0.4,0.6-0.8,1.2-1.2,1.7C6,30.8,5.6,31.4,5.2,32c-0.4,0.6-0.6,1.3-0.6,2.2c0,0.9,0.2,1.6,0.6,2.1c0.4,0.5,0.8,0.9,1.3,1.1
		c0.5,0.3,1,0.4,1.4,0.6c0.4,0.1,0.7,0.3,0.7,0.5C8.8,40.1,9,41.6,9.1,43c0.1,1.4,0.2,2.8,0.2,4.4c0,0.6-0.1,1.2-0.3,1.8
		c-0.2,0.5-0.3,1.1-0.3,1.8c0,0.8,0.1,1.4,0.4,2c0.2,0.6,0.6,1.3,1,2.2l1.7,21.1c0.1,0.6,0.3,1.1,0.7,1.5c0.4,0.4,0.9,0.8,1.4,1.2
		c0.5,0.4,1.1,0.6,1.6,0.8c0.6,0.2,1.1,0.3,1.5,0.3c0.6,0,1.2-0.2,1.6-0.5c0.4-0.4,0.8-0.8,1.1-1.3c0.3-0.5,0.5-1.1,0.6-1.7
		c0.1-0.6,0.2-1.1,0.2-1.6c0-2.6-0.2-5.1-0.7-7.7c-0.5-2.6-0.7-5.2-0.7-7.9c0-0.1,0.1-0.3,0.2-0.5c0.1-0.2,0.2-0.3,0.3-0.3
		c6.6,0,12.4,0.1,17.4,0.2s9.4,0.3,13.1,0.5c3.8,0.2,7,0.5,9.7,0.7c2.7,0.3,5.1,0.6,7.1,0.9c2,0.3,3.8,0.5,5.3,0.8
		c1.5,0.2,3,0.4,4.4,0.5h3.6c0.3-0.3,0.6-0.6,0.9-0.9c0.3-0.2,0.6-0.4,0.9-0.7c0.3-0.3,0.5-0.6,0.6-1c0.2-0.4,0.3-0.9,0.3-1.5
		C82.9,56.6,82.4,55.7,81.6,55.1z M18.5,41.5c-0.3,0.1-0.5,0.2-0.5,0.2h-0.3c-0.1-1.8-0.3-3.6-0.3-5.1c-0.1-1.6-0.1-3.2-0.1-5v-1.7
		c3.5-3.3,6.5-6,9.1-8c2.6-2,4.8-3.5,6.7-4.6c1.9-1.1,3.5-1.8,4.8-2.1c1.4-0.3,2.6-0.5,3.6-0.5h1.8c0.7,0,1,0.4,1,1.1
		c0,0.9-0.3,2.1-0.9,3.5c-0.6,1.4-1.3,2.8-2.1,4.2c-0.9,1.4-1.8,2.7-2.8,3.9c-1,1.2-1.9,2.1-2.8,2.6c-4.3,2.9-7.6,5.2-9.9,6.8
		c-2.3,1.6-4.1,2.8-5.2,3.5C19.5,40.9,18.8,41.3,18.5,41.5z"/>
</g>
</svg>
